<svg width="40" height="40" fill="none" xmlns="http://www.w3.org/2000/svg"><g clip-path="url(#clip0_83_809)" fill="#120B3E"><path d="M19.44 40.015l-.577-.262C18.223 39.465 3.254 32.54 3.254 20V9.127c0-1.047.323-2.066.923-2.914A4.862 4.862 0 016.59 4.407L19.524.015l12.933 4.392c.97.327 1.815.959 2.414 1.806.6.848.922 1.867.923 2.914V20c0 14.295-15.112 19.592-15.756 19.812l-.599.203zm.084-36.505L7.62 7.553a1.617 1.617 0 00-.806.602 1.68 1.68 0 00-.307.972V20c0 9.157 10.478 15.097 13.092 16.435C22.21 35.36 32.54 30.438 32.54 20V9.127c0-.35-.107-.69-.307-.972a1.617 1.617 0 00-.806-.602L19.524 3.51z"/><path d="M18.077 24.237h-.053a2.985 2.985 0 01-1.194-.27 3.048 3.048 0 01-.995-.73l-3.751-4 2.344-2.304 3.651 3.9 8.43-8.635 2.3 2.357-8.56 8.768a3.044 3.044 0 01-.996.68 2.984 2.984 0 01-1.176.234z"/></g><defs><clipPath id="clip0_83_809"><path fill="#fff" d="M0 0h39.048v40H0z"/></clipPath></defs></svg>