<svg width="41" height="40" fill="none" xmlns="http://www.w3.org/2000/svg"><g clip-path="url(#clip0_78_813)"><path d="M12.167 20H20.5v3.333h-8.333V20zm16.666-6.667H12.167v3.334h16.666v-3.334zm0-6.666H12.167V10h16.666V6.667zm5 25.74V40L30.5 36.667 27.167 40v-7.593A6.645 6.645 0 0130.5 20a6.563 6.563 0 011.667.237V5A1.667 1.667 0 0030.5 3.333h-20A1.667 1.667 0 008.833 5v28.333h15v3.334H5.5V5a5 5 0 015-5h20a5 5 0 015 5v17.303a6.583 6.583 0 01-1.667 10.104zm0-5.74a3.334 3.334 0 10-6.667 0 3.334 3.334 0 006.667 0z" fill="#507BF5"/></g><defs><clipPath id="clip0_78_813"><path fill="#fff" transform="translate(.5)" d="M0 0h40v40H0z"/></clipPath></defs></svg>