<svg width="41" height="41" fill="none" xmlns="http://www.w3.org/2000/svg"><g clip-path="url(#clip0_62_945)"><path d="M30.701 14.43a4.167 4.167 0 11-8.333 0 4.167 4.167 0 018.334 0zm-.01 11.444a18.44 18.44 0 01-1.938 7.615 12.724 12.724 0 01-11.385 6.775h-1.666v-9.167a5.862 5.862 0 00-5.834-5.833H.702v-1.666a12.723 12.723 0 016.775-11.385 18.442 18.442 0 017.614-1.939A25.812 25.812 0 0135.656.264a5.015 5.015 0 015.047 5 25.844 25.844 0 01-10.01 20.61zM4.176 21.931h3.77a57.266 57.266 0 014.348-7.939c-1.15.268-2.265.671-3.321 1.2a9.197 9.197 0 00-4.797 6.739zm22.798 6.741a57.273 57.273 0 01-7.938 4.349v3.77a9.199 9.199 0 006.738-4.797c.53-1.056.933-2.17 1.2-3.322zM37.368 5.218a1.667 1.667 0 00-1.666-1.62c-8.6.245-14.417 3.54-20.03 11.37a49.863 49.863 0 00-4.119 7.119 9.166 9.166 0 017.334 7.333 49.87 49.87 0 007.118-4.118c7.823-5.62 11.118-11.437 11.363-20.084zM10.905 30.063a5.025 5.025 0 010 7.07c-1.512 1.51-6.037 2.441-7.913 2.773l-2.344.412.412-2.344c.333-1.877 1.263-6.401 2.773-7.913a5.122 5.122 0 017.072.002zm-1.87 3.534a1.655 1.655 0 00-.488-1.178 1.667 1.667 0 00-2.357 0 12.197 12.197 0 00-1.322 3.678 12.236 12.236 0 003.68-1.323 1.655 1.655 0 00.487-1.177z" fill="#507BF5"/></g><defs><clipPath id="clip0_62_945"><path fill="#fff" transform="translate(.702 .264)" d="M0 0h40v40H0z"/></clipPath></defs></svg>