<svg width="40" height="40" fill="none" xmlns="http://www.w3.org/2000/svg"><g clip-path="url(#clip0_77_809)"><path d="M33.333 6.667H25A6.667 6.667 0 0018.333 0H6.667A6.667 6.667 0 000 6.667v31.666a1.666 1.666 0 103.333 0V21.667h13.334a6.666 6.666 0 006.666 6.666h10A6.667 6.667 0 0040 21.667v-8.334a6.667 6.667 0 00-6.667-6.666zm-30 11.666V6.667a3.333 3.333 0 013.334-3.334h11.666a3.334 3.334 0 013.334 3.334V15a3.333 3.333 0 01-3.334 3.333h-15zm33.334 3.334A3.333 3.333 0 0133.333 25h-10A3.333 3.333 0 0120 21.667v-.237A6.667 6.667 0 0025 15v-5h8.333a3.334 3.334 0 013.334 3.333v8.334z" fill="#507BF5"/></g><defs><clipPath id="clip0_77_809"><path fill="#fff" d="M0 0h40v40H0z"/></clipPath></defs></svg>