<svg width="24" height="24" fill="none" xmlns="http://www.w3.org/2000/svg"><g clip-path="url(#clip0_79_819)" fill="#120B3E"><path d="M1.978 24c-.346-.134-.723-.218-1.03-.41a1.949 1.949 0 01-.91-1.537c-.07-.909-.057-1.812.263-2.683.454-1.236 1.274-2.151 2.439-2.753 1.415-.724 2.88-1.3 4.41-1.73.5-.14.718-.031.897.462.691 1.921 1.376 3.848 2.068 5.77.025.07.05.14.102.275l.282-1.39c.115-.589.243-1.178.345-1.767a.813.813 0 00-.025-.41c-.307-.941-.628-1.876-.928-2.824a.896.896 0 01-.007-.518c.09-.263.333-.32.596-.314h3.072c.506.013.73.326.57.82-.18.55-.365 1.094-.544 1.645-.115.346-.224.698-.352 1.044-.09.237-.096.46-.045.704.199.942.378 1.883.57 2.824.006.039.026.07.051.154.039-.103.07-.167.096-.23l2.055-5.725c.026-.07.051-.148.083-.218.135-.301.359-.43.679-.34.422.11.838.237 1.255.378 1.21.41 2.407.878 3.52 1.505 1.415.8 2.228 2.03 2.478 3.637.013.07.032.135.045.199v1.453c-.013.045-.032.084-.039.128-.09.551-.358 1-.787 1.358-.333.275-.73.397-1.14.487C15.345 24 8.662 24 1.979 24zM12.003 0c3.604 0 6.55 2.952 6.543 6.544-.007 3.612-2.939 6.538-6.543 6.538a6.551 6.551 0 01-6.542-6.544C5.46 2.946 8.405 0 12.003 0z"/></g><defs><clipPath id="clip0_79_819"><path fill="#fff" d="M0 0h24v24H0z"/></clipPath></defs></svg>