<svg width="24" height="25" fill="none" xmlns="http://www.w3.org/2000/svg"><path fill-rule="evenodd" clip-rule="evenodd" d="M10.445 2.631c-.804 0-1.489.559-1.68 1.312h6.459a1.744 1.744 0 00-1.681-1.312h-3.098zm6.604 1.313h2.377C21.947 3.944 24 6.02 24 8.574c0 0-.072 1.08-.096 2.584a.396.396 0 01-.155.306c-.577.427-1.106.78-1.154.803-1.993 1.337-4.309 2.278-6.776 2.746a.382.382 0 01-.4-.196 3.955 3.955 0 00-3.425-1.978 4.02 4.02 0 00-3.447 1.97.383.383 0 01-.399.193c-2.446-.47-4.762-1.409-6.743-2.722l-1.153-.802a.343.343 0 01-.156-.292C.06 10.566 0 8.573 0 8.573c0-2.552 2.053-4.63 4.574-4.63H6.94C7.168 2.183 8.644.809 10.445.809h3.098c1.8 0 3.277 1.374 3.506 3.136zm6.543 9.843l-.048.024c-2.425 1.628-5.343 2.71-8.405 3.16a.904.904 0 01-.984-.657 2.18 2.18 0 00-2.137-1.652h-.036a2.18 2.18 0 00-2.137 1.652.904.904 0 01-.985.656c-3.06-.45-5.979-1.53-8.404-3.16-.012-.011-.132-.084-.228-.023-.108.06-.108.206-.108.206l.084 6.198c0 2.552 2.041 4.617 4.562 4.617h14.456c2.52 0 4.562-2.066 4.562-4.617l.096-6.198s0-.146-.108-.206a.185.185 0 00-.18 0zm-10.847 4.08c0 .425-.33.76-.75.76a.754.754 0 01-.75-.76V16.56c0-.415.34-.76.75-.76.42 0 .75.345.75.76v1.307z" fill="#120B3E"/></svg>