<svg width="24" height="24" fill="none" xmlns="http://www.w3.org/2000/svg"><g clip-path="url(#clip0_56_864)" fill="#120B3E"><path d="M12 7.946A1.523 1.523 0 1012 4.9a1.523 1.523 0 000 3.046z"/><path d="M20 0H4a4.032 4.032 0 00-4 4.057v12.17a4.033 4.033 0 004 4.057h2.923l3.748 3.2a1.969 1.969 0 002.631.023l3.845-3.224H20a4.033 4.033 0 004-4.057V4.056a4.032 4.032 0 00-4-4.055zm-8 3.043c4.615.122 4.614 6.977 0 7.1-4.615-.123-4.614-6.975 0-7.1zm4.249 14.166a1 1 0 01-1.218-.73 3.17 3.17 0 00-6.063 0 1 1 0 11-1.936-.505 5.162 5.162 0 019.937 0c.14.54-.182 1.09-.72 1.235z"/></g><defs><clipPath id="clip0_56_864"><path fill="#fff" d="M0 0h24v24H0z"/></clipPath></defs></svg>