<svg width="332" height="52" fill="none" xmlns="http://www.w3.org/2000/svg"><path d="M33.44 20.343v4.48h-3.023v-1.918h-7.868v-9.8h3.248v7.238h3.108v-7.238h3.248v7.238h1.288zm9.037-1.274c0 .047-.014.294-.042.742h-5.32c.112.29.298.514.56.672.261.15.588.224.98.224.336 0 .616-.042.84-.126.233-.084.485-.228.756-.434l1.652 1.666c-.747.822-1.862 1.232-3.346 1.232-.924 0-1.736-.168-2.436-.504-.7-.345-1.242-.821-1.624-1.428a3.751 3.751 0 01-.574-2.044c0-.765.186-1.446.56-2.044a3.92 3.92 0 011.554-1.414c.662-.336 1.404-.504 2.226-.504.774 0 1.479.154 2.114.462.644.308 1.152.76 1.526 1.358.382.598.574 1.312.574 2.142zm-4.186-1.806c-.327 0-.598.089-.812.266-.215.178-.355.43-.42.756h2.464c-.066-.317-.206-.564-.42-.742-.215-.186-.486-.28-.812-.28zm5.323-2.016h3.15v2.688h2.156v-2.688h3.15v7.658h-3.15v-2.492h-2.156v2.492h-3.15v-7.658zm17.192 2.464h-2.338v5.194h-3.15v-5.194H52.98v-2.464h7.826v2.464zm6.02-2.604c.672 0 1.288.164 1.848.49.57.318 1.017.78 1.344 1.386.336.607.504 1.307.504 2.1 0 .794-.168 1.494-.504 2.1a3.495 3.495 0 01-1.344 1.386 3.684 3.684 0 01-1.848.476c-.85 0-1.498-.22-1.946-.658v3.234h-3.164V15.247h3.01v.63c.457-.513 1.157-.77 2.1-.77zm-.756 5.474c.364 0 .662-.13.896-.392.233-.261.35-.63.35-1.106 0-.476-.117-.844-.35-1.106a1.13 1.13 0 00-.896-.406 1.13 1.13 0 00-.896.406c-.234.262-.35.63-.35 1.106 0 .476.116.845.35 1.106.233.262.532.392.896.392zM30.08 35.767c.552.196.972.49 1.26.882.29.383.435.854.435 1.414 0 .878-.35 1.573-1.05 2.086-.69.504-1.67.756-2.94.756h-5.236v-9.8h4.97c1.213 0 2.151.224 2.814.672.672.448 1.008 1.078 1.008 1.89 0 .467-.112.878-.336 1.232a2.443 2.443 0 01-.924.868zm-4.283-.896h1.4c.541 0 .812-.238.812-.714 0-.494-.27-.742-.812-.742h-1.4v1.456zm1.834 3.724c.541 0 .812-.261.812-.784 0-.504-.27-.756-.812-.756h-1.834v1.54h1.834zm9.928-3.038c1.017 0 1.778.224 2.282.672.513.439.77 1.074.77 1.904 0 .868-.299 1.55-.896 2.044-.597.486-1.447.728-2.548.728h-4.34v-7.658h3.15v2.31h1.582zm3.514-2.31h3.15v7.658h-3.15v-7.658zm-4.228 5.53c.457 0 .686-.233.686-.7 0-.448-.229-.672-.686-.672h-.868v1.372h.868zm18.381-.35v3.99H52.3v-1.512h-4.228v1.512h-2.926v-3.99h.224c.448 0 .76-.21.938-.63.177-.43.28-1.045.308-1.848l.098-2.702h7.49v5.18h1.022zm-5.768-2.24c-.019.588-.06 1.055-.126 1.4a1.806 1.806 0 01-.35.84h2.072v-2.716h-1.582l-.014.476zm9.955-3.08c1.344 0 2.371.304 3.08.91.71.598 1.064 1.522 1.064 2.772v4.116h-2.94v-1.008c-.364.766-1.087 1.148-2.17 1.148-.606 0-1.124-.102-1.554-.308-.42-.214-.742-.5-.966-.854a2.352 2.352 0 01-.322-1.218c0-.756.29-1.33.868-1.722.579-.392 1.456-.588 2.632-.588h1.274c-.102-.597-.583-.896-1.442-.896-.345 0-.695.056-1.05.168a2.838 2.838 0 00-.91.434l-1.008-2.086c.439-.27.966-.48 1.582-.63a7.546 7.546 0 011.862-.238zm-.014 6.034c.224 0 .425-.06.602-.182.178-.121.308-.303.392-.546v-.532h-.784c-.644 0-.966.215-.966.644 0 .178.066.327.196.448.14.112.327.168.56.168zm13.232-5.894v7.658h-3.15v-2.59c-.448.262-1.036.392-1.764.392-1.111 0-1.937-.247-2.478-.742-.542-.504-.812-1.297-.812-2.38v-2.338h3.15v2.128c0 .383.07.649.21.798.149.15.378.224.686.224.373 0 .709-.07 1.008-.21v-2.94h3.15zm1.485 0h3.15v3.458l2.646-3.458h2.912v7.658h-3.15v-3.472l-2.632 3.472h-2.926v-7.658z" fill="#120B3E"/><circle cx="80.788" cy="19.361" r="3.544" fill="#120B3E"/><circle cx="93.788" cy="19.361" r="3.544" fill="#507BF5"/><circle cx="106.788" cy="19.361" r="3.544" fill="#9C4FFF"/><path d="M128.743 12.001c2.912 0 5.516.658 7.812 1.974 2.324 1.288 4.144 3.094 5.46 5.418 1.316 2.296 1.974 4.9 1.974 7.812s-.658 5.53-1.974 7.854c-1.316 2.296-3.136 4.102-5.46 5.418-2.296 1.288-4.9 1.932-7.812 1.932-2.604 0-4.956-.448-7.056-1.344-2.072-.896-3.808-2.198-5.208-3.906l4.326-4.032c2.072 2.324 4.606 3.486 7.602 3.486 2.156 0 3.976-.63 5.46-1.89 1.512-1.26 2.492-2.954 2.94-5.082h-11.928v-5.208h11.844c-.476-2.016-1.456-3.626-2.94-4.83-1.484-1.204-3.276-1.806-5.376-1.806-2.996 0-5.53 1.162-7.602 3.486l-4.326-4.032c1.4-1.708 3.136-3.01 5.208-3.906 2.1-.896 4.452-1.344 7.056-1.344zm51.402 24.36v11.76h-6.258v-6.216h-24.57v-29.4h6.762v23.856h13.104V12.505h6.762v23.856h4.2zm31.283-23.856v29.4h-6.762V18.05h-13.272v23.856h-6.762v-29.4h26.796z" fill="#9C4FFF"/><path d="M265.428 27.121c0 3.892-1.33 6.958-3.99 9.198-2.632 2.212-6.426 3.444-11.382 3.696v3.192h-6.258v-3.234c-4.984-.28-8.806-1.526-11.466-3.738-2.632-2.24-3.948-5.278-3.948-9.114 0-3.864 1.316-6.888 3.948-9.072 2.66-2.212 6.482-3.472 11.466-3.78v-3.024h6.258v2.982c4.956.28 8.75 1.54 11.382 3.78 2.66 2.24 3.99 5.278 3.99 9.114zm-15.372 7.56c2.968-.28 5.18-1.036 6.636-2.268 1.456-1.26 2.184-3.038 2.184-5.334 0-4.48-2.94-6.972-8.82-7.476v15.078zm-15.078-7.56c0 4.424 2.94 6.944 8.82 7.56V19.603c-2.996.28-5.222 1.036-6.678 2.268-1.428 1.204-2.142 2.954-2.142 5.25zm62.504-14.616v29.4h-6.804V29.851h-13.356v12.054h-6.804v-29.4h6.804v11.592h13.356V12.505h6.804zm21.269 29.904c-2.996 0-5.712-.644-8.148-1.932-2.408-1.316-4.312-3.122-5.712-5.418-1.372-2.324-2.058-4.942-2.058-7.854s.686-5.516 2.058-7.812c1.4-2.324 3.304-4.13 5.712-5.418 2.436-1.316 5.166-1.974 8.19-1.974 2.548 0 4.844.448 6.888 1.344 2.072.896 3.808 2.184 5.208 3.864l-4.368 4.032c-1.988-2.296-4.452-3.444-7.392-3.444-1.82 0-3.444.406-4.872 1.218a8.509 8.509 0 00-3.36 3.318c-.784 1.428-1.176 3.052-1.176 4.872 0 1.82.392 3.444 1.176 4.872a8.803 8.803 0 003.36 3.36c1.428.784 3.052 1.176 4.872 1.176 2.94 0 5.404-1.162 7.392-3.486l4.368 4.032c-1.4 1.708-3.136 3.01-5.208 3.906-2.072.896-4.382 1.344-6.93 1.344z" fill="#507BF5"/></svg>