<svg width="25" height="25" fill="none" xmlns="http://www.w3.org/2000/svg"><g clip-path="url(#clip0_56_858)" fill="#507BF5"><path d="M12.498 21.61a7.008 7.008 0 01-7-7v-9c0-.2.013-.4.03-.593a5.006 5.006 0 00-3.03 4.592v10a5.006 5.006 0 005 5h6a5.006 5.006 0 004.592-3.03c-.2.017-.392.03-.592.03h-5zm9.155-17.729l-2.284-2.359a3 3 0 00-.871-.613v3.7h3.66a2.986 2.986 0 00-.505-.728z"/><path d="M17.498 4.61a1 1 0 001 1h3.966a2.981 2.981 0 00-.811-1.729l-2.284-2.359a3.011 3.011 0 00-1.871-.884V4.61z"/><path d="M15.498 4.61v-4h-3a5.006 5.006 0 00-5 5v9a5.006 5.006 0 005 5h5a5.006 5.006 0 005-5v-7h-4a3 3 0 01-3-3z"/></g><defs><clipPath id="clip0_56_858"><path fill="#fff" transform="translate(.498 .61)" d="M0 0h24v24H0z"/></clipPath></defs></svg>