<svg width="254" height="219" fill="none" xmlns="http://www.w3.org/2000/svg"><path opacity=".027" d="M6.974 171.941c29.946-17.036 50.029-38.914 57.38-62.764l.36-.179c41.242-4.304 191.865 55.77 184.155 105.981l-1.076.717C161.005 220 93.045 214.62 25.085 181.983l-19.366-9.504 1.255-.538z" fill="#000"/><path opacity=".055" d="M11.457 171.582c29.049-16.498 48.594-37.837 55.767-60.791l.358-.179c39.987-4.125 186.308 54.156 178.956 102.753l-1.076.717c-84.278 4.304-150.265-1.076-216.253-32.816l-18.828-8.967 1.076-.717z" fill="#000"/><path opacity=".082" d="M15.94 171.223c28.152-15.959 47.16-36.582 54.153-58.998l.358-.179c38.732-4.124 180.749 52.542 173.576 99.705l-1.075.538c-81.768 4.124-145.783-1.076-209.798-31.741l-18.11-8.787.896-.538z" fill="#000"/><path opacity=".109" d="M20.423 170.865c27.256-15.422 45.725-35.507 52.36-57.205l.358-.179c37.656-3.946 175.19 50.928 168.197 96.656l-1.076.538c-79.257 3.945-141.3-1.076-203.342-30.844l-17.573-8.428 1.076-.538z" fill="#000"/><path d="M1.236 100.39c30.842-17.395 52.54-30.127 60.25-54.515l.358-.18c42.318-4.482 81.409-16.318 111.713-34.071l1.076-.717 16.497 11.476c58.277 40.349 67.96 80.697 60.07 132.343l-1.255 2.151c-89.299 4.484-159.231-1.075-229.164-34.789L.878 112.584V100.39h.358z" fill="url(#paint0_linear_131_817)"/><path d="M1.236 100.39c30.842-17.395 52.54-30.127 60.25-54.515l.358-.18c42.318-4.482 81.409-16.318 111.713-34.071l1.076-.717 16.497 11.476c58.277 40.349 67.96 80.697 60.07 132.343l-1.255 2.151c-89.299 4.484-159.231-1.075-229.164-34.789L.878 112.584V100.39h.358z" fill="url(#paint1_linear_131_817)"/><path d="M2.491 99.852c30.842-17.395 51.464-39.99 58.995-64.557l.358-.18c42.318-4.483 81.409-16.318 111.713-34.071l1.076-.718 16.497 11.477c58.277 40.348 67.96 80.697 60.07 132.342l-1.255.718c-89.299 4.483-159.231-1.076-229.164-34.789L.878 100.569l1.613-.717z" fill="#120B3E"/><path d="M2.491 189.694c-.358.179-.896.538-1.255.717l1.255-.717z" fill="url(#paint2_linear_131_817)"/><path opacity=".2" d="M2.491 135.179c-.358.179-.896.538-1.255.717l1.255-.717z" fill="url(#paint3_linear_131_817)"/><path d="M201.171 143.069c-73.339 0-126.775-10.759-178.776-35.685L7.691 100.39c28.87-17.215 48.057-38.555 56.126-62.226 42.139-4.662 80.333-16.319 110.816-34.072l14.883 10.401c58.098 40.169 65.988 80.159 59.174 127.501-17.394.717-32.815 1.075-47.519 1.075z" fill="#120B3E"/><path d="M201.171 135.538c-72.084 0-124.623-10.401-175.548-34.969l-2.51-1.255c22.414-15.601 38.014-34.072 46.083-54.336 39.449-4.841 75.491-15.78 104.899-32.099l11.117 7.711c52.539 36.403 61.684 71.013 56.843 114.051-14.704.538-28.152.897-40.884.897z" fill="#fff"/><path d="M151.018 123.882c-2.152 0-4.304-1.614-5.738-4.304-3.048-5.739-6.097-11.836-6.814-18.291-.359-3.587 0-6.994 1.255-10.043-1.076-1.434-2.152-2.69-3.227-3.945l-5.38-5.918c-3.048-3.407-6.276-6.993-9.145-10.58.359 4.125.179 7.89-.538 11.298-1.793 7.89-6.455 14.704-13.448 19.188l-.897-1.435c6.635-4.124 11.118-10.58 12.731-17.933.897-4.124.897-8.607.18-13.808-3.407-4.662-6.276-9.504-8.069-14.884-.18-.358 0-.717.179-.896.179-.18.538-.359.896-.18 5.201 1.256 6.635 6.635 7.173 8.429.717 2.33 1.076 4.662 1.434 6.814 3.228 4.483 7.173 8.608 10.939 12.911l5.379 5.918 2.69 3.228c1.255-2.51 3.048-4.662 5.379-6.276l1.614-1.076c1.614-1.255 3.228-2.332 4.124-3.587.18-.717.18-1.614.538-2.331.18-.359.359-.717.897-.717.358 0 .717.358.896.717.18 1.076 0 1.973-.538 2.87-.358 2.868.359 5.738 1.973 8.427.896-4.303 1.614-8.786.538-13.09-1.076-4.125-5.021-9.325-12.014-10.76-.538 0-.718-.538-.718-1.076s.538-.896 1.076-.717l21.159 3.228c.359 0 .538.18.718.538.179.18.179.538 0 .717-3.766 8.608-3.407 17.215.538 24.926 2.689 1.256 6.634 1.435 10.221.359a54.38 54.38 0 011.075-7.532c.359-1.614 1.076-3.407 2.869-4.483 1.256-.717 2.869-.896 4.483-1.255 1.076-.18 1.973-.18 2.869-.538.18 0 .359-.18.538-.18-.179-3.944-.358-8.069-.538-12.014 0-.18 0-.538.359-.718.179-.179.538-.179.717-.179l4.124.538c.359 0 .538.18.718.538.538 1.076.717 2.331.896 3.407 1.076-3.227 1.255-5.38 1.255-7.71.18-3.05.359-6.098 2.69-11.298l1.614.717c-2.331 4.663-2.331 7.532-2.51 10.58-.18 3.049-.359 6.097-2.69 11.298-.179.358-.359.897-.538 1.255-.538 2.87-1.972 5.739-4.124 8.787.179 6.276.179 12.553.179 18.829 0 2.152 0 4.663-1.255 7.173-1.435 2.69-4.124 4.483-7.173 4.663a.987.987 0 01-.896-.538c-3.228-6.097-4.842-12.912-4.662-19.547-3.945 1.076-8.07.897-11.297-.717a.386.386 0 01-.359-.359c-4.303-8.07-4.841-16.856-1.255-25.823l-12.911-1.972c3.228 2.152 5.559 5.38 6.635 9.145 1.434 5.38.179 10.94-.897 15.96 0 .36-.358.538-.717.718-.359 0-.717 0-.896-.359-1.973-2.69-3.228-5.918-3.407-8.966-.897.896-1.973 1.614-2.869 2.331-.538.359-1.076.717-1.435 1.076-2.331 1.793-3.945 3.945-5.2 6.456 6.814 8.787 13.448 20.443 10.579 32.278 0 .359-.358.538-.717.718h-1.255zm-10.042-30.844c-.896 2.51-1.075 5.2-.717 8.069.717 6.097 3.766 12.015 6.635 17.753.717 1.256 1.972 3.228 3.945 3.408 2.151-10.581-3.587-21.161-9.863-29.23zm37.298-.18c-.18 6.456 1.255 12.732 4.303 18.65 2.69-.359 4.483-2.152 5.2-3.586 1.076-1.973 1.076-4.304 1.076-6.277 0-5.559 0-11.118-.179-16.677a5.466 5.466 0 01-1.435 1.435c-2.869 3.227-5.738 5.2-8.965 6.455zm10.221-13.27a10.154 10.154 0 01-3.228.538c-1.435.18-2.869.359-3.766.897-1.076.717-1.613 1.793-1.972 3.407a40.385 40.385 0 00-1.076 6.456c2.69-1.076 5.021-2.87 7.531-5.56.717-.717 1.614-1.793 2.69-3.048-.179-.897-.179-1.793-.179-2.69zm1.793-.717v.897c.179-.36.538-.897.717-1.256-.179 0-.538.18-.717.359zm-.538-12.194c.179 3.407.358 6.635.538 10.042 1.076-.897 1.793-1.973 2.51-3.228.359-2.152.359-4.304-.538-6.456l-2.51-.358zm-75.491-12.194c1.255 3.228 2.869 6.276 4.841 9.325-.179-.897-.359-1.794-.717-2.87-.897-3.227-2.152-5.38-4.124-6.455z" fill="#4916A1"/><defs><linearGradient id="paint0_linear_131_817" x1="236.892" y1="84.618" x2="1.636" y2="84.618" gradientUnits="userSpaceOnUse"><stop stop-color="#CF7E72"/><stop offset=".136" stop-color="#F7AA90"/><stop offset=".204" stop-color="#F9B996"/><stop offset=".334" stop-color="#FCD09F"/><stop offset=".457" stop-color="#FDDDA4"/><stop offset=".566" stop-color="#FEE2A6"/><stop offset=".667" stop-color="#FAC199"/><stop offset=".764" stop-color="#F7A98F"/><stop offset=".854" stop-color="#F59A89"/><stop offset=".929" stop-color="#F49587"/><stop offset="1" stop-color="#CC7D71"/></linearGradient><linearGradient id="paint1_linear_131_817" x1="128.477" y1="119.142" x2="113.387" y2="178.475" gradientUnits="userSpaceOnUse"><stop stop-color="#fff"/><stop offset="1" stop-color="#A3653D"/></linearGradient><linearGradient id="paint2_linear_131_817" x1="1.8" y1="190.336" x2="1.702" y2="190.722" gradientUnits="userSpaceOnUse"><stop stop-color="#fff"/><stop offset="1" stop-color="#A3653D"/></linearGradient><linearGradient id="paint3_linear_131_817" x1="1.802" y1="135.832" x2="1.703" y2="136.219" gradientUnits="userSpaceOnUse"><stop stop-color="#FEE2A6"/><stop offset=".466" stop-color="#F9BA96"/><stop offset=".631" stop-color="#F7AA90"/><stop offset=".633" stop-color="#F7A990"/><stop offset=".692" stop-color="#F59E8B"/><stop offset=".773" stop-color="#F49788"/><stop offset="1" stop-color="#F49587"/></linearGradient></defs></svg>