<svg width="583" height="352" fill="none" xmlns="http://www.w3.org/2000/svg"><g opacity=".2" fill="#000"><path opacity=".091" d="M195.594 10.966c10.041-5.739 22.593-8.787 35.145-8.787 5.021 0 9.863.717 14.345 1.793 4.842 1.076 10.401 3.407 14.346 5.739l306.089 176.635c10.579 6.097 15.959 15.781 15.421 26.182-.18 2.869-.897 5.738-1.793 8.428-2.69 7.532-10.221 15.422-18.828 20.443l-171.963 99.167c-2.151 1.255-5.02 2.69-7.531 3.766-8.248 3.407-17.573 5.38-27.076 5.38-10.938 0-20.801-2.332-28.69-6.815L17.893 165.544c-10.58-6.097-15.958-15.78-15.241-26.181.18-2.511.717-4.842 1.434-7.352 2.51-7.891 10.221-16.319 19.366-21.699l172.142-99.346z"/><path opacity=".182" d="M196.49 12.221c10.042-5.738 22.594-8.787 34.967-8.428 5.02.18 9.862.896 14.345 1.972 4.303 1.076 10.759 3.766 14.165 5.918l304.834 176.098c10.401 6.097 15.421 15.601 14.166 25.823-.358 2.689-1.255 5.379-2.331 8.069-2.69 6.635-11.297 15.064-19.007 19.547l-169.452 97.732c-1.972 1.076-5.2 2.869-7.352 3.766-8.069 3.407-17.393 5.38-26.718 5.559-10.758.179-20.621-2.152-28.152-6.635L18.611 164.289C8.03 158.192 3.19 148.508 4.624 138.287c.359-2.331 1.076-4.663 1.793-6.994 2.51-6.994 11.476-16.139 19.725-20.802l170.348-98.27z"/><path opacity=".273" d="M197.208 13.656c9.862-5.739 22.593-8.608 34.966-8.25 5.021.18 9.862 1.077 14.166 2.332 3.765 1.076 10.938 4.304 13.986 6.097l303.758 175.201c10.4 6.097 14.883 15.601 12.911 25.464-.538 2.69-1.614 5.021-2.69 7.711-2.51 5.918-12.373 14.705-19.366 18.829l-166.941 96.298c-1.793 1.076-5.38 2.869-7.352 3.766-7.89 3.407-17.035 5.38-26.18 5.559-10.58.179-20.263-1.973-27.794-6.276L19.507 162.854c-10.58-6.097-14.883-15.601-12.731-25.643.538-2.331 1.435-4.304 2.331-6.635 2.331-6.276 12.731-15.781 20.083-19.905l168.018-97.015z"/><path opacity=".364" d="M197.925 14.911c9.862-5.738 22.593-8.608 34.787-7.89 5.021.179 9.683 1.255 13.986 2.51 3.407.897 11.118 4.663 13.987 6.277L563.188 190.47c10.4 5.917 14.165 15.422 11.655 25.105-.717 2.511-1.972 4.842-3.048 7.352-2.331 5.022-13.449 14.526-19.546 17.933l-164.431 94.863c-1.613.897-5.379 2.869-7.172 3.587-7.89 3.407-16.676 5.559-25.821 5.738-10.401.179-20.084-1.793-27.435-6.097L20.225 161.599c-10.4-6.097-14.166-15.601-11.297-25.464.538-2.152 1.793-4.125 2.69-6.276 2.33-5.38 13.986-15.422 20.262-19.009l166.045-95.939z"/><path opacity=".455" d="M198.821 16.346c9.863-5.739 22.773-8.429 34.787-7.711 5.021.358 9.683 1.434 13.987 2.69 2.869.896 11.476 5.02 13.807 6.276l301.427 173.945c10.4 5.918 13.628 15.422 10.4 24.747-.896 2.332-2.331 4.483-3.586 6.815-2.152 4.304-14.525 14.166-19.725 17.036l-161.92 93.428c-1.255.717-5.559 3.049-6.993 3.587-7.711 3.407-16.497 5.559-25.284 5.917-10.221.359-19.724-1.793-27.076-5.917L20.942 160.165c-10.4-6.098-13.628-15.602-10.042-25.106.717-1.973 2.152-3.766 3.049-5.918 2.151-4.483 15.241-15.063 20.62-18.291l164.252-94.504z"/><path opacity=".545" d="M199.539 17.6c9.862-5.738 22.773-8.248 34.607-7.53 5.021.358 9.683 1.793 13.807 3.048 2.332.717 11.656 5.38 13.628 6.455l300.172 173.408c10.221 5.918 13.09 15.243 9.145 24.568-.896 2.152-2.331 4.483-3.945 6.455-1.255 3.766-15.6 13.809-19.904 16.319l-159.41 91.994c-1.076.717-5.738 3.049-6.814 3.586-7.531 3.408-16.138 5.56-24.924 5.918-10.042.359-19.546-1.614-26.718-5.738L21.838 158.909c-10.4-6.097-13.09-15.601-8.786-24.747a25.781 25.781 0 013.407-5.559c1.076-3.945 16.497-14.704 20.98-17.394l162.1-93.608z"/><path opacity=".636" d="M200.256 18.856c9.862-5.738 22.773-8.249 34.608-7.173 5.02.359 9.503 1.973 13.627 3.228 1.973.538 11.835 5.738 13.449 6.635l299.096 172.87c10.221 5.917 12.552 15.242 7.89 24.209-1.076 2.152-2.511 4.124-4.483 6.097-.897 3.048-16.676 13.449-20.083 15.422l-157.08 90.559c-.896.538-5.738 3.228-6.813 3.587-7.352 3.407-15.78 5.738-24.387 6.097-9.862.358-19.187-1.435-26.18-5.38L22.556 157.654c-10.4-5.918-12.552-15.601-7.352-24.568 1.076-1.793 2.33-3.586 3.945-5.2.896-3.228 17.752-14.346 21.338-16.498l159.769-92.532z"/><path opacity=".727" d="M200.973 20.29c9.862-5.738 22.773-8.069 34.428-6.993 5.021.538 9.504 2.152 13.628 3.407 1.435.538 12.194 6.277 13.27 6.815l297.84 171.973c10.221 5.917 12.194 15.242 6.456 23.85a28.39 28.39 0 01-4.842 5.738c-.717 2.332-17.752 13.091-20.442 14.705l-154.569 89.304c-.717.359-5.917 3.228-6.634 3.587-7.173 3.407-15.6 5.738-24.028 6.276-9.683.538-19.007-1.255-25.821-5.2L23.273 156.219c-10.4-5.917-12.194-15.601-6.097-24.209 1.255-1.613 2.51-3.407 4.304-5.021.717-2.331 19.007-14.166 21.697-15.601l157.796-91.097z"/><path opacity=".818" d="M201.87 21.546c9.683-5.56 22.773-7.89 34.249-6.635 5.02.538 9.324 2.331 13.448 3.766.897.358 12.373 6.635 13.09 6.994l296.765 171.255c10.042 5.918 11.655 15.064 5.2 23.492-1.434 1.793-3.048 3.586-5.2 5.38-.538 1.434-18.828 12.732-20.621 13.808l-152.059 87.869c-.358.179-6.096 3.407-6.455 3.587-6.993 3.407-15.242 5.917-23.49 6.276-9.504.538-18.649-1.076-25.463-5.021L23.99 154.964c-10.4-5.918-11.655-15.601-4.662-24.03 1.255-1.613 2.869-3.227 4.662-4.662.359-1.614 20.263-13.808 22.056-14.884L201.87 21.546z"/><path opacity=".909" d="M202.587 22.98c9.683-5.558 22.952-7.89 34.249-6.455 5.021.538 9.324 2.51 13.269 3.945.538.18 12.552 6.994 13.09 7.173l295.51 170.718c10.041 5.738 11.117 15.063 3.945 23.133-1.614 1.793-3.407 3.407-5.738 4.842-.18.717-19.904 12.552-20.801 12.911l-149.548 86.435c-.179.179-6.096 3.407-6.276 3.586-6.993 3.408-14.883 5.918-23.131 6.456-9.325.538-18.47-1.076-25.104-4.842L24.887 153.529c-10.4-5.917-11.297-15.601-3.407-23.67a41.526 41.526 0 015.02-4.304c.18-.718 21.518-13.45 22.415-13.988l153.672-88.586z"/><path d="M332.769 329.627L25.604 152.274c-12.193-6.993-10.58-19.187 3.407-27.257L203.304 24.415c13.987-8.07 35.146-8.966 47.339-1.972l307.165 177.353c12.194 6.993 10.58 19.187-3.407 27.257L380.108 327.655c-13.987 8.069-35.146 8.966-47.339 1.972z"/></g><path d="M332.769 329.448L25.604 151.916c-5.38-3.049-8.07-7.353-8.248-11.657v-15.242c.179-5.38 3.944 3.945 11.655-.538L203.304 24.057c13.987-8.07 35.146-8.967 47.339-1.973l307.165 177.353c4.124 2.331 6.993-7.532 8.069-4.483.359 1.076.18 15.063.18 16.139.179 5.38-3.766 11.118-11.656 15.781L380.108 327.475c-13.987 8.07-35.146 8.966-47.339 1.973z" fill="url(#paint0_linear_131_818)"/><path d="M332.769 314.384L25.604 137.032c-12.193-6.994-10.58-19.188 3.407-27.258L203.304 9.173C217.291 1.103 238.45.206 250.643 7.2l307.165 177.353c12.194 6.994 10.58 19.188-3.407 27.257L380.108 312.412c-13.987 8.07-35.146 8.966-47.339 1.972z" fill="url(#paint1_linear_131_818)"/><path d="M353.39 312.95c-6.993 0-13.09-1.435-17.573-3.945L28.652 131.652c-1.972-1.076-5.2-3.407-5.2-6.635 0-3.228 3.228-6.994 8.607-10.222L206.353 14.194c6.455-3.766 15.062-5.918 23.669-5.918 6.993 0 13.09 1.435 17.573 3.945L554.76 189.574c1.972 1.076 5.2 3.407 5.2 6.635 0 3.228-3.228 6.994-8.607 10.222L377.06 307.211c-6.456 3.587-15.063 5.739-23.67 5.739z" fill="url(#paint2_linear_131_818)"/><path d="M554.581 209.3L380.287 309.901c-13.986 8.07-35.145 8.967-47.339 1.973L25.604 134.521c-5.02-2.869-7.71-6.635-8.07-10.76-.716 5.022 1.973 9.863 8.07 13.271l307.165 177.352c12.193 6.994 33.352 6.097 47.339-1.972L554.401 211.81c8.249-4.662 12.014-10.939 11.476-16.498-.538 4.842-4.303 9.863-11.296 13.988z" fill="#fff"/><path opacity=".8" d="M322.189 282.285L59.136 130.576c-8.07-4.663-7.173-12.912 2.33-18.291l152.776-88.228c9.325-5.38 23.67-6.098 31.739-1.256l262.874 151.71c8.07 4.662 7.173 12.911-2.331 18.291L353.749 281.03c-9.325 5.38-23.49 5.918-31.56 1.255z" fill="url(#paint3_linear_131_818)"/><path d="M140.075 128.693c.313 0 .783 0 1.254-.156.47-.157.94-.157 1.411-.47a7.308 7.308 0 001.567-.784c.784-.47 1.255-.783 1.568-1.253l.157.156 2.351-1.41-1.724-1.097c0-.157 0-.313.157-.47l.47-.47c.157-.157.314-.157.627-.157.157 0 .314 0 .47.157l1.725 1.097 2.351-1.411-1.724-1.097c0-.156 0-.313.157-.47l.47-.47c.157-.157.314-.157.627-.157.157 0 .314 0 .47.157l1.725 1.097 2.351-1.41-2.038-1.097c-.156 0-.313-.157-.47-.157h-.627c-.314 0-.47 0-.941.157a7.627 7.627 0 01-1.097.47c-.47.313-.941.627-1.254.94-.314.314-.47.47-.47.784h-.471c-.157 0-.313 0-.47.156-.157 0-.47.157-.627.157-.157.157-.47.157-.784.314-.47.313-.941.626-1.254.94-.314.313-.47.47-.47.783l-.471-.313-2.038 1.253.157.157c-.157 0-.314 0-.47.157-.471.157-1.098.47-1.725.783-.47.314-.94.627-1.254.941h-.157s-.156 0-.313.156c-.471.157-.627.47-.941.784-.157.313-.313.47-.313.783l-.627-.626-2.195 1.253.157.157c-.157 0-.314 0-.471.157-.47.156-1.097.47-1.724.783-.627.313-1.098.627-1.411.94l-.784.784c.157.313 0 .47.157.627 0 .156.157.313.47.47 0 .156.314.313.627.313l-2.038 1.097-3.292-1.88-2.352 1.41 4.39 2.507 6.271-3.604c.47-.157.94-.47 1.567-.783.628-.314 1.098-.627 1.411-.941l.314-.313.157.157 2.351-1.411-1.724-.94c.313.157.47.157.784.313zm5.016-3.134l-.627.314c0 .157 0 .157-.157.47a2.146 2.146 0 01-.627.47c-.313.157-.627.313-.784.313-.313.157-.627.157-.783 0l2.821-1.723.157.156zm-3.919.784c.157-.157.314-.313.627-.47.314-.157.627-.314.784-.314h.784l-2.038 1.254c-.157-.157-.157-.313-.157-.47zm-4.86 4.231l-.627.627c-.313.156-.627.313-.941.313h-.94c-.157-.157-.314-.313-.157-.47l.627-.627c.314-.157.627-.313.941-.313.313 0 .627 0 .784.156.313 0 .47.157.313.314zm23.202-16.141l-.941-.626-2.351 1.41.94.627 2.352-1.411zM157.476 116l3.135 1.881 1.098-.627 1.254.784 2.351-1.411-1.724-1.097c.314 0 .784-.156 1.254-.156.47-.157.941-.314 1.411-.627.47-.157.784-.47.941-.627l.313-.313c.314-.157.471-.157.784-.314.627-.313 1.254-.627 1.725-.94.47-.313.783-.47 1.097-.627l.47-.47c.471-.157.941-.313 1.411-.627.47-.313.941-.627 1.254-.94.314-.313.471-.627.627-.94h.157c.47.157 1.098-.157 1.881-.47.314-.157.627-.314.941-.627l.784-.47-1.881-.94c0-.157 0-.314.156-.471l.471-.47c.156-.156.313-.156.627-.156.157 0 .313 0 .47.156l1.725 1.097 2.351-1.41-1.724-1.097c0-.157 0-.313.156-.47l.471-.47c.156-.157.313-.157.627-.157.157 0 .313 0 .47.157l1.725 1.097 2.351-1.411-2.038-1.253c-.157 0-.313-.157-.47-.157h-.627c-.314 0-.471 0-.941.157-.313.156-.784.313-1.097.47-.471.313-.941.627-1.254.94-.314.314-.471.47-.471.784h-.47c-.157 0-.314 0-.47.156-.157 0-.471.157-.627.157-.157.157-.471.157-.784.313-.471.314-.941.627-1.254.941-.314.313-.471.47-.471.783l-.47-.313-2.038 1.097-1.254.783 2.038 1.097c0 .157-.157.314-.314.47-.157.157-.313.314-.47.314-.157.156-.47.156-.627.156-.157 0-.314 0-.47-.156l-1.882-1.097-2.351 1.41c-.471.157-.941.47-1.254.627-.314.157-.784.47-.941.627-.314.156-.47.47-.627.627-.314 0-.47.156-.784.156-.47.157-.941.314-1.254.627-.47.313-.784.47-1.097.784-.314.313-.314.47-.471.783l-.47-.313-2.038 1.097-1.411 1.096zm11.914-4.23c.157 0 0 .156-.313.313a7.677 7.677 0 01-1.097.47c-.157 0-.157 0-.314.157 0-.157-.157-.157-.157-.314.157-.156.471-.156.784-.313.47-.157.784-.313.941-.313h.156zm-2.508-.314s.157-.157.314-.157c.313-.156.47-.313.784-.313.156 0 .313-.157.627-.157l.313.157c-.157 0-.47.157-.784.157-.47.156-.784.313-.94.313-.157.157-.314.157-.314 0-.157.157-.157 0 0 0zm-3.919 2.507c.313-.156.784-.313 1.097-.47.314 0 .627 0 .784.157.157 0 .157.157.157.157v.313c0 .157-.157.157-.157.313-.157.157-.313.157-.47.314-.314.157-.47.313-.784.313-.314 0-.627.157-.784.157l-.627-.313c0-.471.314-.784.784-.941zm26.024-14.26c.313.157.47.157.94.314h1.098c.47 0 .783-.157 1.254-.314.47-.156.94-.313 1.411-.627.47-.313.784-.47 1.097-.783.314-.313.47-.47.47-.784h.157c.47.157 1.098 0 1.881-.47.314-.156.627-.313.941-.626h-.157.157c.47-.157 1.097-.47 1.724-.784.628-.313 1.098-.627 1.411-.94l.471-.47h.156c.471-.157 1.098-.314 1.725-.627.313-.157.627-.314.941-.627l.47-.47c.47-.157 1.097-.47 1.724-.784.627-.313 1.098-.626 1.411-.94l.314-.313.157.157 2.351-1.41-1.881-1.098c0-.156.313-.313.627-.626.313-.314.627-.47 1.097-.784l-1.097-.627s-.157 0-.314.157c-.47.157-.627.47-.94.783-.157.314-.314.47-.314.784l-.627-.313-2.195 1.253.157.157c-.157 0-.313 0-.47.156-.47.157-1.098.47-1.725.784-.627.313-1.097.627-1.411.94l-.783.784v.156l-1.725-1.096-2.351 1.41 1.411.783c-.157 0-.314 0-.471.157-.47.157-1.097.47-1.724.784-.627.313-1.098.626-1.411.94l-.47.47-1.255-1.254-2.351 1.41 1.724.94c-.313 0-.784.158-1.254.314-.47.157-.94.314-1.254.627-.47.314-.784.47-.941.784-.313.313-.47.47-.47.783a.476.476 0 000 .627c-.157 0 0 .157.314.313zm14.736-9.245l.627-.627c.314-.157.627-.313.941-.313.313 0 .627 0 .783.156.157.157.314.314.157.47l-.627.627c-.313.157-.627.314-.94.314-.314 0-.628 0-.784-.157-.157-.157-.157-.157-.157-.47zm-6.898 4.074l.627-.627c.314-.156.627-.313.941-.313.313 0 .627 0 .784.157.156.156.313.313.156.47l-.627.627c-.313.156-.627.313-.94.313-.314 0-.627 0-.784-.157-.157-.156-.314-.313-.157-.47zm-5.644 3.29c0-.156.157-.156.157-.313.157-.156.314-.156.47-.313.314-.157.471-.313.784-.313.314 0 .627-.157.784-.157l.627.313c-.157.314-.313.627-.784.784-.313.157-.783.313-1.097.47-.314 0-.627 0-.784-.157-.157 0-.157-.156-.157-.156v-.157zm22.889-13.319c.156 0 .313.157.47.157.157 0 .314 0 .627-.157.314 0 .627-.157.941-.313.313-.157.784-.314 1.411-.627.47-.157.783-.314.94-.314h.314c.157 0 0 .157-.314.314a7.626 7.626 0 01-1.097.47l-1.411.47-.157.784a7.648 7.648 0 001.725-.627c.627-.314 1.254-.627 1.724-.94.314-.157.627-.47.941-.627l2.351-1.41c.157 0 .314-.157.471-.157.313-.157.47-.314.783-.47.314-.157.627-.47 1.098-.627.313-.314.627-.47.94-.784l-1.567.157c-.157.157-.314.157-.314.313-.157.157-.313.157-.313.314-.157.157-.314.157-.471.157h-.313l-1.098-.627 1.255-.784-.941-.47-1.254.784-.941-.627-1.568.783-.313-.156-2.195 1.41.941.627 1.567-.94.314.156-.627.314-.941.47c-.47.157-.94.47-1.411.783-.313.157-.783.47-.94.627-.314.157-.471.47-.627.627-.157.157-.157.313-.157.47 0 .313 0 .313.157.47zm2.038-1.41s.156-.157.313-.157c.314-.157.471-.313.784-.313.157 0 .47-.157.627-.314l.314.157-.941.47c-.47.157-.784.313-.941.313 0 0-.156 0-.156-.156zm12.541-7.365c.314-.157.627-.47.941-.627.47-.157.784-.314.94-.47h.784c-.47.156-.94.313-1.411.627-.47.313-.783.47-1.097.627-.314.156-.47.47-.627.626-.157.157-.157.314-.157.47 0 .157 0 .314.314.314.156.156.313.156.627.156.313 0 .47 0 .784-.156.313 0 .627-.157.94-.314l.941-.47c.47-.313.784-.47 1.097-.783.314-.314.471-.47.627-.784h.941a7.626 7.626 0 011.097-.47c.157 0 .314-.157.471-.313.156-.157.313-.157.47-.314l.784-.47-1.725-1.097c0-.156 0-.313.157-.47l.47-.47c.157-.157.314-.157.627-.157.157 0 .314 0 .471.157l1.881 1.097 2.352-1.41-1.725-1.097c0-.157 0-.314.157-.47l.47-.47c.157-.157.314-.157.627-.157.157 0 .314 0 .471.157l1.881 1.096 2.351-1.41-.156-.157c.156 0 .313 0 .47-.156a7.35 7.35 0 001.568-.784c.783-.47 1.41-.94 1.724-1.253-.627.47-.47.47-.47.313h.47c.314 0 .47-.157.784-.313.313-.157.47-.314.784-.47.47-.157.784-.47 1.097-.627l.47.783 1.098-.627-.314-.94-1.097-.627-1.881 1.097h-.314l-1.097-.627 1.254-.783-.941-.47-1.254.783-.941-.627-2.351 1.41 1.097.47-.784.471c-.47.157-.94.47-1.567.784-.627.313-1.098.626-1.411.94a2.13 2.13 0 00-.47.627c-.157 0-.471 0-.628.156a7.626 7.626 0 01-1.097.47c-.47.314-.941.627-1.254.94-.314.314-.47.47-.47.784h-.471c-.156 0-.313 0-.47.157-.157.156-.47 0-.627 0-.157.156-.47.156-.784.313-.47.314-.941.627-1.254.94-.314.314-.47.47-.47.784l-.471-.313-2.038 1.253.157.157c-.627.157-1.411.47-2.351 1.097-1.098.627-1.882 1.254-2.509 1.88h1.411c.157-.313.47-.47.627-.783zm18.969-9.56l.314.158-1.098.47c0 .156 0 .156-.156.47-.157.156-.314.313-.627.47-.314.157-.627.313-.784.313-.314.157-.627.157-.784 0l3.135-1.88zm-4.076 1.098c.157-.157.314-.314.627-.47.314-.157.627-.314.784-.314h.784l-2.195 1.254v-.47zM231.941 75.1l.314.157v.156s0 .157-.157.157c0 .157-.157.157-.313.314-.157.156-.314.156-.471.313-.156.157-.47.157-.627.313h-.47c-.157 0-.157-.156 0-.313s.313-.313.627-.47c.157 0 .314-.157.47-.314.157-.156.471-.156.627-.313zm-77.757 60.801c.157-.157.313-.157.627-.157h.627l1.881 1.097 2.352-1.41c.47-.157.94-.47 1.411-.784.47-.313.784-.47 1.097-.627.314-.156.47-.47.627-.626v-.157c.314 0 .47-.157.784-.314a7.332 7.332 0 001.568-.783c.784-.47 1.411-.94 1.724-1.254.157-.156.314-.313.314-.47.47-.157.784-.157 1.254-.313.47-.157 1.097-.47 1.724-.784.784-.47 1.411-.94 1.725-1.253l.157-.157h.313c.314 0 .47-.157.784-.313.313-.157.47-.314.784-.471.313-.156.627-.47 1.097-.626.157-.157.47-.314.627-.47h.157a7.385 7.385 0 001.568-.784c.784-.47 1.411-.94 1.724-1.254.157-.156.157-.313.314-.313h.47c.314 0 .47-.157.784-.313.313-.157.47-.314.784-.471.313-.156.627-.47 1.097-.626.157 0 .157-.157.157-.157a7.627 7.627 0 011.097-.47c.471-.314.941-.627 1.254-.94.314-.314.471-.627.627-.941h.157c.471.157 1.098 0 1.881-.47.314-.156.628-.313.941-.627l.784-.47-1.881-1.253c0-.157.313-.314.627-.627.157 0 .313-.157.313-.314l.157-.156c.157-.157.314-.314.627-.47h-.157l.157-.157c.314-.157.627-.47.941-.627.47-.157.784-.313.94-.47h.784c-.47.157-.94.313-1.411.627-.47.313-.784.47-1.097.627-.314.156-.47.47-.627.626-.157.157-.157.314-.157.471 0 .156 0 .313.314.313.156.157.313.157.627.157.313 0 .47 0 .784-.157.313 0 .627-.157.94-.313l.941-.471c.47-.313.784-.47 1.097-.783.314-.313.47-.47.627-.784h.941c.313-.156.627-.313 1.097-.47.157 0 .314-.156.471-.313.156-.157.313-.157.47-.313.47-.157.784-.314 1.254-.627.47-.314.784-.47 1.097-.784.314-.313.471-.47.471-.783h.156c.471.156 1.098 0 1.882-.47.156-.157.313-.157.47-.314l1.254.784 2.352-1.411-1.725-1.097c.314 0 .784-.156 1.254-.156.471-.157.941-.314 1.411-.627.471-.157.784-.47.941-.627h.157l1.567-.783a7.338 7.338 0 001.568-.784c.47-.313.784-.47 1.097-.627.314-.156.471-.47.628-.627v-.156c.313 0 .47-.157.783-.314.471-.156 1.098-.47 1.725-.783.47-.314.94-.627 1.254-.94l2.352-1.411 1.097-.627-1.725-1.097c0-.156 0-.313.157-.47l.471-.47c.156-.156.313-.156.627-.156h.627l1.724 1.096 2.352-1.41h-.157c.47-.156.784-.313 1.254-.627.47-.313.784-.47 1.097-.783.314-.314.471-.47.471-.627l.157.157.313.313c0 .157 0 .157-.157.314-.156.156-.156.313-.313.313-.157.157-.314.313-.627.313-.314.157-.784.47-1.098.47-.47.157-.784.314-1.097.314l-.627 1.097 1.881-.47c.627-.157 1.254-.47 1.881-.94.627-.314 1.098-.627 1.411-.94.471-.314.627-.627.941-.94.157-.314.313-.471.313-.784 0-.157-.156-.47-.47-.627h-.157c.471-.157.784-.157 1.254-.314a7.303 7.303 0 001.568-.783c.784-.47 1.411-.94 1.725-1.254 0 0 0-.156.156-.156h.157c.47-.157 1.098-.314 1.725-.627.313-.157.627-.314.94-.627l1.254-.784c.157 0 .314-.156.471-.156.313-.157.47-.314.784-.47.313-.157.627-.47.94-.627l.47.783.941-.627-.313-.94-.157-.156c.157 0 .313-.157.313-.157.627-.314 1.254-.627 1.725-.94.47-.314.784-.47 1.097-.627.314-.157.47-.47.627-.627v-.157c.314 0 .471-.156.784-.313a7.35 7.35 0 001.568-.784c.784-.47 1.411-.94 1.724-1.253.157-.157.157-.314.314-.314.313 0 .784-.156 1.097-.313.47-.157.941-.313 1.411-.627.47-.313.784-.47 1.097-.783.314-.314.471-.47.471-.784h.157c.47.157 1.097 0 1.881-.47.313-.157.627-.313.94-.627l-.313-.157c.313 0 .47-.156.784-.156.47-.157.94-.314 1.411-.627.47-.314.783-.47 1.097-.784.314-.313.47-.47.47-.783h.157c.47.157 1.097 0 1.881-.47.314-.157.627-.314.941-.627h-.157.157c.47-.157 1.097-.47 1.724-.784.627-.313 1.098-.626 1.411-.94l.784-.783c.157-.314.157-.47.157-.627 0-.157-.157-.314-.47-.47-.157-.157-.471-.157-.784-.157-.314 0-.784 0-1.254.157-.471.156-.941.156-1.411.47-.471.157-1.098.47-1.725.783-.627.314-1.097.627-1.411.94l-.47.47-1.411-.783-2.351 1.41 1.724.94c-.314 0-.784.157-1.254.314s-.941.314-1.254.627c-.471.313-.784.47-.941.783-.313.157-.47.47-.47.627l-1.568-.94-2.351 1.41 1.724.94c-.314 0-.784.157-1.254.157-.47.157-.941.314-1.254.627-.471.314-.784.47-.941.784-.47 0-.627.313-.627.47-.314.157-.784.157-1.097.313-.471.157-1.098.47-1.725.784-.627.313-1.097.626-1.411.94l-.47.47c-.47.157-.784.157-1.097.313-.471.157-.941.47-1.411.784-.314.157-.784.47-.941.627-.314.156-.47.47-.627.627-.157.156-.157.313-.157.47l-.47-.314-1.254.784-.941-.627-1.568.94-.313-.156-2.195 1.253-2.195 1.254 1.411.783c-.157 0-.157 0-.313.157-.471.157-1.098.47-1.725.784-.627.313-1.097.626-1.411.94-.313.313-.47.47-.627.783l-.313-.157-2.038 1.097.47.314c-.314 0-.784.157-1.254.313-.47.157-.941.314-1.411.627-.47.313-.784.47-1.097.784l-.471.47c-.157 0-.313 0-.627.156-.313.157-.784.314-1.097.47-.627.314-.941.627-1.254.94-.314.314-.471.627-.627.784l-.471-.313-.784.47-2.351 1.41c-.47.157-1.098.47-1.568.784-.627.313-1.097.627-1.411.94l-.47.47c-.47.157-.784.157-1.097.314-.471.156-.941.47-1.411.783-.314.157-.784.47-.941.627l-2.352 1.41h.157-.313c-.471.157-.941.314-1.254.627-.471.313-.784.47-1.098.784-.313.313-.313.47-.47.783l-.627-.313-.784.47-1.097.627-.314-.157 1.254-.784-.94-.47-1.255.784-2.351 1.41 1.724.94c-.313 0-.784.157-1.254.157-.47.157-.94.313-1.254.627-.47.313-.784.47-.941.783-.313.157-.47.47-.47.627h-.313c-.784.157-1.725.627-2.666 1.254-.47.313-.94.627-1.254.94h-.156s-.157 0-.314.157c-.47.156-.627.47-.941.783-.156.314-.313.47-.313.784l-.784-.627-2.195 1.254-1.254.783 2.038 1.097c0 .157-.157.313-.313.47-.157.157-.314.313-.471.313-.157.157-.47.157-.627.157-.157 0-.313 0-.47-.157l-1.881-1.096-.941.626-1.254.784-.941-.627-2.351 1.41.94.627-.784.47c-.47.157-.94.47-1.567.784-.627.313-1.098.627-1.411.94-.157 0-.157.157-.157.157l-.157-.157-1.254.784-.94-.627-2.352 1.41.941.627-.784.47c-.314.157-.784.313-1.098.627-.627.313-1.097.627-1.411.94-.313.313-.47.47-.627.784-.47.156-.783.156-1.254.313-.47.157-1.097.47-1.724.783-.627.314-1.098.627-1.411.941l-.47.47c-.471.157-.784.157-1.098.313-.47.157-.94.47-1.411.784-.313.156-.784.47-.94.627l-.471.47h-.313c-.314.156-.784.313-1.098.47-.627.313-.94.627-1.254.94-.313.313-.47.627-.627.784l-.47-.314-2.038 1.254.157.156c-.157 0-.314 0-.471.157-.47.157-1.097.47-1.724.784-.627.313-1.098.626-1.411.94-.157.157-.47.313-.47.627-.157 0-.314 0-.471.156-.627.157-1.411.471-2.194.941-.628.313-1.098.626-1.411.94l-.784.783c-.157.314-.157.47-.157.627 0 .157.157.314.47.47.157.157.471.157.941.157.313 0 .784 0 1.254-.157.47-.156.941-.156 1.411-.47.47-.157 1.097-.47 1.724-.783.784-.47 1.411-.941 1.725-1.254.157-.157.157-.157.157-.313.313-.157.627-.157.94-.314.471-.156 1.098-.47 1.725-.783.627-.314 1.097-.627 1.411-.941l.313-.313.157.157 2.352-1.411-1.725-1.096c0-.157 0-.314.157-.471-.47.471-.314.314 0 .314zm107.387-61.898l.627-.627c.313-.156.627-.313.94-.313.314 0 .628 0 .784.157.157.156.314.313.157.47l-.627.626c-.314.157-.627.314-.941.314-.313 0-.627 0-.783-.157-.157-.157-.314-.313-.157-.47zm-5.644 3.29c0-.156.157-.156.157-.313.157-.156.313-.156.47-.313.314-.157.47-.313.784-.313.314 0 .627-.157.784-.157l.627.313c-.157.314-.314.627-.784.784-.313.156-.784.313-1.097.47h-.784c-.157 0-.157-.157-.157-.157v-.313zm-6.271 3.605c0-.157.157-.157.157-.313.157-.157.314-.157.47-.314.314-.157.471-.313.784-.313.314 0 .627-.157.784-.157l.627.313c-.157.314-.313.627-.784.784-.313.157-.784.313-1.097.47-.314 0-.627 0-.784-.157-.157 0-.157-.156-.157-.156v-.157zm-1.724 2.037c.157 0 .157 0 .313.157l-.47.156c0 .157 0 .157-.157.47a2.146 2.146 0 01-.627.47c-.313.157-.627.314-.784.314-.313.157-.627.157-.783 0l2.508-1.567zm-3.449.784c.157-.157.313-.314.627-.47.314-.157.627-.314.784-.314h.784l-2.195 1.254c-.157-.314-.157-.314 0-.47zm-4.233 2.194s.157-.157.314-.157c.313-.157.47-.314.784-.47.156 0 .313-.157.627-.157 0 .157 0 .157.156.313-.156.157-.47.157-.627.314-.47.156-.627.313-.94.313-.157 0-.157 0-.314-.156 0 .156 0 .156 0 0zm-2.038 1.41c.314.157.47.313.627.313.157 0 .314 0 .627-.156.314 0 .627-.157.941-.314.313-.157.784-.313 1.411-.627.47-.156.784-.313.94-.313h.314c.157 0 0 .157-.314.313a7.626 7.626 0 01-1.097.47c-.313.157-.784.314-1.097.314h-.314l-1.568.783h-.313l-1.097-.626.94-.157zm-4.546 1.253l.313.157-.313.157-.47.313-.314.157-.314-.157 1.098-.627zm-1.254 3.291l.313.157-.627.313c0 .157 0 .157-.157.47a2.146 2.146 0 01-.627.47c-.313.157-.627.314-.784.314-.313.157-.627.157-.783 0l2.665-1.724zm-3.606.784c.157-.157.314-.314.627-.47.314-.157.627-.314.784-.314h.784l-2.195 1.254v-.47zm-5.8 3.604c0-.157.156-.157.156-.314.157-.156.314-.156.471-.313.313-.157.47-.313.783-.313.314-.157.628-.157.784-.157l.627.313c0 .157-.156.314-.313.47l-.47.47c-.314.157-.784.314-1.098.47h-.784c-.156 0-.156-.156-.156-.156v-.47zm-10.818 6.268l.628-.627c.313-.157.783-.313 1.097-.313l.47-.314 1.098.627-.627.314c0 .156-.314.47-.628.626-.313.157-.627.314-.94.314-.314 0-.627 0-.784-.157-.314-.157-.47-.313-.314-.47zm-2.038 2.507h.314c.157 0 0 .157-.314.314-.313.156-.627.313-1.097.47-.157 0-.313.156-.47.156l-.314-.156c.314-.157.627-.314 1.098-.47.313-.157.47-.314.783-.314zm-2.351-.313s.157-.157.313-.157c.314-.157.471-.313.784-.47.157 0 .314-.157.627-.157 0 .157 0 .157.157.314-.157.156-.47.156-.627.313-.47.157-.784.314-.941.314-.156 0-.313 0-.313-.157zm-5.017 2.977c.314-.156.784-.313 1.098-.47.313 0 .627 0 .784.157.156 0 .156.157.156.157v.313c0 .157-.156.157-.156.313-.157.157-.314.157-.471.314-.313.156-.47.313-.784.313-.313 0-.627.157-.783.157l-.628-.314c.157-.47.471-.626.784-.94zm-7.525 4.701c0-.156.157-.156.157-.313.157-.157.314-.157.47-.313.314-.157.471-.314.784-.314.314 0 .627-.157.784-.157l.627.314c-.157.313-.313.627-.784.783-.313.157-.783.314-1.097.47-.314 0-.627 0-.784-.156-.157 0-.157-.157-.157-.157v-.157zm-2.821 2.351l.313.157v.156s0 .157-.157.157c0 .157-.156.157-.313.313-.157.157-.314.157-.471.314-.156.156-.47.156-.627.313h-.47c-.157 0-.157-.157 0-.313.157-.157.314-.314.627-.47.157 0 .314-.157.47-.314.314-.156.471-.156.628-.313zm-14.266 8.462l.313.157-1.097.47c0 .156 0 .156-.157.47-.157.156-.314.313-.627.47-.314.157-.627.313-.784.313-.314.157-.627.157-.784 0l3.136-1.88zm-3.92 1.097c.157-.157.314-.314.627-.47.314-.157.627-.314.784-.314h.784l-2.195 1.254c-.156-.314-.156-.314 0-.47zm-7.211 4.231l.627-.627c.314-.157.784-.313 1.097-.313l.784-.627 1.254.627-1.097.47c0 .156-.314.47-.627.626-.314.157-.627.314-.941.314-.313 0-.627 0-.784-.157-.313.157-.47 0-.313-.313zm-1.725 2.037h.314l-.47.157c0 .156 0 .156-.157.47-.157.156-.314.313-.627.47-.314.157-.627.313-.784.313-.314.157-.627.157-.784 0l2.508-1.41zm-3.448.783c.156-.156.313-.313.627-.47.313-.156.627-.313.783-.313h.784l-2.194 1.254v-.471zm-1.882 2.508h.314c.157 0 0 .156-.314.313a7.627 7.627 0 01-1.097.47c-.157 0-.157 0-.314.157l-.47-.157.941-.47c.47-.157.784-.313.94-.313zm-2.351-.314s.157-.156.313-.156c.314-.157.471-.314.784-.471.157 0 .314-.156.627-.156 0 .156 0 .156.157.313-.157.157-.47.157-.627.314-.47.156-.784.313-.941.313-.156 0-.156 0-.313-.157 0 .157 0 .157 0 0zm-11.444 8.149c0 .157-.314.47-.627.627-.314.156-.628.313-.941.313-.314 0-.627 0-.784-.157-.157-.156-.313-.313-.157-.47l.627-.627c.314-.156.784-.313 1.098-.313l.313-.157c0 .157.157.314.314.314.157.156.47.156.627.156l-.47.314zm4.546-2.507l-.627.626c-.314.157-.627.314-.941.314-.313 0-.627 0-.784-.157-.156-.157-.313-.313-.156-.47l.627-.627c.313-.157.627-.313.94-.313.314 0 .627 0 .784.156.157 0 .314.157.157.471zm52.047-33.848l.941.626 2.351-1.41-.94-.627-2.352 1.411zm12.542-6.269l-.941-.47-2.351 1.411.94.627 2.352-1.568zm-56.907 48.579l.94.626 2.352-1.41-.941-.627-2.351 1.411zm11.444-1.411c.313-.156.627-.313.94-.627.471-.156.784-.313 1.255-.626.313-.157.627-.471.94-.627l2.352-1.411-1.725-1.096c0-.157 0-.314.157-.471l.47-.47c.157-.156.314-.156.627-.156.157 0 .314 0 .471.156l1.881 1.097 2.351-1.41-1.724-1.097c0-.157 0-.313.157-.47l.47-.47c.157-.157.314-.157.627-.157.157 0 .314 0 .47.157l1.725 1.097 2.351-1.411-.156-.156c.156 0 .313 0 .47-.157.47-.157 1.097-.47 1.724-.784.628-.313 1.098-.626 1.411-.94.314-.313.471-.47.627-.783.471 0 .784-.157 1.255-.314.47-.156.94-.313 1.411-.627.47-.313.783-.47 1.097-.783.313-.313.47-.47.47-.784h.157c.47.157 1.097 0 1.881-.47.314-.156.627-.313.941-.626l-1.568-.314c-.157.157-.313.157-.47.157h-.314l-3.135-1.881-2.352 1.411 1.725.94c-.314 0-.784.157-1.254.313-.471.157-.941.314-1.254.627-.471.314-.784.47-.941.784-.314.156-.47.47-.47.626-.314.157-.784.157-1.255.314-.47.157-1.097.47-1.724.783-.627.314-1.097.627-1.411.941-.157.156-.47.313-.47.626-.157 0-.471 0-.627.157-.314.157-.627.314-1.098.47-.47.314-.94.627-1.254.94-.313.314-.47.471-.47.784h-.47c-.157 0-.314 0-.471.157-.157.156-.47.156-.627.156-.157.157-.47.157-.784.314-.47.313-.94.627-1.254.94-.313.313-.47.47-.47.784l-.627-.471-2.038 1.254c-.471.157-.941.47-1.411.784-.314.156-.784.47-.941.626h-.313l-2.352 1.411 2.038 1.097c0 .156-.157.313-.313.47-.157.156-.314.313-.471.313-.156.157-.47.157-.627.157-.157 0-.313 0-.47-.157l-1.881-1.097-2.352 1.411-.94.626.156.157c-.156 0-.313 0-.47.157-.47.156-1.097.47-1.724.783-.628.314-1.098.627-1.411.941l-.784.783c-.157.313-.157.47-.157.627 0 .157.157.313.47.47.157.157.471.157.784.157.314 0 .784 0 1.254-.157.471-.157.941-.157 1.411-.47a7.292 7.292 0 001.568-.784c.784-.47 1.254-.783 1.568-1.253l.156.156 2.352-1.253c.313-.157.47-.157.784-.314.47-.313.94-.626 1.254-.94.313-.313.47-.627.627-.94h.157c.627.47 1.254.313 2.038-.157zm17.558-12.536c0-.157.157-.157.157-.313.156-.157.313-.157.47-.314.314-.157.47-.313.784-.313.313 0 .627-.157.784-.157l.627.313c-.157.314-.314.627-.784.784-.314.157-.784.313-1.097.47h-.784c-.157 0-.157-.157-.157-.157v-.313zm-5.017 2.977l.627-.626c.314-.157.627-.314.941-.314.314 0 .627 0 .784.157.157.157.313.313.157.47l-.627.627c-.314.156-.628.313-.941.313-.314 0-.627 0-.784-.157-.313-.156-.313-.313-.157-.47zm-10.817 7.522c.157 0 0 .157-.313.313-.314.157-.627.314-1.098.471h-.313c-.157.156-.314.156-.471.156h-.47c.314-.156.784-.313 1.254-.47.471-.157.784-.313.941-.313.313-.157.313-.157.47-.157zm-2.665-.313s.157-.157.314-.157c.313-.157.47-.313.784-.47.156 0 .47-.157.627-.314l.313.157-.94.47c-.471.157-.784.314-.941.314 0 .313 0 .313-.157 0 0 .156 0 .156 0 0zm-10.817 6.895c-.157-.157-.157-.314 0-.47.157-.157.314-.314.627-.471.314-.156.627-.313.784-.313h.784l-2.195 1.254zm3.135-.784c0 .157 0 .157-.156.47a2.156 2.156 0 01-.627.47c-.314.157-.627.314-.784.314-.314.156-.627.156-.784 0l2.822-1.724.313.157-.784.313zm57.064-31.654c.471-.157.784-.47.941-.627.157-.156.314-.47.47-.627.314-.156.784-.156 1.255-.313.47-.157 1.097-.47 1.724-.784.627-.313 1.097-.626 1.411-.94l.313-.313.157.157 2.352-1.411-1.881-1.097c0-.156.313-.313.627-.626.313-.314.627-.471 1.097-.784l-1.097-.627s-.157 0-.314.157c-.47.157-.627.47-.941.783-.156.314-.313.471-.313.784l-.627-.313-2.195 1.253.157.157c-.157 0-.314 0-.47.157-.471.156-1.098.47-1.725.783-.627.313-1.097.627-1.411.94-.313.314-.47.47-.627.784-.313 0-.784.156-1.254.313s-.941.314-1.254.627c-.471.313-.784.47-1.098.784-.313.313-.313.47-.47.783l-.47-.47-1.881 1.097c-.314.157-.471.157-.784.313-.471.314-.941.627-1.254.94-.314.314-.471.471-.471.784h-.47c-.157 0-.314 0-.47.157-.157 0-.471.156-.627.156-.157.157-.471.157-.784.314-.471.313-.941.627-1.254.94-.314.313-.471.47-.471.784l-.47-.314-2.038 1.097.157.157c-.157 0-.314 0-.471.156-.47.157-1.097.471-1.724.784-.627.313-1.097.627-1.411.94-.157 0-.157.157-.157.157l-.157-.157-1.254.784-.94-.627-2.352 1.41.941.627-.784.47.941.47.783-.47 1.411.784c.157.156.314.156.627.156h.627c.314 0 .471-.156.784-.313.314-.157.471-.313.784-.47.314-.157.627-.47 1.098-.627.156-.157.47-.313.627-.47h.156a7.292 7.292 0 001.568-.784c.784-.47 1.254-.783 1.568-1.253l.157.157 2.351-1.411-1.724-.94c0-.157 0-.313.156-.47l.471-.47c.156-.157.313-.157.627-.157.313 0 .313 0 .47.157l1.881 1.097 2.352-1.411-1.725-1.097c0-.156 0-.313.157-.47l.47-.47c.157-.157.314-.157.628-.157.156 0 .313 0 .47.157l1.724 1.097.941-.627 1.254.784 2.352-1.411-1.725-.94c.314 0 .784-.156 1.254-.156.314-.314.784-.471 1.254-.784zm1.255-3.291l.627-.627c.313-.156.627-.313.94-.313.314 0 .627 0 .784.157.157.156.314.313.157.47l-.627.627c-.314.156-.627.313-.941.313-.313 0-.627 0-.784-.157-.156 0-.156-.156-.156-.47zm-19.597 11.596c-.156-.156-.156-.313 0-.47.157-.156.314-.313.628-.47.313-.157.627-.313.783-.313h.784l-2.195 1.253zm3.136-.94c0 .157 0 .157-.157.47-.157.157-.313.314-.627.47-.314.157-.627.314-.784.314-.313.156-.627.156-.784 0l2.822-1.724.314.157-.784.313zm13.325-7.365c-.313.157-.47.313-.784.313-.313 0-.627.157-.783.157l-.628-.47c.157-.313.314-.627.784-.783.314-.157.784-.314 1.098-.471.313 0 .627 0 .784.157.156 0 .156.157.156.157v.313c0 .157-.156.157-.156.314-.157 0-.157.156-.471.313zm13.482-10.812l-.94-.627-2.352 1.41.941.627 2.351-1.41zm9.877-6.739l-2.352 1.411.941.626 2.351-1.41-.94-.627zm26.964-14.26l-1.254.784-.941-.627-2.351 1.41.94.627-.313.157c-.314.156-.47.156-.784.47-.627.313-.941.627-1.254.94-.314.314-.47.627-.627.784l-.47-.314-1.098.627-2.351 1.41 2.038 1.097c0 .157-.157.314-.314.47-.157.157-.313.314-.47.314-.157.157-.471.157-.627.157-.157 0-.314 0-.471-.157l-1.881-1.097-1.254.627-1.254-.784-2.352 1.41 1.725.94c-.314 0-.784.157-1.254.157-.471.157-.941.314-1.255.627-.47.314-.783.47-.94.784h-.157l-1.254.783-.314-.156 1.255-.784-.941-.627-2.195 1.254-1.411.783 1.725.94c-.314 0-.784.157-1.254.157-.471.157-.941.314-1.255.627-.47.314-.783.47-.94.784h-.157l-2.352 1.41c-.47.157-1.097.47-1.567.784-.627.313-1.098.626-1.411.94-.157.156-.47.47-.47.627-.157 0-.471 0-.784.156-.314.157-.784.314-1.098.47-.627.314-.94.627-1.254.941-.313.313-.47.626-.627.783l-.47-.313-2.038 1.097-1.254.626 3.135 1.881 1.097-.627 2.352-1.41-1.725-1.097c0-.157 0-.314.157-.47l.471-.47c.156-.157.313-.157.627-.157h.627l1.724 1.097 2.352-1.411v.471c.156 0 .313 0 .47-.157.47-.157 1.097-.47 1.724-.784.471-.313.941-.626 1.255-.94l2.351-1.41h-.157.314c.47-.157.941-.314 1.411-.627.47-.313.784-.47 1.097-.784.314-.313.471-.47.471-.783h.156c.471.157 1.098 0 1.882-.47.313-.157.627-.314.94-.627l.784-.47h-.157.314c.47-.157.94-.314 1.411-.627.47-.313.784-.47 1.097-.783.314-.314.47-.47.47-.784h.157c.47.157 1.098 0 1.881-.47.157-.157.471-.313.784-.47.157-.157.471-.157.627-.314.471-.313.941-.626 1.254-.94.314-.313.471-.627.628-.94h.156c.471.157 1.098 0 1.882-.47.313-.157.627-.314.94-.627l.784-.47-2.195-1.097c0-.157 0-.313.157-.47l.47-.47c.157-.157.314-.157.627-.157h.627l1.725 1.097 2.351-1.41c.157 0 .314 0 .314-.157.314-.157.47-.313.784-.47.313-.157.627-.47 1.097-.627.314-.313.627-.47.941-.627l-1.254-.313c-.157.157-.314.157-.314.313-.157.157-.313.157-.313.314-.157.156-.314.156-.471.156h-.313l-1.098-.626 1.255-.784-1.098-.627zm-26.494 17.708c0 .156-.313.47-.627.627-.313.156-.627.313-.941.313-.313 0-.627 0-.783-.157-.157-.156-.314-.313-.157-.47l.627-.627c.313-.156.784-.313 1.097-.313l.471-.313 1.097.626-.784.314zm5.174-2.664c-.314.156-.784.313-1.098.47-.313 0-.627 0-.784-.157-.156 0-.156-.157-.156-.157v-.313c0-.157.156-.157.156-.313.157-.157.314-.157.471-.314.313-.156.47-.313.783-.313.314 0 .628-.157.784-.157l.627.314c-.156.47-.313.626-.783.94zm6.741-3.918c-.314.157-.784.314-1.098.47-.313 0-.627 0-.784-.156-.156 0-.156-.157-.156-.157v-.313c0-.157.156-.157.156-.314.157-.157.314-.157.471-.313.313-.157.47-.314.784-.314.313 0 .627-.156.783-.156l.627.313c-.156.47-.313.784-.783.94zm21.007-11.282c.47-.157 1.097-.314 1.724-.627.47-.314.941-.627 1.254-.94.314-.314.471-.627.627-.94h.157c.47.156 1.098-.157 1.881-.47.314-.157.627-.314.941-.628h.157c.313-.156.47-.313.784-.47.313-.156.627-.47 1.097-.626.314-.314.627-.47.941-.784l-1.255-.313c-.156.156-.313.156-.313.313-.157.157-.314.157-.314.313-.156.157-.313.157-.47.157h-.313l-1.098-.627 1.254-.783-.94-.47-1.254.783-.941-.627-2.352 1.41.941.627-1.881.784 2.038 1.097c0 .157-.157.313-.314.47-.157.157-.313.313-.47.313-.157.157-.47.157-.627.157-.157 0-.314 0-.47-.157l-1.882-1.097-2.351 1.41 2.038 1.254c.47.47.94.47 1.411.47zm-86.85 67.069c.47-.157 1.097-.471 1.724-.784.627-.313 1.097-.627 1.411-.94l.313-.314.157.157 2.352-1.41-1.568-.784c.157.157.47.157.784.157.313 0 .784 0 1.254-.157.47-.156.941-.156 1.411-.47a7.38 7.38 0 001.568-.783c.784-.47 1.411-.941 1.724-1.254.157-.157.314-.47.47-.627h.157c.471-.156.941-.156 1.411-.47a7.356 7.356 0 001.568-.783c.784-.471 1.411-.941 1.724-1.254.157-.157.157-.313.314-.313h.47c.314 0 .47-.157.784-.314.314-.157.47-.313.784-.47.313-.157.627-.47 1.097-.627.314-.156.471-.47.784-.627.157 0 .157 0 .314-.156.47-.157.94-.314 1.411-.627.47-.313.783-.47 1.097-.784.313-.313.47-.47.47-.783h.157c.47.157 1.097 0 1.881-.47.314-.157.627-.314.941-.627h-.157.157c.47-.157 1.097-.47 1.724-.784.627-.313 1.098-.626 1.411-.94l.471-.47h.156c.471-.157 1.098-.313 1.725-.627.313-.156.627-.313.94-.627l.471-.47c.47-.156 1.097-.47 1.724-.783.627-.314 1.098-.627 1.411-.94l.314-.314.156.157 2.352-1.41-1.411-.784c.157.157.47.157.784.157.313 0 .784 0 1.254-.157s.941-.157 1.411-.47a7.338 7.338 0 001.568-.784c.783-.47 1.411-.94 1.724-1.253l.157-.157.313.157 2.352-1.41-1.725-1.097c0-.157 0-.314.157-.471l.471-.47c.156-.156.313-.156.627-.156.156 0 .313 0 .47.156l1.724 1.097 2.352-1.41-1.725-1.097c0-.157 0-.313.157-.47l.471-.47c.156-.157.313-.157.627-.157.156 0 .313 0 .47.157l1.724 1.097 2.195-1.254c.314-.157.47-.157.784-.313.47-.314.784-.47 1.097-.784.314-.313.471-.47.627-.783h.941c.314-.157.627-.314 1.097-.47.157 0 .314-.157.471-.314.157-.157.313-.157.47-.313h-.157l.941-.47c.47-.314.784-.47 1.097-.784.314-.313.471-.47.471-.627l.156.157.314.313c0 .157 0 .157-.157.314s-.157.313-.313.313c-.157.157-.314.314-.627.314-.314.156-.784.47-1.098.47-.47.156-.784.313-1.097.313l-.627 1.097 1.881-.47c.627-.157 1.254-.47 1.881-.94.627-.314 1.098-.627 1.411-.94.47-.314.627-.627.941-.941.156-.313.313-.47.313-.783 0-.157 0-.314-.157-.314l1.098-.626-1.725-1.097c0-.157 0-.314.157-.47l.47-.471c.157-.156.314-.156.628-.156h.627l1.881 1.097 2.195-1.254c.313-.157.47-.157.783-.313.471-.314.784-.47 1.098-.784.313-.313.47-.47.627-.783h.941a7.619 7.619 0 011.097-.471c.157 0 .313-.156.47-.313.157-.157.314-.157.471-.313.313-.157.47-.157.783-.314.471-.313.784-.47 1.098-.783.313-.314.47-.47.627-.784h.94c.314-.156.628-.313 1.098-.47.157 0 .313-.157.47-.313.157 0 .157-.157.314-.157.156-.157.313-.157.627-.313.313-.157.627-.314.94-.627l1.255-.784-1.255-.156c.471-.157.784-.314 1.255-.627.47-.314.783-.47 1.097-.784.313-.313.313-.47.47-.627l1.098.627c.156 0 .313.157.47.157h.627c.157 0 .47-.157.627-.157.157-.156.47-.156.627-.313.157-.157.314-.157.627-.314.157-.156.471-.313.627-.47l-.94-.627c-.157.157-.471.157-.471.157h-.313c.157-.157.47-.157.627-.313.47-.314.941-.627 1.254-.94.314-.314.47-.627.627-.94h.157c.47.156 1.097 0 1.881-.47.157-.157.47-.314.784-.47.157-.158.47-.158.627-.314.47-.314.784-.47 1.097-.784.314-.313.471-.47.628-.783h.94c.314-.157.627-.314 1.098-.47.156 0 .313-.157.47-.314.157-.157.313-.157.47-.313l.314-.157-.627-.47h.156c.471 0 1.098-.157 1.725-.47.627-.157 1.254-.47 1.881-.94.627-.314 1.254-.784 1.568-1.097.313-.314.627-.627.784-.94v-.157c.156 0 .156.156.313.156h.627c.314 0 .471-.156.784-.313.314-.157.47-.313.784-.47.313-.157.627-.47 1.097-.627.314-.313.627-.47.941-.627l-1.254-.313c-.157.157-.314.157-.314.313-.157.157-.313.157-.313.314-.157.156-.314.156-.471.156h-.313l-1.098-.626 1.255-.784-.941-.47-1.254.784-.941-.627-1.411.783h-.156l-2.352 1.41 2.195 1.254c.157.157.313.157.313.314 0 .156.157.156 0 .313 0 .157-.156.313-.313.47a2.174 2.174 0 01-.627.47c-.314.157-.471.314-.784.314-.314 0-.47.156-.784.156h-.627c-.157 0-.314-.156-.47-.156l-2.195-1.254-2.352 1.41 2.195 1.254h.157c-.47-.313-1.098-.313-1.881-.157-.784.157-1.725.627-2.665 1.254-.628.313-1.098.783-1.568 1.097h-.157l-2.351 1.41 2.038 1.097c0 .157-.157.313-.314.47-.157.157-.314.314-.47.314-.157.156-.471.156-.627.156-.157 0-.314 0-.471-.156l-1.881-1.097-1.254.783-1.725.94.471.314c-.471 0-.784.156-1.254.313-.471.157-.941.314-1.411.627-.471.313-.784.47-1.098.784l-.156.156h-.157l-1.881 1.097-.314-.157 1.881-1.096-.94-.627-2.038.783-.157.157-.157.157-1.881 1.097 1.411.783c-.627.157-1.411.47-2.195.94-1.097.627-1.881 1.254-2.508 1.881h-.157c-.784.156-1.725.627-2.665 1.097-.784.47-1.411.94-1.881 1.41h-.314c-.313.157-.784.313-1.097.47-.627.314-.941.627-1.254.94-.314.314-.471.627-.628.784l-.47-.314-2.351 1.411-.784.47.47.313c-.313 0-.784.157-1.254.314-.47.156-.941.313-1.411.626-.47.314-.784.471-1.097.784-.314.313-.471.47-.627.784h-.314c-.784.156-1.724.626-2.665 1.253-.784.47-1.411.94-1.881 1.41h-.314c-.313.157-.784.314-1.097.471-.471.313-.941.626-1.254.94-.314.313-.471.47-.471.783h-.47c-.157 0-.314 0-.47.157-.157 0-.471.157-.627.157-.157.156-.471.156-.784.313-.471.314-.941.627-1.254.94-.314.314-.471.47-.471.784l-.47-.314-2.038 1.254.314.157c-.314.157-.628.157-.941.313-.47.157-1.097.47-1.725.784-.47.313-.94.627-1.254.94h-.156s-.157 0-.314.157c-.47.156-.627.47-.941.783-.156.314-.313.47-.313.784l-.627-.314-2.352.784.157.156c-.157 0-.314 0-.47.157-.471.157-1.098.47-1.725.784-.627.313-1.097.627-1.411.94l-.784.783v.157l-1.724-1.097-2.352 1.411 1.411.783c-.156 0-.313 0-.47.157-.47.156-1.097.47-1.724.783-.627.314-1.098.627-1.411.941l-.471.47-1.411-.784-2.351 1.41 1.724.941c-.313 0-.783.156-1.254.313-.47.157-.94.313-1.254.627-.47.313-.784.47-.941.783l-.313.314-.157-.157-1.254.784-.941-.627-2.351 1.41.94.627-.627.313c-.47.157-.94.47-1.567.784-.627.313-1.098.627-1.411.94l-.784.784v.156h-.157c-.47.157-.94.157-1.411.47-.47.157-1.097.471-1.724.784-.471.313-.941.627-1.254.94h-.157s-.157 0-.314.157c-.47.157-.627.47-.94.783-.157.314-.314.47-.314.784l-.627-.314-2.195 1.254.157.157c-.157 0-.313 0-.47.157-.471.156-1.098.47-1.725.783-.627.313-1.097.627-1.411.94-.313.314-.47.47-.627.784-.313 0-.627.156-1.097.313s-.784.314-1.254.627c-.471.313-.784.47-1.098.783-.313.314-.313.471-.47.627l-1.724-.94-1.882.784 1.411.783c-.627.157-1.411.47-2.351 1.097-.941.47-1.568 1.097-2.195 1.567l-1.411-.783-2.351 1.41 3.605 2.037c.314.157.627.157 1.254.157.471-.157 1.098-.314 1.725-.627.313-.157.627-.313.94-.627h.157l.941-.47c.47-.313.784-.47 1.097-.784.314-.313.471-.47.627-.783h.941a7.627 7.627 0 011.097-.47c.157 0 .314-.157.471-.314.156-.156.313-.156.47-.313l.47-.313-.47-.314c.784 0 1.724-.313 2.665-.94.47-.313.784-.47 1.097-.784l.627-.626c-.156-.157.157-.314.628-.47zm98.921-58.45h.313-.313c0 .156-.157.156-.157.156l-.627-.313c.314 0 .47.156.784.156zm-2.508 1.41l.313.156v.157s0 .157-.157.157l-.313.313c-.157.157-.314.157-.47.314-.157.156-.471.156-.628.313h-.47c-.157 0-.157-.157 0-.313.157-.157.314-.314.627-.47.157 0 .314-.157.471-.314.313-.157.47-.313.627-.313zm-3.136.626c.314-.156.627-.47.941-.626.47-.157.784-.314.94-.47h.784c-.47.156-.94.313-1.411.626-.47.314-.783.47-1.097.627l-.157.157-.313-.157c0 .157.156 0 .313-.157zm-9.719 5.955c0-.157.156-.157.156-.313.157-.157.314-.157.471-.314.313-.156.47-.313.783-.313.314 0 .628-.157.784-.157l.627.314c-.156.313-.313.626-.783.783-.314.157-.784.314-1.098.47-.313 0-.627 0-.784-.156-.156 0-.156-.157-.156-.157-.157 0-.157 0 0-.157zm-6.271 4.388c.157-.157.313-.157.47-.157l.314.157v.157s0 .156-.157.156l-.314.314c-.156.156-.313.156-.47.313-.157.157-.47.157-.627.313h-.47c-.157 0-.157-.156 0-.313.156-.157.313-.313.627-.47.156-.313.313-.313.627-.47zm-2.665.47c.313-.157.627-.47.94-.627.471-.157.784-.313.941-.47h.784c-.471.157-.941.313-1.411.627-.47.313-.784.47-1.098.627-.156.156-.313.313-.47.313-.157 0-.157 0-.313-.157.156.157.313-.156.627-.313zm-2.195 2.35l.313.157v.157s0 .157-.156.157l-.314.313c-.157.157-.313.157-.47.313-.157.157-.47.157-.627.314h-.471c-.156 0-.156-.157 0-.314.157-.156.314-.313.628-.47.156 0 .313-.156.47-.313.313-.157.47-.157.627-.314zm-3.135.627c.313-.156.627-.47.94-.627.47-.156.784-.313.941-.47h.784c-.471.157-.941.314-1.411.627-.471.157-.784.47-1.098.627h-.156s-.157 0-.314-.157c.157.157.157.157.314 0zm-9.563 5.955c0-.157.156-.157.156-.313.157-.157.314-.157.471-.314.313-.157.47-.313.784-.313.313-.157.627-.157.783-.157l.627.313c0 .157-.156.314-.313.471l-.47.47c-.314.156-.784.313-1.098.47h-.784c-.156 0-.156-.157-.156-.157v-.47zm-2.822 2.351l.313.156v.157s0 .157-.156.157c0 .156-.157.156-.314.313s-.314.157-.47.313c-.157.157-.471.157-.627.314h-.471c-.156 0-.156-.157 0-.314.157-.156.314-.313.627-.47.157 0 .314-.156.471-.313.313-.157.47-.157.627-.313zm-3.136.626c.314-.156.627-.47.941-.626.47-.157.784-.314.941-.471h.783c-.47.157-.94.314-1.41.627-.471.157-.784.47-1.098.627h-.157s-.156 0-.313-.157c.157.157.157.157.313 0zm-9.563 6.895l.314.157-1.097.47c0 .157 0 .157-.157.47-.157.157-.314.314-.627.47-.314.157-.627.157-.941.314-.313.156-.627.156-.784 0l3.292-1.881zm-4.076 1.097c.157-.156.314-.313.628-.47.313-.157.627-.313.783-.313h.784l-2.195 1.253v-.47zm-2.351 1.724c.157.157.157.157 0 0 0 .157 0 .157 0 0zm-5.173 2.821l.627-.627c.313-.157.627-.314.94-.314.314 0 .627 0 .784.157.157.157.314.314.157.47l-.627.627c-.314.157-.627.313-.941.313-.313 0-.627 0-.784-.156-.156 0-.313-.157-.156-.47zm-7.055 4.074l.627-.627c.314-.157.627-.313.941-.313.313 0 .627 0 .783.156.157.157.314.314.157.471l-.627.626c-.313.157-.627.314-.94.314-.314 0-.628 0-.784-.157-.157-.157-.157-.313-.157-.47zm-5.487 3.291c0-.157.157-.157.157-.314.157-.156.313-.156.47-.313.314-.157.47-.314.784-.314.313 0 .627-.156.784-.156l.627.313c-.157.314-.314.627-.784.784-.314.156-.784.313-1.097.47h-.784c-.157 0-.157-.157-.157-.157-.157-.157-.157-.157 0-.313zm-2.822 1.253s0 .157 0 0c0 .314.157.47.47.627.157.157.471.157.784.157h-.47l-1.097-.627.313-.157zm-1.568 2.194l.314.157-1.097.47c0 .157 0 .157-.157.47a2.174 2.174 0 01-.627.47c-.314.157-.627.314-.784.314-.314.156-.627.156-.784 0l3.135-1.881zm-3.919 1.097c.157-.157.314-.313.627-.47.314-.157.627-.313.784-.313h.784l-2.195 1.253c-.157-.157-.157-.313 0-.47zm-1.567 2.194c.156 0 .156.157.47.157l-.941.47c0 .156 0 .156-.157.47a2.146 2.146 0 01-.627.47c-.313.157-.627.313-.783.313-.314.157-.628.157-.784 0l2.822-1.88zm-3.92.94c.157-.157.314-.313.627-.47.314-.157.627-.313.784-.313h.784l-2.195 1.253c0-.156-.156-.313 0-.47zm-2.351 1.724c.157 0 .157.157 0 0zm-16.461 9.559c-.314.156-.47.47-.627.627l-.627-.314h.47c.157-.313.47-.47.784-.783.314-.157.627-.47.941-.627.47-.157.783-.314.94-.47h.784c-.47.156-.941.313-1.411.627-.627.47-.94.626-1.254.94zm3.135-.627c0 .157-.156.157-.313.313-.157.157-.314.157-.47.314-.157.156-.471.156-.628.313h-.47c-.157 0-.157-.157 0-.313.157-.157.314-.314.627-.47.157 0 .314-.157.471-.314.156-.156.313-.156.47-.156l.313.156v.157c.157-.157.157-.157 0 0zm5.644-3.448c-.157.157-.313.471-.784.627-.47.314-.94.47-1.411.47l-.627-.313c0-.157 0-.313.157-.47.157-.157.314-.314.627-.47.157-.157.314-.157.47-.314.157 0 .314-.156.471-.156h.47c.157 0 .314 0 .314.156.313 0 .47.157.313.47zm2.508-2.663l.627-.627c.314-.157.628-.314.941-.314.314 0 .627 0 .784.157.157.157.313.313.157.47l-.627.627c-.314.157-.627.313-.941.313-.314 0-.627 0-.784-.156-.157-.157-.313-.314-.157-.47zm7.839 9.715l.94.627 2.352-1.41-.941-.627-2.351 1.41zm5.957-.47c0-.157 0-.313.157-.47l.47-.47c.157-.157.314-.157.627-.157.157 0 .314 0 .471.157l1.881 1.097 2.351-1.411-1.724-1.097c0-.156 0-.313.157-.47l.47-.47c.157-.156.313-.156.627-.156.157 0 .314 0 .47.156l1.882 1.097 2.351-1.41-2.038-1.254c-.157 0-.313-.156-.47-.156h-.627c-.314 0-.471 0-.941.156a7.516 7.516 0 01-1.097.47c-.471.314-.941.627-1.254.941-.314.313-.471.47-.471.783h-.47c-.157 0-.314 0-.47.157-.157 0-.471.156-.627.156-.157.157-.471.157-.784.314-.471.313-.941.627-1.254.94-.314.314-.471.47-.471.784l-.47-.314-2.038 1.254-.941.47c-.313.157-.47.157-.784.47-.627.313-.94.627-1.254.94-.313.314-.47.627-.627.784l-.47-.314-2.038 1.254.157.157c-.157 0-.314 0-.471.156-.47.157-1.097.471-1.724.784-.627.313-1.097.627-1.411.94l-.784.784c-.157.313-.157.47-.157.626 0 .157.157.314.471.471.156.156.47.156.784.156.313 0 .783 0 1.254-.156.47-.157.94-.157 1.411-.471a7.303 7.303 0 001.567-.783c.784-.47 1.254-.784 1.568-1.254l.157.157 2.351-1.41-1.724-1.097c0-.157 0-.314.157-.47l.47-.47c.157-.157.313-.157.627-.157h.627l1.725 1.097 2.038-1.254 2.351-1.41-2.038-.627zm-11.601 6.582c-.157-.157-.157-.314 0-.471.157-.156.314-.313.627-.47.314-.156.627-.313.784-.313h.784l-2.195 1.254zm3.136-.941c0 .157 0 .157-.157.47a2.175 2.175 0 01-.627.471c-.314.156-.627.313-.784.313-.314.157-.627.157-.784 0l2.822-1.724.313.157-.783.313zm32.764-17.707c.314-.314.471-.47.471-.784h.156c.471.157 1.098 0 1.882-.47.313-.156.627-.313.94-.627l-.94-.626c-.157.156-.314.156-.471.156h-.313l-3.136-1.88-2.351 1.41 1.724.94c-.313 0-.784.157-1.254.314s-.94.313-1.254.627c-.47.313-.784.47-.941.783-.313.157-.47.47-.47.627h-.313c-.784.157-1.725.627-2.666 1.097-1.097.627-1.881 1.254-2.508 1.88h1.411c.157-.313.47-.47.784-.783.313-.157.627-.47.941-.627.47-.157.783-.313.94-.47h.784c-.47.157-.941.313-1.411.627-.47.313-.784.47-1.097.627-.314.156-.471.47-.627.626-.157.157-.157.314-.157.47 0 .157 0 .314.313.314.157.157.314.157.627.157.314 0 .471 0 .784-.157.314 0 .627-.157.941-.314l.941-.47c.47-.313.783-.47 1.097-.783.313-.314.47-.47.627-.784h.941c.313-.156.627-.313 1.097-.47.157 0 .314-.156.47-.313.157-.157.314-.157.471-.314.47-.156.783-.313 1.254-.626-.314.47 0 .156.313-.157zm-6.114 2.664l-.313.313c-.157.157-.314.157-.471.314-.156.156-.47.156-.627.313h-.47c-.157 0-.157-.157 0-.313.157-.157.314-.314.627-.47.157 0 .314-.157.47-.314.157-.157.314-.157.471-.157l.313.157v.157s0-.157 0 0zm3.606-2.351c-.314 0-.627 0-.784-.156-.157 0-.157-.157-.157-.157v-.314c0-.156.157-.156.157-.313.157-.157.314-.157.47-.313.314-.157.471-.314.784-.314.314 0 .627-.156.784-.156l.627.313c-.157.313-.313.627-.784.783a1.355 1.355 0 01-1.097.627zm12.542-8.618c.156-.157.313-.157.627-.157.156 0 .313 0 .47.157l1.724 1.097 2.352-1.411-1.725-1.097c0-.156 0-.313.157-.47l.471-.47c.156-.157.313-.157.627-.157.156 0 .313 0 .47.157l1.881 1.097.941-.627 1.097-.627 2.352-1.41-1.725-1.097c0-.157 0-.313.157-.47l.47-.47c.157-.157.314-.157.627-.157h.627l1.882 1.097.94-.627 1.098-.627.156-.156 1.098-.627 1.097-.627-1.724-1.097c0-.156 0-.313.157-.47l.47-.47c.157-.157.313-.157.627-.157.157 0 .313 0 .47.157l1.725 1.097 2.351-1.41-2.195-.784c0-.157 0-.313.157-.47l.471-.47c.156-.157.313-.157.627-.157.156 0 .313 0 .47.157l1.881.94 2.352-1.41 2.508-1.411-.157-.626h.471c.47-.157.94-.157 1.41-.47a7.338 7.338 0 001.568-.784c.784-.47 1.254-.784 1.568-1.254l.157.157 2.351-1.41-1.724-1.097c0-.157 0-.314.156-.47l.471-.47c.157-.157.313-.157.627-.157h.627l1.724 1.097 2.352-1.411.941-.47c.313-.156.47-.156.783-.313.471-.313.784-.47 1.098-.784.313-.313.47-.47.627-.783h.94a7.695 7.695 0 011.098-.47c.157 0 .313-.157.47-.314.157-.156.314-.156.47-.313l.784-.47-1.724-1.097c0-.157 0-.313.157-.47l.47-.47c.157-.157.313-.157.627-.157.157 0 .314 0 .47.157l1.725 1.097 2.351-1.411-1.724-1.097c0-.156 0-.313.157-.47l.47-.47c.157-.156.313-.156.627-.156.157 0 .314 0 .47.156l1.882 1.097 1.724-.94.47.783.941-.626-.314-.941-1.097-.626-.627.313-.941-.627c-.156 0-.313-.157-.47-.157h-.627c-.314 0-.47 0-.941.157-.313.157-.784.314-1.097.47-.47.314-.941.627-1.254.941-.314.313-.471.47-.471.783h-.47c-.157 0-.313 0-.47.157-.157 0-.47.156-.627.156-.157.157-.471.157-.784.314-.47.313-.941.627-1.254.94-.314.313-.471.47-.471.784l-.47-.314-2.038 1.254.157.156c-.627.157-1.411.471-2.352 1.097-.627.314-1.097.627-1.411.941l-2.194 1.253c-.314.157-.471.157-.784.47-.627.314-.941.627-1.254.941-.314.313-.471.626-.627.783l-.471-.313-2.038 1.253.157.157c-.157 0-.313 0-.47.157-.471.156-1.098.47-1.725.783-.47.314-.784.47-1.097.627l-2.665 1.097 1.097 2.037-3.449-.627-1.411.784c-.313.157-.47.157-.783.313-.471.314-.941.627-1.255.94-.313.314-.47.471-.47.784h-.47c-.157 0-.314 0-.471.157-.156 0-.47.156-.627.156-.156.157-.47.157-.783.314-.471.313-.941.627-1.255.94-.313.313-.47.47-.47.784l-.47-.314-.784.47-2.195 1.254c-.313.157-.47.157-.784.47-.627.313-.94.627-1.254.94-.313.314-.47.627-.627.784l-.47-.314-2.038 1.254-.941.47c-.313.157-.47.157-.784.313-.47.314-.94.627-1.254.941-.313.313-.47.47-.47.783h-.47c-.157 0-.314 0-.471.157-.157 0-.47.157-.627.157-.157.156-.47.156-.784.313-.47.313-.94.627-1.254.94-.313.314-.47.47-.47.784l-.627-.314-2.038 1.254 3.135 1.88 2.352-1.41-1.725-1.097c0-.157 0-.313.157-.47l.314-.313zm41.857-23.036l.313.157v.157s0 .156-.156.156l-.314.314c-.157.156-.313.156-.47.313-.157.157-.47.157-.627.314h-.471c-.156 0-.156-.157 0-.314.157-.157.314-.313.628-.47.156 0 .313-.157.47-.313.313-.157.47-.314.627-.314zm-3.135.627c.313-.157.627-.47.94-.627.47-.156.784-.313.941-.47h.784c-.471.157-.941.314-1.411.627-.471.313-.784.47-1.098.627l-.313-.157c0 .157 0 0 .157 0zm-6.428 5.328l-.627.313c0 .157 0 .157-.157.47-.157.157-.313.314-.627.471-.313.156-.627.313-.784.313-.313.157-.627.157-.784 0l2.822-1.724.157.157zm-3.919.627c.157-.157.313-.314.627-.47.313-.157.627-.314.784-.314h.784l-2.195 1.254c0-.157-.157-.314 0-.47zm-21.478 11.126l-.94-.627-2.352 1.41.941.627 2.351-1.41zm6.114-3.604l-.94-.627-2.352 1.41.941.627 2.351-1.41zm24.3-13.947l-.941-.627-2.352 1.41.941.627 2.352-1.41zm26.18-14.73l-.627.47.47.313c-.47 0-.784.157-1.254.314-.47.156-.94.313-1.411.627-.47.313-.784.47-1.097.783-.314.313-.47.47-.627.784-.157.313-.157.47-.157.626 0 .157.157.314.47.471.314.156.471.156.941.313h1.097c.471 0 .784-.157 1.254-.313.471-.157.784-.314 1.255-.627.47-.314.783-.47 1.097-.784.314-.313.314-.47.47-.627l1.098.627c.156 0 .313.157.47.157h.627c.157 0 .47-.157.627-.157.157-.157.47-.157.627-.313.157-.157.314-.157.627-.314.157-.156.471-.313.627-.47l-.94-.627c-.157.157-.471.157-.471.157h-.313c.157-.157.47-.157.627-.313.47-.314.941-.627 1.254-.94.314-.314.47-.627.627-.941h.157c.47.157 1.097 0 1.881-.47.314-.157.627-.313.941-.627l.784-.47a7.303 7.303 0 001.567-.783c.471-.314.784-.47 1.098-.627.313-.157.47-.47.627-.627.157-.157.157-.313.157-.47 0-.157-.157-.313-.314-.313s-.313-.157-.47-.157c-.157 0-.471 0-.627.157-.314 0-.627.156-.941.313-.313.157-.784.313-1.411.627-.47.156-.784.313-.94.313h-.314v-.157s.157-.156.314-.156c.313-.157.47-.314.783-.47.314-.157.784-.314 1.255-.47l.156-.94c-.627.156-1.254.313-1.724.47-.47.156-.941.47-1.411.783-.314.157-.784.47-.941.627l-2.194 1.253-1.411.784 2.038 1.097c0 .157-.157.313-.314.47-.157.157-.313.313-.47.313-.157.157-.471.157-.627.157-.157 0-.314 0-.471-.157l-2.351-1.097-.941.627-.784.47-.47.314zm10.66-3.918c.471-.157.784-.313.941-.313h.314c.156 0 0 .156-.314.313s-.627.314-1.097.47c-.157 0-.314.157-.471.157l-.47-.157c.314-.156.627-.313 1.097-.47zm-10.503 6.425c-.314.157-.784.313-1.098.47-.313 0-.627 0-.783-.157-.157 0-.157-.156-.157-.156v-.314c0-.156.157-.156.157-.313.156-.157.313-.157.47-.313.313-.157.47-.314.784-.314.313 0 .627-.157.784-.157l.627.314c-.157.47-.314.627-.784.94zm7.211-7.208l-.94-.627-2.352 1.41.941.627 2.351-1.41zm-91.239 73.494c.627-.314 1.254-.627 1.724-.941.47-.313.784-.47 1.097-.626.314-.157.471-.314.627-.471h.157c.314 0 .471-.156.784-.313.314-.157.47-.313.784-.47.313-.157.627-.47.941-.627l1.567-.94-1.881-1.097.157-.157.94.47c.314.157.784.314 1.411.157.471-.157 1.098-.313 1.725-.627.47-.313.94-.627 1.254-.94.313-.313.47-.627.627-.94h.157c.47.157 1.097-.157 1.881-.47.314-.157.627-.314.941-.627.47-.157.94-.314 1.254-.627.47-.313.784-.47 1.097-.783.314-.314.47-.471.47-.784h.157c.471.157 1.098 0 1.881-.47.314-.157.628-.313.941-.627l-.941-.627c-.156.157-.313.157-.47.157h-.313l-3.136-1.88-2.351 1.41 1.724.94c-.313 0-.784.157-1.254.314-.47.156-.941.313-1.254.626-.314.314-.784.47-.941.784l-.157.157-.156-.157-2.352 1.41 2.038 1.097c0 .157-.157.313-.313.47-.157.157-.314.314-.471.314-.156.156-.47.156-.627.156-.157 0-.313 0-.47-.156l-1.881-1.097-.627.47s-.157 0-.314.156c-.157.157-.47.314-.627.471l-.784.47.314.156c0 .157-.157.314-.157.471l-.627-.314-.784.47-1.254.784-.941-.627-2.351 1.41.94.627-.627.47c-.313.157-.784.314-1.097.47-.314.157-.784.47-.941.627-.313.157-.47.47-.627.627v.157c-.313.156-.627.156-.94.313-.471.157-1.098.47-1.725.784-.627.313-1.097.626-1.411.94-.157.156-.47.313-.47.627-.157 0-.47 0-.784.156-.314.157-.784.314-1.097.47-.627.314-.941.627-1.255.941-.313.313-.47.626-.627.783l-.783-.47-2.038 1.254 3.135 1.88 2.351-1.41-1.724-1.097c0-.157 0-.314.157-.47l.47-.47c.157-.157.314-.157.627-.157h.627l1.881 1.097 2.352-1.41h-.47c.156 0 .313 0 .47-.157.47-.157 1.097-.47 1.724-.784.628-.313 1.098-.627 1.411-.94l.471-.47c.313-.157.47-.157.784-.313zm13.795-10.343c0-.157.157-.157.157-.313.157-.157.314-.157.47-.314.314-.156.471-.313.784-.313.314 0 .627-.157.784-.157l.627.314c-.157.313-.313.626-.784.783-.313.157-.784.314-1.097.47h-.784c-.157 0-.157-.156-.157-.156v-.314zm-16.774 10.969l-.627.627c-.314.157-.627.314-.941.314-.313 0-.627 0-.784-.157-.156-.157-.313-.314-.156-.47l.627-.627c.313-.157.627-.313.94-.313.314 0 .627 0 .784.156.157 0 .157.157.157.47zm3.919-2.037a7.516 7.516 0 01-1.097.47c-.157 0-.157 0-.314.157 0-.157 0-.157-.157-.313.157-.157.471-.157.628-.314.47-.156.783-.313.94-.313h.314c.156 0 .156.157-.314.313zm-2.195-.47c0-.157.157-.313.314-.313.313-.157.47-.314.784-.314h.313c.314-.156.471-.156.941-.313h.313c-.313.157-.783.313-1.41.627-.471.156-.784.313-.941.313h-.314zm66.784-35.885l.314-.313.156.156 2.352-1.41-1.725-1.097c0-.157 0-.313.157-.47l.471-.47c.156-.157.313-.157.627-.157h.627l1.724 1.097 2.352-1.41-2.038-1.254c-.157 0-.314-.157-.471-.157h-.627c-.313 0-.47 0-.94.157-.314.157-.784.314-1.098.47-.627.314-.94.627-1.254.94-.313.314-.47.627-.627.784l-.47-.313-2.038 1.253.157.157c-.157 0-.314 0-.471.157-.47.156-1.097.47-1.724.783-.627.314-1.098.627-1.411.94l-.314.314-.156-.157-1.255.784-1.254.783-.313-.157 2.351-1.253-.94-.627-2.352 1.41.314.157-2.352 1.254.941.626-.784.471h.157c-.471.156-1.098.47-1.725.783-.47.313-1.097.627-1.411.94l-1.254.784-1.097-.784-1.568.784-.314-.157-2.351 1.41.941.627 1.567-.783.314.156-.784.471-.627.313c-.47.157-.941.47-1.568.783-.47.314-.94.627-1.254.941h-.157s-.157 0-.313.156c-.471.157-.627.47-.941.784-.157.313-.313.47-.313.783l-.628-.313-2.194 1.254.156.156c-.156 0-.313 0-.47.157-.47.157-1.097.47-1.724.784-.314.156-.627.47-.941.626l-2.195 1.097-.156.941v.156h-2.038l-2.352 1.411c-.314.156-.784.313-1.097.47-.627.313-1.098.626-1.411.94l-.784.783c-.157.314-.157.471-.157.627 0 .157.157.314.47.47.157.157.471.157.784.157.314 0 .784 0 1.254-.157.471-.156.941-.156 1.411-.47a7.287 7.287 0 001.568-.783c.47-.157.784-.47 1.097-.627l2.195-1.254.157-1.097v-.156h.157l1.724-.157 2.352-1.41a7.619 7.619 0 011.097-.471c.784-.47 1.254-.783 1.568-1.253l.157.157 2.351-1.411-.941-.156c.157 0 .314.156.628.156.313 0 .783 0 1.254-.156.47-.157.94-.157 1.411-.471.47-.156 1.097-.47 1.724-.783.47-.314.941-.627 1.254-.94l2.352-1.411c.157 0 .313-.156.47-.156.314-.157.47-.314.784-.47.313-.157.627-.471 1.097-.627l.157-.157h.157l.94-.47c.471-.313.784-.47 1.098-.784.313-.313.47-.47.627-.783h.941a7.516 7.516 0 011.097-.47c.157 0 .313-.157.47-.314.157-.156.314-.156.471-.313.313-.157.47-.313.783-.47.314-.157.627-.47.941-.627l1.568-.94-.157-.157c.157 0 .313 0 .47-.157.471-.156 1.098-.47 1.725-.783.156 0 .627-.314 1.097-.627zm-37.938 19.745c-.157-.157-.157-.314 0-.47.157-.157.313-.314.627-.471.314-.156.627-.313.784-.313h.784l-2.195 1.254zm4.233-1.411l-1.098.47c0 .157 0 .157-.156.471-.157.156-.314.313-.628.47-.313.156-.627.313-.783.313-.314.157-.627.157-.784 0l3.762-2.194-.313.47zm4.546-4.074c.157-.157.314-.313.627-.47.314-.157.627-.313.784-.313h.784l-2.195 1.096c-.157 0-.157-.156 0-.313zm3.135-.47c0 .157 0 .157-.156.47a2.174 2.174 0 01-.627.47c-.314.157-.628.314-.784.314-.314.156-.627.156-.784 0l2.822-1.724.313.157-.784.313zm7.212-4.231c0 .157-.314.47-.627.627-.314.156-.627.313-.941.313-.313 0-.627 0-.784-.157-.157-.156-.313-.313-.157-.47l.628-.626c.313-.157.783-.314 1.097-.314l.47-.313 1.098.627-.784.313zm4.86-3.761c-.314.157-.471.47-.627.627-.157.157-.157.313-.157.313l-.784-.47.47-.157h.314c.157-.313.47-.47.784-.783.313-.157.627-.47.94-.627.471-.157.784-.313.941-.47h.784c-.471.157-.941.313-1.411.627-.627.47-.941.783-1.254.94zm3.292-.627l-.314.314c-.157.156-.313.156-.47.313-.157.157-.47.157-.627.313h-.47c-.157 0-.157-.156 0-.313.156-.157.313-.313.627-.47.156 0 .313-.157.47-.313.157-.157.313-.157.47-.157l.314.157v.156s0-.156 0 0zm8.936-5.328l-.627.627c-.314.157-.628.314-.941.314-.314 0-.627 0-.784-.157-.157-.157-.313-.314-.157-.47l.627-.627c.314-.157.627-.313.941-.313.314 0 .627 0 .784.156.157 0 .157.157.157.47zm33.078-20.998h-.47c-.157 0-.314 0-.471.157-.156 0-.47.157-.627.157-.157.156-.47.156-.784.313-.47.313-.94.627-1.254.94-.313.314-.47.47-.47.784l-.47-.314-2.038 1.254.156.157c-.627.156-1.411.47-2.351 1.097-.941.47-1.568 1.096-2.195 1.567l-1.568-.784-2.351 1.41-1.881 1.097 1.254.784-1.254.783 2.038 1.097c0 .157-.157.314-.314.47-.157.157-.313.314-.47.314-.157.156-.471.156-.627.156-.157 0-.314 0-.471-.156l-1.881-1.097-2.351 1.41 2.038 1.254c.313.157.783.313 1.411.157.47-.157 1.097-.314 1.724-.627.47-.314.941-.627 1.254-.941.314-.313.47-.626.627-.94h.157c.47.157 1.097 0 1.881-.47.157-.157.471-.313.627-.47.157-.157.471-.157.627-.313.314-.157.627-.314.941-.627l.941-.47c.313-.157.627-.314.94-.627h.157l.941-.47c.47-.314.783-.47 1.097-.784.314-.313.47-.47.627-.783h.941a7.516 7.516 0 011.097-.47c.157 0 .314-.157.47-.314.157-.156.314-.156.471-.313l.784-.47-1.882-1.097c0-.157 0-.314.157-.47l.47-.47c.157-.157.314-.157.627-.157.157 0 .314 0 .471.157l1.881 1.096 2.352-1.41-1.725-1.097c0-.156 0-.313.157-.47l.47-.47c.157-.157.314-.157.627-.157.157 0 .314 0 .471.157l1.724 1.097 2.352-1.41-.157-.157c.157 0 .313 0 .47-.157.47-.156 1.097-.47 1.725-.783.783-.47 1.41-.941 1.724-1.254.157-.157.157-.157.157-.313.313-.157.627-.157.94-.314.471-.156 1.098-.47 1.725-.783.627-.314 1.097-.627 1.411-.94l.784-.784c.156-.313.156-.47.156-.627 0-.157-.156-.313-.47-.47-.157-.157-.47-.157-.784-.157-.313 0-.784 0-1.254.157s-.941.157-1.411.47c-.47.157-1.097.47-1.724.784-.627.313-1.098.627-1.411.94-.157.157-.471.313-.471.627-.156 0-.313 0-.47.156-.627.157-1.411.471-2.195.941-.627.313-1.097.626-1.411.94-.156.157-.47.313-.47.627-.157 0-.47 0-.784.156a7.619 7.619 0 01-1.097.471c-.47.313-.941.626-1.254.94-.627-.157-.784.156-.784.313zm-9.093 6.112c-.313.156-.47.47-.627.626l-.627-.313h.47c.157-.313.471-.47.784-.784.314-.156.627-.47.941-.626.313-.157.784-.314.941-.47h.783c-.47.156-.94.313-1.411.626-.627.47-.94.627-1.254.941zm3.136-.627c0 .156-.157.156-.314.313s-.313.157-.47.314c-.157.156-.47.156-.627.313h-.471c-.156 0-.156-.157 0-.313.157-.157.314-.314.628-.471.156 0 .313-.156.47-.313.157-.157.313-.157.47-.157l.314.157v.157c.156-.157.156-.157 0 0zm16.304-10.813l.627-.627c.313-.156.627-.313.94-.313.314 0 .627 0 .784.157.157.156.314.313.157.47l-.627.627c-.314.156-.627.313-.941.313-.313 0-.627 0-.784-.157-.156-.156-.313-.313-.156-.47zm-4.547 2.664l.627-.627c.314-.156.784-.313 1.098-.313l.313-.157c0 .157.157.314.314.314.157.156.47.156.627.156l-.314.157c0 .157-.313.47-.627.627-.313.157-.627.313-.94.313-.314 0-.627 0-.784-.156-.314 0-.47-.157-.314-.314zm-85.282 68.479c.47-.156 1.097-.47 1.724-.783.627-.313 1.098-.627 1.411-.94l.314-.314.157.157 2.351-1.41-1.881-1.097c0-.157.157-.157.157-.314l2.038 1.254 2.351-1.41a7.292 7.292 0 001.568-.784c.47-.313.784-.47 1.097-.627.314-.156.471-.47.627-.626.157-.157.157-.314.157-.471 0-.156-.157-.313-.313-.313-.157 0-.314-.157-.471-.157-.156 0-.47 0-.627.157-.313 0-.627.157-.94.313-.314.157-.784.314-1.411.627-.784 0-1.098.157-1.254.157h-.314v-.157s.157-.156.314-.156c.313-.157.47-.314.783-.471.314-.156.784-.313 1.255-.47l.156-.94c-.627.157-1.097.314-1.724.47-.47.157-.941.47-1.411.784-.314.156-.784.47-.941.627l-.627.313s-.157 0-.313.157c-.157.156-.471.313-.627.47l-.784.47.313.157c-.156.156-.156.313-.156.47l-.628-.157-2.194 1.254.156.156c-.156 0-.313 0-.47.157-.47.157-1.097.47-1.724.784-.627.313-1.098.626-1.411.94-.314.313-.471.47-.627.783-.314 0-.627.157-1.098.314-.47.156-.784.313-1.254.626-.47.314-.784.471-1.097.784-.314.313-.314.47-.471.627l-1.724-.94-2.352 1.41 1.411.783c-.627.157-1.411.471-2.351 1.097-.941.47-1.568 1.097-2.195 1.567l-.941-1.253-2.351 1.41 3.606 2.037c.313.157.627.157 1.254.157.47-.157 1.097-.313 1.724-.627.314-.157.627-.313.941-.627h.157l.94-.47c.471-.313.784-.47 1.098-.783.313-.314.47-.47.627-.784h.94a7.645 7.645 0 011.098-.47c.156 0 .313-.157.47-.313.157-.157.314-.157.47-.314l.471-.313-.471-.314c.784 0 1.725-.313 2.665-.94.471-.313.784-.47 1.098-.783l.627-.627c-.314-.157.157-.157.627-.314zm8.152-6.111c.47-.157.784-.313.941-.313h.313c.157 0 0 .156-.313.313a7.695 7.695 0 01-1.098.47c-.157 0-.313.157-.47.157l-.47-.157a7.627 7.627 0 011.097-.47zm-20.85 11.126c-.314.157-.471.47-.627.627l-.628-.314h.471c.157-.313.47-.47.784-.783.313-.157.627-.47.94-.627.471-.157.784-.313.941-.47h.784c-.471.157-.941.313-1.411.627-.627.47-.941.783-1.254.94zm3.292-.627l-.314.314c-.157.156-.313.156-.47.313-.157.157-.47.157-.627.313h-.47c-.157 0-.157-.156 0-.313.156-.157.313-.313.627-.47.156 0 .313-.157.47-.314.157-.156.313-.156.47-.156l.314.156v.157c0-.157 0 0 0 0zm5.643-3.447c-.156.156-.313.47-.783.627-.471.313-.941.47-1.411.47l-.627-.314c0-.156 0-.313.156-.47.157-.157.314-.313.627-.47.157-.157.314-.157.471-.313.157 0 .313-.157.47-.157h.47c.157 0 .314 0 .314.157.313.156.313.313.313.47zm2.352-2.508l.627-.626c.314-.157.627-.314.941-.314.313 0 .627 0 .784.157.156.157.313.313.156.47l-.627.627c-.313.157-.627.313-.94.313-.314 0-.627 0-.784-.156-.157-.157-.157-.314-.157-.471zm3.135-4.544l.941.627 2.352-1.41-.941-.627-2.352 1.41zm20.224-10.499l-.941-.627-2.352 1.41.941.627 2.352-1.41zm5.8.627l2.352-1.411-3.136-1.88-2.351 1.41c-.471.157-.941.47-1.411.784-.314.157-.784.47-.941.627l-2.195 1.253c-.313.157-.47.157-.783.47-.628.314-.941.627-1.255.941-.313.313-.47.626-.627.783l-.47-.313-2.038 1.253 3.135 1.881 2.352-1.411-1.725-1.096c0-.157 0-.314.157-.471l.471-.47c.156-.156.313-.156.627-.156h.627l1.724 1.097.941-.627.47-.314.784-.47.941-.627a7.303 7.303 0 001.567-.783c.157-.157.471-.314.784-.47zm-4.076-.314s0-.156 0 0c0-.156.157-.313.314-.313.313-.157.47-.313.783-.47.157 0 .471-.157.628-.314l.313.157-.941.47c-.47.157-.783.314-.94.314 0 .156-.157.156-.157.156zm2.352.47c-.314.157-.627.314-1.098.471-.157 0-.313.156-.47.156l-.47-.156a7.619 7.619 0 011.097-.471c.47-.156.784-.313.941-.313h.313s0 .157-.313.313zm-.314-4.074l-2.351 1.411.94.626 2.352-1.41-.941-.627zm17.872-5.171c.313-.157.627-.47 1.097-.627.314-.313.627-.47.941-.627l-1.254-.313c-.157.157-.314.157-.314.313-.157.157-.313.157-.313.314-.157.156-.314.156-.471.156h-.313l-1.098-.626 1.254-.784-1.097-.627-1.254.784-.941-.627-2.351 1.41.94.627-.783.314-.941.47 2.038 1.097c0 .156-.157.313-.314.47-.156.156-.313.313-.47.313-.157.157-.47.157-.627.157-.157 0-.314 0-.47-.157l-1.882-.783-2.351 1.253 2.038 1.254c.313.157.784.313 1.411.157.47-.157 1.097-.314 1.724-.627.471-.314.941-.627 1.254-.94.314-.314.471-.627.628-.941h.156c.471.157 1.098 0 1.882-.47.313-.156.627-.313.94-.627h.157c.313 0 .627-.156.784-.313zm23.985-18.961l-2.351 1.41.941.627 2.351-1.41-.941-.627zm7.525.783c.471-.156.784-.47.941-.626.314-.314.47-.471.47-.627a.476.476 0 000-.627c0-.157-.156-.313-.47-.47-.314-.157-.47-.157-.941-.314h-1.097c-.47 0-.784.157-1.254.314s-.941.313-1.254.627c-.471.313-.784.47-1.098.783-.313.314-.313.47-.47.784l-.47-.314-2.038 1.097-2.352 1.411 2.038 1.096c0 .157-.157.314-.313.471-.157.156-.314.313-.471.313-.156.157-.47.157-.627.157-.157 0-.313 0-.47-.157l-1.881-1.097-2.352 1.41-.627.47.47.314c-.47 0-.783.157-1.254.313-.47.157-.94.314-1.411.627-.47.314-.784.47-1.097.784l-.157.156h-.157l-1.881 1.097-.313-.156 1.881-1.097-.941-.627-2.351 1.41-1.725.94 1.411.784c-.627.157-1.411.47-2.195.94-1.097.627-1.881 1.254-2.508 1.881h1.411c.157-.314.47-.471.784-.784.313-.157.627-.47.94-.627.471-.156.784-.313.941-.47h.784c-.47.157-.941.314-1.411.627-.47.313-.784.47-1.097.627-.314.156-.471.47-.627.627-.157.156-.157.313-.157.47 0 .156 0 .313.313.313.157.157.314.157.627.157.314 0 .471 0 .784-.157.314 0 .627-.157.941-.313l.94-.47c.471-.314.784-.471 1.098-.784.313-.313.47-.47.627-.783h.941a7.619 7.619 0 011.097-.471c.157 0 .313-.156.47-.313.157 0 .157-.157.314-.157.157-.156.313-.156.627-.313.313-.157.627-.314.94-.627l1.255-.783h-.157c.47-.157.784-.314 1.254-.627.47-.314.784-.47 1.097-.784.314-.313.314-.47.471-.627l1.097.627c.157 0 .314.157.47.157h.627c.157 0 .471-.157.628-.157.156-.156.47-.156.627-.313.156-.157.313-.157.627-.314.156-.156.47-.313.627-.47l-.941-.627c-.157.157-.47.157-.47.157h-.314c.157-.156.471-.156.627-.313.471-.314.941-.627 1.255-.94.313-.314.47-.627.627-.941h.156c.471.157 1.098 0 1.882-.47.156-.156.313-.156.47-.313l1.254.783 2.352-1.41-1.725-1.097c.314 0 .784-.157 1.254-.157.471 0 .157.314.627 0zm-21.634 11.283l-.313.313c-.157.157-.314.157-.471.314-.156.157-.47.157-.627.313h-.47c-.157 0-.157-.156 0-.313s.314-.314.627-.47c.157 0 .314-.157.47-.314.157-.156.314-.156.471-.156l.313.156v.157c.157 0 .157 0 0 0zm7.682-4.388c-.314.157-.784.314-1.097.47-.314 0-.628 0-.784-.156-.157 0-.157-.157-.157-.157v-.313c0-.157.157-.157.157-.314.156-.156.313-.156.47-.313.314-.157.47-.314.784-.314.313 0 .627-.156.784-.156l.627.313c0 .47-.314.627-.784.94zm12.228-7.051c-.314.156-.47.313-.784.313-.313 0-.627.157-.784.157l-.627-.314c.157-.313.314-.626.784-.783.314-.157.784-.314 1.097-.47.314 0 .627 0 .784.156.157 0 .157.157.157.157v.314c0 .156-.157.156-.157.313-.157 0-.313.157-.47.157zm18.499-9.559l2.351-1.411-3.762.314.627-2.194-2.352 1.41-.156.941v.156h-2.038l-2.352 1.411c-.314.156-.784.313-1.097.47-.627.313-1.098.627-1.411.94l-.784.783c-.157.314-.157.471-.157.627 0 .157.157.314.47.47.157.157.471.157.784.157.314 0 .784 0 1.254-.157.471-.156.941-.156 1.411-.47a7.287 7.287 0 001.568-.783c.47-.157.784-.47 1.097-.627l2.195-1.254.157-1.097v-.156h.157l2.038.47zm-8.466 2.664c-.157-.157-.157-.314 0-.47.157-.157.314-.314.627-.47.314-.157.627-.314.784-.314h.784l-2.195 1.254zm4.233-1.411l-1.097.471c0 .156 0 .156-.157.47-.157.156-.314.313-.627.47-.314.156-.627.313-.784.313-.314.157-.627.157-.784 0l3.762-2.194-.313.47zm9.72-6.268c.156.157.47.157.783.157.314 0 .784 0 1.255-.157.47-.156.94-.156 1.411-.47a7.35 7.35 0 001.567-.783c.784-.47 1.411-.941 1.725-1.254l.156-.157c.314 0 .628-.156.941-.313l.941-.47c.47-.314.784-.47 1.097-.784.314-.313.47-.47.627-.783h.941a7.516 7.516 0 011.097-.47c.157 0 .314-.157.47-.314.157-.156.314-.156.471-.313l-.941-.627c-.157.157-.313.157-.47.157h-.314l-.627-.314c-.47-.313-1.097-.313-1.881-.156-.784.156-1.724.626-2.665 1.253-.941.627-1.725 1.097-2.195 1.724-.313 0-.47.157-.784.157-.47.156-1.097.47-1.724.783-.627.314-1.098.627-1.411.94l-.784.784c-.157.313-.157.47-.157.627.157.47.314.627.471.783zm9.406-5.171l.313.157V116s0 .157-.156.157c0 .157-.157.157-.314.314-.157.156-.314.156-.47.313-.157.157-.471.157-.627.313h-.471c-.156 0-.156-.156 0-.313.157-.157.314-.313.627-.47.157 0 .314-.157.471-.314.313-.156.47-.313.627-.313zm-3.136.627c.314-.157.627-.47.941-.627.47-.157.784-.313.941-.47h.783c-.47.157-.94.313-1.41.627-.314.156-.628.313-.784.47-.157 0-.157 0-.314-.157h-.157c-.156.314-.156.157 0 .157zm-.783 1.724s0 .156 0 0l-.157.313c0 .157 0 .157-.157.47-.157.157-.314.314-.627.47-.314.157-.627.314-.784.314-.313.156-.627.156-.784 0l2.509-1.567zm-3.449.783c.156-.157.313-.313.627-.47.313-.157.627-.313.784-.313h.783l-2.194 1.253v-.47zm-88.575 68.48c0-.156 0-.313.157-.47l.47-.47c.157-.156.314-.156.627-.156.157 0 .314 0 .47.156l1.882 1.097 2.351-1.41-1.724-1.097c0-.157 0-.313.157-.47l.47-.47c.157-.157.313-.157.627-.157.313 0 .313 0 .47.157l1.725 1.097.94-.627 1.098-.627.156-.157.941-.627-1.724-1.096c0-.157 0-.314.156-.471l.471-.47c.156-.156.313-.156.627-.156.157 0 .313 0 .47.156l1.881 1.097 2.352-1.41-1.725-1.097c0-.157 0-.313.157-.47l.47-.47c.157-.157.314-.157.628-.157.156 0 .313 0 .47.157l1.724 1.097 2.352-1.411-.157-.156c.157 0 .314 0 .47-.157.471-.157 1.098-.47 1.725-.784.627-.313 1.097-.626 1.411-.94.313-.313.47-.47.627-.783.313 0 .784-.157 1.254-.314.47-.156.941-.313 1.411-.626.47-.314.784-.471 1.097-.784.314-.313.471-.47.471-.784h.156c.471.157 1.098 0 1.882-.47.313-.156.627-.313.94-.626h-.157.157c.471-.157 1.098-.471 1.725-.784.627-.313 1.097-.627 1.411-.94l.783-.784c0-.156.157-.313.157-.313h.627c.471-.157.941-.157 1.411-.47.471-.157 1.098-.47 1.725-.784.784-.47 1.411-.94 1.724-1.253.157-.157.157-.157.157-.314.313-.156.627-.156.941-.313.47-.157 1.097-.47 1.724-.784.627-.313 1.097-.626 1.411-.94l.313-.313.157.156 2.352-1.41-1.725-1.097c0-.157 0-.313.157-.47l.47-.47c.157-.157.314-.157.627-.157h.628l1.724 1.097 2.352-1.41c.47-.157.94-.47 1.41-.784.471-.313.784-.47 1.098-.627.313-.156.47-.47.627-.626v-.157c.313 0 .47-.157.784-.313a7.355 7.355 0 001.567-.784c.784-.47 1.411-.94 1.725-1.254.157-.156.157-.313.313-.313.314 0 .628-.157.941-.313.47-.157.784-.314 1.254-.627.471-.314.784-.47 1.098-.784.313-.313.313-.47.47-.627l1.097.627c.157 0 .314.157.471.157h.627c.156 0 .47-.157.627-.157.157-.156.47-.156.627-.313.157-.157.313-.157.627-.314.157-.156.47-.313.627-.47l-.941-.626c-.156.156-.47.156-.47.156h-.313c.156-.156.47-.156.627-.313.47-.314.94-.627 1.254-.94.313-.314.47-.627.627-.941h.157c.47.157 1.097 0 1.881-.47.157-.156.47-.313.784-.47.156-.157.47-.157.627-.313.47-.314.784-.47 1.097-.784.314-.313.47-.47.627-.783h.941a7.516 7.516 0 011.097-.47c.157 0 .314-.157.471-.314.156-.156.313-.156.47-.313.313-.157.47-.314.784-.47.313-.157.627-.47.94-.627l1.254-.627 3.136-1.88c.627-.314 1.254-.784 1.568-1.097.313-.314.627-.627.783-.941h.627c.471-.156 1.098-.313 1.725-.626.47-.314.941-.627 1.254-.941.314-.313.47-.626.627-.94h.157c.47.157 1.097 0 1.881-.47.314-.157.627-.313.941-.627l.784-.47a7.303 7.303 0 001.567-.783c.471-.314.784-.47 1.098-.627.313-.157.47-.47.627-.627v-.157h.157c.313 0 .627-.156.94-.313l.941-.47c.47-.314.784-.47 1.097-.784.314-.313.47-.47.627-.783h.941a7.516 7.516 0 011.097-.47c.157 0 .314-.157.471-.314.156 0 .156-.156.313-.156.157-.157.314-.157.627-.314.47-.313.941-.627 1.254-.94.314-.313.471-.627.627-.94h.157c.47.156 1.098 0 1.881-.47.314-.157.627-.314.941-.627h.157c.313-.157.47-.314.784-.47.313-.157.627-.47 1.097-.627.157-.157.47-.313.627-.47h.157a7.338 7.338 0 001.568-.784c.783-.47 1.41-.94 1.724-1.253.314-.47.627-.784.627-1.097l-2.195.94c0 .157 0 .157-.156.47a2.167 2.167 0 01-.628.47c-.313.157-.627.314-.783.314-.314.156-.627.156-.784 0l4.546-2.664-.157-.157-.156-.157c-.157-.156-.471-.156-.784-.156-.314 0-.784 0-1.254.156-.471.157-.941.157-1.411.47-.471.157-1.098.47-1.725.784-.627.313-1.097.627-1.411.94-.157 0-.157.157-.157.157l-.156-.157-2.665 1.097-.941-.627-2.352 1.411.941.626-.313.157-.471.313-.94.471 2.038 1.096c0 .157-.157.314-.314.471-.157.156-.313.313-.47.313-.157.157-.471.157-.627.157-.157 0-.314 0-.471-.157l-1.881-1.097-2.351 1.41.156.157c-.627.157-1.411.47-2.194.94-.941.627-1.725 1.254-2.352 1.724-.47.157-.941.313-1.254.47-.47.157-.941.47-1.411.784-.314.156-.784.47-.941.626l-2.351 1.411-1.254.783 2.038 1.097c0 .157-.157.314-.314.47-.157.157-.313.314-.47.314-.157.156-.47.156-.627.156-.157 0-.314 0-.471-.156l-1.881-1.097-1.097.627c-.314 0-.784 0-1.098.156-.627.157-1.097.314-1.881.47-.627.314-1.411.627-2.038.941l-3.292 1.88 3.135 1.881-1.567.94h-.314l-1.097-.627 1.254-.784-.941-.47-1.254.784-.94-.627-2.352 1.41.941.627-.784.47h.157c-.471.157-1.098.47-1.725.784-.627.313-1.097.783-1.568 1.097h-.156l-2.352 1.41 2.038 1.097c0 .157-.157.313-.313.47-.157.157-.314.314-.471.314-.156.156-.47.156-.627.156-.157 0-.313 0-.47-.156l-1.881-1.097-2.352 1.41-.627.47.47.313c-.47 0-.783.157-1.254.314-.47.157-.94.313-1.411.627-.47.313-.784.47-1.097.783l-.627.627c-.314.157-.784.157-1.254.313-.471.157-1.098.47-1.725.784-.627.313-1.097.627-1.411.94l-.47.47c-.47.157-.784.157-1.097.314-.471.156-.941.47-1.411.783-.314.157-.784.47-.941.627l-.47.47h-.314c-.313.157-.784.313-1.097.47-.627.314-.941.627-1.254.94-.314.314-.471.627-.627.784l-.471-.313-2.038 1.253.157.157c-.157 0-.313 0-.47.157-.471.156-1.098.47-1.725.783-.627.313-1.097.627-1.411.94-.156.157-.47.314-.47.627-.157 0-.313 0-.47.157-.627.157-1.411.47-2.195.94-.627.313-1.097.627-1.411.94l-.784.784c0 .156-.157.313-.157.313h-.627c-.47.157-.94.157-1.411.47-.47.157-1.097.47-1.724.784-.627.313-1.097.627-1.411.94l-.47.47-1.411-.783-2.352 1.41 1.725.94c-.314 0-.784.157-1.254.314-.471.156-.941.313-1.255.626-.47.314-.783.47-.94.784-.314.157-.47.47-.47.627-.314.156-.784.156-1.255.313-.47.157-1.097.47-1.724.784-.627.313-1.097.626-1.411.94-.157.157-.47.313-.47.627-.157 0-.471 0-.627.156-.314.157-.627.314-1.098.47-.47.314-.94.627-1.254.941-.313.313-.47.47-.47.783h-.471c-.156 0-.313 0-.47.157-.157 0-.47.157-.627.157-.157.156-.47.156-.784.313-.47.313-.94.627-1.254.94-.313.314-.47.47-.47.784l-.471-.314-1.881 1.097c-.313.157-.47.157-.784.314-.47.313-.94.626-1.254.94-.313.313-.47.47-.47.783h-.47c-.157 0-.314 0-.471.157-.156 0-.47.157-.627.157-.157.157-.47.157-.784.313-.47.314-.94.627-1.254.94-.313.314-.47.471-.47.784l-.47-.313-2.509 1.723.157.157c-.157 0-.313 0-.47.157-.471.156-1.098.47-1.725.783-.627.314-1.097.627-1.411.94-.156.157-.47.314-.47.627-.157 0-.313 0-.47.157-.627.157-1.411.47-2.195.94-.627.314-1.097.627-1.411.94l-.784.784c-.157.313-.157.47-.157.627 0 .156.157.313.471.47.157.157.47.157.94.157.314 0 .784 0 1.255-.157.47-.157.94-.157 1.41-.47.471-.157 1.098-.47 1.725-.784.784-.47 1.411-.94 1.724-1.253.157-.157.157-.157.157-.314.314-.157.627-.157.941-.313.47-.157 1.097-.47 1.724-.784.627-.313 1.098-.627 1.411-.94l.314-.313.156.156 2.352-1.41-2.038-.784zm108.171-62.838c.157-.156.313-.313.627-.47.313-.156.627-.313.784-.313h.784l-2.195 1.254c-.157-.157-.157-.314 0-.471zm-15.677 10.813a7.645 7.645 0 01-1.098.47c-.156 0-.313.157-.47.157l-.47-.157a7.627 7.627 0 011.097-.47c.471-.157.784-.313.941-.313h.313s0 .156-.313.313zm4.546-3.447c.157-.157.314-.157.47-.157l.314.157v.156s0 .157-.157.157l-.313.313c-.157.157-.314.157-.471.314-.156.156-.47.156-.627.313h-.47c-.157 0-.157-.157 0-.313.157-.157.314-.314.627-.47.314-.314.47-.314.627-.47zm-6.898 2.82s.157-.157.314-.157c.313-.156.47-.313.784-.47.313-.156.784-.313 1.254-.47l.157-.627h.94c.157-.313.471-.47.784-.783.314-.157.627-.47.941-.627.47-.157.784-.313.94-.47h.784c-.47.157-.94.313-1.411.627-.47.313-.784.47-1.097.627-.314.156-.47.47-.627.626l-.157.157c-.314 0-.627.157-.941.314-.313.156-.783.313-1.411.626-.47.157-.783.314-.94.314-.157.47-.314.47-.314.313 0 .157 0 0 0 0zm-12.071 5.955l.941-.47c.313-.157.627-.157.784-.157h.783c.157 0 .471.157.627.157.157.157.314.157.314.313v.47c0 .157-.157.314-.314.47-.156.157-.47.314-.783.471l-.941.626-2.195-1.253.784-.627zm-7.055 6.268l.314.157v.156s0 .157-.157.157l-.313.314c-.157.156-.314.156-.471.313-.156.157-.47.157-.627.313h-.47c-.157 0-.157-.156 0-.313s.314-.313.627-.47c.157 0 .314-.157.47-.314.314-.156.471-.313.627-.313zm-3.135.627c.314-.157.627-.47.941-.627.47-.157.784-.313.94-.47h.784c-.47.157-.94.313-1.411.627-.47.313-.784.47-1.097.627l-.157.156-.313-.156c.156.156.156 0 .313-.157zm-9.72 5.955c0-.157.157-.157.157-.314.157-.157.314-.157.47-.313.314-.157.471-.314.784-.314.314 0 .627-.156.784-.156l.627.313c-.157.313-.313.627-.784.784-.313.156-.783.313-1.097.47-.314 0-.627 0-.784-.157-.157 0-.157-.157-.157-.157v-.156zm-1.724 2.037c.157 0 .157 0 .313.156l-.47.157c0 .157 0 .157-.157.47a2.13 2.13 0 01-.627.47c-.313.157-.627.314-.784.314-.313.156-.627.156-.783 0l2.508-1.567zm-3.449.783c.157-.156.314-.313.627-.47.314-.157.627-.313.784-.313h.784l-2.195 1.253c-.157-.156-.157-.313 0-.47zm-1.881 2.507h.313c.157 0 0 .157-.313.314a7.645 7.645 0 01-1.098.47c-.156 0-.156 0-.313.157l-.47-.157.94-.47c.47-.157.784-.314.941-.314zm-2.352-.313s.157-.157.314-.157c.313-.156.47-.313.784-.313.156 0 .313-.157.627-.157 0 .157 0 .157.156.314-.156.156-.47.156-.627.313-.47.157-.783.313-.94.313l-.314-.313c0 .157 0 .157 0 0zm-9.563 5.955l.627-.627c.314-.157.627-.313.941-.313.314 0 .627 0 .784.156.157.157.313.314.157.47l-.627.627c-.314.157-.628.314-.941.314-.314 0-.627 0-.784-.157-.157-.157-.313-.313-.157-.47zm-4.546 2.664l.627-.627c.314-.157.784-.313 1.097-.313l.314-.157c0 .157.157.313.314.313.156.157.47.157.627.157l-.314.157c0 .156-.313.47-.627.626-.314.157-.627.314-.941.314-.313 0-.627 0-.783-.157-.314 0-.471-.157-.314-.313zm-5.957 3.447l.627-.627c.313-.156.627-.313.94-.313.314 0 .628 0 .784.157.157.156.314.313.157.47l-.627.627c-.314.156-.627.313-.941.313-.313 0-.627 0-.783-.157-.157-.156-.314-.313-.157-.47zm-5.644 3.291c0-.157.157-.157.157-.313.157-.157.313-.157.47-.314.314-.157.47-.313.784-.313.314 0 .627-.157.784-.157l.627.313c-.157.314-.314.627-.784.784-.313.157-.784.313-1.097.47-.314 0-.627 0-.784-.157-.157 0-.157-.156-.157-.156v-.157zm-5.173 2.821l.627-.627c.313-.157.627-.314.94-.314.314 0 .627 0 .784.157.157.157.314.314.157.47l-.627.627c-.314.157-.627.313-.941.313-.313 0-.627 0-.784-.156-.156 0-.156-.157-.156-.47zm-25.083 15.67c0 .157-.314.47-.627.627-.314.156-.628.313-.941.313-.314 0-.627 0-.784-.156-.157-.157-.313-.314-.157-.471l.627-.626c.314-.157.784-.314 1.098-.314l.313-.157c0 .157.157.314.314.314.157.157.47.157.627.157l-.47.313zm4.546-2.664l-.627.627c-.314.157-.627.313-.941.313-.313 0-.627 0-.784-.156-.156-.157-.313-.314-.156-.471l.627-.626c.313-.157.627-.314.94-.314.314 0 .627 0 .784.157.157.157.314.313.157.47zm91.083-55.16l-.941-.626-2.351 1.41.94.627 2.352-1.411zm-86.066 65.346l-2.352 1.41.941.627 2.351-1.41-.94-.627zm12.071-3.604c.157.156.47.156.784.156.313 0 .783 0 1.254-.156.47-.157.94-.157 1.411-.471a7.303 7.303 0 001.567-.783c.784-.47 1.411-.94 1.725-1.254.313-.47.627-.783.627-1.097l-2.195.941c0 .156 0 .156-.157.47-.156.156-.313.313-.627.47-.313.157-.627.313-.784.313-.313.157-.627.157-.783 0l4.546-2.664-.157-.156-.157-.157c-.156-.157-.47-.157-.783-.157-.314 0-.784 0-1.255.157-.47.157-.94.157-1.411.47-.47.157-1.097.47-1.724.784-.47.313-.941.626-1.254.94h-.157s-.157 0-.313.156c-.471.157-.628.471-.941.784-.157.313-.314.47-.314.783l-.627-.313-2.038 1.254-1.567.626 2.038 1.097c0 .157-.157.314-.314.471-.157.156-.313.313-.47.313-.157.157-.471.157-.627.157-.157 0-.314 0-.471-.157l-1.881-1.097-.47.313s-.157 0-.314.157c-.156.157-.47.314-.627.47l-.784.47.314.157c0 .157-.157.313-.157.47l-.784-.157-.94.471-2.352 1.41 3.136 1.88 2.351-1.41 1.097-.627-1.881-1.097.157-.156.941.47c.313.156.783.313 1.411.156.47-.156 1.097-.313 1.724-.626.47-.314.941-.627 1.254-.941.314-.313.47-.626.627-.94h.157c.47.157 1.097 0 1.881-.47.314-.157.627-.313.941-.627l.784-.47-1.411-.783zm1.881-2.038c.157-.156.314-.313.627-.47.314-.156.627-.313.784-.313h.784l-2.195 1.254v-.471zm-2.352 1.881c.157 0 .157 0 0 0zm21.321-10.029c.627-.314 1.097-.627 1.411-.94l.47-.47h.157c.47-.157 1.097-.314 1.725-.627.313-.157.627-.314.94-.627l.47-.47c.471-.157 1.098-.47 1.725-.784.627-.313 1.097-.627 1.411-.94l.313-.313.157.156 2.352-1.41-1.882-1.097c0-.157.314-.313.628-.627.313-.313.627-.47 1.097-.783l-1.097-.627s-.157 0-.314.157c-.47.156-.627.47-.941.783-.156.314-.313.47-.313.784l-.627-.314-2.195 1.254.157.157c-.157 0-.314 0-.471.156-.47.157-1.097.47-1.724.784-.627.313-1.097.627-1.411.94l-.784.784v.156l-1.724-1.097-2.352 1.411 1.411.783c-.157 0-.313 0-.47.157-.47.157-1.098.47-1.725.783-.627.314-1.097.627-1.411.941l-.47.47-1.411-.784-2.351 1.411 1.724.94c-.313 0-.784.156-1.254.313s-.941.314-1.254.627c-.47.313-.784.47-.941.784-.313.313-.47.47-.47.783a.476.476 0 000 .627c0 .157.157.313.47.47.314.157.471.157.941.313h1.097c.471 0 .784-.156 1.254-.313.471-.157.941-.313 1.411-.627.471-.313.784-.47 1.098-.783.313-.314.47-.47.47-.784h.157c.47.157 1.097 0 1.881-.47.314-.157.627-.313.941-.627h-.157.157c.627-.783 1.254-1.097 1.724-1.41zm4.076-4.858l.627-.627c.314-.156.627-.313.941-.313.313 0 .627 0 .784.157.156.156.313.313.156.47l-.627.626c-.313.157-.627.314-.94.314-.314 0-.627 0-.784-.157-.314-.157-.314-.313-.157-.47zm-10.503 7.522c-.314.157-.784.313-1.098.47h-.784c-.156 0-.156-.157-.156-.157v-.313c0-.157.156-.157.156-.314.157-.156.314-.156.471-.313.313-.157.47-.313.783-.313.314 0 .628-.157.784-.157l.627.313-.783.784zm4.546-2.821c-.314 0-.627 0-.784-.157-.157-.156-.314-.313-.157-.47l.627-.626c.314-.157.627-.314.941-.314.313 0 .627 0 .784.157.157.157.313.313.157.47l-.628.627c-.313 0-.627.156-.94.313zm16.147-13.32l-2.351 1.411.94.627 2.352-1.411-.941-.627zm4.39 0c.156-.156.313-.156.627-.156h.627l1.881 1.097 2.352-1.411-2.038-1.253c-.157 0-.314-.157-.471-.157h-.627c-.313 0-.47 0-.94.157-.314.156-.784.313-1.098.47-.627.313-.94.627-1.254.94-.314.313-.47.627-.627.783l-.47-.313-.784.47-.471.314-.783.47-1.098.627 3.136 1.88 1.097-.627 2.352-1.41-1.725-1.097c0-.157 0-.314.157-.47-.157 0 0-.157.157-.314zm22.418-11.752c-.157.156-.314.156-.314.313-.157.157-.313.157-.47.157h-.314l-1.097-.627 1.254-.784-.941-.47-1.254.784-.94-.627-2.352 1.41.941.627-.314.157c-.313.157-.47.157-.784.47-.627.313-.94.627-1.254.94-.313.314-.47.627-.627.784l-.47-.314-.784.47-2.352 1.411c-.47.156-.94.47-1.411.783-.313.157-.783.47-.94.627-.314.157-.47.47-.627.627-.157.157-.157.313-.157.47 0 .157.157.313.314.313.156 0 .313.157.47.157.157 0 .313 0 .627-.157.313 0 .627-.156.941-.313.313-.157.783-.313 1.41-.627.471-.157.784-.313.941-.313h.314c.156 0 0 .156-.314.313a7.516 7.516 0 01-1.097.47l-1.411.47-.157.784a7.676 7.676 0 001.724-.627c.628-.313 1.255-.627 1.725-.94.313-.157.627-.47.941-.627l2.351-1.41 1.097-.627-1.724-1.097c0-.157 0-.313.157-.47l.47-.47c.157-.157.314-.157.627-.157h.627l1.725 1.097 2.194-.94c.157 0 .314 0 .314-.157.314-.157.47-.313.784-.47.313-.157.627-.47 1.097-.627.314-.313.627-.47.941-.783l-1.254-.314c-.314.157-.471.314-.627.314zm-11.601 5.641c-.471.157-.784.313-.941.313h-.313v-.156s.156-.157.313-.157c.314-.157.47-.313.784-.47.157 0 .47-.157.627-.314l.47.314-.94.47zm14.109 33.378c-.157.156-.314.156-.314.313-.156.157-.313.157-.47.157h-.313l-1.098-.627 1.254-.783-.94-.471-1.254.784-.941-.627-2.352 1.41.941.627-.784.47h.157c-.47.157-1.097.47-1.725.784-.783.47-1.41.94-2.038 1.41-.627.157-1.41.47-2.194.94-.627.314-1.098.627-1.411.941-.314.313-.471.47-.627.783-.471.157-.784.157-1.254.314-.471.156-1.098.47-1.725.783-.627.313-1.097.627-1.411.94l-.784.784h-.313c-.784.157-1.725.627-2.665 1.253-.784.471-1.411.941-2.038 1.411-.627.156-1.411.47-2.195.94-.627.313-1.097.627-1.411.94-.157.157-.47.47-.47.627-.157 0-.314 0-.471.157-.627.156-1.411.47-2.194.94-.627.313-1.098.627-1.411.94-.314.314-.627.47-.627.784-.471.156-.941.156-1.411.47-.471.156-1.098.47-1.725.783-.627.314-1.097.627-1.411.941l-.784.783c-.156.313-.156.47-.156.627 0 .157.156.313.47.47.157.157.47.157.784.157.313 0 .784 0 1.254-.157s.941-.157 1.411-.47c.47-.157 1.097-.47 1.724-.784.627-.313 1.098-.626 1.411-.94.314-.313.627-.47.627-.783.471-.157.784-.157 1.411-.47.471-.157 1.098-.471 1.725-.784.784-.47 1.411-.94 1.724-1.254.157-.156.157-.156.157-.313.314-.157.627-.157.941-.313.47-.157 1.097-.471 1.724-.784.784-.47 1.254-.783 1.725-1.254.156 0 .47-.156.627-.156l.94-.47c.471-.314.784-.471 1.098-.784.313-.313.47-.47.627-.783h.94c.314-.157.627-.314 1.098-.471.156 0 .313-.156.47-.313.157-.157.314-.157.47-.313h-.156.156a7.292 7.292 0 001.568-.784c.784-.47 1.411-.94 1.724-1.253.157-.157.314-.314.314-.471.47-.156.784-.156 1.254-.313s1.098-.47 1.725-.784c.783-.47 1.254-.783 1.724-1.253.157 0 .47-.157.627-.157l.941-.47c.47-.313.784-.47 1.097-.783.314-.314.47-.471.627-.784h.941a7.627 7.627 0 011.097-.47c.157 0 .314-.157.471-.314.156-.156.313-.156.47-.313.313-.157.47-.313.784-.47.313-.157.627-.47 1.097-.627.314-.313.627-.47.941-.783l-1.254-.314c-.628.47-.784.627-.941.784zm-33.235 19.118l-.627.626c-.314.157-.627.314-.941.314-.313 0-.627 0-.784-.157-.156-.157-.313-.313-.156-.47l.627-.627c.313-.157.627-.313.94-.313.314 0 .627 0 .784.156.157.157.157.314.157.471zm5.016-2.978c0 .157-.313.47-.627.627-.313.157-.627.313-.94.313-.314 0-.627 0-.784-.156-.157-.157-.314-.314-.157-.47l.627-.627c.314-.157.784-.314 1.098-.314l.313-.156c0 .156.157.313.314.313.156.157.47.157.627.157l-.471.313zm5.644-4.231c-.313.157-.47.47-.627.627-.157.157-.157.313-.157.47 0 .157 0 .157.157.314l-.313.156c0 .157-.314.47-.628.627-.313.157-.627.313-.94.313-.314 0-.627 0-.784-.156-.157-.157-.314-.314-.157-.47l.627-.627c.314-.157.784-.314 1.098-.314l.94-.783h.157c.157-.157.314-.47.627-.627l.314-.157c.313-.156.47-.313.784-.626.47-.157.783-.314.94-.471h.784c-.47.157-.941.314-1.411.627-.784.627-1.097.784-1.411 1.097zm3.136-.627c0 .157-.157.157-.314.314-.157.156-.314.156-.47.313-.157.157-.471.157-.627.314h-.471c-.156 0-.156-.157 0-.314.157-.157.314-.313.627-.47.157 0 .314-.157.471-.313.156-.157.313-.157.47-.157l.314.157v.156c.156-.156.156 0 0 0zm2.508-2.664c-.157-.156-.157-.313 0-.47.157-.156.313-.313.627-.47.313-.157.627-.313.784-.313h.784l-2.195 1.253zm3.292-.783c0 .157 0 .157-.157.47-.157.157-.313.313-.627.47-.313.157-.627.314-.784.314-.313.156-.627.156-.784 0l2.666-1.567h.313l-.627.313zm5.487-4.388c-.314.157-.47.47-.627.627-.157.157-.157.313-.157.47 0 .157 0 .157.157.314l-.314.156c0 .157-.313.47-.627.627-.313.157-.627.313-.94.313-.314 0-.627 0-.784-.156-.157-.157-.314-.314-.157-.47l.627-.627c.314-.157.784-.314 1.097-.314l.941-.783h.157c.157-.157.313-.47.627-.627l.313-.157c.314-.156.471-.313.784-.626.471-.157.784-.314.941-.471h.784c-.471.157-.941.314-1.411.627-.784.784-1.098.941-1.411 1.097zm3.292-.47l-.313.314c-.157.156-.314.156-.471.313-.157.157-.47.157-.627.313h-.47c-.157 0-.157-.156 0-.313a2.16 2.16 0 01.627-.47c.157 0 .313-.157.47-.314.157-.156.314-.156.471-.156l.313.156v.157c0-.157 0-.157 0 0zm71.034 13.3c-2.152 0-4.304-1.614-5.738-4.304-3.049-5.738-6.097-11.835-6.814-18.291-.359-3.587 0-6.994 1.255-10.042-1.076-1.435-2.152-2.69-3.228-3.945l-5.379-5.918c-3.049-3.407-6.276-6.994-9.145-10.58.358 4.124.179 7.89-.538 11.297-1.793 7.89-6.456 14.705-13.449 19.188l-.896-1.435c6.634-4.124 11.117-10.58 12.731-17.932.896-4.125.897-8.608.179-13.808-3.407-4.663-6.276-9.504-8.069-14.884-.179-.359 0-.718.179-.897.18-.179.538-.358.897-.179 5.2 1.255 6.635 6.635 7.173 8.428.717 2.331 1.075 4.663 1.434 6.814 3.228 4.484 7.173 8.608 10.938 12.912l5.38 5.918 2.689 3.228c1.256-2.511 3.049-4.663 5.38-6.277l1.614-1.076c1.613-1.255 3.227-2.331 4.124-3.586.179-.718.179-1.614.538-2.332.179-.358.358-.717.896-.717.359 0 .718.359.897.717.179 1.076 0 1.973-.538 2.87-.359 2.869.359 5.738 1.972 8.428.897-4.304 1.614-8.787.538-13.091-1.076-4.124-5.02-9.325-12.014-10.759-.538 0-.717-.538-.717-1.076s.538-.897 1.076-.718l21.159 3.228c.359 0 .538.18.717.538.18.18.18.538 0 .718-3.765 8.607-3.407 17.215.538 24.926 2.69 1.255 6.635 1.434 10.221.358.179-2.51.538-5.021 1.076-7.531.359-1.614 1.076-3.407 2.869-4.483 1.255-.718 2.869-.897 4.483-1.256 1.076-.179 1.972-.179 2.869-.538.179 0 .359-.179.538-.179-.179-3.945-.359-8.07-.538-12.015 0-.179 0-.538.359-.717.179-.179.537-.179.717-.179l4.124.538c.359 0 .538.179.717.538.538 1.076.718 2.331.897 3.407 1.076-3.228 1.255-5.38 1.255-7.711.179-3.049.359-6.097 2.69-11.298l1.614.718c-2.331 4.662-2.332 7.531-2.511 10.58-.179 3.048-.358 6.097-2.69 11.297-.179.359-.358.897-.537 1.256-.538 2.869-1.973 5.738-4.125 8.786.18 6.277.18 12.553.18 18.83 0 2.152 0 4.662-1.256 7.173-1.434 2.69-4.124 4.483-7.172 4.662a.986.986 0 01-.897-.538c-3.227-6.097-4.841-12.911-4.662-19.546-3.945 1.076-8.069.896-11.297-.718a.385.385 0 01-.358-.358c-4.304-8.07-4.842-16.857-1.255-25.823l-12.911-1.973c3.228 2.152 5.559 5.38 6.635 9.146 1.434 5.38.179 10.939-.897 15.96 0 .358-.359.538-.717.717-.359 0-.718 0-.897-.359-1.972-2.689-3.228-5.917-3.407-8.966-.896.897-1.972 1.614-2.869 2.331-.538.359-1.076.718-1.434 1.076-2.331 1.794-3.945 3.946-5.2 6.456 6.813 8.787 13.448 20.443 10.579 32.279 0 .358-.359.538-.717.717h-1.255zm-10.042-30.844c-.897 2.511-1.076 5.2-.717 8.07.717 6.097 3.765 12.014 6.634 17.753.718 1.255 1.973 3.228 3.945 3.407 2.152-10.58-3.586-21.16-9.862-29.23zm37.297-.179c-.179 6.455 1.256 12.732 4.304 18.65 2.69-.359 4.483-2.152 5.2-3.587 1.076-1.973 1.076-4.304 1.076-6.276 0-5.559 0-11.119-.179-16.678a5.47 5.47 0 01-1.435 1.435c-2.869 3.228-5.738 5.2-8.966 6.456zm10.221-13.27a10.172 10.172 0 01-3.227.538c-1.435.179-2.869.358-3.766.896-1.076.718-1.614 1.793-1.972 3.407a40.388 40.388 0 00-1.076 6.456c2.689-1.076 5.02-2.869 7.531-5.559.717-.717 1.614-1.793 2.69-3.048-.18-.897-.18-1.794-.18-2.69zm1.793-.718V172c.18-.359.538-.897.718-1.255-.18 0-.538.179-.718.358zm-.538-12.194c.18 3.407.359 6.635.538 10.042 1.076-.896 1.793-1.972 2.511-3.227.358-2.152.358-4.304-.538-6.456l-2.511-.359zm-75.491-12.194c1.255 3.228 2.869 6.276 4.842 9.325-.18-.897-.359-1.793-.718-2.869-.896-3.228-2.151-5.38-4.124-6.456z" fill="#fff"/><path d="M443.585 258.793c-4.483 0-8.786-1.075-11.835-2.869-3.586-1.972-5.558-4.842-5.558-7.89 0-3.049 1.972-5.918 5.379-7.89 6.455-3.766 17.394-3.587 23.67 0 3.586 1.972 5.558 4.841 5.558 7.89 0 3.048-1.972 5.918-5.379 7.89-3.048 1.794-7.352 2.869-11.835 2.869zm-.179-17.932c-3.766 0-7.352.897-9.862 2.331-2.332 1.255-3.587 3.049-3.587 4.663 0 1.614 1.255 3.407 3.587 4.662 5.379 3.049 14.703 3.049 19.903 0 2.331-1.255 3.587-3.048 3.587-4.662 0-1.614-1.256-3.408-3.587-4.663-2.51-1.434-6.096-2.331-10.041-2.331z" fill="url(#paint4_radial_131_818)"/><path d="M133.334 107.539c.156.156.313.47.313.626 0 .157 0 .47-.157.627-.156.157-.313.314-.47.627-.314.157-.47.313-.627.313-.47.314-.941.47-1.411.47-.47.157-1.097.157-1.568.157-.47 0-1.097-.157-1.567-.313-.471-.157-.941-.314-1.411-.627-.314-.157-.784-.47-.941-.784-.313-.313-.47-.626-.47-.94-.157-.313 0-.627.157-.94.156-.313.47-.627.94-.94.157-.157.47-.314.784-.314.314-.156.627-.156.941-.313.313 0 .783-.157 1.097-.157.314 0 .784 0 1.254.157l.784-2.507c-1.254-.157-2.508-.157-3.919 0-1.411.156-2.665.627-3.919 1.41-.941.627-1.725 1.254-2.195 1.88a3.426 3.426 0 00-.784 2.194c0 .627.313 1.254.784 1.881.47.627 1.097 1.097 1.724 1.567.784.47 1.725.783 2.822 1.097 1.097.313 2.195.47 3.292.47 1.098 0 2.352 0 3.449-.314 1.098-.313 2.195-.626 3.136-1.096.47-.314.94-.627 1.41-1.097.471-.471.784-.784.941-1.254.314-.47.314-.784.314-1.254s-.157-.783-.314-1.253l-4.389.627zm13.952-10.03c-.784-.47-1.724-.783-2.822-1.096a11.938 11.938 0 00-3.292-.47c-1.097 0-2.195.156-3.449.313-1.097.313-2.195.627-3.135 1.097a5.654 5.654 0 00-2.038 1.724 3.006 3.006 0 00-.627 1.88c0 .627.156 1.254.627 1.88.47.627 1.097 1.097 1.881 1.567.784.471 1.724.784 2.822 1.097 1.097.314 2.195.47 3.292.47s2.195-.156 3.449-.313c1.097-.313 2.195-.627 3.135-1.097a5.652 5.652 0 002.038-1.724 3.003 3.003 0 00.627-1.88c0-.627-.313-1.254-.627-1.88-.47-.627-1.097-1.097-1.881-1.567zm-2.038 4.545c-.157.313-.47.627-.941.94-.47.314-.94.47-1.567.627-.471.157-1.098.157-1.568.157s-1.097-.157-1.568-.314c-.47-.156-.94-.313-1.411-.627-.47-.156-.783-.47-1.097-.783-.314-.314-.47-.627-.47-.94 0-.314 0-.627.156-.941.157-.313.471-.626.941-.94.47-.313.941-.47 1.568-.627.47-.156 1.097-.156 1.567-.156.471 0 1.098.156 1.568.313s.941.313 1.411.627c.47.157.784.47 1.097.783.314.314.471.627.471.941 0 .313 0 .626-.157.94zm5.017-13.477l6.27 3.605-11.287-.784-2.665 1.567 12.228 7.052 3.449-2.037-6.114-3.448 10.974.627 2.665-1.567-12.228-7.052-3.292 2.037zm18.185-7.051l-2.979-1.724-10.503 6.111 2.978 1.724 3.606-2.037 9.406 5.328 3.449-2.037-9.406-5.328 3.449-2.037zm14.109-4.231c-.313-.47-.784-.94-1.568-1.41-.47-.314-1.097-.47-1.881-.784-.784-.157-1.411-.314-2.195-.314-.783 0-1.567 0-2.351.157s-1.411.47-2.038.784l-5.644 3.29 12.228 7.052 3.449-2.037-3.762-2.194 1.254-.783 5.957.94 3.762-2.194-7.211-1.097c.314-.47.157-.94 0-1.41zm-4.546 1.724l-2.195 1.253-2.665-1.567 2.038-1.254c.157-.156.47-.156.941-.156.47 0 .94.156 1.254.313.47.314.627.47.627.784.313.313.157.47 0 .627zm3.919-8.62l7.995 9.56 3.449-2.037-1.724-1.88 3.292-1.881 3.135.94 3.449-2.037-16.461-4.545-3.135 1.88zm10.19 2.822l-2.195 1.253-2.665-2.82 4.86 1.567zm13.796-7.522c.156.156.313.47.313.627 0 .156 0 .47-.157.626-.156.157-.313.314-.47.627-.157.157-.47.314-.627.47-.47.314-.941.47-1.411.47-.47.157-1.097.157-1.568.157-.47 0-1.097-.157-1.567-.313-.471-.157-.941-.314-1.411-.627-.314-.157-.784-.47-.941-.784-.313-.313-.47-.626-.47-.94 0-.313 0-.627.157-.94.156-.314.47-.627.94-.94a1.2 1.2 0 01.784-.314c.314-.156.627-.156.941-.313.313 0 .784-.157 1.097-.157.314 0 .784 0 1.254.157l.471-2.507c-1.255-.157-2.509-.157-3.92 0-1.411.156-2.665.627-3.919 1.41-.94.627-1.724 1.254-2.195 1.88a3.012 3.012 0 00-.627 1.88c0 .628.314 1.254.784 1.881.47.627 1.098 1.097 1.725 1.567.783.47 1.724.784 2.821 1.097 1.098.314 2.195.47 3.293.47 1.097 0 2.351 0 3.449-.313 1.097-.157 2.194-.627 3.135-1.097.47-.313.941-.627 1.411-1.097.47-.47.784-.783.94-1.254.314-.47.314-.783.314-1.253 0-.47-.157-.784-.314-1.254l-4.232.784zm5.173-8.776l3.606-2.037-2.979-1.724-10.503 6.112 2.821 1.724 3.606-2.037 9.406 5.327 3.449-2.037-9.406-5.328z" fill="#fff"/><defs><linearGradient id="paint0_linear_131_818" x1="29.542" y1="175.695" x2="608.25" y2="175.695" gradientUnits="userSpaceOnUse"><stop offset=".056" stop-color="#9F79B8"/><stop offset=".258" stop-color="#A17BBA"/><stop offset=".357" stop-color="#A783BF"/><stop offset=".434" stop-color="#B290C9"/><stop offset=".495" stop-color="#C1A1D5"/><stop offset=".507" stop-color="#C4A5D7"/><stop offset=".52" stop-color="#CDB3DD"/><stop offset=".533" stop-color="#DBC8E7"/><stop offset=".547" stop-color="#EFE7F4"/><stop offset=".556" stop-color="#fff"/><stop offset=".568" stop-color="#ECE0F3"/><stop offset=".58" stop-color="#DDC8EA"/><stop offset=".592" stop-color="#D4B9E5"/><stop offset=".601" stop-color="#D1B4E3"/><stop offset=".658" stop-color="#B395D6"/><stop offset=".716" stop-color="#9C7DCB"/><stop offset=".769" stop-color="#8E6EC5"/><stop offset=".813" stop-color="#8969C3"/><stop offset="1" stop-color="#B086CC"/></linearGradient><linearGradient id="paint1_linear_131_818" x1="17.41" y1="160.756" x2="566.105" y2="160.756" gradientUnits="userSpaceOnUse"><stop stop-color="#2F054A"/><stop offset="1" stop-color="#5824B0"/></linearGradient><linearGradient id="paint2_linear_131_818" x1="23.546" y1="160.757" x2="559.967" y2="160.757" gradientUnits="userSpaceOnUse"><stop stop-color="#3D065F"/><stop offset="1" stop-color="#5F27BD"/></linearGradient><linearGradient id="paint3_linear_131_818" x1="246.015" y1="254.607" x2="255.52" y2="25.217" gradientUnits="userSpaceOnUse"><stop stop-color="#118AA8"/><stop offset=".404" stop-color="#29B3B0"/><stop offset=".532" stop-color="#2AA8AD"/><stop offset=".756" stop-color="#2D8BA6"/><stop offset="1" stop-color="#31659C"/></linearGradient><radialGradient id="paint4_radial_131_818" cx="0" cy="0" r="1" gradientUnits="userSpaceOnUse" gradientTransform="matrix(14.4118 0 0 14.4127 443.565 248.003)"><stop stop-color="#B4299A"/><stop offset=".114" stop-color="#AC2794"/><stop offset=".286" stop-color="#972383"/><stop offset=".495" stop-color="#751C67"/><stop offset=".734" stop-color="#461141"/><stop offset=".994" stop-color="#090410"/><stop offset="1" stop-color="#08040F"/></radialGradient></defs></svg>