<svg width="120" height="264" fill="none" xmlns="http://www.w3.org/2000/svg"><path d="M98.844 164.959c-.427 0-.712-.284-.712-.712v-4.556c0-.428.285-.712.712-.712.428 0 .713.284.713.712v4.556c0 .428-.285.712-.713.712zm0-9.113c-.427 0-.712-.285-.712-.712v-4.557c0-.427.285-.712.712-.712.428 0 .713.285.713.712v4.557c0 .427-.285.712-.713.712zm0-9.114c-.427 0-.712-.284-.712-.712v-4.556c0-.427.285-.712.712-.712.428 0 .713.285.713.712v4.556c0 .428-.285.712-.713.712zm0-9.113c-.427 0-.712-.285-.712-.712v-4.557c0-.427.285-.712.712-.712.428 0 .713.285.713.712v4.557c0 .427-.285.712-.713.712zm0-9.113c-.427 0-.712-.285-.712-.712v-4.557c0-.427.285-.712.712-.712.428 0 .713.285.713.712v4.557c0 .427-.285.712-.713.712zm0-9.114c-.427 0-.712-.285-.712-.712v-4.557c0-.427.285-.712.712-.712.428 0 .713.285.713.712v4.557c0 .427-.285.712-.713.712zm0-8.971c-.427 0-.712-.285-.712-.712v-4.557c0-.427.285-.712.712-.712.428 0 .713.285.713.712v4.557c0 .285-.285.712-.713.712zm0-9.113c-.427 0-.712-.285-.712-.712v-4.557c0-.427.285-.712.712-.712.428 0 .713.285.713.712v4.557c0 .284-.285.712-.713.712zm0-9.114c-.427 0-.712-.285-.712-.712v-4.557c0-.427.285-.712.712-.712.428 0 .713.285.713.712v4.557c0 .285-.285.712-.713.712zm0-9.113c-.427 0-.712-.285-.712-.712v-4.7c0-.427.285-.711.712-.711.428 0 .713.284.713.712v4.556c0 .427-.285.855-.713.855zm0 172.301c-.427 0-.712-.285-.712-.712v-4.557c0-.427.285-.712.712-.712.428 0 .713.285.713.712v4.557c0 .427-.285.712-.713.712zm0 8.259c-.427 0-.712-.285-.712-.712v-4.557c0-.427.285-.712.712-.712.428 0 .713.285.713.712v4.557c0 .285-.285.712-.713.712zm0-17.373c-.427 0-.712-.284-.712-.712V241c0-.428.285-.712.712-.712.428 0 .713.284.713.712v4.556c0 .428-.285.712-.713.712zm0-9.113c-.427 0-.712-.285-.712-.712v-4.557c0-.427.285-.712.712-.712.428 0 .713.285.713.712v4.557c0 .427-.285.712-.713.712zm0-9.113c-.427 0-.712-.285-.712-.712v-4.557c0-.427.285-.712.712-.712.428 0 .713.285.713.712v4.557c0 .427-.285.712-.713.712zm0-9.114c-.427 0-.712-.285-.712-.712v-4.557c0-.427.285-.712.712-.712.428 0 .713.285.713.712v4.557c0 .427-.285.712-.713.712zm0-9.113c-.427 0-.712-.285-.712-.712v-4.557c0-.427.285-.712.712-.712.428 0 .713.285.713.712v4.557c0 .427-.285.712-.713.712zm0-8.971c-.427 0-.712-.285-.712-.712v-4.557c0-.427.285-.712.712-.712.428 0 .713.285.713.712v4.557c0 .284-.285.712-.713.712zm0-9.114c-.427 0-.712-.285-.712-.712v-4.557c0-.427.285-.712.712-.712.428 0 .713.285.713.712v4.557c0 .285-.285.712-.713.712zm0-9.113c-.427 0-.712-.285-.712-.712v-4.557c0-.427.285-.712.712-.712.428 0 .713.285.713.712v4.557c0 .284-.285.712-.713.712zm0-9.114c-.427 0-.712-.285-.712-.712v-4.557c0-.427.285-.711.712-.711.428 0 .713.284.713.711v4.557c0 .285-.285.712-.713.712zm-97.437-73.05c-.427 0-.712-.285-.712-.712v-4.556c0-.428.285-.713.712-.713s.712.285.712.713v4.556c.143.427-.285.712-.712.712zm0-9.113c-.427 0-.712-.285-.712-.712V86.07c0-.427.285-.712.712-.712s.712.285.712.712v4.557c.143.427-.285.712-.712.712zm97.437-17.373c-.427 0-.712-.285-.712-.712v-1.993c0-.855 0-1.71-.142-2.564 0-.427.285-.854.712-.854s.855.285.855.712c.142.855.142 1.709.142 2.706v1.993c-.142.285-.427.712-.855.712zm-97.437 8.26c-.427 0-.712-.285-.712-.713v-4.556c0-.428.285-.712.712-.712s.712.284.712.712v4.556c.143.428-.285.712-.712.712zM97.99 64.853c-.285 0-.712-.285-.712-.57a24.353 24.353 0 00-1.283-4.272c-.142-.427 0-.854.428-.996.427-.143.855 0 .997.427.57 1.424.997 2.99 1.282 4.414.142.427-.142.854-.57.854 0 .143-.142.143-.142.143zM1.407 73.255c-.427 0-.712-.284-.712-.712v-4.556c0-.428.285-.712.712-.712s.712.284.712.712v4.556c.143.285-.285.712-.712.712zM94.998 56.31a.784.784 0 01-.712-.427c-.57-1.282-1.282-2.706-2.137-3.987-.285-.428-.142-.855.285-.997.427-.143.855-.143.997.285.855 1.281 1.567 2.705 2.137 4.13.142.426 0 .853-.427.996h-.143zm-93.59 7.832c-.428 0-.713-.285-.713-.712v-4.557c0-.427.285-.712.712-.712s.712.285.712.712v4.557c.143.285-.285.712-.712.712zm88.89-15.664c-.286 0-.428-.142-.57-.285-.855-1.281-1.852-2.42-2.85-3.417-.284-.285-.284-.855 0-1.14.285-.284.855-.284 1.14 0 .997 1.14 1.994 2.279 2.85 3.56.284.285.142.855-.143.997-.143.285-.285.285-.428.285zm-88.89 6.55c-.428 0-.713-.284-.713-.712V49.76c0-.427.285-.712.712-.712s.712.285.712.712v4.556c.143.285-.285.712-.712.712zm82.764-13.243c-.143 0-.427 0-.57-.142-1.14-.997-2.28-1.994-3.561-2.706-.285-.284-.428-.712-.285-.996.285-.285.712-.428.997-.285a32.247 32.247 0 013.704 2.848c.285.285.285.712 0 1.139.142 0 0 .142-.285.142zm-82.765 4.13c-.427 0-.712-.285-.712-.712v-4.557c0-.427.285-.712.712-.712s.712.285.712.712v4.557c.143.285-.285.712-.712.712zm75.357-9.256c-.142 0-.285 0-.427-.142l-3.989-2.279c-.427-.142-.427-.712-.285-.996.143-.428.713-.428.998-.285l3.988 2.278c.428.142.428.712.285.997-.142.285-.427.427-.57.427zm-7.977-4.557c-.142 0-.285 0-.427-.142l-3.989-2.278c-.427-.143-.427-.712-.285-.997.142-.427.712-.427.997-.285l3.989 2.278c.427.143.427.712.285.997 0 .285-.285.427-.57.427zm-67.38 4.7c-.427 0-.712-.285-.712-.712v-4.557c0-.428.285-.712.712-.712s.712.284.712.712v4.556c.143.285-.285.712-.712.712zm59.545-9.256c-.142 0-.285 0-.427-.143l-3.989-2.278c-.427-.143-.427-.712-.285-.997.143-.427.713-.427.997-.285l3.99 2.279c.426.142.426.712.284.996-.142.285-.285.428-.57.428zm-7.977-4.557c-.143 0-.285 0-.428-.143l-3.988-2.278c-.428-.142-.428-.712-.285-.997.142-.427.712-.427.997-.285l3.989 2.279c.427.142.427.712.285.997 0 .284-.285.427-.57.427zM1.407 27.688c-.427 0-.712-.285-.712-.712v-4.557c0-.427.285-.712.712-.712s.712.285.712.712v4.557c.143.285-.285.712-.712.712zm0-9.113c-.427 0-.712-.285-.712-.712v-4.7c0-.427.427-.712.855-.712.427 0 .712.428.712.855v4.557c0 .427-.427.712-.855.712zm43.448-.285c-.142 0-.285 0-.427-.143l-3.989-2.278c-.427-.142-.427-.712-.285-.997.143-.427.712-.427.997-.285l3.989 2.279c.427.142.427.712.285.997 0 .284-.285.427-.57.427zm-7.835-4.557c-.142 0-.285 0-.427-.142l-3.989-2.279c-.427-.142-.427-.712-.285-.996.143-.428.712-.428.997-.285l3.99 2.278c.426.143.426.712.284.997-.143.285-.427.427-.57.427zM2.404 9.603H2.12c-.427-.142-.57-.57-.427-.996.57-1.567 1.282-2.99 2.28-4.272.284-.285.712-.427 1.139-.143.285.285.427.712.142 1.14C4.4 6.328 3.686 7.61 3.26 9.034c-.285.285-.57.57-.855.57zm26.639-.427c-.143 0-.285 0-.427-.142l-3.99-2.278c-.427-.143-.427-.712-.284-.997.142-.427.712-.427.997-.285l3.989 2.278c.427.143.427.712.285.997 0 .285-.285.427-.57.427zM21.208 4.62c-.142 0-.285 0-.285-.143h-.142c-1.282-.712-2.707-1.424-3.989-1.851-.427-.142-.57-.57-.427-.997.142-.427.57-.57.997-.427 1.424.427 2.849 1.14 4.273 1.994.428.142.57.712.285.996-.285.285-.57.428-.712.428zM8.102 2.768a.783.783 0 01-.712-.427c-.142-.427 0-.854.427-.997C9.242.774 10.667.49 12.376.49h.285c.427 0 .712.427.712.712 0 .427-.285.712-.712.712h-.143a9.562 9.562 0 00-3.988.854h-.428z" fill="url(#paint0_linear_137_832)"/><path d="M112.555 177.816c8.218-4.802 8.121-20.254-.218-34.511-8.338-14.258-21.76-21.923-29.978-17.12-8.219 4.803-8.121 20.254.217 34.512 8.339 14.257 21.761 21.922 29.979 17.119z" fill="#fff"/><path d="M106.964 180.054c-3.134 0-6.41-.997-9.971-2.991-11.966-6.835-21.653-23.638-21.653-37.308 0-9.541 4.843-15.806 12.536-15.806 3.134 0 6.41.997 9.971 2.99 11.966 6.835 21.653 23.638 21.653 37.308 0 9.541-4.986 15.807-12.536 15.807zm-19.088-54.681c-6.696 0-10.97 5.411-10.97 14.24 0 13.243 9.403 29.334 20.941 36.026 3.277 1.851 6.268 2.848 9.117 2.848 6.695 0 10.969-5.411 10.969-14.24 0-13.243-9.402-29.334-20.94-36.026-3.134-1.851-6.268-2.848-9.117-2.848z" fill="url(#paint1_linear_137_832)"/><path d="M113.232 152.428l-15.1-20.505-15.1 3.133v17.8l15.1 20.505 15.1-3.133v-17.8zm-28.348-14.097l.855.57 11.396 15.521v15.236l-12.25-16.66v-14.667zm26.496 15.237v14.524l-12.25 2.563v-15.236l11.395-2.421.855.57z" fill="url(#paint2_linear_137_832)"/><defs><linearGradient id="paint0_linear_137_832" x1="132.589" y1="-97.291" x2="18.349" y2="227.758" gradientUnits="userSpaceOnUse"><stop offset=".005" stop-color="#B4F759"/><stop offset=".049" stop-color="#90ED6F"/><stop offset=".147" stop-color="#35D5A5"/><stop offset=".202" stop-color="#00C7C5"/><stop offset=".408" stop-color="#2D9BE0"/><stop offset=".596" stop-color="#5277F7"/><stop offset=".662" stop-color="#5B76F7"/><stop offset=".768" stop-color="#7374F6"/><stop offset=".902" stop-color="#9A70F4"/><stop offset="1" stop-color="#BB6DF3"/></linearGradient><linearGradient id="paint1_linear_137_832" x1="174.38" y1="-41.132" x2="55.155" y2="258.291" gradientUnits="userSpaceOnUse"><stop offset=".005" stop-color="#B4F759"/><stop offset=".049" stop-color="#90ED6F"/><stop offset=".147" stop-color="#35D5A5"/><stop offset=".202" stop-color="#00C7C5"/><stop offset=".408" stop-color="#2D9BE0"/><stop offset=".596" stop-color="#5277F7"/><stop offset=".662" stop-color="#5B76F7"/><stop offset=".768" stop-color="#7374F6"/><stop offset=".902" stop-color="#9A70F4"/><stop offset="1" stop-color="#BB6DF3"/></linearGradient><linearGradient id="paint2_linear_137_832" x1="151.169" y1="8.495" x2="74.296" y2="217.482" gradientUnits="userSpaceOnUse"><stop offset=".005" stop-color="#B4F759"/><stop offset=".049" stop-color="#90ED6F"/><stop offset=".147" stop-color="#35D5A5"/><stop offset=".202" stop-color="#00C7C5"/><stop offset=".408" stop-color="#2D9BE0"/><stop offset=".596" stop-color="#5277F7"/><stop offset=".662" stop-color="#5B76F7"/><stop offset=".768" stop-color="#7374F6"/><stop offset=".902" stop-color="#9A70F4"/><stop offset="1" stop-color="#BB6DF3"/></linearGradient></defs></svg>