<svg width="335" height="190" fill="none" xmlns="http://www.w3.org/2000/svg"><g opacity=".4"><path opacity=".043" d="M255.593 185.054L7.869 45.504C-1.248 40.235-.11 30.98 10.433 24.856l33.903-19.08C54.878-.349 70.832-.919 79.95 4.35l247.725 139.692c9.117 5.269 7.977 14.525-2.565 20.648l-33.903 18.939c-10.542 6.123-26.496 6.835-35.613 1.424z" fill="#A6ADE2"/><path opacity=".086" d="M255.593 184.769L8.438 45.504C-.679 40.235.461 31.122 11.002 25.141L44.194 6.487C54.593.507 70.547-.206 79.522 5.063l247.012 139.265c9.117 5.269 7.977 14.382-2.564 20.363l-33.191 18.654c-10.4 5.981-26.212 6.55-35.186 1.424z" fill="#A2A9DF"/><path opacity=".129" d="M255.593 184.342L9.151 45.504c-8.975-5.126-7.835-14.24 2.564-20.22l32.621-18.37C54.736.934 70.405.222 79.38 5.49l246.443 138.838c8.974 5.126 7.835 14.24-2.564 20.221l-32.622 18.369c-10.399 5.981-26.069 6.55-35.043 1.424z" fill="#9FA6DC"/><path opacity=".172" d="M255.45 183.915L9.863 45.505c-8.832-5.127-7.835-14.098 2.564-20.079l31.91-17.942C54.592 1.504 70.12.934 79.094 6.06l245.73 138.411c8.832 5.126 7.834 14.097-2.565 20.078l-31.909 17.942c-10.399 5.98-25.926 6.55-34.901 1.424z" fill="#9CA2DA"/><path opacity=".215" d="M255.45 183.487L10.433 45.362C1.6 40.235 2.74 31.407 12.854 25.568l31.34-17.657c10.114-5.838 25.641-6.55 34.473-1.424l245.018 138.126c8.832 5.126 7.692 13.955-2.422 19.793l-31.339 17.657c-10.257 5.981-25.642 6.551-34.474 1.424z" fill="#989ED7"/><path opacity=".259" d="M255.45 183.203L11.145 45.504c-8.69-4.984-7.692-13.812 2.422-19.65l30.77-17.23c10.113-5.84 25.356-6.409 34.045-1.425l244.306 137.699c8.689 4.984 7.692 13.812-2.422 19.651l-30.77 17.23c-9.971 5.838-25.214 6.408-34.046 1.424z" fill="#959AD4"/><path opacity=".302" d="M255.45 182.775L11.857 45.505c-8.69-4.985-7.55-13.671 2.422-19.51L44.336 9.194c9.972-5.839 25.072-6.408 33.761-1.424l243.736 137.27c8.69 4.984 7.55 13.67-2.422 19.509l-30.057 16.802c-10.114 5.696-25.214 6.408-33.904 1.424z" fill="#9296D1"/><path opacity=".345" d="M255.45 182.348L12.427 45.504c-8.547-4.984-7.55-13.528 2.422-19.366L44.336 9.62c9.972-5.696 24.93-6.408 33.477-1.424L320.836 145.04c8.547 4.984 7.55 13.528-2.422 19.366l-29.487 16.518c-9.972 5.696-24.93 6.408-33.477 1.424z" fill="#8E93CE"/><path opacity=".388" d="M255.45 181.921L13.14 45.504c-8.548-4.841-7.408-13.528 2.421-19.081l28.775-16.091c9.83-5.696 24.645-6.266 33.192-1.424l242.311 136.559c8.547 4.842 7.407 13.528-2.422 19.082l-28.775 16.091c-9.829 5.553-24.787 6.265-33.192 1.281z" fill="#8B8FCB"/><path opacity=".431" d="M255.45 181.494L13.71 45.504c-8.406-4.841-7.408-13.385 2.42-18.939L44.337 10.76c9.687-5.553 24.36-6.265 32.907-1.424l241.599 136.132c8.404 4.842 7.407 13.386-2.422 18.939l-28.206 15.806c-9.686 5.554-24.359 6.123-32.764 1.282z" fill="#888BC8"/><path opacity=".474" d="M255.45 181.209L14.421 45.504c-8.404-4.841-7.265-13.243 2.28-18.796l27.493-15.38c9.687-5.553 24.217-6.122 32.479-1.28L317.56 145.751c8.404 4.842 7.265 13.243-2.28 18.797l-27.493 15.378c-9.544 5.412-24.074 5.981-32.337 1.282z" fill="#8487C6"/><path opacity=".517" d="M255.308 180.782L14.991 45.504c-8.262-4.699-7.265-13.1 2.28-18.654l26.923-15.094c9.544-5.554 23.932-6.123 32.194-1.282l240.317 135.278c8.262 4.699 7.265 13.101-2.279 18.654L287.502 179.5c-9.402 5.411-23.932 5.981-32.194 1.282z" fill="#8183C3"/><path opacity=".56" d="M255.308 180.355L15.703 45.505c-8.12-4.7-7.122-12.96 2.28-18.37l26.353-14.667c9.402-5.411 23.647-5.98 31.91-1.282L315.85 146.18c8.12 4.699 7.123 12.958-2.279 18.37l-26.354 14.524c-9.402 5.411-23.647 5.981-31.909 1.282z" fill="#7E7FC0"/><path opacity=".603" d="M255.308 179.927L16.416 45.362c-8.12-4.7-7.123-12.816 2.279-18.227l25.641-14.382c9.402-5.412 23.505-5.981 31.625-1.282l238.892 134.566c8.12 4.699 7.123 12.816-2.279 18.227l-25.642 14.382c-9.402 5.411-23.504 5.981-31.624 1.281z" fill="#7A7CBD"/><path opacity=".646" d="M255.308 179.5L17.128 45.362c-7.977-4.557-6.98-12.674 2.28-18.085l25.07-13.955c9.26-5.41 23.22-5.98 31.198-1.281l238.18 134.281c7.977 4.556 6.98 12.673-2.279 18.084l-25.072 13.955c-9.117 5.269-23.22 5.838-31.197 1.139z" fill="#7778BA"/><path opacity=".689" d="M255.308 179.215L17.698 45.362c-7.978-4.557-6.98-12.531 2.279-17.8l24.36-13.528c9.116-5.269 23.076-5.838 30.911-1.281l237.468 133.711c7.977 4.557 6.98 12.531-2.279 17.8l-24.359 13.527c-8.975 5.412-22.793 5.981-30.77 1.424z" fill="#7474B7"/><path opacity=".732" d="M255.308 178.788L18.41 45.362c-7.835-4.557-6.838-12.389 2.137-17.658l23.79-13.243c9.116-5.268 22.792-5.838 30.626-1.281l236.898 133.284c7.835 4.557 6.838 12.389-2.136 17.657l-23.79 13.243c-9.117 5.411-22.792 5.981-30.627 1.424z" fill="#7070B4"/><path opacity=".775" d="M255.308 178.361l-236.186-133c-7.835-4.414-6.838-12.388 2.137-17.514L44.336 15.03c8.975-5.126 22.508-5.696 30.343-1.282l236.185 133c7.835 4.414 6.838 12.388-2.137 17.515L285.65 177.08c-8.974 5.268-22.65 5.838-30.342 1.281z" fill="#6D6CB2"/><path opacity=".819" d="M255.308 177.934L19.692 45.362c-7.692-4.415-6.695-12.104 2.28-17.23L44.478 15.6c8.832-5.127 22.365-5.696 30.057-1.282L310.01 146.891c7.692 4.415 6.695 12.246-2.137 17.373l-22.508 12.531c-8.974 5.126-22.365 5.553-30.057 1.139z" fill="#6A69AF"/><path opacity=".862" d="M255.165 177.507L20.405 45.362c-7.55-4.415-6.696-12.104 2.136-17.088L44.48 16.17c8.832-5.126 22.08-5.553 29.63-1.281l234.76 132.145c7.55 4.414 6.695 12.103-2.137 17.087l-21.937 12.104c-8.69 5.126-21.938 5.696-29.631 1.282z" fill="#6665AC"/><path opacity=".905" d="M255.165 177.222L21.117 45.362c-7.55-4.415-6.553-11.962 2.136-16.946L44.48 16.597c8.69-4.984 21.795-5.553 29.345-1.281l234.191 131.718c7.55 4.414 6.553 11.961-2.137 16.945l-21.225 11.819c-8.832 5.126-21.938 5.696-29.488 1.424z" fill="#6361A9"/></g><path d="M241.917 81.104v26.486l26.069-15.237V65.867l-26.069 15.237z" fill="url(#paint0_linear_45_920)"/><path d="M241.917 81.103v26.487l-26.068-15.095V66.01l26.068 15.094z" fill="url(#paint1_linear_45_920)"/><path d="M215.849 66.01l26.068 15.093 26.069-15.236-26.069-15.237-26.068 15.38z" fill="#A9B1E5"/><path d="M269.268 97.195v26.485l26.069-15.236V81.958l-26.069 15.237z" fill="url(#paint2_linear_45_920)"/><path d="M269.411 97.194v26.486l-26.069-15.094V82.1l26.069 15.094z" fill="url(#paint3_linear_45_920)"/><path d="M243.342 82.1l26.069 15.095 25.926-15.237-26.069-15.237-25.926 15.38z" fill="#A9B1E5"/><path d="M296.761 141.338v26.486l26.069-15.237v-26.486l-26.069 15.237z" fill="url(#paint4_linear_45_920)"/><path d="M296.761 141.338v26.486l-26.068-15.094v-26.486l26.068 15.094z" fill="url(#paint5_linear_45_920)"/><path d="M270.693 126.244l26.068 15.094 26.069-15.237-26.069-15.236-26.068 15.379z" fill="#A9B1E5"/><path d="M213.854 125.532v26.486l26.069-15.237v-26.486l-26.069 15.237z" fill="url(#paint6_linear_45_920)"/><path d="M213.854 125.532v26.486l-26.068-15.237v-26.344l26.068 15.095z" fill="url(#paint7_linear_45_920)"/><path d="M187.786 110.437l26.068 15.095 26.069-15.237-26.069-15.237-26.068 15.379z" fill="#A9B1E5"/><path d="M241.205 141.623v26.485l26.069-15.378v-26.486l-26.069 15.379z" fill="url(#paint8_linear_45_920)"/><path d="M241.205 141.623v26.485l-26.069-15.236v-26.486l26.069 15.237z" fill="url(#paint9_linear_45_920)"/><path d="M215.136 126.386l26.069 15.237 26.069-15.379-26.069-15.095-26.069 15.237z" fill="#A9B1E5"/><path d="M268.698 157.713v26.486l26.069-15.379v-26.485l-26.069 15.378z" fill="url(#paint10_linear_45_920)"/><path d="M268.698 157.713v26.486l-26.068-15.236v-26.486l26.068 15.236z" fill="url(#paint11_linear_45_920)"/><path d="M242.63 142.477l26.068 15.236 26.069-15.378-26.211-15.095-25.926 15.237z" fill="#A9B1E5"/><path d="M296.761 113.285v26.486l26.069-15.236V98.049l-26.069 15.236z" fill="url(#paint12_linear_45_920)"/><path d="M296.761 113.285v26.486l-26.068-15.236V98.049l26.068 15.236z" fill="url(#paint13_linear_45_920)"/><path d="M270.693 98.049l26.068 15.236 26.069-15.236-26.069-15.237-26.068 15.237z" fill="#A9B1E5"/><path d="M213.854 97.48v26.485l26.069-15.236V82.243l-26.069 15.236z" fill="url(#paint14_linear_45_920)"/><path d="M213.854 97.48v26.485l-26.068-15.236V82.243l26.068 15.236z" fill="url(#paint15_linear_45_920)"/><path d="M187.786 82.243l26.068 15.236 26.069-15.236-26.069-15.237-26.068 15.237z" fill="#A9B1E5"/><path d="M241.205 113.57v26.486l26.069-15.379V98.191l-26.069 15.379z" fill="url(#paint16_linear_45_920)"/><path d="M241.205 113.57v26.486l-26.069-15.236V98.334l26.069 15.236z" fill="url(#paint17_linear_45_920)"/><path d="M215.136 98.334l26.069 15.236 26.069-15.379-26.069-15.094-26.069 15.237z" fill="#A9B1E5"/><path d="M268.698 129.661v26.486l26.069-15.379v-26.486l-26.069 15.379z" fill="url(#paint18_linear_45_920)"/><path d="M268.698 129.661v26.486l-26.068-15.236v-26.486l26.068 15.236z" fill="url(#paint19_linear_45_920)"/><path d="M242.63 114.425l26.068 15.236 26.069-15.379-26.211-15.094-25.926 15.237z" fill="#A9B1E5"/><defs><linearGradient id="paint0_linear_45_920" x1="259.527" y1="97.008" x2="278.589" y2="139.8" gradientUnits="userSpaceOnUse"><stop stop-color="#7481CF"/><stop offset="1" stop-color="#7986D1"/></linearGradient><linearGradient id="paint1_linear_45_920" x1="215.891" y1="86.82" x2="241.941" y2="86.82" gradientUnits="userSpaceOnUse"><stop stop-color="#7784D0"/><stop offset="1" stop-color="#8490D9"/></linearGradient><linearGradient id="paint2_linear_45_920" x1="286.929" y1="113.07" x2="305.992" y2="155.861" gradientUnits="userSpaceOnUse"><stop stop-color="#7481CF"/><stop offset="1" stop-color="#7986D1"/></linearGradient><linearGradient id="paint3_linear_45_920" x1="243.293" y1="102.881" x2="269.343" y2="102.881" gradientUnits="userSpaceOnUse"><stop stop-color="#7784D0"/><stop offset="1" stop-color="#8490D9"/></linearGradient><linearGradient id="paint4_linear_45_920" x1="314.331" y1="157.209" x2="333.394" y2="200" gradientUnits="userSpaceOnUse"><stop stop-color="#7481CF"/><stop offset="1" stop-color="#7986D1"/></linearGradient><linearGradient id="paint5_linear_45_920" x1="270.695" y1="147.02" x2="296.745" y2="147.02" gradientUnits="userSpaceOnUse"><stop stop-color="#7784D0"/><stop offset="1" stop-color="#8490D9"/></linearGradient><linearGradient id="paint6_linear_45_920" x1="231.439" y1="141.396" x2="250.502" y2="184.188" gradientUnits="userSpaceOnUse"><stop stop-color="#7481CF"/><stop offset="1" stop-color="#7986D1"/></linearGradient><linearGradient id="paint7_linear_45_920" x1="187.803" y1="131.208" x2="213.853" y2="131.208" gradientUnits="userSpaceOnUse"><stop stop-color="#7784D0"/><stop offset="1" stop-color="#8490D9"/></linearGradient><linearGradient id="paint8_linear_45_920" x1="258.842" y1="157.458" x2="277.904" y2="200.249" gradientUnits="userSpaceOnUse"><stop stop-color="#7481CF"/><stop offset="1" stop-color="#7986D1"/></linearGradient><linearGradient id="paint9_linear_45_920" x1="215.206" y1="147.269" x2="241.256" y2="147.269" gradientUnits="userSpaceOnUse"><stop stop-color="#7784D0"/><stop offset="1" stop-color="#8490D9"/></linearGradient><linearGradient id="paint10_linear_45_920" x1="286.244" y1="173.519" x2="305.307" y2="216.311" gradientUnits="userSpaceOnUse"><stop stop-color="#7481CF"/><stop offset="1" stop-color="#7986D1"/></linearGradient><linearGradient id="paint11_linear_45_920" x1="242.608" y1="163.33" x2="268.658" y2="163.33" gradientUnits="userSpaceOnUse"><stop stop-color="#7784D0"/><stop offset="1" stop-color="#8490D9"/></linearGradient><linearGradient id="paint12_linear_45_920" x1="314.331" y1="129.131" x2="333.394" y2="171.923" gradientUnits="userSpaceOnUse"><stop stop-color="#7481CF"/><stop offset="1" stop-color="#7986D1"/></linearGradient><linearGradient id="paint13_linear_45_920" x1="270.695" y1="118.943" x2="296.745" y2="118.943" gradientUnits="userSpaceOnUse"><stop stop-color="#7784D0"/><stop offset="1" stop-color="#8490D9"/></linearGradient><linearGradient id="paint14_linear_45_920" x1="231.439" y1="113.319" x2="250.502" y2="156.11" gradientUnits="userSpaceOnUse"><stop stop-color="#7481CF"/><stop offset="1" stop-color="#7986D1"/></linearGradient><linearGradient id="paint15_linear_45_920" x1="187.803" y1="103.13" x2="213.853" y2="103.13" gradientUnits="userSpaceOnUse"><stop stop-color="#7784D0"/><stop offset="1" stop-color="#8490D9"/></linearGradient><linearGradient id="paint16_linear_45_920" x1="258.842" y1="129.38" x2="277.904" y2="172.172" gradientUnits="userSpaceOnUse"><stop stop-color="#7481CF"/><stop offset="1" stop-color="#7986D1"/></linearGradient><linearGradient id="paint17_linear_45_920" x1="215.206" y1="119.192" x2="241.256" y2="119.192" gradientUnits="userSpaceOnUse"><stop stop-color="#7784D0"/><stop offset="1" stop-color="#8490D9"/></linearGradient><linearGradient id="paint18_linear_45_920" x1="286.244" y1="145.442" x2="305.307" y2="188.233" gradientUnits="userSpaceOnUse"><stop stop-color="#7481CF"/><stop offset="1" stop-color="#7986D1"/></linearGradient><linearGradient id="paint19_linear_45_920" x1="242.608" y1="135.253" x2="268.658" y2="135.253" gradientUnits="userSpaceOnUse"><stop stop-color="#7784D0"/><stop offset="1" stop-color="#8490D9"/></linearGradient></defs></svg>