<svg width="263" height="356" fill="none" xmlns="http://www.w3.org/2000/svg"><g opacity=".2"><path opacity=".048" d="M14.741 199.926c3.134-1.851 7.407-2.99 11.539-3.132 3.56-.143 6.98.712 9.544 2.136.142 0 6.41 3.559 6.41 3.559l103.705 59.238 7.835 4.557 102.138 58.383c3.277 1.993 5.556 5.268 5.699 8.544.142 3.844-2.137 7.547-6.411 9.967l-9.259 4.842c-.143 0-7.835 3.987-7.978 3.987-3.276 1.851-7.407 2.848-11.538 2.706-3.561 0-6.98-.997-9.544-2.421l-102.139-59.38-6.695-3.987-95.443-55.393c-3.276-1.993-5.698-5.269-5.698-8.544 0-3.702 1.852-7.404 5.84-9.825l.143-2.279s1.567-12.815 1.852-12.958z" fill="#ABB2E2"/><path opacity=".095" d="M14.741 200.923c2.992-1.709 7.407-2.99 11.254-3.133 3.561-.142 6.837.57 9.544 1.852.285 0 6.268 3.417 6.41 3.417l103.136 58.953 7.835 4.556 101.71 58.241c3.134 1.851 5.698 5.269 5.841 8.402.142 3.702-1.852 7.404-6.126 9.825l-9.116 4.842c-.143.142-7.693 3.844-7.835 3.844-3.277 1.709-7.265 2.706-11.397 2.563-3.276 0-6.98-1.139-9.401-2.563L115.17 292.77l-6.696-3.845-94.73-55.108c-3.134-1.851-5.84-5.126-5.84-8.401 0-3.56 1.281-7.405 5.127-9.541l.143-2.278c-.285 0 1.14-12.389 1.567-12.674z" fill="#A7ADDF"/><path opacity=".143" d="M14.883 202.062c2.85-1.708 7.408-2.99 11.112-3.275 3.561-.285 6.837.427 9.544 1.709.285 0 6.268 3.275 6.41 3.417l102.708 58.811 7.835 4.414 101.284 57.956c2.991 1.709 5.698 5.126 5.983 8.259.285 3.702-1.567 7.405-5.841 9.825l-9.117 4.842c-.285.142-7.55 3.702-7.835 3.845-3.276 1.708-7.265 2.563-11.111 2.278-3.134 0-7.123-1.282-9.259-2.563l-100.714-58.526-6.695-3.844-94.161-54.681c-2.992-1.709-5.84-5.126-5.84-8.259 0-3.418.712-7.262 4.415-9.256v-2.136c-.854-.569.57-12.531 1.282-12.816z" fill="#A3A9DC"/><path opacity=".191" d="M14.883 203.059c2.707-1.566 7.408-2.99 10.827-3.417 3.419-.428 6.695.284 9.402 1.424.427 0 6.125 3.132 6.41 3.275l102.281 58.525 7.834 4.414 100.857 57.671c2.849 1.709 5.84 5.127 6.125 8.117.427 3.702-1.282 7.262-5.556 9.826l-8.974 4.841c-.427.285-7.265 3.702-7.835 3.702-3.276 1.567-7.123 2.421-10.969 2.136-2.991 0-7.122-1.424-9.259-2.705L115.882 292.77l-6.553-3.845-93.448-54.254c-2.85-1.708-5.983-5.126-5.983-7.974 0-3.133.142-7.12 3.56-9.113l-.142-2.136c-.712-.427.713-11.962 1.567-12.389z" fill="#9FA4D8"/><path opacity=".238" d="M15.026 204.056c2.564-1.424 7.55-2.99 10.684-3.418 3.419-.569 6.695.143 9.402 1.282.57 0 5.983 2.99 6.41 3.133l101.853 58.24 7.693 4.415 100.428 57.528c2.707 1.567 5.841 5.127 6.268 7.832.428 3.56-.997 7.262-5.27 9.683l-8.832 4.842c-.428.285-7.123 3.56-7.835 3.56-3.277 1.566-7.123 2.136-10.827 1.851-2.849 0-7.122-1.567-9.117-2.848l-99.431-57.529-6.553-3.845-92.879-53.826c-2.706-1.566-6.125-5.126-6.125-7.832 0-2.99-.428-6.977 2.849-8.828l-.143-1.994c-.997-.57.285-11.534 1.425-12.246z" fill="#9BA0D5"/><path opacity=".286" d="M15.026 205.195c2.422-1.424 7.55-2.99 10.399-3.56 3.276-.57 6.695 0 9.402.997.712 0 5.983 2.705 6.41 3.133l101.426 58.098 7.692 4.414 100.002 57.244c2.564 1.424 5.983 5.126 6.41 7.69.57 3.559-.712 7.119-5.128 9.683l-8.832 4.841c-.57.285-6.98 3.418-7.693 3.56-3.276 1.424-6.98 1.994-10.683 1.709-2.565 0-7.123-1.851-8.975-2.848l-98.719-57.244-6.553-3.845-92.024-53.684c-2.564-1.424-6.268-5.126-6.268-7.689 0-2.848-.997-6.978 2.137-8.686l-.285-1.994c-1.282-.57 0-11.107 1.282-11.819z" fill="#979BD2"/><path opacity=".333" d="M15.168 206.192c2.28-1.282 7.55-3.133 10.257-3.702 3.276-.712 6.553-.143 9.402.854.854 0 5.84 2.563 6.41 2.99l100.856 57.814 7.693 4.414 99.431 56.959c2.279 1.282 6.553 5.126 6.553 7.547 1.282 3.418-.427 7.12-4.843 9.541l-8.69 4.841c-.712.428-6.838 3.275-7.692 3.418-3.277 1.281-6.981 1.851-10.542 1.424-2.422 0-7.122-1.994-8.832-2.99l-98.007-56.817-6.553-3.702-91.597-53.115c-2.279-1.281-6.41-4.984-6.41-7.405 0-2.563-1.567-6.835 1.282-8.401l-.427-1.851c-.997-.855.142-10.965 1.71-11.819z" fill="#9397CF"/><path opacity=".381" d="M15.31 207.189c1.995-1.14 7.55-3.133 10.115-3.845 3.134-.854 6.553-.285 9.26.569.996 0 5.84 2.421 6.41 2.848l100.428 57.529 7.693 4.414 99.004 56.675c2.137 1.281 6.695 5.126 6.695 7.262 1.425 3.275-.142 6.977-4.558 9.541l-8.547 4.841c-.855.427-6.696 3.275-7.693 3.275-3.134 1.282-6.837 1.709-10.256 1.282-2.28 0-7.123-2.136-8.832-3.133l-97.295-56.389-6.41-3.703-90.885-52.687c-2.137-1.281-6.553-4.984-6.553-7.262 0-2.421-1.994-6.693.57-8.259l-.427-1.851c-1.71-.428-.57-10.111 1.282-11.107z" fill="#8F92CC"/><path opacity=".429" d="M15.31 208.185c1.853-1.139 7.55-3.132 9.83-3.844 3.134-.855 6.41-.428 9.26.427.997 0 5.697 2.278 6.552 2.705l100.002 57.387 7.55 4.414 98.576 56.532c1.995 1.139 6.838 5.126 6.838 7.12 1.71 3.132.143 6.977-4.273 9.54l-8.548 4.984c-.854.57-6.552 3.133-7.692 3.275-3.134 1.14-6.838 1.567-10.114.997-2.137 0-7.123-2.278-8.69-3.133l-96.725-55.962-6.41-3.702-90.03-52.545c-1.994-1.139-6.695-4.984-6.695-6.977 0-2.279-2.564-6.551-.143-7.975l-.57-1.708c-1.709-1.14-.57-10.395 1.283-11.535z" fill="#8B8EC9"/><path opacity=".476" d="M15.453 209.325c1.71-.997 7.55-3.276 9.687-3.988 2.991-.996 6.41-.569 9.26.143 1.139 0 5.697 2.136 6.552 2.705l99.574 57.102 7.55 4.414 98.15 56.247c1.852.997 6.98 5.127 6.98 6.978 1.852 3.133.427 6.977-3.989 9.398l-8.404 4.984c-.998.57-6.411 2.99-7.55 3.133-3.134 1.139-6.696 1.424-9.972.854-1.852 0-7.265-2.421-8.547-3.275l-96.013-55.535-6.41-3.703-89.888-51.975c-1.852-.996-6.695-4.984-6.695-6.835 0-1.993-3.134-6.55-.997-7.832l-.712-1.708c-1.852-1.14-.713-9.968 1.424-11.107z" fill="#8789C6"/><path opacity=".524" d="M15.453 210.321c1.567-.854 7.55-3.417 9.402-4.129 2.991-1.139 6.268-.712 9.117 0 1.282 0 5.556 1.993 6.553 2.563l99.146 56.817 7.55 4.272 97.723 55.962c1.709.997 7.122 5.126 7.122 6.835 1.995 2.99.713 6.835-3.704 9.398l-8.262 4.984c-1.139.57-6.268 2.99-7.55 2.99-3.134.997-6.695 1.282-9.829.712-1.709 0-7.265-2.563-8.405-3.275l-95.3-55.108-6.268-3.702-88.89-51.548c-1.71-.997-6.838-4.984-6.838-6.693 0-1.851-3.704-6.407-1.71-7.547l-.854-1.708c-2.422-1.14-1.282-9.399.997-10.823z" fill="#8385C2"/><path opacity=".571" d="M15.596 211.318c1.424-.854 7.55-3.417 9.259-4.129 2.85-1.282 6.268-.855 9.117-.285 1.425 0 5.556 1.851 6.553 2.421l98.577 56.531 7.55 4.272 97.294 55.82c1.567.855 7.266 5.127 7.266 6.551 2.279 2.99.854 6.835-3.419 9.255l-8.263 4.984c-1.139.712-6.125 2.848-7.55 2.991-3.133.996-6.552 1.139-9.686.427-1.567 0-7.265-2.848-8.405-3.418l-94.588-54.68-6.268-3.56-88.32-51.121c-1.567-.854-6.98-4.984-6.98-6.408 0-1.709-4.274-6.265-2.422-7.405l-.855-1.566c-2.422-1.282-1.425-9.113 1.14-10.68z" fill="#7F80BF"/><path opacity=".619" d="M15.596 212.315c1.282-.712 7.55-3.56 8.974-4.272 2.85-1.282 6.268-.997 9.117-.427 1.567 0 5.413 1.709 6.553 2.278l98.149 56.39 7.408 4.272 96.725 55.535c1.282.712 7.407 4.984 7.407 6.408 2.422 2.848 1.14 6.692-3.276 9.255l-8.12 4.984c-1.282.712-5.983 2.706-7.55 2.848-3.134.855-6.552.997-9.402.285-1.424 0-7.265-2.99-8.262-3.56l-93.876-54.253-6.268-3.56-87.465-50.694c-1.282-.712-7.123-4.841-7.123-6.265 0-1.424-4.843-6.266-3.276-7.12l-.997-1.567c-2.422-1.424-1.425-8.828 1.282-10.537z" fill="#7B7CBC"/><path opacity=".667" d="M15.738 213.454c1.14-.569 7.55-3.702 8.832-4.414 2.707-1.424 6.126-1.139 8.975-.712 1.567 0 5.27 1.566 6.552 2.278l97.723 56.105 7.407 4.272 96.298 55.25c1.139.712 7.55 4.984 7.55 6.266 2.564 2.848 1.424 6.692-2.992 9.255l-7.977 4.984c-1.425.855-5.698 2.563-7.408 2.706-3.134.854-6.41.854-9.259 0-1.282 0-7.265-3.133-8.12-3.56l-93.306-53.969-6.125-3.56-87.039-50.266c-1.14-.712-7.265-4.842-7.265-5.981 0-1.281-5.413-6.123-3.988-6.977l-1.14-1.424c-2.564-1.567-1.71-8.544 1.282-10.253z" fill="#7777B9"/><path opacity=".714" d="M15.738 214.451c.997-.57 7.55-3.845 8.547-4.557 2.564-1.566 6.126-1.281 8.975-.854 1.71 0 5.27 1.424 6.553 2.136l97.294 55.82 7.408 4.272 95.87 55.107c.997.57 7.693 4.984 7.693 5.981 2.849 2.706 1.709 6.55-2.707 9.114l-7.977 4.984c-1.425.854-5.556 2.563-7.408 2.705-3.134.712-6.41.712-9.117-.142-.997 0-7.265-3.275-8.12-3.703l-92.593-53.399-6.126-3.56-86.326-49.839c-.997-.57-7.407-4.841-7.407-5.838 0-1.139-5.983-5.981-4.701-6.693l-1.14-1.424c-2.707-1.709-1.852-8.259 1.282-10.11z" fill="#7373B6"/><path opacity=".762" d="M15.88 215.448c.855-.428 7.408-4.557 8.405-4.557 2.85-1.139 5.983-1.424 8.975-1.139 1.852 0 5.128 1.281 6.553 1.993l96.867 55.678 7.407 4.272 95.443 54.823c.855.427 7.835 4.984 7.835 5.838 2.992 2.706 1.995 6.55-2.421 9.114l-7.835 4.984c-1.567.854-5.413 2.42-7.408 2.563-3.134.569-6.268.569-8.974-.428-.855 0-7.265-3.417-7.978-3.844l-92.024-52.972-6.125-3.56-85.756-49.555c-.855-.427-7.55-4.841-7.55-5.695 0-.997-6.553-5.839-5.556-6.408l-1.282-1.282c-2.849-1.709-1.994-7.832 1.425-9.825z" fill="#6F6EB3"/><path opacity=".809" d="M16.023 216.587c.57-.427 7.407-4.699 8.262-4.699 2.707-1.139 5.983-1.567 8.975-1.282 1.994 0 5.128 1.139 6.553 1.994l96.297 55.392 7.408 4.272 95.015 54.539c.713.427 7.978 4.984 7.978 5.696 3.134 2.563 2.279 6.407-2.137 9.113l-7.693 4.984c-1.709.997-5.27 2.278-7.407 2.421-2.992.569-6.268.427-8.69-.57-.712 0-7.407-3.56-7.835-3.845l-91.169-52.544-5.983-3.418-85.471-49.412c-.713-.427-7.693-4.841-7.693-5.411 0-.712-7.122-5.838-6.267-6.266l-1.425-1.281c-3.134-1.851-2.422-7.69 1.282-9.683z" fill="#6B6AB0"/><path opacity=".857" d="M16.023 217.584c.427-.285 7.407-4.842 7.977-4.842 2.707-1.281 5.84-1.709 8.832-1.566 2.137 0 4.986.997 6.553 1.851l95.87 55.108 7.266 4.129 94.588 54.396c.57.285 8.12 4.984 8.12 5.411 3.418 2.564 2.564 6.408-1.852 8.971l-7.693 5.127c-1.852.997-5.128 2.278-7.265 2.421-2.991.427-6.125.142-8.547-.855-.57 0-7.407-3.845-7.692-3.987l-90.457-52.118-5.983-3.417-84.475-48.7c-.57-.285-7.692-4.699-7.692-5.269 0-.569-7.692-5.696-7.123-5.981l-1.424-1.139c-3.561-1.993-2.85-7.262.997-9.54z" fill="#6765AC"/><path opacity=".905" d="M16.166 218.58c.284-.142 7.407-4.841 7.834-4.841 2.564-1.282 5.84-1.851 8.832-1.709 2.28 0 4.986.855 6.553 1.709l95.443 54.965 7.265 4.13 94.019 54.111c.285.142 8.262 4.984 8.262 5.269 3.561 2.421 2.849 6.408-1.567 8.971l-7.55 5.126c-1.852 1.139-4.986 2.136-7.265 2.279-2.992.427-6.126 0-8.405-.997-.285 0-7.407-3.987-7.692-4.13L122.15 291.63l-5.983-3.417-83.762-48.273c-.285-.142-7.835-4.699-7.835-5.126 0-.427-8.262-5.554-7.835-5.839l-1.567-1.139c-3.703-1.993-3.134-6.835.998-9.256z" fill="#6361A9"/><path opacity=".952" d="M16.166 219.577c.142-.142 7.407-4.984 7.55-4.984 2.564-1.424 5.84-1.993 8.831-1.993 2.28 0 4.844.712 6.553 1.566l95.016 54.681 7.265 4.129 93.591 53.827c.142.142 8.405 4.984 8.405 5.126 3.703 2.278 3.134 6.265-1.425 8.829l-7.407 5.126c-1.995 1.139-4.844 1.994-7.265 2.136-2.992.285-5.983-.142-8.263-1.282-.142 0-7.407-4.129-7.55-4.129l-89.175-51.406-5.84-3.417L33.26 239.94c-.143-.142-7.978-4.699-7.978-4.841 0-.143-8.832-5.412-8.547-5.554l-1.71-1.139c-3.703-1.851-3.133-6.266 1.14-8.829z" fill="#5F5CA6"/><path d="M218.59 346.596L116.879 288.07l-101.71-58.525c-3.99-2.278-3.42-6.265 1.139-8.829l7.407-5.126c4.559-2.563 11.397-2.848 15.243-.57l101.711 58.526 101.71 58.525c3.989 2.279 3.419 6.266-1.139 8.829l-7.408 5.126c-4.416 2.563-11.253 2.848-15.242.57z" fill="#5B58A3"/></g><path d="M219.302 345.172L21.009 231.111C9.755 224.561.639 207.189.639 192.094V23.354c0-15.095 9.116-21.93 20.37-15.38l198.293 114.061c11.254 6.55 20.371 23.923 20.371 39.017v168.741c0 14.952-9.117 21.787-20.371 15.379z" fill="url(#paint0_linear_45_985)"/><path d="M225.285 338.479L23.43 222.425c-9.401-5.981-15.1-17.8-15.1-30.046V17.373c0-2.848 3.134-4.7 5.556-3.276.285.143.57.285.713.428L216.596 130.72c11.111 6.408 15.1 17.8 15.1 30.046v174.437c0 3.133-3.277 4.984-5.983 3.56-.143-.142-.428-.285-.428-.285z" fill="url(#paint1_linear_45_985)"/><path d="M216.596 130.721L14.598 14.525c-.142-.143-.427-.285-.712-.428-2.421-1.424-5.555.285-5.555 3.275V192.38c0 12.104 5.84 24.065 15.1 30.046L225.285 338.48c.143 0 .285.143.428.285 2.706 1.566 5.983-.427 5.983-3.56V160.767c0-12.104-3.989-23.496-15.1-30.046zm12.82 204.483c0 .997-.854 1.709-1.709 1.709-.285 0-.57-.143-.855-.285L24.57 220.289c-8.404-5.411-13.96-16.376-13.96-27.91V17.373c0-.855.712-1.425 1.424-1.425.285 0 .428 0 .713.143l202.709 116.624c11.539 6.692 13.96 18.796 13.96 27.91v174.579z" fill="#AFB6E5"/><path d="M228.704 116.481L30.411 2.421C25.995-.142 21.864-.57 18.445.712 18.017.854 8.758 6.266 8.33 6.55c3.56-1.708 7.977-1.424 12.678 1.424l198.293 114.061c11.254 6.55 20.371 23.923 20.371 39.017v168.741c0 9.398-3.561 15.664-8.975 17.372.428 0 .998-.142 1.852-.569.285-.143 10.114-5.981 10.257-6.123 3.846-2.706 6.268-8.259 6.268-16.091V155.498c0-15.094-9.117-32.466-20.371-39.017z" fill="url(#paint2_linear_45_985)"/><path d="M228.562 116.624L30.268 2.564C25.852 0 21.721-.428 18.302.853c-.427.143-9.544 5.411-9.971 5.696 3.56-1.708 7.977-1.424 12.678 1.424l198.293 114.061c11.254 6.55 20.371 23.923 20.371 39.017v168.741c0 9.398-3.561 15.664-8.975 17.372.428 0 .998-.142 1.852-.569.285-.143 9.83-5.838 10.114-6.123 3.847-2.706 6.268-8.259 6.268-16.091v-168.74c0-15.095-9.117-32.467-20.37-39.017z" fill="url(#paint3_linear_45_985)"/><path d="M228.277 116.766L30.126 2.706C25.71.142 21.579-.284 18.16.996c-.427.143-9.402 5.412-9.83 5.554 3.562-1.708 7.978-1.424 12.679 1.424l198.293 114.061c11.254 6.55 20.371 23.923 20.371 39.017v168.741c0 9.398-3.561 15.664-8.975 17.373.428 0 .998-.143 1.852-.57.285-.143 9.687-5.838 9.972-5.981 3.846-2.705 6.268-8.259 6.268-16.091V155.783c0-15.094-9.117-32.609-20.513-39.017z" fill="url(#paint4_linear_45_985)"/><path d="M228.134 116.766L29.841 2.848C25.425.285 21.294-.142 17.875 1.139c-.427.143-9.26 5.269-9.687 5.411 3.561-1.708 7.978-1.424 12.678 1.424L219.16 122.035c11.254 6.55 20.37 23.923 20.37 39.017v168.741c0 9.398-3.561 15.664-8.974 17.373.427 0 .997-.143 1.852-.57.285-.142 9.544-5.696 9.829-5.838 3.846-2.706 6.268-8.259 6.268-16.091V155.783c.142-14.952-9.117-32.467-20.371-39.017z" fill="url(#paint5_linear_45_985)"/><path d="M227.992 116.908L29.698 2.848C25.282.285 21.151-.142 17.733 1.139c-.428.143-9.117 5.126-9.402 5.411 3.56-1.708 7.977-1.424 12.678 1.424l198.293 114.061c11.254 6.55 20.371 23.923 20.371 39.017v168.741c0 9.398-3.561 15.664-8.975 17.373.428 0 .998-.143 1.852-.57.285-.142 9.402-5.554 9.545-5.696 3.846-2.706 6.267-8.259 6.267-16.091V155.925c0-14.951-9.116-32.466-20.37-39.017z" fill="url(#paint6_linear_45_985)"/><path d="M227.849 117.051L29.556 2.991C25.14.426 21.009 0 17.59 1.28c-.427.143-8.832 4.984-9.26 5.27 3.562-1.71 7.978-1.425 12.679 1.423l198.293 114.061c11.254 6.55 20.371 23.923 20.371 39.017v168.741c0 9.398-3.561 15.664-8.975 17.372.428 0 .998-.142 1.852-.569.285-.143 9.26-5.411 9.402-5.554 3.846-2.705 6.268-8.259 6.268-16.091V156.068c0-15.094-9.117-32.467-20.371-39.017z" fill="url(#paint7_linear_45_985)"/><path d="M227.707 117.193L29.414 3.133C24.996.57 20.865.143 17.447 1.424c-.428.142-8.69 4.841-9.117 5.126 3.56-1.708 7.977-1.424 12.678 1.424l198.293 114.061c11.254 6.55 20.371 23.923 20.371 39.017v168.741c0 9.398-3.561 15.664-8.975 17.373.428 0 .998-.143 1.852-.57.285-.142 8.975-5.269 9.26-5.554 3.846-2.705 6.268-8.259 6.268-16.091V156.21c0-15.094-9.117-32.466-20.371-39.017z" fill="url(#paint8_linear_45_985)"/><path d="M227.422 117.336L29.272 3.276C24.854.711 20.723.284 17.304 1.565c-.427.143-8.547 4.842-8.974 4.984 3.56-1.708 7.977-1.424 12.678 1.424l198.293 114.061c11.254 6.55 20.371 23.923 20.371 39.017v168.741c0 9.398-3.561 15.664-8.975 17.373.428 0 .998-.143 1.852-.57.285-.142 8.832-5.269 9.117-5.411 3.846-2.706 6.268-8.259 6.268-16.091v-168.74c0-15.094-9.117-32.609-20.513-39.017z" fill="url(#paint9_linear_45_985)"/><path d="M227.28 117.336L28.986 3.418C24.57.854 20.44.428 17.02 1.708c-.427.143-8.404 4.7-8.832 4.842 3.561-1.708 7.978-1.424 12.678 1.424L219.16 122.035c11.254 6.55 20.37 23.923 20.37 39.017v168.741c0 9.398-3.561 15.664-8.974 17.372.427 0 .997-.142 1.852-.569.285-.143 8.689-5.126 8.974-5.269 3.847-2.705 6.268-8.259 6.268-16.091V156.353c.143-14.952-9.117-32.467-20.37-39.017z" fill="url(#paint10_linear_45_985)"/><path d="M227.137 117.478L28.844 3.418C24.428.854 20.297.428 16.878 1.708c-.428.143-8.12 4.558-8.547 4.842 3.56-1.708 7.977-1.424 12.678 1.424l198.293 114.061c11.254 6.55 20.371 23.923 20.371 39.017v168.741c0 9.398-3.561 15.664-8.975 17.372.428 0 .998-.142 1.852-.569.285-.143 8.547-4.984 8.69-5.126 3.846-2.706 6.268-8.259 6.268-16.091V156.495c0-14.952-9.117-32.467-20.371-39.017z" fill="url(#paint11_linear_45_985)"/><path d="M226.995 117.62L28.701 3.56C24.285.997 20.154.57 16.735 1.851c-.427.143-7.977 4.415-8.404 4.7 3.56-1.71 7.977-1.425 12.678 1.423l198.293 114.061c11.254 6.55 20.371 23.923 20.371 39.017v168.741c0 9.398-3.561 15.664-8.975 17.373.428 0 .998-.143 1.852-.57.285-.142 8.263-4.842 8.547-5.126 3.847-2.706 6.268-8.259 6.268-16.091V156.637c0-15.094-9.117-32.466-20.37-39.017z" fill="url(#paint12_linear_45_985)"/><path d="M226.71 117.763L28.559 3.703c-4.416-2.564-8.547-2.991-11.966-1.71-.427.143-7.835 4.272-8.262 4.557 3.56-1.708 7.977-1.424 12.678 1.424l198.293 114.061c11.254 6.55 20.371 23.923 20.371 39.017v168.741c0 9.398-3.561 15.664-8.975 17.372.428 0 .998-.142 1.852-.569.285-.143 8.12-4.699 8.405-4.984 3.846-2.706 6.268-8.259 6.268-16.091V156.78c0-15.094-9.117-32.467-20.513-39.017z" fill="url(#paint13_linear_45_985)"/><path d="M226.567 117.905L28.417 3.845C24 1.282 19.868.855 16.45 2.136c-.427.142-7.692 4.272-8.12 4.414 3.562-1.708 7.978-1.424 12.679 1.424l198.293 114.061c11.254 6.55 20.371 23.923 20.371 39.017v168.741c0 9.398-3.561 15.664-8.975 17.373.428 0 .998-.143 1.852-.57.285-.142 7.978-4.699 8.263-4.842 3.846-2.705 6.267-8.259 6.267-16.091V156.922c0-15.094-9.259-32.609-20.513-39.017z" fill="url(#paint14_linear_45_985)"/><path d="M226.425 117.905L28.131 3.987c-4.416-2.563-8.547-2.99-11.965-1.709-.428.143-7.55 4.13-7.835 4.272 3.56-1.708 7.977-1.424 12.678 1.424l198.293 114.061c11.254 6.55 20.371 23.923 20.371 39.017v168.741c0 9.398-3.561 15.664-8.975 17.372.428 0 .998-.142 1.852-.569.285-.143 7.835-4.557 8.12-4.699 3.846-2.706 6.268-8.259 6.268-16.091V156.922c-.142-14.952-9.259-32.466-20.513-39.017z" fill="url(#paint15_linear_45_985)"/><path d="M226.282 118.048L27.989 3.988c-4.416-2.564-8.547-2.991-11.966-1.71-.427.143-7.265 3.988-7.692 4.272 3.56-1.708 7.977-1.424 12.678 1.424l198.293 114.061c11.254 6.55 20.371 23.923 20.371 39.017v168.741c0 9.398-3.561 15.664-8.975 17.372.428 0 .998-.142 1.852-.569.285-.143 7.693-4.414 7.835-4.557 3.846-2.705 6.268-8.259 6.268-16.091V157.065c0-14.952-9.117-32.467-20.371-39.017z" fill="url(#paint16_linear_45_985)"/><path d="M226.14 118.19L27.847 4.13C23.43 1.566 19.299 1.14 15.88 2.42c-.428.143-7.123 3.845-7.55 4.13 3.56-1.708 7.977-1.424 12.678 1.424l198.293 114.061c11.254 6.55 20.371 23.923 20.371 39.017v168.741c0 9.398-3.561 15.664-8.975 17.373.428 0 .998-.143 1.852-.57.285-.142 7.408-4.272 7.693-4.557 3.846-2.705 6.268-8.259 6.268-16.091V157.207c0-15.094-9.117-32.467-20.371-39.017z" fill="url(#paint17_linear_45_985)"/><path d="M225.855 118.332L27.705 4.272c-4.417-2.563-8.548-2.99-11.967-1.709-.427.143-6.98 3.702-7.407 3.987 3.56-1.708 7.977-1.424 12.678 1.424l198.293 114.061c11.254 6.55 20.371 23.923 20.371 39.017v168.741c0 9.398-3.561 15.664-8.975 17.372.428 0 .998-.142 1.852-.569.285-.143 7.265-4.272 7.55-4.414 3.846-2.706 6.268-8.26 6.268-16.091V157.349c0-15.094-9.117-32.466-20.513-39.017z" fill="url(#paint18_linear_45_985)"/><path d="M225.713 118.475L27.562 4.415c-4.416-2.564-8.547-2.991-11.966-1.71-.428.143-6.838 3.703-7.265 3.845 3.56-1.708 7.977-1.424 12.678 1.424l198.293 114.061c11.254 6.55 20.371 23.923 20.371 39.017v168.741c0 9.398-3.561 15.664-8.975 17.373.428 0 .998-.143 1.852-.57.285-.142 7.123-4.13 7.408-4.272 3.846-2.706 6.268-8.259 6.268-16.091V157.492c0-15.094-9.26-32.609-20.513-39.017z" fill="url(#paint19_linear_45_985)"/><path d="M225.57 118.475L27.277 4.557c-4.416-2.563-8.547-2.99-11.966-1.71-.428.143-6.695 3.56-6.98 3.703 3.56-1.708 7.977-1.424 12.678 1.424l198.293 114.061c11.254 6.55 20.371 23.923 20.371 39.017v168.741c0 9.398-3.561 15.664-8.975 17.372.428 0 .998-.142 1.852-.569.285-.143 6.98-3.987 7.265-4.13 3.847-2.705 6.268-8.259 6.268-16.091V157.492c-.142-14.952-9.259-32.467-20.513-39.017z" fill="url(#paint20_linear_45_985)"/><path d="M225.428 118.617L27.134 4.557c-4.416-2.563-8.547-2.99-11.966-1.71-.427.143-6.41 3.418-6.837 3.703 3.56-1.708 7.977-1.424 12.678 1.424l198.293 114.061c11.254 6.55 20.371 23.923 20.371 39.017v168.741c0 9.398-3.561 15.664-8.975 17.372.428 0 .998-.142 1.852-.569.285-.143 6.838-3.845 6.98-3.987 3.847-2.706 6.268-8.259 6.268-16.091V157.634c0-14.952-9.117-32.466-20.37-39.017z" fill="url(#paint21_linear_45_985)"/><path d="M225.285 118.76L26.992 4.7c-4.416-2.564-8.547-2.991-11.966-1.71-.428.143-6.268 3.275-6.695 3.56 3.56-1.708 7.977-1.424 12.678 1.424l198.293 114.061c11.254 6.55 20.371 23.923 20.371 39.017v168.741c0 9.398-3.561 15.664-8.975 17.373.428 0 .998-.143 1.852-.57.285-.142 6.553-3.702 6.838-3.987 3.846-2.706 6.268-8.259 6.268-16.091V157.777c0-15.095-9.117-32.467-20.371-39.017z" fill="url(#paint22_linear_45_985)"/><path d="M225 118.902L26.85 4.842c-4.417-2.564-8.548-2.99-11.967-1.71-.427.143-6.125 3.133-6.552 3.418 3.56-1.708 7.977-1.424 12.678 1.424l198.293 114.061c11.254 6.55 20.371 23.923 20.371 39.017v168.741c0 9.398-3.561 15.664-8.975 17.372.428 0 .998-.142 1.852-.569.285-.143 6.411-3.702 6.696-3.845 3.846-2.705 6.267-8.259 6.267-16.091V157.919c0-15.094-9.116-32.609-20.513-39.017z" fill="url(#paint23_linear_45_985)"/><path d="M220.299 121.465L22.006 7.405c-4.558-2.706-8.832-2.99-12.25-1.567 2.99-.427 6.267.285 9.828 2.279l198.294 114.06c11.253 6.55 20.37 23.923 20.37 39.017v168.741c0 8.829-3.134 14.952-8.119 16.946 6.268-.997 10.541-7.405 10.541-17.8V160.482c0-15.094-9.117-32.467-20.371-39.017z" fill="#fff"/><defs><linearGradient id="paint0_linear_45_985" x1="-166.772" y1="113.57" x2="357.803" y2="228.734" gradientUnits="userSpaceOnUse"><stop stop-color="#AFB6E5"/><stop offset=".145" stop-color="#B6BCE8"/><stop offset=".348" stop-color="#C8CDF1"/><stop offset=".581" stop-color="#E5E9FF"/><stop offset=".855" stop-color="#F5F6FF"/><stop offset="1" stop-color="#fff"/></linearGradient><linearGradient id="paint1_linear_45_985" x1="14.699" y1="17.823" x2="240.437" y2="357.396" gradientUnits="userSpaceOnUse"><stop offset=".005" stop-color="#273B98"/><stop offset=".227" stop-color="#2F2BA2"/><stop offset=".399" stop-color="#361CAC"/><stop offset=".768" stop-color="#440B89"/><stop offset="1" stop-color="#4E0070"/></linearGradient><linearGradient id="paint2_linear_45_985" x1="76.326" y1="-29.264" x2="260.421" y2="339.707" gradientUnits="userSpaceOnUse"><stop stop-color="#B3BAE7"/><stop offset=".192" stop-color="#B7BDE9"/><stop offset=".283" stop-color="#BAC0E9"/><stop offset=".409" stop-color="#AFB6E5"/><stop offset=".909" stop-color="#AFB6E5"/><stop offset="1" stop-color="#B3BAE7"/></linearGradient><linearGradient id="paint3_linear_45_985" x1="76.245" y1="-29.196" x2="260.329" y2="339.752" gradientUnits="userSpaceOnUse"><stop stop-color="#B4BBE8"/><stop offset=".192" stop-color="#B9BEEA"/><stop offset=".283" stop-color="#BCC2EA"/><stop offset=".409" stop-color="#B2B8E6"/><stop offset=".434" stop-color="#B2B8E6"/><stop offset=".535" stop-color="#B3B9E6"/><stop offset=".722" stop-color="#AFB6E5"/><stop offset=".909" stop-color="#AFB6E5"/><stop offset="1" stop-color="#B4BBE8"/></linearGradient><linearGradient id="paint4_linear_45_985" x1="76.165" y1="-29.128" x2="260.237" y2="339.798" gradientUnits="userSpaceOnUse"><stop stop-color="#B5BCE8"/><stop offset=".192" stop-color="#BAC0EA"/><stop offset=".283" stop-color="#BDC3EB"/><stop offset=".409" stop-color="#B4BBE7"/><stop offset=".434" stop-color="#B4BBE7"/><stop offset=".535" stop-color="#B7BDE7"/><stop offset=".722" stop-color="#AFB6E5"/><stop offset=".909" stop-color="#AFB6E5"/><stop offset="1" stop-color="#B5BCE8"/></linearGradient><linearGradient id="paint5_linear_45_985" x1="76.084" y1="-29.06" x2="260.146" y2="339.843" gradientUnits="userSpaceOnUse"><stop stop-color="#B7BDE9"/><stop offset=".192" stop-color="#BCC1EB"/><stop offset=".283" stop-color="#BFC5EC"/><stop offset=".409" stop-color="#B7BDE9"/><stop offset=".434" stop-color="#B7BDE9"/><stop offset=".535" stop-color="#BAC0E9"/><stop offset=".722" stop-color="#AFB6E5"/><stop offset=".909" stop-color="#AFB6E5"/><stop offset="1" stop-color="#B7BDE9"/></linearGradient><linearGradient id="paint6_linear_45_985" x1="76.004" y1="-28.993" x2="260.054" y2="339.888" gradientUnits="userSpaceOnUse"><stop stop-color="#B8BFE9"/><stop offset=".192" stop-color="#BDC3EC"/><stop offset=".283" stop-color="#C1C6EC"/><stop offset=".409" stop-color="#B9C0EA"/><stop offset=".434" stop-color="#B9C0EA"/><stop offset=".535" stop-color="#BEC4EA"/><stop offset=".722" stop-color="#AFB6E5"/><stop offset=".909" stop-color="#AFB6E5"/><stop offset="1" stop-color="#B8BFE9"/></linearGradient><linearGradient id="paint7_linear_45_985" x1="75.923" y1="-28.925" x2="259.962" y2="339.934" gradientUnits="userSpaceOnUse"><stop stop-color="#B9C0EA"/><stop offset=".192" stop-color="#BFC4ED"/><stop offset=".283" stop-color="#C2C8ED"/><stop offset=".409" stop-color="#BCC2EB"/><stop offset=".434" stop-color="#BCC2EB"/><stop offset=".535" stop-color="#C2C7EB"/><stop offset=".722" stop-color="#AFB6E5"/><stop offset=".909" stop-color="#AFB6E5"/><stop offset="1" stop-color="#B9C0EA"/></linearGradient><linearGradient id="paint8_linear_45_985" x1="75.843" y1="-28.857" x2="259.871" y2="339.979" gradientUnits="userSpaceOnUse"><stop stop-color="#BAC1EA"/><stop offset=".192" stop-color="#C0C6ED"/><stop offset=".283" stop-color="#C4C9EE"/><stop offset=".409" stop-color="#BEC4EC"/><stop offset=".434" stop-color="#BEC5EC"/><stop offset=".535" stop-color="#C6CBEC"/><stop offset=".698" stop-color="#B2B9E6"/><stop offset=".722" stop-color="#AFB6E5"/><stop offset=".909" stop-color="#AFB6E5"/><stop offset=".999" stop-color="#BAC1EA"/><stop offset="1" stop-color="#BAC1EA"/></linearGradient><linearGradient id="paint9_linear_45_985" x1="75.762" y1="-28.789" x2="259.779" y2="340.024" gradientUnits="userSpaceOnUse"><stop stop-color="#BCC2EB"/><stop offset=".192" stop-color="#C2C7EE"/><stop offset=".283" stop-color="#C6CBEF"/><stop offset=".409" stop-color="#C1C7ED"/><stop offset=".434" stop-color="#C1C7EE"/><stop offset=".535" stop-color="#CACEEE"/><stop offset=".677" stop-color="#B6BDE7"/><stop offset=".722" stop-color="#AFB6E5"/><stop offset=".909" stop-color="#AFB6E5"/><stop offset=".988" stop-color="#BAC0EA"/><stop offset="1" stop-color="#BCC2EB"/></linearGradient><linearGradient id="paint10_linear_45_985" x1="75.682" y1="-28.722" x2="259.687" y2="340.07" gradientUnits="userSpaceOnUse"><stop stop-color="#BDC3EC"/><stop offset=".192" stop-color="#C4C9EF"/><stop offset=".283" stop-color="#C7CDF0"/><stop offset=".409" stop-color="#C3C9EF"/><stop offset=".434" stop-color="#C4C9EF"/><stop offset=".535" stop-color="#CDD2EF"/><stop offset=".664" stop-color="#B9C0E8"/><stop offset=".722" stop-color="#AFB6E5"/><stop offset=".909" stop-color="#AFB6E5"/><stop offset=".984" stop-color="#BAC0EA"/><stop offset="1" stop-color="#BDC3EC"/></linearGradient><linearGradient id="paint11_linear_45_985" x1="75.601" y1="-28.654" x2="259.595" y2="340.115" gradientUnits="userSpaceOnUse"><stop stop-color="#BEC4EC"/><stop offset=".192" stop-color="#C5CAEF"/><stop offset=".283" stop-color="#C9CEF1"/><stop offset=".409" stop-color="#C6CBF0"/><stop offset=".434" stop-color="#C6CCF0"/><stop offset=".529" stop-color="#D0D4F0"/><stop offset=".535" stop-color="#D1D5F0"/><stop offset=".651" stop-color="#BDC3EA"/><stop offset=".722" stop-color="#AFB6E5"/><stop offset=".909" stop-color="#AFB6E5"/><stop offset=".98" stop-color="#BAC0EA"/><stop offset="1" stop-color="#BEC4EC"/></linearGradient><linearGradient id="paint12_linear_45_985" x1="75.521" y1="-28.586" x2="259.504" y2="340.16" gradientUnits="userSpaceOnUse"><stop stop-color="#BFC5ED"/><stop offset=".192" stop-color="#C7CCF0"/><stop offset=".283" stop-color="#CBD0F2"/><stop offset=".409" stop-color="#C8CEF1"/><stop offset=".434" stop-color="#C9CEF1"/><stop offset=".523" stop-color="#D3D7F1"/><stop offset=".535" stop-color="#D5D9F1"/><stop offset=".64" stop-color="#C1C7EB"/><stop offset=".722" stop-color="#AFB6E5"/><stop offset=".909" stop-color="#AFB6E5"/><stop offset=".976" stop-color="#BAC0EA"/><stop offset="1" stop-color="#BFC5ED"/></linearGradient><linearGradient id="paint13_linear_45_985" x1="75.44" y1="-28.518" x2="259.412" y2="340.206" gradientUnits="userSpaceOnUse"><stop stop-color="#C1C7ED"/><stop offset=".192" stop-color="#C8CDF1"/><stop offset=".283" stop-color="#CCD1F2"/><stop offset=".409" stop-color="#CBD0F2"/><stop offset=".434" stop-color="#CBD1F3"/><stop offset=".513" stop-color="#D5D9F3"/><stop offset=".535" stop-color="#D9DCF3"/><stop offset=".632" stop-color="#C5CAEC"/><stop offset=".722" stop-color="#AFB6E5"/><stop offset=".909" stop-color="#AFB6E5"/><stop offset=".97" stop-color="#BAC0EA"/><stop offset="1" stop-color="#C1C7ED"/></linearGradient><linearGradient id="paint14_linear_45_985" x1="75.359" y1="-28.451" x2="259.32" y2="340.251" gradientUnits="userSpaceOnUse"><stop stop-color="#C2C8EE"/><stop offset=".192" stop-color="#CACFF2"/><stop offset=".283" stop-color="#CED3F3"/><stop offset=".409" stop-color="#CDD3F3"/><stop offset=".434" stop-color="#CED3F4"/><stop offset=".509" stop-color="#D8DCF4"/><stop offset=".535" stop-color="#DDE0F4"/><stop offset=".625" stop-color="#C9CEEE"/><stop offset=".722" stop-color="#AFB6E5"/><stop offset=".909" stop-color="#AFB6E5"/><stop offset=".968" stop-color="#BAC0EA"/><stop offset="1" stop-color="#C2C8EE"/></linearGradient><linearGradient id="paint15_linear_45_985" x1="75.279" y1="-28.383" x2="259.229" y2="340.296" gradientUnits="userSpaceOnUse"><stop stop-color="#C3C9EE"/><stop offset=".192" stop-color="#CBD0F2"/><stop offset=".283" stop-color="#D0D4F4"/><stop offset=".409" stop-color="#D0D5F4"/><stop offset=".434" stop-color="#D0D6F5"/><stop offset=".502" stop-color="#DADEF5"/><stop offset=".535" stop-color="#E1E3F5"/><stop offset=".618" stop-color="#CDD1EF"/><stop offset=".722" stop-color="#AFB6E5"/><stop offset=".909" stop-color="#AFB6E5"/><stop offset=".966" stop-color="#BAC0EA"/><stop offset="1" stop-color="#C3C9EE"/></linearGradient><linearGradient id="paint16_linear_45_985" x1="75.198" y1="-28.316" x2="259.137" y2="340.341" gradientUnits="userSpaceOnUse"><stop stop-color="#C4CAEF"/><stop offset=".192" stop-color="#CDD2F3"/><stop offset=".283" stop-color="#D1D6F5"/><stop offset=".409" stop-color="#D2D7F6"/><stop offset=".434" stop-color="#D3D8F6"/><stop offset=".502" stop-color="#DDE1F6"/><stop offset=".535" stop-color="#E4E7F6"/><stop offset=".614" stop-color="#D0D5F0"/><stop offset=".722" stop-color="#AFB6E5"/><stop offset=".909" stop-color="#AFB6E5"/><stop offset=".964" stop-color="#BAC0EA"/><stop offset="1" stop-color="#C4CAEF"/></linearGradient><linearGradient id="paint17_linear_45_985" x1="75.118" y1="-28.248" x2="259.045" y2="340.387" gradientUnits="userSpaceOnUse"><stop stop-color="#C6CBF0"/><stop offset=".192" stop-color="#CFD3F4"/><stop offset=".283" stop-color="#D3D8F6"/><stop offset=".409" stop-color="#D5DAF7"/><stop offset=".434" stop-color="#D6DAF8"/><stop offset=".499" stop-color="#E0E3F8"/><stop offset=".535" stop-color="#E8EAF8"/><stop offset=".609" stop-color="#D4D8F1"/><stop offset=".722" stop-color="#AFB6E5"/><stop offset=".909" stop-color="#AFB6E5"/><stop offset=".96" stop-color="#BAC0EA"/><stop offset="1" stop-color="#C6CBF0"/></linearGradient><linearGradient id="paint18_linear_45_985" x1="75.037" y1="-28.181" x2="258.954" y2="340.432" gradientUnits="userSpaceOnUse"><stop stop-color="#C7CCF0"/><stop offset=".192" stop-color="#D0D5F4"/><stop offset=".283" stop-color="#D5D9F7"/><stop offset=".409" stop-color="#D7DCF8"/><stop offset=".434" stop-color="#D8DDF9"/><stop offset=".494" stop-color="#E2E6F9"/><stop offset=".535" stop-color="#ECEEF9"/><stop offset=".605" stop-color="#D8DCF3"/><stop offset=".722" stop-color="#AFB6E5"/><stop offset=".909" stop-color="#AFB6E5"/><stop offset=".958" stop-color="#BAC0EA"/><stop offset="1" stop-color="#C7CCF0"/></linearGradient><linearGradient id="paint19_linear_45_985" x1="74.957" y1="-28.113" x2="258.862" y2="340.477" gradientUnits="userSpaceOnUse"><stop stop-color="#C8CDF1"/><stop offset=".192" stop-color="#D2D6F5"/><stop offset=".283" stop-color="#D6DBF8"/><stop offset=".409" stop-color="#DADEF9"/><stop offset=".434" stop-color="#DBDFFA"/><stop offset=".492" stop-color="#E5E8FA"/><stop offset=".535" stop-color="#F0F1FA"/><stop offset=".601" stop-color="#DCDFF4"/><stop offset=".722" stop-color="#AFB6E5"/><stop offset=".909" stop-color="#AFB6E5"/><stop offset=".957" stop-color="#BAC0EA"/><stop offset="1" stop-color="#C8CDF1"/></linearGradient><linearGradient id="paint20_linear_45_985" x1="74.876" y1="-28.046" x2="258.77" y2="340.523" gradientUnits="userSpaceOnUse"><stop stop-color="#C9CFF1"/><stop offset=".192" stop-color="#D3D8F6"/><stop offset=".283" stop-color="#D8DCF8"/><stop offset=".409" stop-color="#DCE1FA"/><stop offset=".434" stop-color="#DDE2FB"/><stop offset=".488" stop-color="#E7EAFB"/><stop offset=".535" stop-color="#F4F5FB"/><stop offset=".598" stop-color="#E0E3F5"/><stop offset=".722" stop-color="#AFB6E5"/><stop offset=".909" stop-color="#AFB6E5"/><stop offset=".955" stop-color="#BAC0EA"/><stop offset="1" stop-color="#C9CFF1"/></linearGradient><linearGradient id="paint21_linear_45_985" x1="74.795" y1="-27.978" x2="258.678" y2="340.568" gradientUnits="userSpaceOnUse"><stop stop-color="#CBD0F2"/><stop offset=".192" stop-color="#D5D9F7"/><stop offset=".283" stop-color="#DADEF9"/><stop offset=".409" stop-color="#DFE3FC"/><stop offset=".434" stop-color="#E0E4FD"/><stop offset=".488" stop-color="#EAEDFD"/><stop offset=".535" stop-color="#F7F8FD"/><stop offset=".596" stop-color="#E3E6F6"/><stop offset=".719" stop-color="#B1B8E6"/><stop offset=".722" stop-color="#AFB6E5"/><stop offset=".909" stop-color="#AFB6E5"/><stop offset=".953" stop-color="#BAC0EA"/><stop offset="1" stop-color="#CBD0F2"/></linearGradient><linearGradient id="paint22_linear_45_985" x1="74.714" y1="-27.911" x2="258.587" y2="340.613" gradientUnits="userSpaceOnUse"><stop stop-color="#CCD1F2"/><stop offset=".192" stop-color="#D6DBF7"/><stop offset=".283" stop-color="#DBDFFA"/><stop offset=".409" stop-color="#E1E6FD"/><stop offset=".434" stop-color="#E2E7FE"/><stop offset=".485" stop-color="#ECEFFE"/><stop offset=".535" stop-color="#FBFCFE"/><stop offset=".593" stop-color="#E7EAF8"/><stop offset=".71" stop-color="#B5BBE7"/><stop offset=".722" stop-color="#AFB6E5"/><stop offset=".909" stop-color="#AFB6E5"/><stop offset=".951" stop-color="#BAC0EA"/><stop offset="1" stop-color="#CCD1F2"/></linearGradient><linearGradient id="paint23_linear_45_985" x1="74.633" y1="-27.844" x2="258.495" y2="340.659" gradientUnits="userSpaceOnUse"><stop stop-color="#CDD2F3"/><stop offset=".434" stop-color="#E5E9FF"/><stop offset=".483" stop-color="#EFF2FF"/><stop offset=".535" stop-color="#fff"/><stop offset=".591" stop-color="#EBEDF9"/><stop offset=".702" stop-color="#B9BFE8"/><stop offset=".722" stop-color="#AFB6E5"/><stop offset=".909" stop-color="#AFB6E5"/><stop offset=".95" stop-color="#BAC0EA"/><stop offset="1" stop-color="#CDD2F3"/></linearGradient></defs></svg>