<svg width="153" height="246" fill="none" xmlns="http://www.w3.org/2000/svg"><path opacity=".95" d="M140.673 245.631c-1.567 0-3.134-.284-4.701-.854-.427-.142-.57-.57-.427-.997.142-.427.569-.569.997-.427 1.424.427 2.849.712 4.273.712.428 0 .713.427.713.712-.143.57-.428.854-.855.854zm4.416-.712a.782.782 0 01-.712-.427c-.143-.427 0-.854.427-.997 1.282-.569 2.422-1.424 3.276-2.563.285-.285.713-.427 1.14-.142.285.285.427.712.143 1.139-1.14 1.282-2.422 2.278-3.847 2.99-.285-.142-.285 0-.427 0zm-13.106-1.993c-.142 0-.285 0-.427-.143l-3.989-2.278c-.427-.142-.427-.712-.285-.997.143-.427.713-.427.998-.285l3.988 2.279c.428.142.428.712.285.997 0 .284-.285.427-.57.427zm-7.835-4.557c-.142 0-.284 0-.427-.142l-3.989-2.279c-.427-.142-.427-.712-.284-.997.142-.427.712-.427.997-.284l3.988 2.278c.428.142.428.712.285.997 0 .427-.285.427-.57.427zm26.639-.285h-.285c-.427-.142-.57-.569-.427-.997.427-1.281.712-2.705.854-4.272 0-.427.428-.711.855-.711.428 0 .712.427.712.854-.142 1.709-.427 3.275-.854 4.699-.285.285-.57.427-.855.427zm-34.616-4.129c-.142 0-.285 0-.427-.143l-3.989-2.278c-.427-.142-.427-.712-.285-.997.143-.427.712-.427.997-.285l3.989 2.279c.427.142.427.712.285.996 0 .285-.285.428-.57.428zm-7.835-4.557c-.142 0-.285 0-.427-.142l-3.989-2.279c-.427-.142-.427-.712-.285-.997.143-.427.713-.427.998-.284l3.988 2.278c.428.142.428.712.285.997 0 .285-.285.427-.57.427zm-7.835-4.557c-.142 0-.284 0-.427-.142l-3.989-2.279c-.427-.142-.427-.712-.284-.996.142-.428.712-.427.997-.285l3.988 2.278c.428.143.428.712.285.997-.142.285-.427.427-.57.427zm-7.977-4.556c-.142 0-.285 0-.427-.143l-3.989-2.278c-.427-.143-.427-.712-.285-.997.143-.427.712-.427.997-.285l3.989 2.279c.427.142.427.712.285.996 0 .285-.285.428-.57.428zm-7.835-4.557c-.142 0-.285 0-.427-.143l-3.989-2.278c-.427-.142-.427-.712-.285-.997.143-.427.713-.427.998-.285l3.988 2.279c.427.142.427.712.285.997-.142.284-.285.427-.57.427zm-7.977-4.557c-.142 0-.285 0-.428-.142l-3.988-2.279c-.428-.142-.428-.712-.285-.996.142-.428.712-.428.997-.285l3.989 2.278c.427.142.427.712.285.997 0 .285-.285.427-.57.427zm74.93 17.942c-.428 0-.713-.285-.713-.712v-4.557c0-.427.285-.712.713-.712.427 0 .712.285.712.712v4.557c.142.427-.285.712-.712.712zm-82.765-22.499c-.142 0-.285 0-.427-.142l-3.989-2.278c-.427-.143-.427-.712-.285-.997.143-.427.712-.427.997-.285l3.989 2.278c.427.143.427.712.285.997-.143.285-.285.427-.57.427zm-7.977-4.556c-.143 0-.285 0-.428-.143l-3.988-2.278c-.428-.143-.428-.712-.285-.997.142-.427.712-.427.997-.285l3.989 2.279c.427.142.427.712.284.996 0 .285-.284.428-.57.428zM151.642 220c-.428 0-.713-.285-.713-.712v-4.557c0-.427.285-.712.713-.712.427 0 .712.285.712.712v4.557c.142.427-.285.712-.712.712zm-98.577-22.499c-.143 0-.285 0-.427-.143l-3.99-2.278c-.427-.142-.427-.712-.284-.997.142-.427.712-.427.997-.284l3.989 2.278c.427.142.427.712.285.997 0 .285-.285.427-.57.427zm-7.835-4.557c-.142 0-.285 0-.427-.142l-2.564-1.424c-.428-.285-.998-.57-1.425-.855-.285-.284-.427-.712-.285-.996.285-.285.712-.428.997-.285l1.282.854 2.564 1.424c.428.143.428.712.285.997 0 .285-.285.427-.427.427zm106.412 17.942c-.428 0-.713-.285-.713-.712v-4.556c0-.428.285-.712.713-.712.427 0 .712.284.712.712v4.556c.142.427-.285.712-.712.712zM37.68 187.96c-.142 0-.427 0-.57-.142a35.61 35.61 0 01-3.276-3.275c-.285-.285-.285-.855 0-1.139.285-.285.854-.285 1.14 0 .997 1.139 2.136 2.135 3.133 3.132.285.285.285.712 0 1.139 0 .143-.285.285-.427.285zm113.962 13.813c-.428 0-.713-.285-.713-.712v-4.557c0-.427.285-.712.713-.712.427 0 .712.285.712.712v4.557c.142.427-.285.712-.712.712zM31.555 181.125c-.285 0-.428-.142-.57-.285l-2.564-3.844c-.285-.428-.143-.855.285-.997.427-.285.854-.143.997.285a33.164 33.164 0 002.421 3.702c.285.285.143.854-.142.997-.142.142-.285.142-.427.142zm120.087 11.534c-.428 0-.713-.284-.713-.712v-4.556c0-.428.285-.712.713-.712.427 0 .712.284.712.712v4.556c.142.428-.285.712-.712.712zM26.854 173.293a.783.783 0 01-.713-.427 26.713 26.713 0 01-1.709-4.272c-.142-.427 0-.854.427-.997.428-.142.855 0 .997.428.428 1.424.998 2.705 1.71 4.129.142.427 0 .854-.427.997 0 .142-.143.142-.285.142zm124.788 10.395c-.428 0-.713-.284-.713-.712v-4.556c0-.428.285-.712.713-.712.427 0 .712.284.712.712v4.556c.142.285-.285.712-.712.712zm-127.78-18.939c-.285 0-.712-.284-.712-.569-.427-1.567-.57-3.133-.712-4.557 0-.427.285-.854.712-.854s.855.285.855.712c.142 1.424.427 2.848.712 4.414.142.427-.143.854-.57.854h-.285zm127.78 9.826c-.428 0-.713-.285-.713-.712v-4.699c0-.427.285-.712.713-.712.427 0 .712.285.712.712v4.556c.142.428-.285.855-.712.855zm0-9.114c-.428 0-.713-.284-.713-.712v-4.556c0-.427.285-.712.713-.712.427 0 .712.285.712.712v4.556c.142.285-.285.712-.712.712zm0-9.113c-.428 0-.713-.285-.713-.712v-4.557c0-.427.285-.712.713-.712.427 0 .712.285.712.712v4.557c.142.285-.285.712-.712.712zm-128.635-.57c-.427 0-.712-.284-.712-.712v-4.556c0-.428.285-.712.712-.712.428 0 .713.284.713.712v4.556c0 .428-.285.712-.713.712zm128.635-8.543c-.428 0-.713-.285-.713-.712v-4.557c0-.427.285-.712.713-.712.427 0 .712.285.712.712v4.557c.142.284-.285.712-.712.712zm-128.635-.57c-.427 0-.712-.285-.712-.712v-4.557c0-.427.285-.712.712-.712.428 0 .713.285.713.712v4.557c0 .427-.285.712-.713.712zm128.635-8.117c-.428 0-.713-.285-.713-.712v-4.556c0-.428.285-.712.713-.712.427 0 .712.284.712.712v4.556c.142.285-.285.712-.712.712zm-128.635-.569c-.427 0-.712-.285-.712-.712v-4.557c0-.427.285-.712.712-.712.428 0 .713.285.713.712v4.557c0 .427-.285.712-.713.712zm128.635-8.544c-.428 0-.713-.285-.713-.712v-4.557c0-.427.285-.712.713-.712.427 0 .712.285.712.712v4.557c.142.285-.285.712-.712.712zm-128.635-.57c-.427 0-.712-.285-.712-.712v-4.556c0-.428.285-.712.712-.712.428 0 .713.284.713.712v4.556c0 .427-.285.712-.713.712zm128.635-8.686c-.428 0-.713-.285-.713-.712v-4.557c0-.427.285-.712.713-.712.427 0 .712.285.712.712v4.557c.142.285-.285.712-.712.712zm-128.635-.57c-.427 0-.712-.284-.712-.712v-4.556c0-.428.285-.712.712-.712.428 0 .713.284.713.712v4.556c0 .428-.285.712-.713.712zm128.635-9.113c-.428 0-.713-.285-.713-.712v-4.557c0-.427.285-.712.713-.712.427 0 .712.285.712.712v4.557c.142.427-.285.712-.712.712zm-128.635-.427c-.427 0-.712-.285-.712-.712V104.8c0-.427.285-.712.712-.712.428 0 .713.285.713.712v4.557c0 .285-.285.712-.713.712zm128.635-8.687c-.428 0-.713-.284-.713-.712v-4.556c0-.427.285-.712.713-.712.427 0 .712.285.712.712v4.556c.142.428-.285.712-.712.712zm-128.635-.427c-.427 0-.712-.285-.712-.712v-4.556c0-.428.285-.712.712-.712.428 0 .713.284.713.712v4.556c0 .285-.285.712-.713.712zm128.635-8.686c-.428 0-.713-.285-.713-.712v-1.993c0-.855 0-1.71-.142-2.564 0-.427.285-.854.712-.854.428 0 .855.285.855.712.142.854.142 1.709.142 2.706v1.993c0 .427-.427.712-.854.712zm-128.635-.427c-.427 0-.712-.285-.712-.712v-4.557c0-.427.285-.712.712-.712.428 0 .713.285.713.712v4.557c0 .427-.285.712-.713.712zm127.78-8.544c-.285 0-.712-.285-.712-.57a24.42 24.42 0 00-1.282-4.271c-.143-.428 0-.855.427-.997.427-.143.855 0 .997.427.57 1.424.997 2.99 1.282 4.414.143.427-.142.855-.57.855 0 .142 0 .142-.142.142zm-127.78-.57c-.427 0-.712-.284-.712-.712V77.46c0-.427.285-.712.712-.712.428 0 .713.284.713.712v4.556c0 .428-.285.712-.713.712zm124.789-7.974a.785.785 0 01-.713-.427c-.57-1.282-1.282-2.706-2.137-3.987-.284-.427-.142-.855.285-.997.428-.142.855-.142.998.285.854 1.281 1.567 2.705 2.136 4.13.143.427 0 .854-.427.996h-.142zm-124.789-1.14c-.427 0-.712-.284-.712-.711v-4.557c0-.427.285-.712.712-.712.428 0 .713.285.713.712v4.557c0 .427-.285.712-.713.712zm120.23-6.692c-.285 0-.427-.142-.57-.285-.854-1.281-1.852-2.42-2.849-3.417-.285-.285-.285-.855 0-1.14.285-.284.855-.284 1.14 0 .997 1.14 1.994 2.28 2.849 3.56.285.285.142.855-.143.997-.142.143-.284.285-.427.285zm-120.23-2.42c-.427 0-.712-.285-.712-.712v-4.557c0-.427.285-.712.712-.712.428 0 .713.285.713.712v4.556c0 .428-.285.712-.713.712zm114.105-4.415c-.143 0-.428 0-.57-.142-1.14-.997-2.279-1.994-3.562-2.706-.284-.285-.427-.712-.284-.997.285-.284.712-.427.997-.284a32.335 32.335 0 013.704 2.848c.284.284.284.712 0 1.139.142.142-.143.142-.285.142zM23.007 55.388c-.427 0-.712-.285-.712-.712v-4.557c0-.427.285-.712.712-.712.428 0 .713.285.713.712v4.557c0 .427-.285.712-.713.712zm106.555-.285c-.143 0-.285 0-.428-.142l-3.988-2.279c-.428-.142-.428-.712-.285-.996.142-.428.712-.428.997-.285l3.989 2.278c.427.143.427.712.284.997 0 .285-.284.427-.569.427zm-7.835-4.556c-.143 0-.285 0-.428-.143l-3.988-2.278c-.428-.143-.428-.712-.285-.997.142-.427.712-.427.997-.285l3.989 2.279c.427.142.427.712.285.996-.143.285-.428.428-.57.428zm-98.72-4.272c-.427 0-.712-.285-.712-.712v-4.557c0-.427.285-.712.712-.712.428 0 .713.285.713.712v4.557c0 .427-.285.712-.713.712zm90.742-.285c-.142 0-.284 0-.427-.143l-3.989-2.278c-.427-.142-.427-.712-.284-.997.142-.427.712-.427.997-.285l3.988 2.279c.428.142.428.712.285.997 0 .284-.285.427-.57.427zm-7.834-4.557c-.143 0-.285 0-.428-.142l-3.988-2.279c-.428-.142-.428-.712-.285-.996.142-.428.712-.428.997-.285l3.989 2.278c.427.142.427.712.284.997-.142.285-.284.427-.569.427zm-82.908-4.272c-.427 0-.712-.285-.712-.712v-4.557c0-.427.285-.712.712-.712.428 0 .713.285.713.712v4.557c0 .427-.285.712-.713.712zm74.93-.285c-.142 0-.285 0-.427-.142l-3.989-2.278c-.427-.143-.427-.712-.285-.997.143-.427.713-.427.998-.285l3.988 2.278c.428.143.428.712.285.997 0 .285-.285.427-.57.427zm-7.835-4.556c-.142 0-.285 0-.427-.143L85.686 29.9c-.427-.143-.427-.712-.285-.997.143-.427.713-.427.998-.285l3.988 2.279c.428.142.428.712.285.996 0 .285-.285.428-.57.428zm-67.095-4.272c-.427 0-.712-.285-.712-.712v-4.557c0-.427.285-.712.712-.712.428 0 .713.285.713.712v4.557c0 .427-.285.712-.713.712zm59.118-.285c-.142 0-.285 0-.427-.143l-3.989-2.278c-.427-.142-.427-.712-.285-.997.143-.427.712-.427.997-.284l3.989 2.278c.427.142.427.712.285.997 0 .285-.285.427-.57.427zm-7.835-4.557c-.142 0-.285 0-.427-.142l-3.989-2.279c-.427-.142-.427-.712-.285-.996.143-.428.713-.428.998-.285l3.988 2.278c.427.143.427.712.285.997 0 .285-.285.427-.57.427zm-51.283-4.272c-.427 0-.712-.285-.712-.712v-4.556c0-.428.427-.713.855-.713.427 0 .712.428.712.855v4.414c-.142.427-.427.712-.855.712zm43.448-.285c-.142 0-.285 0-.427-.142l-3.989-2.278c-.285-.143-.427-.57-.285-.855.143-.427.713-.427.998-.285l3.988 2.279c.428.142.428.712.285.997-.142.284-.427.284-.57.284zm-7.977-4.414c-.142 0-.285 0-.427-.142l-3.989-2.279c-.427-.142-.427-.712-.285-.996.143-.428.712-.428.997-.285l3.989 2.278c.427.143.427.712.285.997 0 .285-.285.427-.57.427zM23.862 9.963h-.285c-.427-.142-.57-.57-.427-.997.57-1.566 1.282-2.99 2.28-4.272.284-.284.711-.427 1.139-.142.285.285.427.712.142 1.14-.854.996-1.567 2.278-1.994 3.702-.143.427-.427.57-.855.57zm26.781-.285c-.142 0-.285 0-.427-.142l-3.989-2.278c-.427-.143-.427-.712-.285-.997.143-.427.712-.427.997-.285l3.99 2.278c.426.143.426.712.284.997-.142.285-.285.427-.57.427zm-7.977-4.556c-.143 0-.285 0-.285-.143h-.142c-1.283-.712-2.707-1.424-3.99-1.85-.427-.143-.569-.57-.427-.998.143-.427.57-.57.998-.427 1.424.427 2.849 1.14 4.273 1.994.428.142.57.712.285.996a.784.784 0 01-.712.428zM29.56 3.27a.783.783 0 01-.712-.427c-.142-.427 0-.854.427-.996 1.425-.57 2.85-.855 4.559-.855h.285c.427 0 .712.427.712.712 0 .427-.285.712-.712.712h-.143a9.562 9.562 0 00-3.988.854c-.143-.142-.285 0-.428 0z" fill="url(#paint0_linear_137_831)"/><path d="M37.667 113.214c8.218-4.803 8.12-20.254-.218-34.512-8.338-14.257-21.76-21.922-29.979-17.12-8.218 4.803-8.12 20.255.218 34.512 8.338 14.258 21.76 21.923 29.979 17.12z" fill="#fff"/><path d="M32.124 115.48c-3.134 0-6.41-.997-9.971-2.991C10.187 105.654.5 88.851.5 75.181c0-9.54 4.843-15.806 12.536-15.806 3.134 0 6.41.997 9.971 2.99C34.973 69.201 44.66 86.004 44.66 99.674c-.142 9.683-4.986 15.806-12.536 15.806zM13.036 60.941c-6.695 0-10.969 5.412-10.969 14.24 0 13.243 9.402 29.334 20.94 36.027 3.277 1.851 6.268 2.848 9.117 2.848 6.696 0 10.97-5.411 10.97-14.24 0-13.243-9.403-29.334-20.941-36.027-3.277-1.993-6.268-2.848-9.117-2.848z" fill="url(#paint1_linear_137_831)"/><path d="M8.477 83.725l10.257 22.357 19.088-20.078c.713-.713.143-2.421-.854-3.56l-5.84-5.27c-.713-.711-1.568-.711-1.995-.142l-10.4 17.515-4.415-10.822c-.428-.997-1.282-1.851-1.995-1.993l-2.991-.57c-.997-.142-1.424 1.14-.855 2.563z" fill="url(#paint2_linear_137_831)"/><defs><linearGradient id="paint0_linear_137_831" x1="22.295" y1=".992" x2="219.095" y2="113.449" gradientUnits="userSpaceOnUse"><stop stop-color="#C049F4"/><stop offset="1" stop-color="#507BF5"/></linearGradient><linearGradient id="paint1_linear_137_831" x1=".5" y1="59.375" x2="52.154" y2="103.027" gradientUnits="userSpaceOnUse"><stop stop-color="#C049F4"/><stop offset="1" stop-color="#507BF5"/></linearGradient><linearGradient id="paint2_linear_137_831" x1="8.222" y1="76.622" x2="35.627" y2="106.504" gradientUnits="userSpaceOnUse"><stop stop-color="#C049F4"/><stop offset="1" stop-color="#507BF5"/></linearGradient></defs></svg>