<svg width="366" height="475" fill="none" xmlns="http://www.w3.org/2000/svg"><g opacity=".4"><path opacity=".043" d="M286.593 426.054L38.868 286.504c-9.116-5.269-7.977-14.524 2.565-20.648l33.903-19.081c10.542-6.123 26.496-6.693 35.613-1.424l247.725 139.692c9.117 5.269 7.977 14.525-2.565 20.648l-33.903 18.939c-10.542 6.123-26.496 6.835-35.613 1.424z" fill="#A6ADE2"/><path opacity=".086" d="M286.593 425.769L39.438 286.504c-9.117-5.269-7.977-14.382 2.564-20.363l33.192-18.654c10.399-5.981 26.353-6.693 35.328-1.424l247.012 139.265c9.117 5.269 7.977 14.382-2.564 20.363l-33.191 18.654c-10.4 5.981-26.212 6.55-35.186 1.424z" fill="#A2A9DF"/><path opacity=".129" d="M286.593 425.342L40.151 286.504c-8.975-5.126-7.835-14.24 2.564-20.22l32.621-18.37c10.4-5.98 26.069-6.692 35.044-1.424l246.442 138.838c8.974 5.126 7.835 14.24-2.564 20.221l-32.622 18.369c-10.399 5.981-26.069 6.55-35.043 1.424z" fill="#9FA6DC"/><path opacity=".172" d="M286.45 424.915L40.863 286.504c-8.832-5.126-7.835-14.097 2.564-20.078l31.91-17.942c10.256-5.981 25.783-6.55 34.758-1.424l245.73 138.411c8.832 5.126 7.834 14.097-2.565 20.078l-31.909 17.942c-10.399 5.98-25.926 6.55-34.901 1.424z" fill="#9CA2DA"/><path opacity=".215" d="M286.45 424.487L41.433 286.362c-8.832-5.127-7.693-13.955 2.421-19.794l31.34-17.657c10.114-5.838 25.641-6.55 34.473-1.424l245.018 138.126c8.832 5.126 7.692 13.955-2.422 19.793l-31.339 17.657c-10.257 5.981-25.642 6.551-34.474 1.424z" fill="#989ED7"/><path opacity=".259" d="M286.45 424.203L42.145 286.504c-8.69-4.984-7.693-13.813 2.422-19.651l30.77-17.23c10.113-5.838 25.356-6.408 34.045-1.424l244.306 137.699c8.689 4.984 7.692 13.812-2.422 19.651l-30.77 17.23c-9.971 5.838-25.214 6.408-34.046 1.424z" fill="#959AD4"/><path opacity=".302" d="M286.45 423.775L42.857 286.504c-8.69-4.984-7.55-13.67 2.422-19.508l30.057-16.803c9.972-5.839 25.072-6.408 33.761-1.424L352.833 386.04c8.69 4.984 7.55 13.67-2.422 19.509l-30.057 16.802c-10.114 5.696-25.214 6.408-33.904 1.424z" fill="#9296D1"/><path opacity=".345" d="M286.45 423.348L43.427 286.504c-8.547-4.984-7.55-13.528 2.422-19.366l29.487-16.518c9.972-5.696 24.929-6.408 33.477-1.424L351.836 386.04c8.547 4.984 7.55 13.528-2.422 19.366l-29.487 16.518c-9.972 5.696-24.93 6.408-33.477 1.424z" fill="#8E93CE"/><path opacity=".388" d="M286.45 422.921L44.14 286.504c-8.548-4.841-7.408-13.528 2.421-19.081l28.775-16.091c9.83-5.696 24.645-6.266 33.192-1.424l242.311 136.559c8.547 4.842 7.407 13.528-2.422 19.082l-28.775 16.091c-9.829 5.553-24.787 6.265-33.192 1.281z" fill="#8B8FCB"/><path opacity=".431" d="M286.45 422.494L44.71 286.504c-8.406-4.841-7.408-13.385 2.42-18.939l28.206-15.806c9.687-5.553 24.36-6.265 32.907-1.424l241.599 136.132c8.404 4.842 7.407 13.386-2.422 18.939l-28.206 15.806c-9.686 5.554-24.359 6.123-32.764 1.282z" fill="#888BC8"/><path opacity=".474" d="M286.45 422.209L45.421 286.504c-8.404-4.841-7.265-13.243 2.28-18.796l27.493-15.379c9.687-5.554 24.217-6.123 32.479-1.282L348.56 386.752c8.404 4.842 7.265 13.243-2.28 18.797l-27.493 15.378c-9.544 5.412-24.074 5.981-32.337 1.282z" fill="#8487C6"/><path opacity=".517" d="M286.308 421.782L45.991 286.504c-8.262-4.699-7.265-13.1 2.28-18.654l26.923-15.094c9.544-5.554 23.932-6.123 32.194-1.282l240.317 135.278c8.262 4.699 7.265 13.101-2.279 18.654L318.502 420.5c-9.402 5.411-23.932 5.981-32.194 1.282z" fill="#8183C3"/><path opacity=".56" d="M286.308 421.355L46.703 286.504c-8.12-4.699-7.122-12.958 2.28-18.369l26.353-14.667c9.402-5.411 23.647-5.981 31.91-1.282L346.85 387.179c8.12 4.699 7.123 12.958-2.279 18.37l-26.354 14.524c-9.402 5.411-23.647 5.981-31.909 1.282z" fill="#7E7FC0"/><path opacity=".603" d="M286.308 420.927L47.416 286.362c-8.12-4.699-7.123-12.816 2.279-18.227l25.641-14.382c9.402-5.411 23.505-5.981 31.625-1.282l238.892 134.566c8.12 4.699 7.123 12.816-2.279 18.227l-25.642 14.382c-9.402 5.411-23.504 5.981-31.624 1.281z" fill="#7A7CBD"/><path opacity=".646" d="M286.308 420.5L48.128 286.362c-7.977-4.557-6.98-12.674 2.28-18.085l25.07-13.955c9.26-5.411 23.22-5.981 31.198-1.281l238.18 134.281c7.977 4.556 6.98 12.673-2.279 18.084l-25.072 13.955c-9.117 5.269-23.22 5.838-31.197 1.139z" fill="#7778BA"/><path opacity=".689" d="M286.308 420.215L48.698 286.362c-7.978-4.557-6.98-12.531 2.279-17.8l24.36-13.528c9.116-5.269 23.076-5.838 30.911-1.281l237.468 133.711c7.977 4.557 6.98 12.531-2.279 17.8l-24.359 13.527c-8.975 5.412-22.793 5.981-30.77 1.424z" fill="#7474B7"/><path opacity=".732" d="M286.308 419.788L49.41 286.362c-7.835-4.557-6.838-12.389 2.137-17.658l23.79-13.243c9.116-5.268 22.792-5.838 30.626-1.281l236.898 133.284c7.835 4.557 6.838 12.389-2.136 17.657l-23.79 13.243c-9.117 5.411-22.792 5.981-30.627 1.424z" fill="#7070B4"/><path opacity=".775" d="M286.308 419.361L50.122 286.362c-7.835-4.415-6.837-12.389 2.137-17.515l23.077-12.816c8.975-5.126 22.508-5.696 30.343-1.282l236.185 133c7.835 4.414 6.838 12.388-2.137 17.515L316.65 418.08c-8.974 5.268-22.65 5.838-30.342 1.281z" fill="#6D6CB2"/><path opacity=".819" d="M286.308 418.934L50.692 286.362c-7.692-4.415-6.695-12.104 2.28-17.23l22.507-12.531c8.832-5.127 22.365-5.696 30.057-1.282L341.01 387.891c7.692 4.415 6.695 12.246-2.137 17.373l-22.508 12.531c-8.974 5.126-22.365 5.553-30.057 1.139z" fill="#6A69AF"/><path opacity=".862" d="M286.165 418.507L51.405 286.362c-7.55-4.415-6.696-12.104 2.136-17.088L75.48 257.17c8.832-5.126 22.08-5.553 29.63-1.281l234.76 132.145c7.55 4.414 6.695 12.103-2.137 17.087l-21.937 12.104c-8.69 5.126-21.938 5.696-29.631 1.282z" fill="#6665AC"/><path opacity=".905" d="M286.165 418.222L52.117 286.362c-7.55-4.415-6.553-11.962 2.136-16.946l21.226-11.819c8.69-4.984 21.795-5.553 29.345-1.281l234.191 131.718c7.55 4.414 6.553 11.961-2.137 16.945l-21.225 11.819c-8.832 5.126-21.938 5.696-29.488 1.424z" fill="#6361A9"/></g><path d="M272.917 322.104v26.486l26.069-15.237v-26.486l-26.069 15.237z" fill="url(#paint0_linear_137_824)"/><path d="M272.917 322.104v26.486l-26.068-15.095v-26.486l26.068 15.095z" fill="url(#paint1_linear_137_824)"/><path d="M246.849 307.009l26.068 15.095 26.069-15.237-26.069-15.237-26.068 15.379z" fill="#A9B1E5"/><path d="M300.268 338.194v26.486l26.069-15.236v-26.486l-26.069 15.236z" fill="url(#paint2_linear_137_824)"/><path d="M300.411 338.194v26.486l-26.069-15.094V323.1l26.069 15.094z" fill="url(#paint3_linear_137_824)"/><path d="M274.342 323.1l26.069 15.094 25.926-15.236-26.069-15.237-25.926 15.379z" fill="#A9B1E5"/><path d="M327.761 382.338v26.486l26.069-15.237v-26.486l-26.069 15.237z" fill="url(#paint4_linear_137_824)"/><path d="M327.761 382.338v26.486l-26.068-15.094v-26.486l26.068 15.094z" fill="url(#paint5_linear_137_824)"/><path d="M301.693 367.244l26.068 15.094 26.069-15.237-26.069-15.236-26.068 15.379z" fill="#A9B1E5"/><path d="M244.854 366.532v26.486l26.069-15.237v-26.486l-26.069 15.237z" fill="url(#paint6_linear_137_824)"/><path d="M244.854 366.532v26.486l-26.068-15.237v-26.344l26.068 15.095z" fill="url(#paint7_linear_137_824)"/><path d="M218.786 351.437l26.068 15.095 26.069-15.237-26.069-15.237-26.068 15.379z" fill="#A9B1E5"/><path d="M272.205 382.623v26.485l26.069-15.378v-26.486l-26.069 15.379z" fill="url(#paint8_linear_137_824)"/><path d="M272.205 382.623v26.485l-26.069-15.236v-26.486l26.069 15.237z" fill="url(#paint9_linear_137_824)"/><path d="M246.136 367.386l26.069 15.237 26.069-15.379-26.069-15.095-26.069 15.237z" fill="#A9B1E5"/><path d="M299.698 398.713v26.486l26.069-15.379v-26.485l-26.069 15.378z" fill="url(#paint10_linear_137_824)"/><path d="M299.698 398.713v26.486l-26.068-15.236v-26.486l26.068 15.236z" fill="url(#paint11_linear_137_824)"/><path d="M273.63 383.477l26.068 15.236 26.069-15.378-26.211-15.095-25.926 15.237z" fill="#A9B1E5"/><path d="M327.761 354.285v26.486l26.069-15.236v-26.486l-26.069 15.236z" fill="url(#paint12_linear_137_824)"/><path d="M327.761 354.285v26.486l-26.068-15.236v-26.486l26.068 15.236z" fill="url(#paint13_linear_137_824)"/><path d="M301.693 339.049l26.068 15.236 26.069-15.236-26.069-15.237-26.068 15.237z" fill="#A9B1E5"/><path d="M244.854 338.479v26.486l26.069-15.236v-26.486l-26.069 15.236z" fill="url(#paint14_linear_137_824)"/><path d="M244.854 338.479v26.486l-26.068-15.236v-26.486l26.068 15.236z" fill="url(#paint15_linear_137_824)"/><path d="M218.786 323.243l26.068 15.236 26.069-15.236-26.069-15.237-26.068 15.237z" fill="#A9B1E5"/><path d="M272.205 354.57v26.486l26.069-15.379v-26.486l-26.069 15.379z" fill="url(#paint16_linear_137_824)"/><path d="M272.205 354.57v26.486l-26.069-15.236v-26.486l26.069 15.236z" fill="url(#paint17_linear_137_824)"/><path d="M246.136 339.334l26.069 15.236 26.069-15.379-26.069-15.094-26.069 15.237z" fill="#A9B1E5"/><path d="M299.698 370.661v26.486l26.069-15.379v-26.486l-26.069 15.379z" fill="url(#paint18_linear_137_824)"/><path d="M299.698 370.661v26.486l-26.068-15.236v-26.486l26.068 15.236z" fill="url(#paint19_linear_137_824)"/><path d="M273.63 355.425l26.068 15.236 26.069-15.379-26.211-15.094-25.926 15.237z" fill="#A9B1E5"/><g opacity=".2"><path opacity=".048" d="M83.741 199.926c3.134-1.851 7.407-2.99 11.539-3.132 3.56-.143 6.98.712 9.544 2.136.142 0 6.41 3.559 6.41 3.559l103.705 59.238 7.835 4.557 102.138 58.383c3.277 1.993 5.556 5.268 5.699 8.544.142 3.844-2.137 7.547-6.411 9.967l-9.259 4.842c-.143 0-7.835 3.987-7.977 3.987-3.277 1.851-7.408 2.848-11.539 2.706-3.561 0-6.98-.997-9.544-2.421l-102.139-59.38-6.695-3.987-95.443-55.393c-3.276-1.993-5.698-5.269-5.698-8.544 0-3.702 1.852-7.404 5.84-9.825l.143-2.279s1.567-12.815 1.852-12.958z" fill="#ABB2E2"/><path opacity=".095" d="M83.741 200.923c2.992-1.709 7.407-2.99 11.254-3.133 3.561-.142 6.837.57 9.544 1.852.285 0 6.268 3.417 6.41 3.417l103.136 58.953 7.835 4.556 101.71 58.241c3.134 1.851 5.698 5.269 5.841 8.402.142 3.702-1.852 7.404-6.126 9.825l-9.116 4.842c-.143.142-7.693 3.844-7.835 3.844-3.277 1.709-7.265 2.706-11.397 2.563-3.276 0-6.98-1.139-9.401-2.563L184.17 292.77l-6.696-3.845-94.73-55.108c-3.134-1.851-5.84-5.126-5.84-8.401 0-3.56 1.281-7.405 5.127-9.541l.143-2.278c-.285 0 1.14-12.389 1.567-12.674z" fill="#A7ADDF"/><path opacity=".143" d="M83.883 202.062c2.85-1.708 7.408-2.99 11.112-3.275 3.561-.285 6.837.427 9.544 1.709.285 0 6.268 3.275 6.41 3.417l102.708 58.811 7.835 4.414 101.284 57.956c2.991 1.709 5.698 5.126 5.983 8.259.285 3.702-1.567 7.405-5.841 9.825l-9.117 4.842c-.285.142-7.55 3.702-7.835 3.845-3.276 1.708-7.265 2.563-11.111 2.278-3.134 0-7.123-1.282-9.259-2.563l-100.714-58.526-6.695-3.844-94.161-54.681c-2.992-1.709-5.84-5.126-5.84-8.259 0-3.418.712-7.262 4.415-9.256v-2.136c-.854-.569.57-12.531 1.282-12.816z" fill="#A3A9DC"/><path opacity=".191" d="M83.883 203.059c2.707-1.566 7.408-2.99 10.827-3.417 3.419-.428 6.695.284 9.402 1.424.427 0 6.125 3.132 6.41 3.275l102.281 58.525 7.834 4.414 100.857 57.671c2.849 1.709 5.84 5.127 6.125 8.117.427 3.702-1.282 7.262-5.556 9.826l-8.974 4.841c-.427.285-7.265 3.702-7.835 3.702-3.276 1.567-7.123 2.421-10.969 2.136-2.991 0-7.122-1.424-9.259-2.705L184.882 292.77l-6.553-3.845-93.448-54.254c-2.85-1.708-5.983-5.126-5.983-7.974 0-3.133.142-7.12 3.56-9.113l-.142-2.136c-.712-.427.713-11.962 1.567-12.389z" fill="#9FA4D8"/><path opacity=".238" d="M84.026 204.056c2.564-1.424 7.55-2.99 10.684-3.418 3.419-.569 6.695.143 9.402 1.282.569 0 5.983 2.99 6.41 3.133l101.853 58.24 7.693 4.415 100.428 57.528c2.707 1.567 5.841 5.127 6.268 7.832.428 3.56-.997 7.262-5.27 9.683l-8.832 4.842c-.428.285-7.123 3.56-7.835 3.56-3.277 1.566-7.123 2.136-10.827 1.851-2.849 0-7.122-1.567-9.117-2.848l-99.431-57.529-6.553-3.845-92.879-53.826c-2.706-1.566-6.125-5.126-6.125-7.832 0-2.99-.428-6.977 2.849-8.828l-.143-1.994c-.997-.57.285-11.534 1.425-12.246z" fill="#9BA0D5"/><path opacity=".286" d="M84.026 205.195c2.422-1.424 7.55-2.99 10.399-3.56 3.276-.57 6.695 0 9.402.997.712 0 5.983 2.705 6.41 3.133l101.426 58.098 7.692 4.414 100.002 57.244c2.564 1.424 5.983 5.126 6.41 7.69.57 3.559-.712 7.119-5.128 9.683l-8.832 4.841c-.57.285-6.98 3.418-7.693 3.56-3.276 1.424-6.98 1.994-10.683 1.709-2.565 0-7.123-1.851-8.975-2.848l-98.719-57.244-6.553-3.845-92.024-53.684c-2.564-1.424-6.268-5.126-6.268-7.689 0-2.848-.997-6.978 2.137-8.686l-.285-1.994c-1.282-.57 0-11.107 1.282-11.819z" fill="#979BD2"/><path opacity=".333" d="M84.168 206.192c2.28-1.282 7.55-3.133 10.257-3.702 3.276-.712 6.553-.143 9.402.854.854 0 5.84 2.563 6.41 2.99l100.856 57.814 7.693 4.414 99.431 56.959c2.279 1.282 6.553 5.126 6.553 7.547 1.282 3.418-.427 7.12-4.843 9.541l-8.69 4.841c-.712.428-6.838 3.275-7.692 3.418-3.277 1.281-6.981 1.851-10.542 1.424-2.422 0-7.122-1.994-8.832-2.99l-98.007-56.817-6.553-3.702-91.596-53.115c-2.28-1.281-6.41-4.984-6.41-7.405 0-2.563-1.568-6.835 1.281-8.401l-.427-1.851c-.997-.855.142-10.965 1.71-11.819z" fill="#9397CF"/><path opacity=".381" d="M84.31 207.189c1.995-1.14 7.55-3.133 10.115-3.845 3.134-.854 6.553-.285 9.259.569.997 0 5.841 2.421 6.411 2.848l100.428 57.529 7.693 4.414 99.004 56.675c2.137 1.281 6.695 5.126 6.695 7.262 1.425 3.275-.142 6.977-4.558 9.541l-8.547 4.841c-.855.427-6.696 3.275-7.693 3.275-3.134 1.282-6.837 1.709-10.256 1.282-2.28 0-7.123-2.136-8.832-3.133l-97.295-56.389-6.41-3.703-90.885-52.687c-2.137-1.281-6.553-4.984-6.553-7.262 0-2.421-1.994-6.693.57-8.259l-.427-1.851c-1.71-.428-.57-10.111 1.282-11.107z" fill="#8F92CC"/><path opacity=".429" d="M84.31 208.185c1.853-1.139 7.55-3.132 9.83-3.844 3.134-.855 6.41-.428 9.259.427.998 0 5.698 2.278 6.553 2.705l100.002 57.387 7.55 4.414 98.576 56.532c1.995 1.139 6.838 5.126 6.838 7.12 1.71 3.133.143 6.977-4.273 9.54l-8.548 4.984c-.854.57-6.552 3.133-7.692 3.275-3.134 1.14-6.838 1.567-10.114.997-2.137 0-7.123-2.278-8.69-3.133l-96.725-55.962-6.41-3.702-90.03-52.545c-1.994-1.139-6.695-4.984-6.695-6.977 0-2.279-2.564-6.551-.142-7.975l-.57-1.708c-1.71-1.14-.57-10.395 1.282-11.535z" fill="#8B8EC9"/><path opacity=".476" d="M84.453 209.325c1.71-.997 7.55-3.276 9.687-3.988 2.992-.996 6.41-.569 9.259.143 1.14 0 5.698 2.136 6.553 2.705l99.574 57.102 7.55 4.414 98.15 56.247c1.852.997 6.98 5.127 6.98 6.978 1.852 3.133.427 6.977-3.989 9.398l-8.404 4.984c-.998.57-6.411 2.99-7.55 3.133-3.134 1.139-6.696 1.424-9.972.854-1.852 0-7.265-2.421-8.547-3.275l-96.013-55.535-6.41-3.703-89.888-51.975c-1.852-.996-6.695-4.984-6.695-6.835 0-1.993-3.134-6.55-.997-7.832l-.712-1.708c-1.852-1.14-.713-9.968 1.424-11.107z" fill="#8789C6"/><path opacity=".524" d="M84.453 210.321c1.567-.854 7.55-3.417 9.402-4.129 2.992-1.139 6.268-.712 9.117 0 1.282 0 5.556 1.993 6.553 2.563l99.146 56.817 7.55 4.272 97.723 55.962c1.709.997 7.122 5.126 7.122 6.835 1.995 2.99.713 6.835-3.704 9.398l-8.262 4.984c-1.139.57-6.268 2.99-7.55 2.99-3.134.997-6.695 1.282-9.829.712-1.709 0-7.265-2.563-8.405-3.275l-95.3-55.108-6.268-3.702-88.89-51.548c-1.71-.997-6.838-4.984-6.838-6.693 0-1.851-3.704-6.407-1.71-7.547l-.854-1.708c-2.422-1.14-1.282-9.399.997-10.823z" fill="#8385C2"/><path opacity=".571" d="M84.596 211.318c1.424-.854 7.55-3.417 9.259-4.129 2.85-1.282 6.268-.855 9.117-.285 1.425 0 5.556 1.851 6.553 2.421l98.577 56.531 7.55 4.272 97.294 55.82c1.567.855 7.266 5.127 7.266 6.551 2.279 2.99.854 6.835-3.419 9.255l-8.263 4.984c-1.139.712-6.125 2.848-7.55 2.991-3.133.996-6.552 1.139-9.686.427-1.567 0-7.265-2.848-8.405-3.418l-94.588-54.68-6.268-3.56-88.32-51.121c-1.567-.854-6.98-4.984-6.98-6.408 0-1.709-4.274-6.265-2.422-7.405l-.855-1.566c-2.422-1.282-1.425-9.113 1.14-10.68z" fill="#7F80BF"/><path opacity=".619" d="M84.596 212.315c1.282-.712 7.55-3.56 8.974-4.272 2.85-1.282 6.268-.997 9.117-.427 1.567 0 5.413 1.709 6.553 2.278l98.149 56.39 7.408 4.272 96.725 55.535c1.282.712 7.407 4.984 7.407 6.408 2.422 2.848 1.14 6.692-3.276 9.255l-8.12 4.984c-1.282.712-5.983 2.706-7.55 2.848-3.134.855-6.552.997-9.402.285-1.424 0-7.265-2.99-8.262-3.56l-93.876-54.253-6.268-3.56-87.465-50.694c-1.282-.712-7.123-4.841-7.123-6.265 0-1.424-4.843-6.266-3.276-7.12l-.997-1.567c-2.422-1.424-1.425-8.828 1.282-10.537z" fill="#7B7CBC"/><path opacity=".667" d="M84.738 213.454c1.14-.569 7.55-3.702 8.832-4.414 2.707-1.424 6.126-1.139 8.975-.712 1.567 0 5.27 1.566 6.552 2.278l97.723 56.105 7.407 4.272 96.298 55.25c1.139.712 7.55 4.984 7.55 6.266 2.564 2.848 1.424 6.692-2.992 9.255l-7.977 4.984c-1.425.855-5.698 2.563-7.408 2.706-3.134.854-6.41.854-9.259 0-1.282 0-7.265-3.133-8.12-3.56l-93.306-53.969-6.125-3.56-87.039-50.266c-1.14-.712-7.265-4.842-7.265-5.981 0-1.281-5.413-6.123-3.988-6.977l-1.14-1.424c-2.564-1.567-1.71-8.544 1.282-10.253z" fill="#7777B9"/><path opacity=".714" d="M84.738 214.451c.997-.57 7.55-3.845 8.547-4.557 2.564-1.566 6.126-1.281 8.975-.854 1.709 0 5.27 1.424 6.553 2.136l97.294 55.82 7.408 4.272 95.87 55.107c.997.57 7.693 4.984 7.693 5.981 2.849 2.706 1.709 6.55-2.707 9.114l-7.977 4.984c-1.425.854-5.556 2.563-7.408 2.705-3.134.712-6.41.712-9.117-.142-.997 0-7.265-3.275-8.12-3.703l-92.593-53.399-6.126-3.56-86.326-49.839c-.997-.57-7.407-4.841-7.407-5.838 0-1.139-5.983-5.981-4.701-6.693l-1.14-1.424c-2.707-1.709-1.852-8.259 1.282-10.11z" fill="#7373B6"/><path opacity=".762" d="M84.88 215.448c.855-.428 7.408-4.557 8.405-4.557 2.85-1.139 5.983-1.424 8.975-1.139 1.852 0 5.128 1.281 6.553 1.993l96.867 55.678 7.407 4.272 95.443 54.823c.855.427 7.835 4.984 7.835 5.838 2.992 2.706 1.995 6.55-2.421 9.114l-7.835 4.984c-1.567.854-5.413 2.42-7.408 2.563-3.134.569-6.268.569-8.974-.428-.855 0-7.265-3.417-7.978-3.844l-92.024-52.972-6.125-3.56-85.756-49.555c-.855-.427-7.55-4.841-7.55-5.695 0-.997-6.553-5.839-5.556-6.408l-1.282-1.282c-2.849-1.709-1.994-7.832 1.425-9.825z" fill="#6F6EB3"/><path opacity=".809" d="M85.023 216.587c.57-.427 7.407-4.699 8.262-4.699 2.707-1.139 5.983-1.567 8.975-1.282 1.994 0 5.128 1.139 6.553 1.994l96.297 55.392 7.408 4.272 95.015 54.539c.713.427 7.978 4.984 7.978 5.696 3.134 2.563 2.279 6.407-2.137 9.113l-7.693 4.984c-1.709.997-5.27 2.278-7.407 2.421-2.992.569-6.268.427-8.69-.57-.712 0-7.407-3.56-7.835-3.845l-91.169-52.544-5.983-3.418-85.471-49.412c-.713-.427-7.693-4.841-7.693-5.411 0-.712-7.122-5.838-6.268-6.266l-1.424-1.281c-3.134-1.851-2.422-7.69 1.282-9.683z" fill="#6B6AB0"/><path opacity=".857" d="M85.023 217.584c.427-.285 7.407-4.842 7.977-4.842 2.707-1.281 5.84-1.709 8.832-1.566 2.137 0 4.986.997 6.553 1.851l95.87 55.108 7.266 4.129 94.588 54.396c.57.285 8.12 4.984 8.12 5.411 3.418 2.564 2.564 6.408-1.852 8.971l-7.693 5.127c-1.852.997-5.128 2.278-7.265 2.421-2.991.427-6.125.142-8.547-.855-.57 0-7.407-3.845-7.692-3.987l-90.457-52.118-5.983-3.417-84.475-48.7c-.57-.285-7.692-4.699-7.692-5.269 0-.569-7.692-5.696-7.123-5.981l-1.424-1.139c-3.561-1.993-2.85-7.262.997-9.54z" fill="#6765AC"/><path opacity=".905" d="M85.165 218.58c.285-.142 7.408-4.841 7.835-4.841 2.564-1.282 5.84-1.851 8.832-1.709 2.28 0 4.986.855 6.553 1.709l95.443 54.965 7.265 4.13 94.019 54.111c.285.142 8.262 4.984 8.262 5.269 3.561 2.421 2.849 6.408-1.567 8.971l-7.55 5.126c-1.852 1.139-4.986 2.136-7.265 2.279-2.992.427-6.126 0-8.405-.997-.285 0-7.407-3.987-7.692-4.13L191.15 291.63l-5.983-3.417-83.762-48.273c-.285-.142-7.835-4.699-7.835-5.126 0-.427-8.262-5.554-7.835-5.839l-1.567-1.139c-3.703-1.993-3.134-6.835.997-9.256z" fill="#6361A9"/><path opacity=".952" d="M85.165 219.577c.143-.142 7.408-4.984 7.55-4.984 2.565-1.424 5.841-1.993 8.832-1.993 2.28 0 4.844.712 6.553 1.566l95.016 54.681 7.265 4.129 93.591 53.827c.142.142 8.405 4.984 8.405 5.126 3.703 2.278 3.134 6.265-1.425 8.829l-7.407 5.126c-1.995 1.139-4.844 1.994-7.265 2.136-2.992.285-5.983-.142-8.263-1.282-.142 0-7.407-4.129-7.55-4.129l-89.175-51.406-5.84-3.417-83.192-47.846c-.143-.142-7.978-4.699-7.978-4.841 0-.143-8.832-5.412-8.547-5.554l-1.71-1.139c-3.703-1.851-3.133-6.266 1.14-8.829z" fill="#5F5CA6"/><path d="M287.59 346.596L185.879 288.07l-101.71-58.525c-3.99-2.278-3.42-6.265 1.139-8.829l7.407-5.126c4.559-2.563 11.397-2.848 15.243-.57l101.711 58.526 101.711 58.525c3.988 2.279 3.418 6.266-1.14 8.829l-7.408 5.126c-4.416 2.563-11.253 2.848-15.242.57z" fill="#5B58A3"/></g><path d="M288.302 345.172L90.009 231.111c-11.254-6.55-20.37-23.922-20.37-39.017V23.354c0-15.095 9.116-21.93 20.37-15.38l198.293 114.061c11.254 6.55 20.371 23.923 20.371 39.017v168.741c0 14.952-9.117 21.787-20.371 15.379z" fill="url(#paint20_linear_137_824)"/><path d="M294.285 338.479L92.43 222.425c-9.401-5.981-15.1-17.8-15.1-30.046V17.373c0-2.848 3.135-4.7 5.556-3.276.285.143.57.285.713.428L285.596 130.72c11.111 6.408 15.1 17.8 15.1 30.046v174.437c0 3.133-3.277 4.984-5.983 3.56-.143-.142-.428-.285-.428-.285z" fill="url(#paint21_linear_137_824)"/><path d="M285.596 130.721L83.598 14.525c-.142-.143-.427-.285-.712-.428-2.421-1.424-5.555.285-5.555 3.275V192.38c0 12.104 5.84 24.065 15.1 30.046L294.285 338.48c.143 0 .285.143.428.285 2.706 1.566 5.983-.427 5.983-3.56V160.767c0-12.104-3.989-23.496-15.1-30.046zm12.82 204.483c0 .997-.854 1.709-1.709 1.709-.285 0-.57-.143-.855-.285L93.57 220.289c-8.404-5.411-13.96-16.376-13.96-27.91V17.373c0-.855.712-1.425 1.424-1.425.285 0 .428 0 .713.143l202.709 116.624c11.539 6.692 13.96 18.796 13.96 27.91v174.579z" fill="#AFB6E5"/><path d="M297.704 116.481L99.411 2.421C94.995-.142 90.864-.57 87.445.712c-.428.142-9.687 5.554-10.114 5.838 3.56-1.708 7.977-1.424 12.678 1.424l198.293 114.061c11.254 6.55 20.371 23.923 20.371 39.017v168.741c0 9.398-3.561 15.664-8.975 17.372.428 0 .998-.142 1.852-.569.285-.143 10.114-5.981 10.257-6.123 3.846-2.706 6.268-8.259 6.268-16.091V155.498c0-15.094-9.117-32.466-20.371-39.017z" fill="url(#paint22_linear_137_824)"/><path d="M297.562 116.624L99.268 2.564C94.852 0 90.721-.428 87.302.853c-.427.143-9.544 5.411-9.971 5.696 3.56-1.708 7.977-1.424 12.678 1.424l198.293 114.061c11.254 6.55 20.371 23.923 20.371 39.017v168.741c0 9.398-3.561 15.664-8.975 17.372.428 0 .998-.142 1.852-.569.285-.143 9.83-5.838 10.114-6.123 3.847-2.706 6.268-8.259 6.268-16.091v-168.74c0-15.095-9.117-32.467-20.37-39.017z" fill="url(#paint23_linear_137_824)"/><path d="M297.277 116.766L99.126 2.706C94.71.142 90.579-.284 87.16.996c-.427.143-9.402 5.412-9.83 5.554 3.562-1.708 7.978-1.424 12.679 1.424l198.293 114.061c11.254 6.55 20.371 23.923 20.371 39.017v168.741c0 9.398-3.561 15.664-8.975 17.372.428 0 .998-.142 1.852-.569.285-.143 9.687-5.838 9.972-5.981 3.846-2.705 6.268-8.259 6.268-16.091V155.783c0-15.094-9.117-32.609-20.513-39.017z" fill="url(#paint24_linear_137_824)"/><path d="M297.134 116.766L98.841 2.848C94.425.285 90.294-.142 86.875 1.139c-.427.143-9.26 5.269-9.687 5.411 3.561-1.708 7.977-1.424 12.678 1.424L288.16 122.035c11.254 6.55 20.37 23.923 20.37 39.017v168.741c0 9.398-3.561 15.664-8.974 17.372.427 0 .997-.142 1.852-.569.285-.142 9.544-5.696 9.829-5.838 3.846-2.706 6.268-8.259 6.268-16.091V155.783c.142-14.952-9.117-32.467-20.371-39.017z" fill="url(#paint25_linear_137_824)"/><path d="M296.992 116.908L98.698 2.848C94.282.285 90.151-.142 86.733 1.139c-.428.143-9.118 5.126-9.402 5.411 3.56-1.708 7.977-1.424 12.678 1.424l198.293 114.061c11.254 6.55 20.371 23.923 20.371 39.017v168.741c0 9.398-3.561 15.664-8.975 17.372.428 0 .998-.142 1.852-.569.285-.142 9.402-5.554 9.545-5.696 3.846-2.706 6.268-8.259 6.268-16.091V155.925c0-14.951-9.117-32.466-20.371-39.017z" fill="url(#paint26_linear_137_824)"/><path d="M296.849 117.051L98.556 2.991C94.14.426 90.009 0 86.59 1.28c-.427.143-8.832 4.984-9.26 5.27 3.562-1.71 7.978-1.425 12.679 1.423l198.293 114.061c11.254 6.55 20.371 23.923 20.371 39.017v168.741c0 9.398-3.561 15.664-8.975 17.372.428 0 .998-.142 1.852-.569.285-.143 9.26-5.411 9.402-5.554 3.846-2.705 6.268-8.259 6.268-16.091V156.068c0-15.094-9.117-32.467-20.371-39.017z" fill="url(#paint27_linear_137_824)"/><path d="M296.707 117.193L98.414 3.133C93.998.57 89.865.143 86.448 1.424c-.428.142-8.69 4.841-9.117 5.126 3.56-1.708 7.977-1.424 12.678 1.424l198.293 114.061c11.254 6.55 20.371 23.923 20.371 39.017v168.741c0 9.398-3.561 15.664-8.975 17.372.428 0 .998-.142 1.852-.569.285-.142 8.975-5.269 9.26-5.554 3.846-2.705 6.268-8.259 6.268-16.091V156.21c0-15.094-9.117-32.466-20.371-39.017z" fill="url(#paint28_linear_137_824)"/><path d="M296.422 117.336L98.272 3.276C93.854.711 89.723.284 86.304 1.565c-.427.143-8.547 4.842-8.974 4.984 3.56-1.708 7.977-1.424 12.678 1.424l198.293 114.061c11.254 6.55 20.371 23.923 20.371 39.017v168.741c0 9.398-3.561 15.664-8.975 17.373.428 0 .998-.143 1.852-.57.285-.142 8.832-5.269 9.117-5.411 3.846-2.706 6.268-8.259 6.268-16.091v-168.74c0-15.095-9.117-32.609-20.513-39.017z" fill="url(#paint29_linear_137_824)"/><path d="M296.28 117.336L97.986 3.418C93.57.854 89.44.428 86.02 1.708c-.427.143-8.404 4.7-8.832 4.842 3.561-1.708 7.977-1.424 12.678 1.424L288.16 122.035c11.254 6.55 20.37 23.923 20.37 39.017v168.741c0 9.398-3.561 15.664-8.974 17.372.427 0 .997-.142 1.852-.569.285-.143 8.689-5.126 8.974-5.269 3.847-2.705 6.268-8.259 6.268-16.091V156.353c.143-14.952-9.117-32.467-20.37-39.017z" fill="url(#paint30_linear_137_824)"/><path d="M296.137 117.478L97.844 3.418C93.428.854 89.297.428 85.878 1.708c-.428.143-8.12 4.558-8.547 4.842 3.56-1.708 7.977-1.424 12.678 1.424l198.293 114.061c11.254 6.55 20.371 23.923 20.371 39.017v168.741c0 9.398-3.561 15.664-8.975 17.372.428 0 .998-.142 1.852-.569.285-.143 8.547-4.984 8.69-5.126 3.846-2.706 6.268-8.259 6.268-16.091V156.495c0-14.952-9.117-32.467-20.371-39.017z" fill="url(#paint31_linear_137_824)"/><path d="M295.995 117.62L97.701 3.56C93.285.997 89.154.57 85.735 1.851c-.427.143-7.977 4.415-8.404 4.7 3.56-1.71 7.977-1.425 12.678 1.423l198.293 114.061c11.254 6.55 20.371 23.923 20.371 39.017v168.741c0 9.398-3.561 15.664-8.975 17.373.428 0 .998-.143 1.852-.57.285-.142 8.263-4.842 8.547-5.126 3.847-2.706 6.268-8.259 6.268-16.091V156.637c0-15.094-9.117-32.466-20.37-39.017z" fill="url(#paint32_linear_137_824)"/><path d="M295.71 117.763L97.559 3.703c-4.416-2.564-8.547-2.991-11.966-1.71-.428.143-7.835 4.272-8.262 4.557 3.56-1.708 7.977-1.424 12.678 1.424l198.293 114.061c11.254 6.55 20.371 23.923 20.371 39.017v168.741c0 9.398-3.561 15.664-8.975 17.372.428 0 .998-.142 1.852-.569.285-.143 8.12-4.699 8.405-4.984 3.846-2.706 6.268-8.259 6.268-16.091V156.78c0-15.094-9.117-32.467-20.513-39.017z" fill="url(#paint33_linear_137_824)"/><path d="M295.567 117.905L97.417 3.845C93 1.282 88.868.855 85.45 2.136c-.427.142-7.692 4.272-8.12 4.414 3.562-1.708 7.978-1.424 12.679 1.424l198.293 114.061c11.254 6.55 20.371 23.923 20.371 39.017v168.741c0 9.398-3.561 15.664-8.975 17.373.428 0 .998-.143 1.852-.57.285-.142 7.978-4.699 8.263-4.842 3.846-2.705 6.267-8.259 6.267-16.091V156.922c0-15.094-9.259-32.609-20.513-39.017z" fill="url(#paint34_linear_137_824)"/><path d="M295.425 117.905L97.132 3.987c-4.417-2.563-8.548-2.99-11.967-1.709-.427.143-7.55 4.13-7.834 4.272 3.56-1.708 7.977-1.424 12.678 1.424l198.293 114.061c11.254 6.55 20.371 23.923 20.371 39.017v168.741c0 9.398-3.561 15.664-8.975 17.372.428 0 .998-.142 1.852-.569.285-.143 7.835-4.557 8.12-4.699 3.846-2.706 6.268-8.259 6.268-16.091V156.922c-.142-14.952-9.259-32.466-20.513-39.017z" fill="url(#paint35_linear_137_824)"/><path d="M295.282 118.048L96.989 3.988c-4.416-2.564-8.547-2.991-11.966-1.71-.427.143-7.265 3.988-7.692 4.272 3.56-1.708 7.977-1.424 12.678 1.424l198.293 114.061c11.254 6.55 20.371 23.923 20.371 39.017v168.741c0 9.398-3.561 15.664-8.975 17.372.428 0 .998-.142 1.852-.569.285-.143 7.693-4.414 7.835-4.557 3.846-2.705 6.268-8.259 6.268-16.091V157.065c0-14.952-9.117-32.467-20.371-39.017z" fill="url(#paint36_linear_137_824)"/><path d="M295.14 118.19L96.847 4.13C92.43 1.566 88.299 1.14 84.88 2.42c-.428.143-7.123 3.845-7.55 4.13 3.56-1.708 7.977-1.424 12.678 1.424l198.293 114.061c11.254 6.55 20.371 23.923 20.371 39.017v168.741c0 9.398-3.561 15.664-8.975 17.372.428 0 .998-.142 1.852-.569.285-.143 7.408-4.272 7.693-4.557 3.846-2.705 6.268-8.259 6.268-16.091V157.207c0-15.094-9.117-32.467-20.371-39.017z" fill="url(#paint37_linear_137_824)"/><path d="M294.855 118.332L96.705 4.272c-4.417-2.563-8.548-2.99-11.967-1.709-.427.143-6.98 3.702-7.407 3.987 3.56-1.708 7.977-1.424 12.678 1.424l198.293 114.061c11.254 6.55 20.371 23.923 20.371 39.017v168.741c0 9.398-3.561 15.664-8.975 17.372.428 0 .998-.142 1.852-.569.285-.143 7.265-4.272 7.55-4.414 3.847-2.706 6.268-8.26 6.268-16.091V157.349c0-15.094-9.117-32.466-20.513-39.017z" fill="url(#paint38_linear_137_824)"/><path d="M294.713 118.475L96.562 4.415c-4.416-2.564-8.547-2.991-11.966-1.71-.428.143-6.838 3.703-7.265 3.845 3.56-1.708 7.977-1.424 12.678 1.424l198.293 114.061c11.254 6.55 20.371 23.923 20.371 39.017v168.741c0 9.398-3.561 15.664-8.975 17.372.428 0 .998-.142 1.852-.569.285-.143 7.123-4.13 7.408-4.272 3.846-2.706 6.268-8.259 6.268-16.091V157.492c0-15.094-9.26-32.609-20.513-39.017z" fill="url(#paint39_linear_137_824)"/><path d="M294.57 118.475L96.277 4.557c-4.416-2.563-8.547-2.99-11.966-1.71-.428.143-6.696 3.56-6.98 3.703 3.56-1.708 7.977-1.424 12.678 1.424l198.293 114.061c11.254 6.55 20.371 23.923 20.371 39.017v168.741c0 9.398-3.561 15.664-8.975 17.372.428 0 .998-.142 1.852-.569.285-.143 6.98-3.987 7.265-4.13 3.847-2.705 6.268-8.259 6.268-16.091V157.492c-.142-14.952-9.259-32.467-20.513-39.017z" fill="url(#paint40_linear_137_824)"/><path d="M294.428 118.617L96.134 4.557c-4.416-2.563-8.547-2.99-11.966-1.71-.427.143-6.41 3.418-6.837 3.703 3.56-1.708 7.977-1.424 12.678 1.424l198.293 114.061c11.254 6.55 20.371 23.923 20.371 39.017v168.741c0 9.398-3.561 15.664-8.975 17.372.428 0 .998-.142 1.852-.569.285-.143 6.838-3.845 6.98-3.987 3.847-2.706 6.268-8.259 6.268-16.091V157.634c0-14.952-9.117-32.466-20.37-39.017z" fill="url(#paint41_linear_137_824)"/><path d="M294.285 118.76L95.992 4.7c-4.416-2.564-8.547-2.991-11.966-1.71-.427.143-6.268 3.275-6.695 3.56 3.56-1.708 7.977-1.424 12.678 1.424l198.293 114.061c11.254 6.55 20.371 23.923 20.371 39.017v168.741c0 9.398-3.561 15.664-8.975 17.372.428 0 .998-.142 1.852-.569.285-.143 6.553-3.702 6.838-3.987 3.846-2.706 6.268-8.259 6.268-16.091V157.777c0-15.095-9.117-32.467-20.371-39.017z" fill="url(#paint42_linear_137_824)"/><path d="M294 118.902L95.85 4.842c-4.417-2.564-8.548-2.99-11.967-1.71-.427.143-6.125 3.133-6.552 3.418 3.56-1.708 7.977-1.424 12.678 1.424l198.293 114.061c11.254 6.55 20.371 23.923 20.371 39.017v168.741c0 9.398-3.561 15.664-8.975 17.372.428 0 .998-.142 1.852-.569.285-.143 6.411-3.702 6.696-3.845 3.846-2.705 6.267-8.259 6.267-16.091V157.919c0-15.094-9.116-32.609-20.513-39.017z" fill="url(#paint43_linear_137_824)"/><path d="M289.299 121.465L91.006 7.405c-4.558-2.706-8.832-2.99-12.25-1.567 2.99-.427 6.267.285 9.828 2.279l198.294 114.06c11.253 6.55 20.37 23.923 20.37 39.017v168.741c0 8.829-3.134 14.952-8.119 16.946 6.268-.997 10.541-7.405 10.541-17.8V160.482c0-15.094-9.117-32.467-20.371-39.017z" fill="#fff"/><g opacity=".2"><path opacity=".048" d="M47.13 349.301c2.565-1.423 5.984-2.42 9.26-2.42 2.85-.143 5.556.569 7.693 1.708.142 0 5.128 2.848 5.128 2.848l83.619 47.846 6.411 3.702 82.337 47.134c2.707 1.566 4.558 4.272 4.558 6.978.143 3.132-1.709 5.98-5.128 7.974l-7.55 3.844c-.142 0-6.268 3.133-6.41 3.133a20.236 20.236 0 01-9.26 2.279c-2.849 0-5.698-.712-7.692-1.994l-82.337-47.846-5.414-3.132-76.924-44.713c-2.706-1.567-4.558-4.13-4.558-6.978 0-2.99 1.567-5.98 4.7-7.832l.143-1.851c0-.284 1.282-10.68 1.425-10.68z" fill="#ABB2E2"/><path opacity=".095" d="M47.273 350.013c2.422-1.424 5.983-2.42 9.117-2.563 2.85-.142 5.556.427 7.693 1.567.142 0 5.128 2.705 5.128 2.848l83.192 47.56 6.268 3.56 82.052 46.849c2.564 1.424 4.559 4.13 4.701 6.835.143 2.991-1.567 5.981-4.986 7.975l-7.407 3.844c-.143.143-6.126 3.133-6.411 3.133-2.706 1.424-5.84 2.136-9.116 1.994-2.707 0-5.699-.855-7.55-1.994l-81.768-47.561-5.413-3.133-76.355-44.428c-2.564-1.424-4.7-4.129-4.7-6.835 0-2.848.997-5.98 4.13-7.689l.143-1.851c-.285.142.855-9.826 1.282-10.111z" fill="#A7ADDF"/><path opacity=".143" d="M47.273 350.868c2.28-1.282 5.983-2.421 8.975-2.706 2.849-.284 5.555.285 7.692 1.424.285 0 4.986 2.563 5.27 2.706l82.908 47.418 6.268 3.56 81.625 46.707c2.422 1.424 4.558 4.129 4.843 6.692.285 2.991-1.282 5.981-4.701 7.975l-7.265 3.844c-.285.143-5.983 2.991-6.268 2.991-2.706 1.281-5.84 1.993-8.974 1.851-2.564 0-5.698-.997-7.55-2.136l-81.198-47.134-5.413-3.132-76.212-44.001c-2.422-1.424-4.7-4.13-4.7-6.551 0-2.705.57-5.838 3.56-7.547v-1.709c-.57-.284.713-9.967 1.14-10.252z" fill="#A3A9DC"/><path opacity=".191" d="M47.416 351.722c2.136-1.281 5.983-2.421 8.832-2.705 2.706-.285 5.413.142 7.692 1.139.428 0 4.986 2.421 5.27 2.705l82.481 47.134 6.268 3.56 81.34 46.564c2.279 1.282 4.701 4.13 4.986 6.55.284 2.991-.998 5.839-4.559 7.832l-7.265 3.845c-.285.142-5.841 2.99-6.268 2.99-2.564 1.282-5.84 1.851-8.832 1.709-2.422 0-5.698-1.139-7.407-2.136l-80.771-46.849-5.413-3.133-75.357-43.716c-2.28-1.281-4.844-4.129-4.844-6.408 0-2.563.143-5.695 2.85-7.404l-.143-1.709c-.712-.285.427-9.541 1.14-9.968z" fill="#9FA4D8"/><path opacity=".238" d="M47.416 352.577c1.994-1.14 5.983-2.421 8.547-2.848 2.706-.428 5.413.142 7.55.996.427 0 4.843 2.421 5.27 2.564l82.053 46.991 6.268 3.56 80.913 46.279c2.136 1.282 4.701 4.13 4.985 6.408.428 2.848-.854 5.838-4.273 7.832l-7.123 3.987c-.427.285-5.84 2.848-6.268 2.848-2.564 1.281-5.698 1.709-8.689 1.566-2.279 0-5.698-1.281-7.265-2.278l-80.201-46.564-5.271-3.133-74.787-43.431c-2.137-1.282-4.986-4.13-4.986-6.266 0-2.42-.285-5.696 2.28-7.12l-.143-1.708c-.855-.285.285-9.114 1.14-9.683z" fill="#9BA0D5"/><path opacity=".286" d="M47.558 353.431c1.852-1.139 5.983-2.421 8.405-2.848 2.706-.427 5.413 0 7.55.854.57 0 4.843 2.279 5.27 2.421l81.768 46.849 6.268 3.56 80.628 46.137c1.994 1.139 4.843 4.129 5.128 6.265.427 2.848-.57 5.839-4.131 7.832l-7.123 3.987c-.427.285-5.698 2.848-6.268 2.848-2.564 1.139-5.698 1.709-8.547 1.424-2.136 0-5.698-1.424-7.265-2.278l-79.63-46.137-5.271-3.133-74.36-43.146c-1.994-1.139-4.986-4.13-4.986-6.123 0-2.279-.712-5.554 1.71-6.978l-.285-1.566c-.998-.855 0-9.398 1.14-9.968z" fill="#979BD2"/><path opacity=".333" d="M47.558 354.285c1.852-.996 5.983-2.42 8.262-2.99 2.565-.57 5.271-.142 7.55.712.713 0 4.701 2.136 5.271 2.421l81.34 46.564 6.126 3.56 80.2 45.994c1.852 1.139 5.271 4.13 5.271 5.981.997 2.705-.427 5.696-3.846 7.689l-6.98 3.988c-.57.284-5.556 2.705-6.268 2.705a15.379 15.379 0 01-8.405 1.139c-1.994 0-5.698-1.566-7.123-2.421l-79.061-45.709-5.27-2.99-73.79-42.72c-1.852-1.139-5.129-4.129-5.129-5.98 0-2.136-1.14-5.554.997-6.836l-.285-1.566c-1.14-.712-.142-8.829 1.14-9.541z" fill="#9397CF"/><path opacity=".381" d="M47.558 355.14c1.71-.997 6.126-2.563 8.12-2.991 2.564-.712 5.27-.284 7.55.428.712 0 4.7 1.993 5.27 2.278l81.056 46.422 6.125 3.56 79.916 45.709c1.709.997 5.413 4.13 5.413 5.838 1.14 2.706-.142 5.696-3.704 7.69l-6.98 3.987c-.57.427-5.413 2.563-6.125 2.706-2.564.996-5.556 1.424-8.262.996-1.852 0-5.699-1.708-7.123-2.42l-78.491-45.568-5.271-2.99-73.22-42.434c-1.71-.997-5.271-3.988-5.271-5.839 0-1.993-1.71-5.411.427-6.692l-.427-1.424c-1.282-.712-.285-8.544.997-9.256z" fill="#8F92CC"/><path opacity=".429" d="M47.7 355.852c1.567-.855 6.126-2.563 7.978-3.133 2.564-.712 5.128-.427 7.407.285.855 0 4.559 1.851 5.271 2.278l80.628 46.279 6.125 3.56 79.489 45.568c1.567.996 5.555 4.129 5.555 5.695 1.425 2.564 0 5.554-3.418 7.69l-6.838 3.987c-.712.427-5.271 2.563-6.126 2.563-2.564.997-5.555 1.282-8.119.855-1.71 0-5.841-1.852-6.98-2.564l-77.922-45.14-5.128-2.99-72.793-42.15c-1.567-.996-5.413-3.987-5.413-5.696 0-1.851-2.137-5.268-.143-6.407l-.427-1.424c-1.71-.855-.712-8.259.855-9.256z" fill="#8B8EC9"/><path opacity=".476" d="M47.7 356.706c1.425-.854 6.126-2.705 7.835-3.275 2.422-.854 5.129-.427 7.408.142.997 0 4.558 1.709 5.27 2.136l80.201 45.995 6.126 3.56 79.061 45.425c1.424.854 5.555 4.129 5.555 5.553 1.567 2.563.285 5.554-3.276 7.547l-6.838 3.987c-.855.428-5.128 2.421-6.125 2.563-2.564.855-5.413 1.14-7.978.712-1.567 0-5.84-1.993-6.837-2.563l-77.352-44.855-5.128-2.99-72.223-41.865c-1.425-.855-5.413-3.987-5.413-5.554 0-1.708-2.565-5.268-.713-6.265l-.57-1.424c-1.567-.712-.712-7.832.998-8.829z" fill="#8789C6"/><path opacity=".524" d="M47.843 357.561c1.282-.712 6.125-2.706 7.55-3.276 2.422-.854 5.128-.569 7.407 0 .998 0 4.559 1.567 5.271 1.994l79.916 45.852 6.125 3.418 78.776 45.14c1.282.712 5.698 4.129 5.698 5.411 1.71 2.42.57 5.553-2.991 7.547l-6.695 3.987c-.855.569-4.986 2.421-6.126 2.421-2.564.854-5.413.996-7.835.569-1.424 0-5.84-2.136-6.837-2.705l-76.782-44.428-5.128-2.991-71.654-41.437c-1.282-.712-5.555-3.988-5.555-5.412 0-1.566-2.992-5.126-1.425-6.123l-.57-1.281c-1.852-.855-1.14-7.547.855-8.686z" fill="#8385C2"/><path opacity=".571" d="M47.843 358.415c1.14-.712 6.125-2.848 7.407-3.418 2.28-.996 4.986-.712 7.408-.142 1.14 0 4.416 1.566 5.27 1.994l79.489 45.567 5.983 3.417 78.349 44.998c1.282.712 5.84 4.13 5.84 5.269 1.852 2.42.713 5.411-2.849 7.547l-6.695 3.987c-.997.57-4.843 2.278-6.125 2.421-2.565.712-5.271.854-7.693.284-1.282 0-5.84-2.278-6.695-2.705l-76.354-44.143-5.129-2.991-71.226-41.153c-1.282-.712-5.698-3.987-5.698-5.126 0-1.282-3.419-5.126-1.994-5.981l-.712-1.281c-1.425-.997-.57-7.263 1.424-8.544z" fill="#7F80BF"/><path opacity=".619" d="M47.986 359.269c.997-.569 6.125-2.848 7.265-3.417 2.279-.997 4.985-.855 7.265-.427 1.282 0 4.416 1.424 5.27 1.851l79.204 45.425 5.983 3.417 78.063 44.855c1.14.57 5.983 4.13 5.983 5.127 1.995 2.278.998 5.411-2.564 7.404l-6.552 3.987c-.998.57-4.844 2.136-5.983 2.279-2.565.712-5.271.854-7.55.142-1.14 0-5.841-2.421-6.696-2.848l-75.784-43.858-4.986-2.848-70.656-40.868c-1.14-.57-5.698-3.987-5.698-4.984 0-1.139-3.989-4.984-2.564-5.696l-.855-1.282c-2.137-.996-1.425-6.977.855-8.259z" fill="#7B7CBC"/><path opacity=".667" d="M47.986 360.124c.854-.57 6.125-2.991 7.122-3.56 2.137-1.139 4.986-.997 7.265-.57 1.282 0 4.274 1.282 5.27 1.851l78.777 45.283 5.983 3.417 77.636 44.571c.997.569 6.126 3.987 6.126 4.984 2.137 2.278 1.139 5.411-2.422 7.404l-6.553 3.988c-1.139.712-4.701 2.135-5.983 2.278-2.564.569-5.27.712-7.407 0-.997 0-5.841-2.563-6.553-2.848l-75.215-43.431-4.986-2.848-70.086-40.584c-.997-.569-5.84-3.987-5.84-4.841 0-.997-4.417-4.984-3.277-5.554l-.855-1.139c-2.136-1.281-1.424-6.977.998-8.401z" fill="#7777B9"/><path opacity=".714" d="M48.128 360.978c.712-.427 6.125-3.133 6.98-3.56 2.137-1.281 4.844-1.139 7.265-.712 1.425 0 4.274 1.139 5.27 1.709l78.492 44.998 5.983 3.417 77.352 44.428c.854.427 6.267 3.987 6.267 4.842 2.28 2.136 1.425 5.268-2.136 7.404l-6.411 3.988c-1.139.711-4.558 1.993-5.983 2.135-2.421.57-5.128.57-7.407-.142-.855 0-5.841-2.563-6.411-2.99l-74.645-43.147-4.985-2.848-69.66-40.156c-.854-.427-5.982-3.845-5.982-4.699 0-.854-4.844-4.841-3.847-5.411l-.997-1.139c-2.422-1.282-1.852-6.693.855-8.117z" fill="#7373B6"/><path opacity=".762" d="M48.128 361.832c.57-.427 5.983-3.702 6.838-3.702 2.279-.854 4.843-1.139 7.265-.854 1.567 0 4.13.997 5.27 1.709l78.064 44.855 5.983 3.417 76.924 44.144c.713.427 6.268 3.987 6.268 4.699 2.422 2.136 1.71 5.268-1.994 7.404l-6.268 3.988c-1.282.712-4.416 1.993-5.983 2.135-2.422.57-5.128.428-7.265-.284-.712 0-5.841-2.706-6.41-2.991l-74.076-42.719-4.985-2.848-69.09-39.871c-.712-.427-6.125-3.845-6.125-4.557 0-.712-5.27-4.699-4.416-5.269l-.997-1.139c-2.422-1.566-1.852-6.55.997-8.117z" fill="#6F6EB3"/><path opacity=".809" d="M48.128 362.544c.57-.284 5.983-3.844 6.553-3.844 2.137-.997 4.843-1.282 7.122-.997 1.567 0 4.131.854 5.271 1.566l77.636 44.713 5.983 3.418 76.64 44.001c.57.284 6.41 3.987 6.41 4.556 2.564 2.136 1.852 5.269-1.709 7.263l-6.268 4.129c-1.425.855-4.274 1.851-5.983 1.994-2.422.427-4.986.285-7.123-.57-.57 0-5.84-2.848-6.268-3.133l-73.505-42.434-4.843-2.848-68.52-39.587c-.57-.284-6.125-3.844-6.125-4.414 0-.57-5.698-4.699-5.129-4.984l-1.14-.997c-2.42-1.424-1.851-6.123.998-7.832z" fill="#6B6AB0"/><path opacity=".857" d="M48.27 363.399c.428-.285 5.983-3.845 6.41-3.845 2.138-.997 4.702-1.424 7.123-1.281 1.71 0 3.989.712 5.271 1.424l77.352 44.428 5.84 3.417 76.212 43.859c.427.284 6.553 3.987 6.553 4.414 2.706 1.994 2.137 5.126-1.567 7.262l-6.126 4.13c-1.424.854-4.131 1.851-5.84 1.993-2.422.428-4.986.143-6.98-.712-.428 0-5.841-2.99-6.268-3.132l-72.936-42.15-4.843-2.848-68.092-39.302c-.428-.285-6.268-3.845-6.268-4.272 0-.427-6.125-4.556-5.698-4.841l-1.14-.997c-2.706-1.424-2.137-5.696.997-7.547z" fill="#6765AC"/><path opacity=".905" d="M48.27 364.253c.285-.142 5.983-3.987 6.268-3.987 2.137-.997 4.701-1.566 7.123-1.424 1.852 0 3.989.712 5.27 1.424l76.925 44.286 5.84 3.417 75.785 43.574c.285.142 6.695 3.987 6.695 4.272 2.849 1.993 2.279 5.126-1.282 7.262l-6.125 4.13c-1.567.854-3.989 1.708-5.841 1.851-2.422.285-4.986 0-6.838-.855-.285 0-5.983-3.132-6.125-3.275l-72.366-41.722-4.843-2.848-67.523-38.875c-.284-.142-6.41-3.844-6.41-4.129 0-.285-6.695-4.557-6.268-4.699l-1.282-.855c-2.706-1.708-2.279-5.696.997-7.547z" fill="#6361A9"/><path opacity=".952" d="M48.413 365.108c.142-.143 5.983-3.988 6.125-3.988 1.995-1.139 4.701-1.708 7.123-1.566 1.852 0 3.989.57 5.27 1.282l76.64 44.143 5.84 3.417 75.5 43.432c.142.142 6.838 3.987 6.838 4.129 2.991 1.852 2.564 5.127-1.14 7.12l-5.983 4.13c-1.567.854-3.846 1.566-5.84 1.708-2.422.285-4.844-.142-6.696-.996-.142 0-5.983-3.275-5.983-3.418l-71.938-41.438-4.843-2.705-67.095-38.59c-.143-.142-6.41-3.845-6.41-3.987 0-.142-7.123-4.414-6.98-4.557l-1.283-.854c-3.134-1.709-2.706-5.269.855-7.262z" fill="#5F5CA6"/><path d="M211.663 467.492l-82.052-47.276-82.053-47.134c-3.134-1.851-2.706-4.984.855-7.12l5.983-4.13c3.704-2.136 9.117-2.278 12.393-.569l82.053 47.276 82.052 47.276c3.134 1.851 2.707 4.984-.855 7.12l-5.983 4.129c-3.703 1.994-9.259 2.279-12.393.428z" fill="#5B58A3"/></g><path d="M84.168 26.486c0 1.566-.142 217.868-.142 238.658v30.616c0 7.547-4.843 16.66-11.254 21.502 10.969 6.265 155.131 88.287 173.792 99.109h16.382v13.243c0 5.268 3.561 8.544 7.122 9.256.285 0 .57.142.855.142h.997c1.567-.142 3.419-.712 5.271-1.851 1.994-1.139 3.846-2.848 5.556-4.699 2.136-1.994 3.703-4.272 4.701-7.12 1.851-3.703 2.849-7.547 2.849-11.107V143.964L84.168 26.486z" fill="url(#paint44_linear_137_824)"/><path d="M84.168 72.908l206.556 117.62V143.11L84.168 25.49c0-2.564-.142 132.999-.142 153.789v18.654c.142-33.179.142-149.803.142-125.025z" fill="url(#paint45_linear_137_824)"/><path d="M234.313 338.479c0 .143 1.14.997 2.991 2.279v-.57c-1.851-1.139-2.991-1.709-2.991-1.709z" fill="#E6E7E8"/><g opacity=".5"><path opacity=".031" d="M51.547 39.444l.57.427C67.5 50.124 82.887 52.26 96.134 46.28c12.109 22.642 26.924 40.156 42.166 50.124l.57.427s-.285 4.842-.143 4.984l-1.709 29.619c-4.843 51.406-20.371 54.823-46.012 72.765l-.57-.427c-.57-1.282-1.14-2.421-1.71-3.56-1.281-2.563-2.42-5.126-3.56-7.689-20.229-42.577-32.764-66.358-33.762-117.194l.143-7.69V39.445z" fill="#FDFEFF"/><path opacity=".063" d="M51.832 40.583l.57.428c15.242 10.11 30.342 12.246 43.59 6.265 11.966 22.356 26.496 39.729 41.738 49.554l.57.428-.142 4.841-1.71 29.334c-4.701 50.836-20.085 54.396-45.584 72.053 0 0-.57-.427-.57-.285-.57-1.139-1.14-2.278-1.852-3.417-1.282-2.563-2.422-5.126-3.561-7.547-19.944-42.435-32.337-65.93-33.334-116.197 0-.142.142-7.547 0-7.69l.285-27.767z" fill="#FCFCFE"/><path opacity=".094" d="M52.259 41.865l.57.427c15.1 9.968 30.057 12.104 43.163 6.123 11.823 22.072 26.211 39.16 41.169 48.985l.569.427c.143 0-.142 4.699 0 4.699l-1.709 28.907c-4.701 50.409-19.801 53.826-45.015 71.341l-.57-.285c-.57-1.139-1.282-2.136-1.852-3.275-1.14-2.563-2.421-5.126-3.561-7.547-19.8-41.722-32.194-64.933-33.191-114.772v-7.547l.427-27.483z" fill="#FAFBFE"/><path opacity=".125" d="M52.686 43.147l.57.427c14.958 9.825 29.773 11.819 42.736 6.123 11.681 21.787 25.926 38.732 40.741 48.557l.57.428c.142.142 0 4.556 0 4.699l-1.709 28.622c-4.701 49.839-19.516 53.399-44.445 70.771l-.57-.285c-.57-.996-1.282-2.136-1.852-3.132-1.14-2.563-2.422-4.984-3.562-7.405-19.658-41.58-31.909-64.506-32.906-113.776V70.63l.427-27.483z" fill="#F9FAFE"/><path opacity=".156" d="M52.971 44.286l.57.427c14.815 9.54 29.488 11.676 42.166 5.98 11.539 21.504 25.641 38.307 40.171 47.99 0 0 .57.284.57.427.143.142 0 4.414.143 4.557l-1.71 28.337c-4.558 49.269-19.373 52.972-43.875 70.059l-.57-.285c-.57-.996-1.282-1.993-1.852-2.99-1.14-2.563-2.279-4.984-3.419-7.405C65.65 150.23 53.684 127.446 52.544 78.746V71.34l.427-27.055z" fill="#F7F8FD"/><path opacity=".188" d="M53.399 45.567s.57.285.57.428c14.672 9.398 29.06 11.391 41.738 5.98 11.396 21.217 25.356 37.735 39.744 47.419 0 0 .57.284.57.427.142.142 0 4.414.285 4.414l-1.71 27.91c-4.558 48.842-19.088 52.545-43.448 69.348l-.57-.285c-.57-.997-1.281-1.851-1.851-2.706l-3.42-7.262c-19.373-40.868-31.196-63.367-32.336-111.497v-7.405l.428-26.77z" fill="#F6F7FD"/><path opacity=".219" d="M53.826 46.849s.57.285.57.427c14.388 9.256 28.775 11.25 41.31 5.838 11.397 20.933 24.93 37.309 39.175 46.85 0 0 .57.284.57.426.143.143.143 4.272.285 4.415l-1.567 27.482c-4.558 48.273-18.804 52.118-42.878 68.778l-.57-.284c-.57-.855-1.282-1.709-1.852-2.563l-3.419-7.263c-19.23-40.441-30.912-62.797-32.051-110.5v-7.263l.427-26.343z" fill="#F4F5FD"/><path opacity=".25" d="M54.11 48.13s.57.285.57.428c14.246 9.113 28.491 11.107 40.884 5.696 11.254 20.647 24.645 36.738 38.747 46.421 0 0 .57.285.57.427.143.143.143 4.13.428 4.272l-1.71 27.056c-4.416 47.703-18.519 51.548-42.308 68.066l-.57-.285c-.57-.854-1.282-1.566-1.852-2.421-1.14-2.42-2.279-4.841-3.419-7.12-19.088-40.156-30.627-62.227-31.624-109.36v-7.263l.285-25.917z" fill="#F3F4FC"/><path opacity=".281" d="M54.538 49.27l.57.284c14.103 8.971 28.206 10.823 40.456 5.696 11.112 20.363 24.36 36.312 38.178 45.852 0 0 .427.285.569.428.285.142.285 3.987.428 4.129l-1.567 26.913c-4.416 47.134-18.234 51.121-41.739 67.354 0 0-.57-.284-.57-.142-.712-.712-1.281-1.566-1.994-2.278-1.14-2.421-2.279-4.7-3.276-7.12-18.946-39.729-30.343-61.659-31.34-108.222v-7.12l.285-25.774z" fill="#F1F3FC"/><path opacity=".313" d="M54.966 50.551l.57.285c13.96 8.829 27.778 10.68 40.028 5.553 10.969 20.079 24.075 35.742 37.75 45.283 0 0 .428.285.57.427.285.285.285 3.845.57 4.13l-1.709 26.486c-4.417 46.706-17.949 50.693-41.312 66.784 0 0-.57-.285-.57-.142-.712-.712-1.281-1.424-1.994-2.136-1.14-2.421-2.279-4.699-3.276-6.978-18.661-39.444-29.915-61.088-31.055-107.083v-6.977l.428-25.632z" fill="#F0F1FC"/><path opacity=".344" d="M55.25 51.833l.57.285c13.818 8.543 27.494 10.537 39.602 5.41 10.826 19.794 23.79 35.315 37.18 44.714 0 0 .427.284.57.284.285.285.427 3.845.712 3.987l-1.567 26.202c-4.273 46.136-17.664 50.266-40.741 66.072 0 0-.427-.142-.57-.142l-1.994-1.994c-1.14-2.421-2.137-4.699-3.277-6.835-18.519-38.874-29.63-60.234-30.77-105.659V77.18l.285-25.347z" fill="#EEF0FB"/><path opacity=".375" d="M55.678 52.972s.427.285.57.285c13.675 8.401 27.208 10.252 39.174 5.41 10.684 19.51 23.362 34.746 36.753 44.144 0 0 .427.285.57.285.284.285.427 3.702.712 3.987l-1.567 25.916c-4.274 45.568-17.379 49.84-40.172 65.503 0 0-.427-.142-.57-.142-.712-.57-1.282-1.139-1.994-1.709-1.14-2.278-2.137-4.557-3.276-6.835C67.5 151.084 56.533 129.867 55.393 85.011v-6.835l.285-25.204z" fill="#EDEFFB"/><path opacity=".406" d="M56.105 54.254s.428.284.57.284c13.533 8.26 26.924 10.11 38.747 5.269 10.542 19.224 23.077 34.318 36.325 43.716l.428.285c.285.285.427 3.56.854 3.845l-1.567 25.631c-4.273 44.998-17.094 49.412-39.601 64.791 0 0-.428-.142-.57-.142-.712-.57-1.282-1.139-1.994-1.567-1.14-2.278-2.137-4.556-3.134-6.692C67.786 151.226 56.96 130.151 55.82 85.866V79.03l.285-24.778z" fill="#EBEDFB"/><path opacity=".438" d="M56.39 55.535s.428.285.57.285c13.39 8.117 26.639 9.825 38.177 5.126 10.399 18.94 22.792 33.749 35.756 43.147l.427.284c.427.285.57 3.418.855 3.703l-1.567 25.204c-4.131 44.571-16.952 48.843-39.175 64.079 0 0-.427-.142-.57-.142-.712-.427-1.281-.997-1.994-1.424-1.14-2.279-2.136-4.557-3.134-6.693-18.091-38.02-28.775-58.81-29.915-102.526v-6.693l.57-24.35z" fill="#EAECFA"/><path opacity=".469" d="M56.818 56.817c.142 0 .427.284.57.284 13.247 7.975 26.21 9.683 37.75 5.127 10.256 18.654 22.507 33.32 35.327 42.577l.428.284c.427.285.569 3.276.997 3.703l-1.425 24.919c-4.131 44.001-16.667 48.416-38.604 63.51 0 0-.428-.143-.57-.143-.712-.427-1.425-.854-1.994-1.281-.998-2.279-2.137-4.415-3.134-6.551-17.95-37.735-28.348-58.24-29.63-101.387v-6.692l.285-24.35z" fill="#E8EAFA"/><path opacity=".5" d="M57.245 57.956c.142 0 .427.285.57.285 13.105 7.832 25.926 9.54 37.322 4.984 10.114 18.369 22.08 32.893 34.758 42.149l.428.285c.427.427.712 3.275 1.139 3.56l-1.567 24.635c-3.988 43.431-16.382 47.988-38.034 62.797 0 0-.428-.142-.57 0-.712-.427-1.425-.712-2.137-1.139-.997-2.278-2.137-4.414-3.134-6.55-17.806-37.309-28.063-57.671-29.202-100.248v-6.55l.427-24.208z" fill="#E7E9FA"/><path opacity=".531" d="M57.53 59.237c.142 0 .427.285.57.285 12.963 7.547 25.641 9.256 36.895 4.842 10.114 18.084 21.937 32.324 34.331 41.437l.427.285c.427.427.712 3.133 1.14 3.418l-1.425 24.207c-3.989 42.862-16.097 47.561-37.465 62.086-.142 0-.427-.143-.57 0-.712-.285-1.424-.57-2.136-.997-.998-2.136-1.995-4.414-2.992-6.408-17.522-37.023-27.778-57.101-28.918-99.109v-6.55l.143-23.496z" fill="#E5E8F9"/><path opacity=".563" d="M57.957 60.519c.143 0 .428.285.57.285 12.82 7.404 25.356 9.113 36.468 4.841 9.971 17.8 21.51 31.897 33.761 41.011l.427.285c.428.427.855 2.99 1.282 3.417l-1.424 23.923c-3.989 42.434-15.812 47.134-37.038 61.516h-.427c-.712-.285-1.425-.57-2.137-.712l-2.991-6.408c-17.38-36.596-27.494-56.532-28.633-97.97V84.3l.142-23.78z" fill="#E3E6F9"/><path opacity=".594" d="M58.385 61.658c.142 0 .427.285.57.285 12.535 7.262 24.928 8.829 36.04 4.7 9.829 17.372 21.225 31.327 33.333 40.44l.428.285c.427.427.855 2.848 1.282 3.275l-1.425 23.496c-3.846 41.864-15.527 46.564-36.467 60.803h-.428c-.712-.142-1.424-.427-2.136-.569-.998-2.136-1.995-4.272-2.992-6.266-17.237-36.311-27.066-55.962-28.348-96.972v-6.408l.143-23.069z" fill="#E2E5F8"/><path opacity=".625" d="M58.67 62.94c.142 0 .427.285.57.285 12.392 7.12 24.643 8.686 35.612 4.556 9.687 17.088 20.941 30.9 32.764 39.872.143 0 .428.284.428.284.569.428.854 2.706 1.424 3.133l-1.424 23.211c-3.847 41.295-15.243 46.137-35.898 60.092h-.428l-2.136-.427c-.998-2.136-1.995-4.272-2.992-6.266-17.094-35.884-26.781-55.393-28.063-95.834v-6.265l.142-22.641z" fill="#E0E3F8"/><path opacity=".656" d="M59.097 64.221c.142 0 .427.285.57.285 12.25 6.978 24.359 8.544 35.185 4.557 9.402 16.803 20.513 30.33 32.194 39.302.143 0 .285.284.428.284.57.428.997 2.706 1.567 3.133l-1.425 22.926c-3.846 40.726-14.957 45.71-35.328 59.522h-.427c-.713-.142-1.425-.142-2.137-.284-.997-2.136-1.994-4.13-2.992-6.123-16.951-35.6-26.496-54.681-27.778-94.695 0-1.14 0-4.984-.142-6.265l.285-22.642z" fill="#DFE2F8"/><path opacity=".688" d="M59.524 65.503c.142 0 .428.285.57.285 12.108 6.835 24.074 8.259 34.758 4.414 9.402 16.518 20.371 29.904 31.767 38.875.143 0 .285.284.427.284.57.428.998 2.564 1.567 2.991l-1.282 22.499c-3.703 40.298-14.815 45.282-34.9 58.81h-.428c-.712 0-1.424-.143-2.137-.143-.997-2.136-1.994-4.129-2.849-6.123-16.951-35.029-26.353-53.968-27.635-93.413 0-1.139 0-4.841-.143-6.123l.285-22.356z" fill="#DDE1F7"/><path opacity=".719" d="M59.952 66.642c.142 0 .427.285.57.285 11.965 6.693 23.646 8.117 34.188 4.414 9.259 16.234 19.943 29.334 31.339 38.305.143.143.285.285.428.285.569.57 1.139 2.421 1.709 2.848l-1.282 22.214c-3.704 39.729-14.53 44.855-34.331 58.098-.142 0-.427 0-.427.143h-2.137c-.997-1.994-1.852-3.988-2.85-5.981-16.524-34.888-25.926-53.542-27.208-92.416 0-1.282 0-4.7-.142-6.123l.143-22.072z" fill="#DCDFF7"/><path opacity=".75" d="M60.236 67.924c.143 0 .428.284.57.284 11.824 6.408 23.362 7.975 33.761 4.272 9.117 15.949 19.659 28.907 30.77 37.736.142.142.285.285.427.285.57.569 1.14 2.278 1.852 2.848l-1.282 21.929c-3.704 39.159-14.245 44.285-33.761 57.528-.142 0-.285 0-.427.143-.713 0-1.425.142-2.28.285-.997-1.994-1.852-3.988-2.849-5.981-16.524-34.603-25.641-53.114-26.923-91.42 0-1.281-.142-4.556-.142-5.98l.284-21.93z" fill="#DADEF7"/><path opacity=".781" d="M60.664 69.205c.142 0 .427.143.57.285 11.68 6.266 23.077 7.69 33.333 4.13 8.975 15.663 19.374 28.337 30.343 37.165.142.143.285.285.427.285.712.57 1.282 2.136 1.852 2.706l-1.282 21.502c-3.562 38.732-13.961 43.858-33.191 56.816-.143 0-.285 0-.428.143-.712.142-1.424.285-2.28.427-.996-1.994-1.851-3.987-2.848-5.838-16.24-34.176-25.214-52.403-26.496-90.138 0-1.424-.143-4.414-.143-5.98l.143-21.503z" fill="#D9DDF6"/><path opacity=".813" d="M61.091 70.344c.142 0 .427.143.57.285 11.538 6.123 22.792 7.547 32.906 4.13 8.832 15.379 19.089 27.91 29.773 36.596.142.142.285.285.427.285.712.569 1.282 2.136 1.995 2.705l-1.283 21.218c-3.561 38.162-13.675 43.431-32.763 56.104-.143.143-.285.143-.428.143-.712.142-1.567.427-2.28.569a106.437 106.437 0 01-2.706-5.838c-16.097-33.748-24.929-51.833-26.21-88.999 0-1.424-.143-4.272-.143-5.838l.142-21.36z" fill="#D7DBF6"/><path opacity=".844" d="M61.376 71.626c.142 0 .427.142.57.285 11.396 5.98 22.507 7.262 32.479 3.987 8.832 15.094 18.804 27.483 29.345 36.169.142.142.285.285.427.285.713.569 1.282 1.993 1.995 2.563l-1.282 20.79c-3.562 37.593-13.391 43.004-32.194 55.535-.143.142-.285.142-.428.142-.712.285-1.567.428-2.28.712-.854-1.993-1.851-3.844-2.706-5.695-15.954-33.464-24.644-51.264-25.926-87.86 0-1.424-.142-4.272-.142-5.696l.142-21.217z" fill="#D6DAF6"/><path opacity=".875" d="M61.803 72.908c.143 0 .285.142.428.284 11.253 5.839 22.08 7.12 32.051 3.845 8.69 14.81 18.519 26.913 28.776 35.6.142.142.285.284.427.284.712.57 1.425 1.852 2.137 2.421l-1.282 20.505c-3.419 37.024-13.106 42.577-31.624 54.823-.143.143-.285.143-.428.143-.712.285-1.567.569-2.28.854-.854-1.851-1.851-3.844-2.706-5.696-15.812-33.036-24.359-50.693-25.641-86.72 0-1.566-.143-4.13-.143-5.696l.285-20.647z" fill="#D4D9F5"/><path opacity=".906" d="M62.23 74.19c.143.142.286.142.428.284 11.111 5.696 21.795 6.977 31.624 3.845 8.548 14.524 18.092 26.486 28.348 35.03.143.142.285.284.428.284.712.712 1.424 1.709 2.279 2.421l-1.14 20.221c-3.418 36.596-12.82 42.149-31.054 54.253-.143.142-.285.142-.427.142-.713.285-1.567.712-2.28 1.14-.855-1.852-1.852-3.703-2.706-5.554-15.528-32.751-23.932-50.124-25.357-85.581 0-1.566-.142-3.987-.142-5.553V74.189z" fill="#D3D7F5"/><path opacity=".938" d="M62.516 75.328c.142.143.285.143.427.285 10.826 5.411 21.51 6.693 31.197 3.703 8.405 14.24 17.806 25.916 27.778 34.46.143.142.285.142.427.285.713.712 1.567 1.708 2.28 2.278l-1.14 19.793c-3.419 36.027-12.536 41.58-30.627 53.542-.142.142-.285.142-.428.284-.712.428-1.566.855-2.279 1.282l-2.564-5.553c-15.385-32.325-23.647-49.555-25.071-84.585 0-1.708-.143-3.844-.143-5.553l.143-20.22z" fill="#D1D6F5"/><path opacity=".969" d="M62.943 76.61c.142.142.285.142.427.285 10.684 5.268 21.226 6.55 30.628 3.56 8.262 13.955 17.521 25.489 27.35 33.89.143.143.285.143.285.285.855.712 1.567 1.566 2.422 2.136l-1.14 19.509c-3.276 35.457-12.393 41.152-30.057 52.829-.142.142-.285.142-.428.285-.712.427-1.566.854-2.421 1.424-.855-1.851-1.71-3.702-2.564-5.411-15.243-32.04-23.362-48.985-24.787-83.445 0-1.709-.142-3.703-.142-5.411l.427-19.936z" fill="#D0D4F4"/><path d="M63.085 97.542c.713 37.593 8.69 54.396 24.645 87.717.854 1.709 1.71 3.56 2.564 5.411.997-.569 1.852-1.281 2.849-1.851 17.379-11.534 26.211-17.23 29.487-52.26l1.14-19.223c-10.684-8.687-20.656-20.79-29.63-35.742-9.544 2.848-19.943 1.566-30.77-3.703l-.285 19.651z" fill="#CED3F4"/></g><path d="M130.465 107.368c-16.382-9.256-32.336-25.062-45.727-45.14l-.142-.143c-13.39 4.7-29.346 1.994-45.728-7.69l-.57-.284-6.98 6.408.428.285c16.382 9.683 32.337 12.246 45.727 7.69l.142.142c13.391 20.078 29.346 35.884 45.728 45.14l.569.285-.854 29.476c-1.995 28.479-9.545 39.302-21.795 47.133 15.242-8.971 26.781-21.359 29.06-53.541l.855-29.476-.713-.285z" fill="url(#paint46_linear_137_824)"/><path d="M131.035 107.653l-.57-.285c-16.382-9.256-32.336-25.062-45.727-45.14l-.142-.143-7.123 6.266.142.142c13.391 20.078 29.346 35.885 45.728 45.14l.569.285 7.123-6.265z" fill="url(#paint47_linear_137_824)"/><path d="M123.912 114.061l-.854 29.476c-1.995 28.479-9.545 39.302-21.795 47.133 15.242-8.971 26.781-21.359 29.06-53.541l.855-29.476-7.266 6.408z" fill="url(#paint48_linear_137_824)"/><path d="M74.34 182.839c-20.23-33.464-30.343-50.267-32.765-87.005l-.57-19.224c12.963 5.838 25.357 7.69 36.61 5.553 11.112 15.095 23.648 27.626 36.611 36.739l-.57 18.654c-2.422 33.891-12.536 39.017-32.764 49.127-.997.57-2.137 1.139-3.276 1.567-1.14-1.851-2.28-3.703-3.277-5.411z" fill="url(#paint49_linear_137_824)"/><path d="M31.034 60.377l.854 30.473c3.134 47.276 19.231 67.923 45.158 111.924l.57.427c25.926-13.955 42.165-15.948 45.157-59.664l.855-29.476-.57-.285c-16.382-9.256-32.337-25.062-45.727-45.14l-.143-.143c-13.39 4.7-29.345 1.994-45.727-7.69l-.427-.426zm9.971 16.233c12.963 5.838 25.357 7.69 36.61 5.553 11.112 15.095 23.648 27.626 36.611 36.739l-.57 18.654c-2.422 33.891-12.536 39.017-32.764 49.127-.997.57-2.137 1.14-3.276 1.567-1.14-1.851-2.137-3.56-3.277-5.411-20.228-33.464-30.342-50.267-32.764-87.005l-.57-19.224z" fill="url(#paint50_linear_137_824)"/><path d="M93 130.436l-.427-.285v-10.822c0-6.977-4.843-15.379-10.969-18.796l-7.55-4.415c-5.983-3.417-10.969-.712-10.969 6.266v10.822l-.427-.285c-2.849-1.566-5.128-.284-5.128 2.848v25.632c0 3.275 2.279 7.12 5.128 8.829l30.2 17.372c2.849 1.566 5.128.285 5.128-2.848v-25.631c.143-3.133-2.137-7.12-4.986-8.687zM79.895 143.11v8.401l-3.704-2.136v-8.401c-1.567-1.709-2.564-3.987-2.564-6.123 0-2.848 1.994-3.988 4.416-2.564 2.422 1.424 4.416 4.842 4.416 7.69 0 2.136-1.14 3.275-2.564 3.133zm6.41-16.661l-16.667-9.683v-8.544c0-3.987 2.85-5.553 6.268-3.56l4.274 2.421c3.418 1.994 6.268 6.835 6.268 10.68v8.686h-.143z" fill="#507BF5"/><path opacity=".5" d="M74.34 182.839c-20.23-33.464-30.343-50.267-32.765-87.005l-.57-19.224c12.963 5.838 25.357 7.69 36.61 5.553 11.112 15.095 23.648 27.626 36.611 36.739l-.57 18.654c-2.422 33.891-12.536 39.017-32.764 49.127-.997.57-2.137 1.139-3.276 1.567-1.14-1.851-2.28-3.703-3.277-5.411z" fill="url(#paint51_radial_137_824)"/><g opacity=".3"><path opacity=".091" d="M74.197 179.563c-10.4-5.98-18.804-1.139-18.804 10.68v99.394c0 11.819 8.405 34.745 18.804 40.726l191.455 106.655c10.399 5.981 6.126-6.123 6.126-18.084V319.54c0-11.819-12.109-34.175-22.508-40.156L74.197 179.563z" fill="#A7ADDF"/><path opacity=".182" d="M74.909 181.13c-10.4-5.981-18.661-1.139-18.661 10.68v89.425c0 11.819 8.404 43.147 18.66 49.128l188.465 105.374c10.399 5.981 7.408-5.411 7.408-17.23v-89.568c0-11.819-11.824-42.577-22.08-48.558L74.909 181.13z" fill="#A0A5D9"/><path opacity=".273" d="M75.621 182.696c-10.256-5.98-18.661-1.139-18.661 10.68v79.458c0 11.819 8.405 51.548 18.661 57.529l185.615 103.95c10.257 5.981 8.69-4.699 8.69-16.518v-79.458c0-11.819-11.396-51.121-21.653-57.102L75.621 182.696z" fill="#989CD3"/><path opacity=".364" d="M76.334 184.263c-10.257-5.981-18.662-1.14-18.662 10.679v69.348c0 11.819 8.405 59.949 18.662 65.93l182.623 102.669c10.257 5.981 9.829-3.987 9.829-15.806v-69.348c0-11.819-10.968-59.522-21.368-65.503L76.334 184.263z" fill="#9094CD"/><path opacity=".455" d="M77.188 185.829c-10.256-5.981-18.661-1.139-18.661 10.68v59.38c0 11.819 8.405 68.35 18.661 74.331L256.82 431.465c10.257 5.981 11.112-3.275 11.112-15.094v-59.38c0-11.819-10.542-67.924-20.941-73.904L77.188 185.829z" fill="#898BC7"/><path opacity=".545" d="M77.9 187.395c-10.256-5.98-18.66-1.139-18.66 10.68v49.412c0 11.819 8.404 76.752 18.66 82.733l176.784 100.106c10.256 5.98 12.393-2.563 12.393-14.24v-49.412c0-11.819-10.257-76.468-20.513-82.306L77.9 187.395z" fill="#8183C1"/><path opacity=".636" d="M78.613 188.962c-10.257-5.981-18.661-1.139-18.661 10.537v39.444c0 11.819 8.262 85.154 18.66 90.992l173.792 98.682c10.257 5.981 13.533-1.709 13.533-13.528V375.93c0-11.819-9.829-84.869-20.085-90.85l-167.24-96.118z" fill="#7A7ABB"/><path opacity=".727" d="M79.467 190.528c-10.256-5.981-18.518-1.139-18.518 10.537v29.334c0 11.819 8.262 93.556 18.518 99.394l170.943 97.4c10.257 5.981 14.815-.997 14.815-12.816v-29.334c0-11.819-9.402-93.413-19.658-99.251l-166.1-95.264z" fill="#7272B5"/><path opacity=".818" d="M80.18 192.094c-10.257-5.98-18.52-1.139-18.52 10.538v19.508c0 11.819 8.263 101.957 18.52 107.795l167.951 96.119c10.256 5.981 16.097-.285 16.097-12.104v-19.366c0-11.819-9.117-101.814-19.374-107.653L80.18 192.094z" fill="#6A69AF"/><path opacity=".909" d="M80.892 193.661c-10.257-5.838-18.519-1.139-18.519 10.537v9.398c0 11.677 8.262 110.359 18.519 116.197l165.102 94.837c10.257 5.838 17.237.427 17.237-11.25v-9.398c0-11.676-8.69-110.216-18.946-116.196L80.892 193.661z" fill="#6361A9"/><path d="M81.747 195.227c-10.257-5.838-18.52-1.139-18.52 10.538v-.57c0 11.677 8.263 118.76 18.52 124.598l162.11 93.555c10.257 5.839 18.519 1.139 18.519-10.537v.569c0-11.676-8.262-118.759-18.519-124.598l-162.11-93.555z" fill="#5B58A3"/></g><path d="M264.228 429.756V303.877a318.888 318.888 0 01-.428-2.848c-.284-7.975-6.125-11.107-13.248-6.978-7.122 4.13-12.963 13.955-13.248 22.214v104.662c7.55 4.272 31.34 17.8 31.34 17.8v-.142c-2.707-1.282-4.416-4.272-4.416-8.829z" fill="#AFB6E5"/><g opacity=".3"><path opacity=".048" d="M208.672 266.141c-10.399-5.981-158.977-63.509-158.977-51.69v92.558c0 11.819-5.556 51.264 4.843 57.244l165.387 95.407c10.399 5.98 36.61-14.667 36.61-26.486V330.932c0-11.819 12.109-31.185 1.71-37.166l-49.573-27.625z" fill="#ABB2E2"/><path opacity=".095" d="M200.979 262.581c-10.399-5.98-151.854-60.376-151.854-48.557v92.131c0 11.819-4.843 49.982 5.556 55.962l165.244 95.264c10.399 5.981 35.756-13.812 35.756-25.774V330.363c0-11.819 11.111-30.901.712-36.881l-55.414-30.901z" fill="#A7ADDF"/><path opacity=".143" d="M193.287 259.164c-10.399-5.981-144.874-57.244-144.874-45.425v91.704c0 11.819-4.131 48.842 6.268 54.681l164.959 95.264c10.399 5.98 34.759-13.101 34.759-24.92V329.935c0-11.819 9.971-30.615-.285-36.596l-60.827-34.175z" fill="#A3A9DC"/><path opacity=".191" d="M185.594 255.746c-10.399-5.98-137.893-54.111-137.893-42.292v91.277c0 11.819-3.42 47.561 6.837 53.542l164.817 95.121c10.399 5.981 33.904-12.246 33.904-24.207v-99.536c0-11.819 8.975-30.474-1.282-36.312l-66.383-37.593z" fill="#9FA4D8"/><path opacity=".238" d="M178.044 252.329c-10.256-5.981-130.913-51.121-130.913-39.16v90.85c0 11.819-2.707 46.279 7.55 52.26l164.674 94.979c10.257 5.981 33.049-11.534 33.049-23.353v-98.682c0-11.819 7.978-30.188-2.279-36.169l-72.081-40.725z" fill="#9BA0D5"/><path opacity=".286" d="M170.352 248.911c-10.257-5.981-123.791-47.988-123.791-36.169v90.565c0 11.819-2.137 44.998 8.262 50.978l164.532 94.837c10.257 5.981 32.052-10.68 32.052-22.499v-97.827c0-11.819 6.98-29.903-3.276-35.884l-77.779-44.001z" fill="#979BD2"/><path opacity=".333" d="M162.659 245.494c-10.256-5.981-116.81-44.856-116.81-33.037v89.996c0 11.819-1.425 43.716 8.974 49.696l164.39 94.837c10.257 5.981 31.197-9.968 31.197-21.787v-96.83c0-11.819 5.983-29.619-4.274-35.599l-83.477-47.276z" fill="#9397CF"/><path opacity=".381" d="M154.967 241.934c-10.257-5.981-109.83-41.723-109.83-29.904v89.711c0 11.819-.713 42.434 9.686 48.415l164.248 94.694c10.256 5.981 30.342-9.113 30.342-20.932v-95.976c0-11.819 4.986-29.334-5.413-35.315l-89.033-50.693z" fill="#8F92CC"/><path opacity=".429" d="M147.417 238.516c-10.256-5.981-102.708-38.59-102.708-26.771v89.284c0 11.819 0 41.153 10.257 47.133l164.105 94.695c10.256 5.98 29.345-8.259 29.345-20.078v-95.264c0-11.819 3.988-29.05-6.411-35.03l-94.588-53.969z" fill="#8B8EC9"/><path opacity=".476" d="M139.725 235.099c-10.257-5.981-95.728-35.458-95.728-23.639v88.857c0 11.819.712 39.871 10.969 45.852l163.962 94.552c10.257 5.98 28.49-7.547 28.49-19.366V327.23c0-11.819 2.85-28.907-7.407-34.745l-100.286-57.386z" fill="#8789C6"/><path opacity=".524" d="M132.032 231.681c-10.256-5.981-88.748-32.324-88.748-20.505v88.429c0 11.819 1.425 38.589 11.682 44.57l163.82 94.41c10.256 5.98 27.493-6.693 27.493-18.512v-93.27c0-11.819 1.852-28.622-8.405-34.461l-105.842-60.661z" fill="#8385C2"/><path opacity=".571" d="M124.34 228.263c-10.257-5.98-81.768-29.191-81.768-17.515v88.002c0 11.819 2.137 37.451 12.394 43.289l163.535 94.41c10.256 5.98 26.638-5.981 26.638-17.8v-92.416c0-11.819.855-28.337-9.402-34.318L124.34 228.263z" fill="#7F80BF"/><path opacity=".619" d="M116.647 224.846c-10.256-5.981-74.645-26.059-74.645-14.382v87.574c0 11.819 2.707 36.169 12.964 42.008L218.5 434.313c10.256 5.981 25.784-5.126 25.784-16.945v-91.42c0-11.819-.143-28.052-10.399-34.033l-117.239-67.069z" fill="#7B7CBC"/><path opacity=".667" d="M109.097 221.286c-10.256-5.981-67.664-23.068-67.664-11.249v87.147c0 11.819 3.419 34.887 13.675 40.726l163.25 94.124c10.257 5.981 24.787-4.414 24.787-16.09v-90.565c0-11.819-1.14-27.768-11.396-33.749l-122.652-70.344z" fill="#7777B9"/><path opacity=".714" d="M101.405 217.868c-10.257-5.98-60.685-19.935-60.685-8.116v86.72c0 11.819 4.132 33.606 14.388 39.586l163.108 94.125c10.256 5.981 23.932-3.56 23.932-15.379v-89.71c0-11.819-2.137-27.625-12.394-33.464l-128.349-73.762z" fill="#7373B6"/><path opacity=".762" d="M93.713 214.451c-10.257-5.981-53.562-16.803-53.562-4.984v86.293c0 11.819 4.843 32.324 15.1 38.305l162.965 93.982c10.256 5.981 23.077-2.848 23.077-14.524v-88.856c0-11.819-3.134-27.341-13.39-33.179l-134.19-77.037z" fill="#6F6EB3"/><path opacity=".809" d="M86.02 211.033c-10.256-5.98-46.582-13.67-46.582-1.851v85.866c0 11.819 5.556 31.043 15.813 37.023l162.822 93.84c10.257 5.981 22.08-1.993 22.08-13.812v-87.86c0-11.819-4.273-27.055-14.387-32.893L86.02 211.033z" fill="#6B6AB0"/><path opacity=".857" d="M78.47 207.616c-10.256-5.839-39.602-10.538-39.602 1.281v85.439c0 11.677 6.268 29.761 16.383 35.742l162.68 93.84c10.256 5.838 21.225-1.139 21.225-12.958v-87.005c0-11.677-5.27-26.771-15.527-32.752L78.47 207.616z" fill="#6765AC"/><path opacity=".905" d="M70.778 204.198c-10.257-5.838-32.48-7.404-32.48 4.272v85.154c0 11.677 6.838 28.479 17.095 34.46l162.538 93.698c10.256 5.838 20.371-.427 20.371-12.104V323.67c0-11.677-6.268-26.486-16.525-32.467l-151-87.005z" fill="#6361A9"/><path opacity=".952" d="M63.085 200.638c-10.256-5.838-25.498-4.272-25.498 7.405v84.727c0 11.676 7.55 27.197 17.806 33.178l162.253 93.555c10.257 5.839 19.373.428 19.373-11.391v-85.154c0-11.677-7.265-26.201-17.521-32.182L63.085 200.638z" fill="#5F5CA6"/><path d="M55.393 197.221c-10.257-5.839-18.519-1.139-18.519 10.537v84.3c0 11.676 8.262 26.058 18.519 31.897l162.111 93.555c10.256 5.838 18.518 1.139 18.518-10.538v-84.299c0-11.677-8.262-26.059-18.518-31.897L55.393 197.221z" fill="#5B58A3"/></g><path d="M54.68 176.431c-2.421-2.421-6.267-2.563-10.683 0-7.123 4.129-12.963 13.955-13.248 22.214v4.841c0 1.567-.143 123.317-.143 123.459 0 7.547-4.843 16.661-11.253 21.502 10.968 6.266 155.13 88.287 173.791 99.109 0 0 2.992 2.848 4.416 3.133.143 0 8.405 4.129 13.248 6.407v3.703c0 5.269 2.28 8.544 5.841 9.256.285 0 .57.142.855.142h.997c1.567-.142 3.419-.712 5.27-1.851 1.995-1.139 3.847-2.848 5.556-4.699 2.137-1.994 3.704-4.272 4.701-7.12 1.852-3.702 2.849-7.547 2.849-11.107 0 0 .142-1.424.142-2.99V316.265c.285-8.259 6.126-18.084 13.249-22.214 2.849-1.709 5.555-2.136 7.834-1.566L54.681 176.431z" fill="url(#paint52_linear_137_824)"/><path d="M118.927 285.65v-3.56l-27.351-15.522v3.56l27.351 15.522zm-73.506-80.882v3.56l82.765 47.276v-3.56l-82.765-47.276zm55.272 58.24l-55.272-31.754v3.56l55.272 31.754v-3.56zm-13.961-16.945l-41.31-23.638v3.56l41.31 23.78v-3.702zm3.419 2.136v3.56l80.201 45.567v-3.56l-80.2-45.567zm14.103 16.803v3.702l40.599 23.211v-3.56l-40.599-23.353zm44.018 28.907l51.567 29.049v-3.56l-51.567-29.049v3.56zm-60.258-29.334L45.421 239.94v3.56l42.593 24.635v-3.56zm34.331 23.068l28.064 15.949v-3.56l-28.064-15.949v3.56zm93.449-88.144v-3.56l-27.351-15.521v3.56l27.351 15.521zm-73.505-71.768v3.56l82.764 47.133v-3.56l-82.764-47.133zm55.271 49.127l-55.271-31.755v3.56l55.271 31.755v-3.56zm-13.96-16.945l-41.311-23.638v3.56l41.311 23.78v-3.702zm3.419 2.136v3.56l80.2 45.567v-3.56l-80.2-45.567zm14.103 16.803v3.702l40.598 23.211v-3.56l-40.598-23.353zm44.017 28.906l21.938 12.389v-3.56l-21.938-12.389v3.56zm-60.257-29.334l-42.593-24.635v3.56l42.593 24.635v-3.56zm34.331 23.069l28.063 15.948v-3.56l-28.063-15.948v3.56zm-3.419 44.285v-3.56l-27.351-15.521v3.56l27.351 15.521zm-18.234-22.641l-55.271-31.754v3.559l55.271 31.755v-3.56zm-13.96-16.945l-41.311-23.638v3.56l41.311 23.78v-3.702zm3.419 2.136v3.56l80.2 45.567v-3.56l-80.2-45.567zm14.103 16.803v3.702l40.598 23.211v-3.56l-40.598-23.353zm44.017 28.906l21.938 12.389v-3.56l-21.938-12.388v3.559zm-60.257-29.333l-42.593-24.635v3.56l42.593 24.634v-3.559zm34.331 23.068l28.063 15.949v-3.56l-28.063-15.949v3.56z" fill="#8D97D6"/><path d="M211.663 461.084c0-2.564.57-5.411 1.709-8.117L4.395 333.923l-1.852-1.14c-.997 2.706-1.567 5.411-1.567 7.975 0 4.414 2.422 7.404 4.701 8.686l209.547 119.614-.285-.143c-1.994-1.281-3.276-3.987-3.276-7.831z" fill="url(#paint53_linear_137_824)"/><path d="M139.725 389.173l-19.944-11.392v3.56l19.944 11.392v-3.56zm21.367 4.984l-41.311-23.781v3.56l41.311 23.781v-3.56zm-60.542-26.771l-55.271-31.755v3.56l55.271 31.755v-3.56zm-13.96-15.521l-41.311-23.638v3.56l41.311 23.638v-3.56zm56.553 39.301v3.56l40.599 23.211v-3.56l-40.599-23.211zm-57.978-87.717c-.712-2.42-2.136-4.556-4.13-6.265l-.855 1.424c1.851 1.566 2.991 3.56 3.418 5.269.855 3.132.428 6.265-.284 9.54a11.111 11.111 0 01-1.282-5.98c.284-.712.57-1.424.284-2.136 0-.428-.427-.57-.712-.712-.427 0-.712.284-.855.569-.142.57-.284 1.139-.284 1.709-.57.997-1.852 1.851-2.992 2.706-.427.284-.855.569-1.14.854-1.709 1.282-2.991 2.848-3.988 4.699-.713-.854-1.282-1.566-1.995-2.278-1.282-1.567-2.706-2.991-3.988-4.557-2.85-3.133-5.698-6.408-8.262-9.683-.285-1.566-.57-3.418-1.14-5.126-.285-1.424-1.425-5.411-5.556-6.408-.285 0-.57 0-.712.285-.142.142-.285.569-.142.854 1.282 3.987 3.419 7.689 5.983 11.249.57 3.845.57 7.263-.143 10.253-.712 3.275-2.137 6.265-4.273 8.829l.854 1.424A23.55 23.55 0 0057.957 310c.57-2.563.712-5.269.428-8.259 2.136 2.563 4.416 5.126 6.695 7.689 1.282 1.567 2.706 2.991 3.988 4.557a293.45 293.45 0 002.422 2.848c-.855 2.278-1.282 4.841-.997 7.547.57 4.841 2.849 9.398 5.128 13.812 1.14 2.136 2.707 3.418 4.416 3.418h.57c.285 0 .57-.285.712-.57 2.137-8.971-2.849-17.657-7.977-24.35.855-1.851 2.137-3.417 3.846-4.841.427-.285.712-.57 1.14-.854a10.778 10.778 0 001.994-1.567c.143 2.279 1.14 4.557 2.564 6.55.143.285.428.428.855.285.285 0 .57-.285.57-.569.997-3.845 1.994-8.117.854-12.247zM52.686 289.21c1.282.854 2.137 2.42 2.85 4.699.142.427.284.997.427 1.424-1.425-1.994-2.422-3.987-3.277-6.123zm27.209 50.693c-1.425-.142-2.28-1.566-2.85-2.421-2.136-4.271-4.415-8.686-4.985-13.385-.285-2.136 0-3.987.57-5.838 4.7 6.123 8.974 13.955 7.265 21.644zm49.146 23.638c.712 2.421 2.137 4.557 4.131 6.266l.855-1.424c-1.852-1.567-2.992-3.56-3.419-5.269-.855-3.133-.428-6.265.285-9.541a11.122 11.122 0 011.282 5.981c-.285.712-.57 1.424-.285 2.136 0 .427.427.57.712.712.427 0 .712-.285.855-.57.142-.569.285-1.139.285-1.708.569-.997 1.852-1.851 2.991-2.706.428-.285.855-.569 1.14-.854 1.709-1.282 2.991-2.848 3.988-4.699.713.854 1.283 1.566 1.995 2.278 1.282 1.566 2.706 2.99 3.988 4.557 2.849 3.132 5.699 6.408 8.263 9.683.285 1.566.569 3.417 1.139 5.126.285 1.424 1.425 5.411 5.556 6.408.285 0 .57 0 .712-.285.143-.142.285-.569.143-.854-1.282-3.987-3.419-7.69-5.983-11.25-.57-3.844-.57-7.262.142-10.252.712-3.275 2.137-6.266 4.274-8.829l-.855-1.424a23.55 23.55 0 00-4.986 9.968c-.57 2.563-.712 5.269-.427 8.259-2.137-2.563-4.416-5.126-6.695-7.689-1.283-1.567-2.707-2.991-3.989-4.557-.712-.855-1.567-1.851-2.422-2.848.855-2.279 1.282-4.842.997-7.547-.569-4.842-2.849-9.398-5.128-13.813-1.14-2.136-2.707-3.417-4.416-3.417h-.57c-.285 0-.57.284-.712.569-2.137 8.971 2.849 17.658 7.977 24.35-.854 1.851-2.137 3.418-3.846 4.842-.427.285-.712.569-1.14.854-.712.427-1.424.997-1.994 1.567-.142-2.279-1.139-4.557-2.564-6.551-.142-.285-.427-.427-.855-.285-.285 0-.57.285-.57.57-.997 3.987-1.994 8.259-.854 12.246zm32.479 14.382c-1.282-.854-2.137-2.42-2.849-4.699-.143-.427-.285-.996-.428-1.424 1.283 1.994 2.422 3.987 3.277 6.123zm-27.351-50.836c1.425.143 2.279 1.567 2.849 2.421 2.137 4.272 4.416 8.686 4.986 13.386.285 2.136 0 3.987-.57 5.838-4.701-6.123-8.832-13.813-7.265-21.645z" fill="#8D97D6"/><defs><linearGradient id="paint0_linear_137_824" x1="290.527" y1="338.008" x2="309.589" y2="380.8" gradientUnits="userSpaceOnUse"><stop stop-color="#7481CF"/><stop offset="1" stop-color="#7986D1"/></linearGradient><linearGradient id="paint1_linear_137_824" x1="246.891" y1="327.82" x2="272.941" y2="327.82" gradientUnits="userSpaceOnUse"><stop stop-color="#7784D0"/><stop offset="1" stop-color="#8490D9"/></linearGradient><linearGradient id="paint2_linear_137_824" x1="317.929" y1="354.07" x2="336.992" y2="396.861" gradientUnits="userSpaceOnUse"><stop stop-color="#7481CF"/><stop offset="1" stop-color="#7986D1"/></linearGradient><linearGradient id="paint3_linear_137_824" x1="274.293" y1="343.881" x2="300.343" y2="343.881" gradientUnits="userSpaceOnUse"><stop stop-color="#7784D0"/><stop offset="1" stop-color="#8490D9"/></linearGradient><linearGradient id="paint4_linear_137_824" x1="345.331" y1="398.209" x2="364.394" y2="441" gradientUnits="userSpaceOnUse"><stop stop-color="#7481CF"/><stop offset="1" stop-color="#7986D1"/></linearGradient><linearGradient id="paint5_linear_137_824" x1="301.695" y1="388.02" x2="327.745" y2="388.02" gradientUnits="userSpaceOnUse"><stop stop-color="#7784D0"/><stop offset="1" stop-color="#8490D9"/></linearGradient><linearGradient id="paint6_linear_137_824" x1="262.439" y1="382.396" x2="281.502" y2="425.188" gradientUnits="userSpaceOnUse"><stop stop-color="#7481CF"/><stop offset="1" stop-color="#7986D1"/></linearGradient><linearGradient id="paint7_linear_137_824" x1="218.803" y1="372.208" x2="244.853" y2="372.208" gradientUnits="userSpaceOnUse"><stop stop-color="#7784D0"/><stop offset="1" stop-color="#8490D9"/></linearGradient><linearGradient id="paint8_linear_137_824" x1="289.842" y1="398.458" x2="308.904" y2="441.249" gradientUnits="userSpaceOnUse"><stop stop-color="#7481CF"/><stop offset="1" stop-color="#7986D1"/></linearGradient><linearGradient id="paint9_linear_137_824" x1="246.206" y1="388.269" x2="272.256" y2="388.269" gradientUnits="userSpaceOnUse"><stop stop-color="#7784D0"/><stop offset="1" stop-color="#8490D9"/></linearGradient><linearGradient id="paint10_linear_137_824" x1="317.244" y1="414.519" x2="336.307" y2="457.311" gradientUnits="userSpaceOnUse"><stop stop-color="#7481CF"/><stop offset="1" stop-color="#7986D1"/></linearGradient><linearGradient id="paint11_linear_137_824" x1="273.608" y1="404.33" x2="299.658" y2="404.33" gradientUnits="userSpaceOnUse"><stop stop-color="#7784D0"/><stop offset="1" stop-color="#8490D9"/></linearGradient><linearGradient id="paint12_linear_137_824" x1="345.331" y1="370.131" x2="364.394" y2="412.923" gradientUnits="userSpaceOnUse"><stop stop-color="#7481CF"/><stop offset="1" stop-color="#7986D1"/></linearGradient><linearGradient id="paint13_linear_137_824" x1="301.695" y1="359.943" x2="327.745" y2="359.943" gradientUnits="userSpaceOnUse"><stop stop-color="#7784D0"/><stop offset="1" stop-color="#8490D9"/></linearGradient><linearGradient id="paint14_linear_137_824" x1="262.439" y1="354.319" x2="281.502" y2="397.11" gradientUnits="userSpaceOnUse"><stop stop-color="#7481CF"/><stop offset="1" stop-color="#7986D1"/></linearGradient><linearGradient id="paint15_linear_137_824" x1="218.803" y1="344.13" x2="244.853" y2="344.13" gradientUnits="userSpaceOnUse"><stop stop-color="#7784D0"/><stop offset="1" stop-color="#8490D9"/></linearGradient><linearGradient id="paint16_linear_137_824" x1="289.842" y1="370.38" x2="308.904" y2="413.172" gradientUnits="userSpaceOnUse"><stop stop-color="#7481CF"/><stop offset="1" stop-color="#7986D1"/></linearGradient><linearGradient id="paint17_linear_137_824" x1="246.206" y1="360.192" x2="272.256" y2="360.192" gradientUnits="userSpaceOnUse"><stop stop-color="#7784D0"/><stop offset="1" stop-color="#8490D9"/></linearGradient><linearGradient id="paint18_linear_137_824" x1="317.244" y1="386.442" x2="336.307" y2="429.233" gradientUnits="userSpaceOnUse"><stop stop-color="#7481CF"/><stop offset="1" stop-color="#7986D1"/></linearGradient><linearGradient id="paint19_linear_137_824" x1="273.608" y1="376.253" x2="299.658" y2="376.253" gradientUnits="userSpaceOnUse"><stop stop-color="#7784D0"/><stop offset="1" stop-color="#8490D9"/></linearGradient><linearGradient id="paint20_linear_137_824" x1="-97.772" y1="113.57" x2="426.803" y2="228.734" gradientUnits="userSpaceOnUse"><stop stop-color="#AFB6E5"/><stop offset=".145" stop-color="#B6BCE8"/><stop offset=".348" stop-color="#C8CDF1"/><stop offset=".581" stop-color="#E5E9FF"/><stop offset=".855" stop-color="#F5F6FF"/><stop offset="1" stop-color="#fff"/></linearGradient><linearGradient id="paint21_linear_137_824" x1="83.699" y1="17.823" x2="309.437" y2="357.396" gradientUnits="userSpaceOnUse"><stop offset=".005" stop-color="#273B98"/><stop offset=".227" stop-color="#2F2BA2"/><stop offset=".399" stop-color="#361CAC"/><stop offset=".768" stop-color="#440B89"/><stop offset="1" stop-color="#4E0070"/></linearGradient><linearGradient id="paint22_linear_137_824" x1="145.326" y1="-29.264" x2="329.421" y2="339.707" gradientUnits="userSpaceOnUse"><stop stop-color="#B3BAE7"/><stop offset=".192" stop-color="#B7BDE9"/><stop offset=".283" stop-color="#BAC0E9"/><stop offset=".409" stop-color="#AFB6E5"/><stop offset=".909" stop-color="#AFB6E5"/><stop offset="1" stop-color="#B3BAE7"/></linearGradient><linearGradient id="paint23_linear_137_824" x1="145.245" y1="-29.196" x2="329.329" y2="339.752" gradientUnits="userSpaceOnUse"><stop stop-color="#B4BBE8"/><stop offset=".192" stop-color="#B9BEEA"/><stop offset=".283" stop-color="#BCC2EA"/><stop offset=".409" stop-color="#B2B8E6"/><stop offset=".434" stop-color="#B2B8E6"/><stop offset=".535" stop-color="#B3B9E6"/><stop offset=".722" stop-color="#AFB6E5"/><stop offset=".909" stop-color="#AFB6E5"/><stop offset="1" stop-color="#B4BBE8"/></linearGradient><linearGradient id="paint24_linear_137_824" x1="145.165" y1="-29.128" x2="329.237" y2="339.798" gradientUnits="userSpaceOnUse"><stop stop-color="#B5BCE8"/><stop offset=".192" stop-color="#BAC0EA"/><stop offset=".283" stop-color="#BDC3EB"/><stop offset=".409" stop-color="#B4BBE7"/><stop offset=".434" stop-color="#B4BBE7"/><stop offset=".535" stop-color="#B7BDE7"/><stop offset=".722" stop-color="#AFB6E5"/><stop offset=".909" stop-color="#AFB6E5"/><stop offset="1" stop-color="#B5BCE8"/></linearGradient><linearGradient id="paint25_linear_137_824" x1="145.084" y1="-29.06" x2="329.146" y2="339.843" gradientUnits="userSpaceOnUse"><stop stop-color="#B7BDE9"/><stop offset=".192" stop-color="#BCC1EB"/><stop offset=".283" stop-color="#BFC5EC"/><stop offset=".409" stop-color="#B7BDE9"/><stop offset=".434" stop-color="#B7BDE9"/><stop offset=".535" stop-color="#BAC0E9"/><stop offset=".722" stop-color="#AFB6E5"/><stop offset=".909" stop-color="#AFB6E5"/><stop offset="1" stop-color="#B7BDE9"/></linearGradient><linearGradient id="paint26_linear_137_824" x1="145.004" y1="-28.993" x2="329.054" y2="339.888" gradientUnits="userSpaceOnUse"><stop stop-color="#B8BFE9"/><stop offset=".192" stop-color="#BDC3EC"/><stop offset=".283" stop-color="#C1C6EC"/><stop offset=".409" stop-color="#B9C0EA"/><stop offset=".434" stop-color="#B9C0EA"/><stop offset=".535" stop-color="#BEC4EA"/><stop offset=".722" stop-color="#AFB6E5"/><stop offset=".909" stop-color="#AFB6E5"/><stop offset="1" stop-color="#B8BFE9"/></linearGradient><linearGradient id="paint27_linear_137_824" x1="144.923" y1="-28.925" x2="328.962" y2="339.934" gradientUnits="userSpaceOnUse"><stop stop-color="#B9C0EA"/><stop offset=".192" stop-color="#BFC4ED"/><stop offset=".283" stop-color="#C2C8ED"/><stop offset=".409" stop-color="#BCC2EB"/><stop offset=".434" stop-color="#BCC2EB"/><stop offset=".535" stop-color="#C2C7EB"/><stop offset=".722" stop-color="#AFB6E5"/><stop offset=".909" stop-color="#AFB6E5"/><stop offset="1" stop-color="#B9C0EA"/></linearGradient><linearGradient id="paint28_linear_137_824" x1="144.843" y1="-28.857" x2="328.871" y2="339.979" gradientUnits="userSpaceOnUse"><stop stop-color="#BAC1EA"/><stop offset=".192" stop-color="#C0C6ED"/><stop offset=".283" stop-color="#C4C9EE"/><stop offset=".409" stop-color="#BEC4EC"/><stop offset=".434" stop-color="#BEC5EC"/><stop offset=".535" stop-color="#C6CBEC"/><stop offset=".698" stop-color="#B2B9E6"/><stop offset=".722" stop-color="#AFB6E5"/><stop offset=".909" stop-color="#AFB6E5"/><stop offset=".999" stop-color="#BAC1EA"/><stop offset="1" stop-color="#BAC1EA"/></linearGradient><linearGradient id="paint29_linear_137_824" x1="144.762" y1="-28.789" x2="328.779" y2="340.024" gradientUnits="userSpaceOnUse"><stop stop-color="#BCC2EB"/><stop offset=".192" stop-color="#C2C7EE"/><stop offset=".283" stop-color="#C6CBEF"/><stop offset=".409" stop-color="#C1C7ED"/><stop offset=".434" stop-color="#C1C7EE"/><stop offset=".535" stop-color="#CACEEE"/><stop offset=".677" stop-color="#B6BDE7"/><stop offset=".722" stop-color="#AFB6E5"/><stop offset=".909" stop-color="#AFB6E5"/><stop offset=".988" stop-color="#BAC0EA"/><stop offset="1" stop-color="#BCC2EB"/></linearGradient><linearGradient id="paint30_linear_137_824" x1="144.682" y1="-28.722" x2="328.687" y2="340.07" gradientUnits="userSpaceOnUse"><stop stop-color="#BDC3EC"/><stop offset=".192" stop-color="#C4C9EF"/><stop offset=".283" stop-color="#C7CDF0"/><stop offset=".409" stop-color="#C3C9EF"/><stop offset=".434" stop-color="#C4C9EF"/><stop offset=".535" stop-color="#CDD2EF"/><stop offset=".664" stop-color="#B9C0E8"/><stop offset=".722" stop-color="#AFB6E5"/><stop offset=".909" stop-color="#AFB6E5"/><stop offset=".984" stop-color="#BAC0EA"/><stop offset="1" stop-color="#BDC3EC"/></linearGradient><linearGradient id="paint31_linear_137_824" x1="144.601" y1="-28.654" x2="328.595" y2="340.115" gradientUnits="userSpaceOnUse"><stop stop-color="#BEC4EC"/><stop offset=".192" stop-color="#C5CAEF"/><stop offset=".283" stop-color="#C9CEF1"/><stop offset=".409" stop-color="#C6CBF0"/><stop offset=".434" stop-color="#C6CCF0"/><stop offset=".529" stop-color="#D0D4F0"/><stop offset=".535" stop-color="#D1D5F0"/><stop offset=".651" stop-color="#BDC3EA"/><stop offset=".722" stop-color="#AFB6E5"/><stop offset=".909" stop-color="#AFB6E5"/><stop offset=".98" stop-color="#BAC0EA"/><stop offset="1" stop-color="#BEC4EC"/></linearGradient><linearGradient id="paint32_linear_137_824" x1="144.521" y1="-28.586" x2="328.504" y2="340.16" gradientUnits="userSpaceOnUse"><stop stop-color="#BFC5ED"/><stop offset=".192" stop-color="#C7CCF0"/><stop offset=".283" stop-color="#CBD0F2"/><stop offset=".409" stop-color="#C8CEF1"/><stop offset=".434" stop-color="#C9CEF1"/><stop offset=".523" stop-color="#D3D7F1"/><stop offset=".535" stop-color="#D5D9F1"/><stop offset=".64" stop-color="#C1C7EB"/><stop offset=".722" stop-color="#AFB6E5"/><stop offset=".909" stop-color="#AFB6E5"/><stop offset=".976" stop-color="#BAC0EA"/><stop offset="1" stop-color="#BFC5ED"/></linearGradient><linearGradient id="paint33_linear_137_824" x1="144.44" y1="-28.518" x2="328.412" y2="340.206" gradientUnits="userSpaceOnUse"><stop stop-color="#C1C7ED"/><stop offset=".192" stop-color="#C8CDF1"/><stop offset=".283" stop-color="#CCD1F2"/><stop offset=".409" stop-color="#CBD0F2"/><stop offset=".434" stop-color="#CBD1F3"/><stop offset=".513" stop-color="#D5D9F3"/><stop offset=".535" stop-color="#D9DCF3"/><stop offset=".632" stop-color="#C5CAEC"/><stop offset=".722" stop-color="#AFB6E5"/><stop offset=".909" stop-color="#AFB6E5"/><stop offset=".97" stop-color="#BAC0EA"/><stop offset="1" stop-color="#C1C7ED"/></linearGradient><linearGradient id="paint34_linear_137_824" x1="144.359" y1="-28.451" x2="328.32" y2="340.251" gradientUnits="userSpaceOnUse"><stop stop-color="#C2C8EE"/><stop offset=".192" stop-color="#CACFF2"/><stop offset=".283" stop-color="#CED3F3"/><stop offset=".409" stop-color="#CDD3F3"/><stop offset=".434" stop-color="#CED3F4"/><stop offset=".509" stop-color="#D8DCF4"/><stop offset=".535" stop-color="#DDE0F4"/><stop offset=".625" stop-color="#C9CEEE"/><stop offset=".722" stop-color="#AFB6E5"/><stop offset=".909" stop-color="#AFB6E5"/><stop offset=".968" stop-color="#BAC0EA"/><stop offset="1" stop-color="#C2C8EE"/></linearGradient><linearGradient id="paint35_linear_137_824" x1="144.279" y1="-28.383" x2="328.229" y2="340.296" gradientUnits="userSpaceOnUse"><stop stop-color="#C3C9EE"/><stop offset=".192" stop-color="#CBD0F2"/><stop offset=".283" stop-color="#D0D4F4"/><stop offset=".409" stop-color="#D0D5F4"/><stop offset=".434" stop-color="#D0D6F5"/><stop offset=".502" stop-color="#DADEF5"/><stop offset=".535" stop-color="#E1E3F5"/><stop offset=".618" stop-color="#CDD1EF"/><stop offset=".722" stop-color="#AFB6E5"/><stop offset=".909" stop-color="#AFB6E5"/><stop offset=".966" stop-color="#BAC0EA"/><stop offset="1" stop-color="#C3C9EE"/></linearGradient><linearGradient id="paint36_linear_137_824" x1="144.198" y1="-28.316" x2="328.137" y2="340.341" gradientUnits="userSpaceOnUse"><stop stop-color="#C4CAEF"/><stop offset=".192" stop-color="#CDD2F3"/><stop offset=".283" stop-color="#D1D6F5"/><stop offset=".409" stop-color="#D2D7F6"/><stop offset=".434" stop-color="#D3D8F6"/><stop offset=".502" stop-color="#DDE1F6"/><stop offset=".535" stop-color="#E4E7F6"/><stop offset=".614" stop-color="#D0D5F0"/><stop offset=".722" stop-color="#AFB6E5"/><stop offset=".909" stop-color="#AFB6E5"/><stop offset=".964" stop-color="#BAC0EA"/><stop offset="1" stop-color="#C4CAEF"/></linearGradient><linearGradient id="paint37_linear_137_824" x1="144.118" y1="-28.248" x2="328.045" y2="340.387" gradientUnits="userSpaceOnUse"><stop stop-color="#C6CBF0"/><stop offset=".192" stop-color="#CFD3F4"/><stop offset=".283" stop-color="#D3D8F6"/><stop offset=".409" stop-color="#D5DAF7"/><stop offset=".434" stop-color="#D6DAF8"/><stop offset=".499" stop-color="#E0E3F8"/><stop offset=".535" stop-color="#E8EAF8"/><stop offset=".609" stop-color="#D4D8F1"/><stop offset=".722" stop-color="#AFB6E5"/><stop offset=".909" stop-color="#AFB6E5"/><stop offset=".96" stop-color="#BAC0EA"/><stop offset="1" stop-color="#C6CBF0"/></linearGradient><linearGradient id="paint38_linear_137_824" x1="144.037" y1="-28.181" x2="327.954" y2="340.432" gradientUnits="userSpaceOnUse"><stop stop-color="#C7CCF0"/><stop offset=".192" stop-color="#D0D5F4"/><stop offset=".283" stop-color="#D5D9F7"/><stop offset=".409" stop-color="#D7DCF8"/><stop offset=".434" stop-color="#D8DDF9"/><stop offset=".494" stop-color="#E2E6F9"/><stop offset=".535" stop-color="#ECEEF9"/><stop offset=".605" stop-color="#D8DCF3"/><stop offset=".722" stop-color="#AFB6E5"/><stop offset=".909" stop-color="#AFB6E5"/><stop offset=".958" stop-color="#BAC0EA"/><stop offset="1" stop-color="#C7CCF0"/></linearGradient><linearGradient id="paint39_linear_137_824" x1="143.956" y1="-28.113" x2="327.862" y2="340.477" gradientUnits="userSpaceOnUse"><stop stop-color="#C8CDF1"/><stop offset=".192" stop-color="#D2D6F5"/><stop offset=".283" stop-color="#D6DBF8"/><stop offset=".409" stop-color="#DADEF9"/><stop offset=".434" stop-color="#DBDFFA"/><stop offset=".492" stop-color="#E5E8FA"/><stop offset=".535" stop-color="#F0F1FA"/><stop offset=".601" stop-color="#DCDFF4"/><stop offset=".722" stop-color="#AFB6E5"/><stop offset=".909" stop-color="#AFB6E5"/><stop offset=".957" stop-color="#BAC0EA"/><stop offset="1" stop-color="#C8CDF1"/></linearGradient><linearGradient id="paint40_linear_137_824" x1="143.876" y1="-28.046" x2="327.77" y2="340.523" gradientUnits="userSpaceOnUse"><stop stop-color="#C9CFF1"/><stop offset=".192" stop-color="#D3D8F6"/><stop offset=".283" stop-color="#D8DCF8"/><stop offset=".409" stop-color="#DCE1FA"/><stop offset=".434" stop-color="#DDE2FB"/><stop offset=".488" stop-color="#E7EAFB"/><stop offset=".535" stop-color="#F4F5FB"/><stop offset=".598" stop-color="#E0E3F5"/><stop offset=".722" stop-color="#AFB6E5"/><stop offset=".909" stop-color="#AFB6E5"/><stop offset=".955" stop-color="#BAC0EA"/><stop offset="1" stop-color="#C9CFF1"/></linearGradient><linearGradient id="paint41_linear_137_824" x1="143.795" y1="-27.978" x2="327.678" y2="340.568" gradientUnits="userSpaceOnUse"><stop stop-color="#CBD0F2"/><stop offset=".192" stop-color="#D5D9F7"/><stop offset=".283" stop-color="#DADEF9"/><stop offset=".409" stop-color="#DFE3FC"/><stop offset=".434" stop-color="#E0E4FD"/><stop offset=".488" stop-color="#EAEDFD"/><stop offset=".535" stop-color="#F7F8FD"/><stop offset=".596" stop-color="#E3E6F6"/><stop offset=".719" stop-color="#B1B8E6"/><stop offset=".722" stop-color="#AFB6E5"/><stop offset=".909" stop-color="#AFB6E5"/><stop offset=".953" stop-color="#BAC0EA"/><stop offset="1" stop-color="#CBD0F2"/></linearGradient><linearGradient id="paint42_linear_137_824" x1="143.714" y1="-27.911" x2="327.587" y2="340.613" gradientUnits="userSpaceOnUse"><stop stop-color="#CCD1F2"/><stop offset=".192" stop-color="#D6DBF7"/><stop offset=".283" stop-color="#DBDFFA"/><stop offset=".409" stop-color="#E1E6FD"/><stop offset=".434" stop-color="#E2E7FE"/><stop offset=".485" stop-color="#ECEFFE"/><stop offset=".535" stop-color="#FBFCFE"/><stop offset=".593" stop-color="#E7EAF8"/><stop offset=".71" stop-color="#B5BBE7"/><stop offset=".722" stop-color="#AFB6E5"/><stop offset=".909" stop-color="#AFB6E5"/><stop offset=".951" stop-color="#BAC0EA"/><stop offset="1" stop-color="#CCD1F2"/></linearGradient><linearGradient id="paint43_linear_137_824" x1="143.633" y1="-27.844" x2="327.495" y2="340.659" gradientUnits="userSpaceOnUse"><stop stop-color="#CDD2F3"/><stop offset=".434" stop-color="#E5E9FF"/><stop offset=".483" stop-color="#EFF2FF"/><stop offset=".535" stop-color="#fff"/><stop offset=".591" stop-color="#EBEDF9"/><stop offset=".702" stop-color="#B9BFE8"/><stop offset=".722" stop-color="#AFB6E5"/><stop offset=".909" stop-color="#AFB6E5"/><stop offset=".95" stop-color="#BAC0EA"/><stop offset="1" stop-color="#CDD2F3"/></linearGradient><linearGradient id="paint44_linear_137_824" x1="123.223" y1="334.87" x2="239.949" y2="132.617" gradientUnits="userSpaceOnUse"><stop stop-color="#CED3F4"/><stop offset=".013" stop-color="#D3D8F7"/><stop offset=".056" stop-color="#E1E5FD"/><stop offset=".096" stop-color="#E5E9FF"/><stop offset=".253" stop-color="#EAEDFF"/><stop offset="1" stop-color="#fff"/></linearGradient><linearGradient id="paint45_linear_137_824" x1="84.026" y1="25.453" x2="240.091" y2="226.26" gradientUnits="userSpaceOnUse"><stop stop-color="#C049F4"/><stop offset="1" stop-color="#507BF5"/></linearGradient><linearGradient id="paint46_linear_137_824" x1="-9.262" y1="108.542" x2="89.169" y2="125.813" gradientUnits="userSpaceOnUse"><stop stop-color="#7481CF"/><stop offset="1" stop-color="#AFB6E5"/></linearGradient><linearGradient id="paint47_linear_137_824" x1="60.06" y1="45.471" x2="152.429" y2="139.312" gradientUnits="userSpaceOnUse"><stop stop-color="#7481CF"/><stop offset="1" stop-color="#AFB6E5"/></linearGradient><linearGradient id="paint48_linear_137_824" x1="110.383" y1="145.953" x2="192.271" y2="192.485" gradientUnits="userSpaceOnUse"><stop stop-color="#7481CF"/><stop offset="1" stop-color="#AFB6E5"/></linearGradient><linearGradient id="paint49_linear_137_824" x1="16.992" y1="61.341" x2="122.241" y2="184.51" gradientUnits="userSpaceOnUse"><stop offset=".005" stop-color="#273B98"/><stop offset=".227" stop-color="#2F2BA2"/><stop offset=".399" stop-color="#361CAC"/><stop offset=".768" stop-color="#440B89"/><stop offset="1" stop-color="#4E0070"/></linearGradient><linearGradient id="paint50_linear_137_824" x1="14.224" y1="206.561" x2="93.322" y2="88.247" gradientUnits="userSpaceOnUse"><stop stop-color="#8C97E5"/><stop offset=".286" stop-color="#A1ABEB"/><stop offset=".877" stop-color="#D9DEFB"/><stop offset="1" stop-color="#E5E9FF"/></linearGradient><linearGradient id="paint52_linear_137_824" x1="97.912" y1="385.019" x2="177.418" y2="247.258" gradientUnits="userSpaceOnUse"><stop stop-color="#CED3F4"/><stop offset=".013" stop-color="#D3D8F7"/><stop offset=".056" stop-color="#E1E5FD"/><stop offset=".096" stop-color="#E5E9FF"/><stop offset=".448" stop-color="#E8ECFF"/><stop offset=".719" stop-color="#F2F4FF"/><stop offset=".924" stop-color="#fff"/><stop offset="1" stop-color="#F5F7FF"/></linearGradient><linearGradient id="paint53_linear_137_824" x1="85.29" y1="441.16" x2="112.256" y2="395.202" gradientUnits="userSpaceOnUse"><stop stop-color="#CED3F4"/><stop offset=".022" stop-color="#D3D8F7"/><stop offset=".098" stop-color="#E1E5FD"/><stop offset=".167" stop-color="#E5E9FF"/><stop offset=".521" stop-color="#E8ECFF"/><stop offset=".794" stop-color="#F2F4FF"/><stop offset="1" stop-color="#fff"/></linearGradient><radialGradient id="paint51_radial_137_824" cx="0" cy="0" r="1" gradientUnits="userSpaceOnUse" gradientTransform="matrix(53.3035 0 0 53.2831 94.61 80.18)"><stop stop-color="#fff"/><stop offset="1"/></radialGradient></defs></svg>