<svg width="155" height="223" fill="none" xmlns="http://www.w3.org/2000/svg"><path opacity=".7" d="M135.553 223c10.621 0 19.231-5.1 19.231-11.392 0-6.291-8.61-11.392-19.231-11.392-10.621 0-19.231 5.101-19.231 11.392 0 6.292 8.61 11.392 19.231 11.392z" fill="url(#paint0_radial_45_1199)"/><path d="M140.681 203.634c2.28 4.272.713 9.541-3.561 11.819-4.273 2.278-9.544.712-11.823-3.56-2.28-4.272-.713-9.541 3.561-11.819 4.273-2.278 9.544-.712 11.823 3.56z" fill="#35004D"/><path d="M105.923 135.71l-18.946 10.253 35.328 65.076v.142c1.71 2.99 7.265 3.275 12.536.427s8.12-7.547 6.553-10.68v-.142l-35.471-65.076z" fill="url(#paint1_linear_45_1199)"/><path d="M105.923 135.71c1.709 2.991-1.282 7.832-6.553 10.68-5.27 2.848-10.826 2.706-12.535-.427-1.71-2.991 1.282-7.832 6.552-10.68 5.271-2.848 10.969-2.563 12.536.427z" fill="url(#paint2_linear_45_1199)"/><path d="M94.812 124.461l-11.254 6.123 6.695 12.246c.998 1.851 4.274 1.994 7.408.285 3.134-1.709 4.843-4.557 3.846-6.266l-6.695-12.388z" fill="url(#paint3_linear_45_1199)"/><path d="M5.21 43.437c0-31.043 21.937-43.432 48.86-27.91 27.066 15.663 48.862 53.399 48.862 84.299 0 31.043-21.938 43.431-48.861 27.91-26.924-15.521-48.862-53.257-48.862-84.3z" fill="url(#paint4_linear_45_1199)"/><path d="M31.848 58.388c-.855-1.566-1.282-3.133-1.282-4.984V41.158c0-1.851.427-2.99 1.282-3.56.855-.57 1.994-.427 3.561.57 1.567.854 2.707 2.136 3.562 3.56.854 1.566 1.282 3.133 1.282 4.984v12.246c0 1.851-.428 2.99-1.282 3.56-.855.57-1.995.427-3.562-.57-1.567-.854-2.706-2.136-3.561-3.56zm5.27-1.139V44.576c0-1.567-.57-2.563-1.709-3.275-1.14-.57-1.71-.143-1.71 1.281v12.673c0 1.567.57 2.564 1.71 3.276 1.14.712 1.71.285 1.71-1.282zm10.542-6.265l-3.276-1.852v-2.705c.854.57 1.567.854 2.136.997.57.142.998.142 1.283-.143.285-.285.57-.712.854-1.281l2.137 1.281v23.211l-3.134-1.851V50.984zm8.832 21.644c-.854-1.566-1.282-3.133-1.282-4.984V55.398c0-1.851.428-2.99 1.282-3.56.855-.57 1.995-.427 3.562.57 1.566.854 2.706 2.136 3.56 3.56.855 1.566 1.283 3.132 1.283 4.983v12.247c0 1.85-.428 2.99-1.282 3.56-.855.57-1.995.427-3.562-.57-1.566-.854-2.706-2.136-3.56-3.56zm5.27-1.14V58.816c0-1.566-.569-2.563-1.709-3.275-1.14-.57-1.709-.142-1.709 1.282v12.673c0 1.567.57 2.563 1.71 3.275 1.14.712 1.709.285 1.709-1.281zm10.4-6.407l-3.277-1.994v-2.42c.855.57 1.567.854 2.137.996.57.143.997.143 1.282-.142.285-.285.57-.712.855-1.282l2.137 1.282v23.21l-3.134-1.85v-17.8zM31.848 86.44c-.855-1.566-1.282-3.132-1.282-4.983V69.21c0-1.852.427-2.99 1.282-3.56.855-.57 1.994-.428 3.561.57 1.567.853 2.707 2.135 3.562 3.56.854 1.565 1.282 3.132 1.282 4.983V87.01c0 1.851-.428 2.99-1.282 3.56-.855.57-1.995.427-3.562-.57-1.567-.854-2.706-2.135-3.561-3.56zm5.27-1.139V72.628c0-1.566-.57-2.563-1.709-3.275-1.14-.57-1.71-.142-1.71 1.282v12.673c0 1.566.57 2.563 1.71 3.275 1.14.712 1.71.285 1.71-1.282zm6.981 8.259c-.855-1.566-1.282-3.132-1.282-4.983V76.33c0-1.85.427-2.99 1.282-3.56.855-.57 1.994-.427 3.561.57 1.567.854 2.707 2.136 3.562 3.56.854 1.566 1.282 3.133 1.282 4.984V94.13c0 1.851-.428 2.99-1.282 3.56-.855.57-1.995.427-3.562-.57a10.64 10.64 0 01-3.561-3.56zm5.27-1.139V79.748c0-1.566-.57-2.563-1.709-3.275-1.14-.57-1.71-.143-1.71 1.281v12.674c0 1.566.57 2.563 1.71 3.275 1.14.712 1.71.285 1.71-1.282zm10.542-6.408l-3.276-1.85v-2.564c.854.57 1.567.855 2.136.997.57.142.998.142 1.282-.142.285-.285.57-.712.855-1.282l2.137 1.282v23.21l-3.134-1.851v-17.8zm12.251 7.12l-3.277-1.85v-2.564c.855.57 1.567.854 2.137.997.57.142.997.142 1.282-.143.285-.284.57-.712.855-1.281l2.137 1.281v23.211l-3.134-1.851v-17.8z" fill="#fff"/><path d="M66.037 24.213v13.955l2.564 4.414v.285c0 1.424.997 3.275 2.279 3.987 1.282.712 2.28.142 2.28-1.282s-.998-3.275-2.28-3.987c-.285-.142-.427-.285-.712-.285L68.6 38.596V26.491c-.855-.854-1.71-1.566-2.564-2.278z" fill="url(#paint5_linear_45_1199)"/><path d="M84.983 45.857c-.143.143-.143.143 0 0l-8.975 5.127c-.142 0-.142-.143-.285-.143-1.282-.712-2.279-.142-2.279 1.282s.997 3.275 2.28 3.987c1.281.712 2.278.142 2.278-1.282 0-.285 0-.57-.142-.854l8.69-4.984c.142 0 .142-.142.142-.142-.427-.997-1.14-1.994-1.71-2.99z" fill="url(#paint6_linear_45_1199)"/><path d="M45.95 32.045l-4.273 2.42c-.285-.142-.427-.427-.712-.57-1.282-.711-2.28-.142-2.28 1.282s.998 3.276 2.28 3.988c1.282.712 2.28.142 2.28-1.282v-.285l5.127-2.848V12.679c-.854-.428-1.709-.712-2.421-.997v20.363z" fill="url(#paint7_linear_45_1199)"/><path d="M91.108 56.252l-5.413 3.133 4.416 7.547c0 .142-.142.427-.142.712 0 1.424.997 3.275 2.279 3.987 1.282.712 2.279.143 2.279-1.281s-.997-3.275-2.28-3.987c-.142 0-.142-.143-.284-.143l-2.707-4.699 3.561-1.994c-.712-1.139-1.14-2.136-1.709-3.275z" fill="url(#paint8_linear_45_1199)"/><path d="M54.07 31.617l6.126 10.68v.428c0 1.423.997 3.275 2.28 3.987 1.281.712 2.278.142 2.278-1.282s-.997-3.275-2.279-3.987c-.142-.142-.427-.142-.57-.285l-5.27-9.256v-14.81c-.855-.569-1.71-.996-2.564-1.565v16.09z" fill="url(#paint9_linear_45_1199)"/><path d="M22.019 55.968c1.282.711 2.279.142 2.279-1.282s-.997-3.275-2.28-3.987c-.712-.427-1.424-.427-1.851 0L5.209 42.013v2.848l14.815 8.543c.285.997 1.14 1.994 1.995 2.563z" fill="url(#paint10_linear_45_1199)"/><path d="M54.07 116.059l-6.125-10.68v-.427c0-1.424-.997-3.275-2.28-3.987-1.281-.712-2.278-.142-2.278 1.282s.997 3.275 2.279 3.987c.142.142.427.142.57.285l5.27 9.256v10.395c.855.569 1.71.996 2.565 1.566v-11.677z" fill="url(#paint11_linear_45_1199)"/><path d="M86.265 87.437c-1.282-.712-2.28-.142-2.28 1.282s.998 3.275 2.28 3.987c.712.427 1.424.427 1.852 0l14.957 8.686v-2.848l-14.815-8.543c-.427-1.14-1.14-2.136-1.994-2.564z" fill="url(#paint12_linear_45_1199)"/><path d="M86.122 68.783v-.57c0-1.423-.997-3.274-2.279-3.986-1.282-.712-2.28-.143-2.28 1.281s.998 3.275 2.28 3.987c.142.143.285.143.427.143l7.693 13.243 10.256 5.98c-.142-.996-.285-2.136-.569-3.132l-8.69-4.984-6.838-11.962z" fill="url(#paint13_linear_45_1199)"/><path d="M37.688 15.384l-6.837 3.845a1.966 1.966 0 00-.57-.427c-1.282-.712-2.28-.143-2.28 1.281s.998 3.275 2.28 3.987c1.282.712 2.28.143 2.28-1.281v-.427l7.692-4.415V9.831c-.855-.143-1.71-.428-2.565-.57v6.123z" fill="url(#paint14_linear_45_1199)"/><path d="M6.919 30.763l11.966 6.835 2.564-1.424c.142 0 .142.143.285.143 1.282.712 2.28.142 2.28-1.282s-.998-3.275-2.28-3.987c-1.282-.712-2.28-.142-2.28 1.282 0 .284 0 .57.143.854l-1.567.854-10.399-5.98c-.285.854-.427 1.566-.712 2.42-.143.143-.143.143 0 .285z" fill="url(#paint15_linear_45_1199)"/><path d="M83.416 126.882l-7.693-4.415c0-.142-.142-.285-.285-.427-.854-1.566-2.421-2.421-3.276-1.851-.855.569-.855 2.136 0 3.702.855 1.567 2.422 2.421 3.276 1.851.143-.142.285-.142.285-.284l6.553 3.702 2.28 3.987c.712-.285 1.281-.427 1.851-.712l-2.991-5.553z" fill="url(#paint16_linear_45_1199)"/><path d="M62.19 116.914l4.274-2.421c.285.142.427.427.712.569 1.282.712 2.28.143 2.28-1.281s-.998-3.275-2.28-3.987c-1.282-.712-2.28-.143-2.28 1.281v.285l-5.127 2.848v16.376c.854.427 1.709.712 2.421.997v-14.667z" fill="url(#paint17_linear_45_1199)"/><path d="M86.407 116.629c.285-.712 0-1.851-.57-2.99-.854-1.567-2.421-2.421-3.276-1.852-.855.57-.855 2.136 0 3.703.57.854 1.282 1.566 1.852 1.851l6.98 12.104c.57-.427 1.14-.855 1.567-1.282l-6.553-11.534z" fill="url(#paint18_linear_45_1199)"/><path d="M93.245 112.927v-6.978c.142 0 .427 0 .57-.142.854-.57.854-2.136 0-3.703-.855-1.566-2.422-2.42-3.277-1.851-.855.57-.855 2.136 0 3.702 0 .143.143.143.143.285v8.402l6.268 10.822a9.088 9.088 0 001.14-1.994l-4.844-8.543z" fill="url(#paint19_linear_45_1199)"/><path d="M17.175 87.01l5.414-3.133-4.416-7.547c0-.142.142-.427.142-.712 0-1.424-.997-3.275-2.28-3.987-1.281-.712-2.278-.142-2.278 1.282s.997 3.275 2.279 3.987c.142 0 .142.142.285.142l2.706 4.7-3.561 1.993c.57 1.282 1.14 2.278 1.71 3.275z" fill="url(#paint20_linear_45_1199)"/><path d="M11.477 56.252l6.838 11.82v.569c0 1.424.997 3.275 2.28 3.987 1.281.712 2.279.142 2.279-1.282s-.998-3.275-2.28-3.987c-.142-.142-.285-.142-.427-.142l-7.693-13.243-7.122-4.13c.142.997.142 1.994.285 3.133l5.84 3.275z" fill="url(#paint21_linear_45_1199)"/><path d="M42.105 119.192v-9.683l-2.565-4.414v-.285c0-1.424-.997-3.275-2.279-3.987-1.282-.712-2.28-.143-2.28 1.281s.998 3.275 2.28 3.987c.285.143.427.285.712.285l1.567 2.706v7.689c.855.997 1.71 1.709 2.565 2.421z" fill="url(#paint22_linear_45_1199)"/><path d="M16.178 14.387l5.128 8.829v.285c0 1.424.998 3.275 2.28 3.987 1.282.712 2.279.142 2.279-1.282s-.997-3.275-2.28-3.987c-.284-.142-.427-.285-.712-.285l-5.128-8.828c-.57.427-1.14.854-1.567 1.281z" fill="url(#paint23_linear_45_1199)"/><path d="M23.3 97.405l5.414-2.99c.143 0 .143.142.285.142 1.282.712 2.28.143 2.28-1.281s-.998-3.275-2.28-3.987c-1.282-.712-2.28-.143-2.28 1.281 0 .285 0 .57.143.855l-5.128 2.847c-.143 0-.143.143-.143.143.428 1.14.998 2.136 1.71 2.99z" fill="url(#paint24_linear_45_1199)"/><path d="M61.336 124.888C33.13 108.655 10.338 69.21 10.338 36.886c0-12.958 3.703-22.783 9.971-28.907C8.486 11.824.793 24.07.793 42.724c0 32.325 22.793 71.627 50.998 88.002 16.81 9.683 31.767 8.971 41.026-.142-8.547 2.848-19.515 1.281-31.481-5.696z" fill="url(#paint25_linear_45_1199)"/><path opacity=".3" d="M54.213 15.1C27.574-.28 5.922 11.966 5.922 42.581c0 30.616 21.652 67.781 48.291 83.303 26.639 15.379 48.291 3.133 48.291-27.483 0-30.615-21.653-67.924-48.291-83.303z" fill="url(#paint26_radial_45_1199)"/><path opacity=".5" d="M54.213 15.1C27.574-.28 5.922 11.966 5.922 42.581c0 30.616 21.652 67.781 48.291 83.303 26.639 15.379 48.291 3.133 48.291-27.483 0-30.615-21.653-67.924-48.291-83.303z" fill="url(#paint27_radial_45_1199)"/><path d="M62.618 7.552C48.8-.422 36.264-1.418 27.005 3.565c-.285.143-13.39 7.547-13.818 8.117 9.402-7.12 23.22-6.978 38.604 1.993 28.206 16.234 50.998 55.678 50.998 88.002 0 16.518-5.983 27.91-15.527 33.036.712-.142 1.567-.569 2.422-1.139.285-.142 9.259-5.553 9.544-5.696 8.832-5.411 14.245-16.66 14.245-32.324.143-32.324-22.65-71.768-50.855-88.002z" fill="url(#paint28_linear_45_1199)"/><path d="M51.791 13.675C23.586-2.558.793 10.4.793 42.725c0 32.324 22.793 71.626 50.998 88.001 28.206 16.234 50.998 3.275 50.998-29.049S79.997 30.051 51.791 13.675zm-.427 113.207C25.295 111.93 4.212 75.476 4.212 45.715c0-29.761 21.083-41.865 47.152-26.77 26.069 14.95 47.152 51.405 47.152 81.166 0 29.761-21.083 41.722-47.152 26.771z" fill="url(#paint29_linear_45_1199)"/><defs><linearGradient id="paint1_linear_45_1199" x1="106.084" y1="181.255" x2="125.022" y2="171.046" gradientUnits="userSpaceOnUse"><stop stop-color="#3B3ABA"/><stop offset=".143" stop-color="#564BD7"/><stop offset=".227" stop-color="#6152E3"/><stop offset=".399" stop-color="#4528C9"/><stop offset=".483" stop-color="#4221A9"/><stop offset=".574" stop-color="#401B8D"/><stop offset=".626" stop-color="#3F1982"/><stop offset=".869" stop-color="#5E239E"/><stop offset="1" stop-color="#491C8B"/></linearGradient><linearGradient id="paint2_linear_45_1199" x1="100.11" y1="125.736" x2="94.653" y2="148.155" gradientUnits="userSpaceOnUse"><stop stop-color="#3B3ABA"/><stop offset=".167" stop-color="#3F34BF"/><stop offset=".571" stop-color="#4528C9"/><stop offset=".594" stop-color="#472BCB"/><stop offset=".852" stop-color="#5A47DC"/><stop offset="1" stop-color="#6152E3"/></linearGradient><linearGradient id="paint3_linear_45_1199" x1="87.735" y1="138.322" x2="98.95" y2="132.276" gradientUnits="userSpaceOnUse"><stop stop-color="#7D88DB"/><stop offset=".076" stop-color="#ADBAFF"/><stop offset=".222" stop-color="#CED3F4"/><stop offset=".702" stop-color="#6573D6"/><stop offset=".796" stop-color="#707DDB"/><stop offset=".96" stop-color="#8D98E8"/><stop offset="1" stop-color="#959FEC"/></linearGradient><linearGradient id="paint4_linear_45_1199" x1="5.172" y1="43.447" x2="103.026" y2="43.447" gradientUnits="userSpaceOnUse"><stop offset=".005" stop-color="#273B98"/><stop offset=".227" stop-color="#2F2BA2"/><stop offset=".399" stop-color="#361CAC"/><stop offset=".768" stop-color="#440B89"/><stop offset="1" stop-color="#4E0070"/></linearGradient><linearGradient id="paint5_linear_45_1199" x1="78.142" y1="24.735" x2=".782" y2="74.337" gradientUnits="userSpaceOnUse"><stop offset=".005" stop-color="#B4F759"/><stop offset=".049" stop-color="#90ED6F"/><stop offset=".147" stop-color="#35D5A5"/><stop offset=".202" stop-color="#00C7C5"/><stop offset=".408" stop-color="#2D9BE0"/><stop offset=".596" stop-color="#5277F7"/><stop offset=".662" stop-color="#5B76F7"/><stop offset=".768" stop-color="#7374F6"/><stop offset=".902" stop-color="#9A70F4"/><stop offset="1" stop-color="#BB6DF3"/></linearGradient><linearGradient id="paint6_linear_45_1199" x1="89.245" y1="38.872" x2="6.534" y2="91.905" gradientUnits="userSpaceOnUse"><stop offset=".005" stop-color="#B4F759"/><stop offset=".049" stop-color="#90ED6F"/><stop offset=".147" stop-color="#35D5A5"/><stop offset=".202" stop-color="#00C7C5"/><stop offset=".408" stop-color="#2D9BE0"/><stop offset=".596" stop-color="#5277F7"/><stop offset=".662" stop-color="#5B76F7"/><stop offset=".768" stop-color="#7374F6"/><stop offset=".902" stop-color="#9A70F4"/><stop offset="1" stop-color="#BB6DF3"/></linearGradient><linearGradient id="paint7_linear_45_1199" x1="63.386" y1="3.35" x2="-16.996" y2="54.89" gradientUnits="userSpaceOnUse"><stop offset=".005" stop-color="#B4F759"/><stop offset=".049" stop-color="#90ED6F"/><stop offset=".147" stop-color="#35D5A5"/><stop offset=".202" stop-color="#00C7C5"/><stop offset=".408" stop-color="#2D9BE0"/><stop offset=".596" stop-color="#5277F7"/><stop offset=".662" stop-color="#5B76F7"/><stop offset=".768" stop-color="#7374F6"/><stop offset=".902" stop-color="#9A70F4"/><stop offset="1" stop-color="#BB6DF3"/></linearGradient><linearGradient id="paint8_linear_45_1199" x1="99.085" y1="54.158" x2="20.97" y2="104.245" gradientUnits="userSpaceOnUse"><stop offset=".005" stop-color="#B4F759"/><stop offset=".049" stop-color="#90ED6F"/><stop offset=".147" stop-color="#35D5A5"/><stop offset=".202" stop-color="#00C7C5"/><stop offset=".408" stop-color="#2D9BE0"/><stop offset=".596" stop-color="#5277F7"/><stop offset=".662" stop-color="#5B76F7"/><stop offset=".768" stop-color="#7374F6"/><stop offset=".902" stop-color="#9A70F4"/><stop offset="1" stop-color="#BB6DF3"/></linearGradient><linearGradient id="paint9_linear_45_1199" x1="71.272" y1="16.242" x2="-4.402" y2="64.764" gradientUnits="userSpaceOnUse"><stop offset=".005" stop-color="#B4F759"/><stop offset=".049" stop-color="#90ED6F"/><stop offset=".147" stop-color="#35D5A5"/><stop offset=".202" stop-color="#00C7C5"/><stop offset=".408" stop-color="#2D9BE0"/><stop offset=".596" stop-color="#5277F7"/><stop offset=".662" stop-color="#5B76F7"/><stop offset=".768" stop-color="#7374F6"/><stop offset=".902" stop-color="#9A70F4"/><stop offset="1" stop-color="#BB6DF3"/></linearGradient><linearGradient id="paint10_linear_45_1199" x1="61.673" y1="-9.071" x2="-26.58" y2="47.516" gradientUnits="userSpaceOnUse"><stop offset=".005" stop-color="#B4F759"/><stop offset=".049" stop-color="#90ED6F"/><stop offset=".147" stop-color="#35D5A5"/><stop offset=".202" stop-color="#00C7C5"/><stop offset=".408" stop-color="#2D9BE0"/><stop offset=".596" stop-color="#5277F7"/><stop offset=".662" stop-color="#5B76F7"/><stop offset=".768" stop-color="#7374F6"/><stop offset=".902" stop-color="#9A70F4"/><stop offset="1" stop-color="#BB6DF3"/></linearGradient><linearGradient id="paint11_linear_45_1199" x1="94.844" y1="57.973" x2="19.714" y2="106.146" gradientUnits="userSpaceOnUse"><stop offset=".005" stop-color="#B4F759"/><stop offset=".049" stop-color="#90ED6F"/><stop offset=".147" stop-color="#35D5A5"/><stop offset=".202" stop-color="#00C7C5"/><stop offset=".408" stop-color="#2D9BE0"/><stop offset=".596" stop-color="#5277F7"/><stop offset=".662" stop-color="#5B76F7"/><stop offset=".768" stop-color="#7374F6"/><stop offset=".902" stop-color="#9A70F4"/><stop offset="1" stop-color="#BB6DF3"/></linearGradient><linearGradient id="paint12_linear_45_1199" x1="113.585" y1="69.887" x2="25.332" y2="126.473" gradientUnits="userSpaceOnUse"><stop offset=".005" stop-color="#B4F759"/><stop offset=".049" stop-color="#90ED6F"/><stop offset=".147" stop-color="#35D5A5"/><stop offset=".202" stop-color="#00C7C5"/><stop offset=".408" stop-color="#2D9BE0"/><stop offset=".596" stop-color="#5277F7"/><stop offset=".662" stop-color="#5B76F7"/><stop offset=".768" stop-color="#7374F6"/><stop offset=".902" stop-color="#9A70F4"/><stop offset="1" stop-color="#BB6DF3"/></linearGradient><linearGradient id="paint13_linear_45_1199" x1="105.802" y1="59.687" x2="18.375" y2="115.743" gradientUnits="userSpaceOnUse"><stop offset=".005" stop-color="#B4F759"/><stop offset=".049" stop-color="#90ED6F"/><stop offset=".147" stop-color="#35D5A5"/><stop offset=".202" stop-color="#00C7C5"/><stop offset=".408" stop-color="#2D9BE0"/><stop offset=".596" stop-color="#5277F7"/><stop offset=".662" stop-color="#5B76F7"/><stop offset=".768" stop-color="#7374F6"/><stop offset=".902" stop-color="#9A70F4"/><stop offset="1" stop-color="#BB6DF3"/></linearGradient><linearGradient id="paint14_linear_45_1199" x1="55.981" y1="-8.221" x2="-26.07" y2="44.388" gradientUnits="userSpaceOnUse"><stop offset=".005" stop-color="#B4F759"/><stop offset=".049" stop-color="#90ED6F"/><stop offset=".147" stop-color="#35D5A5"/><stop offset=".202" stop-color="#00C7C5"/><stop offset=".408" stop-color="#2D9BE0"/><stop offset=".596" stop-color="#5277F7"/><stop offset=".662" stop-color="#5B76F7"/><stop offset=".768" stop-color="#7374F6"/><stop offset=".902" stop-color="#9A70F4"/><stop offset="1" stop-color="#BB6DF3"/></linearGradient><linearGradient id="paint15_linear_45_1199" x1="54.242" y1="-15.592" x2="-31.809" y2="39.582" gradientUnits="userSpaceOnUse"><stop offset=".005" stop-color="#B4F759"/><stop offset=".049" stop-color="#90ED6F"/><stop offset=".147" stop-color="#35D5A5"/><stop offset=".202" stop-color="#00C7C5"/><stop offset=".408" stop-color="#2D9BE0"/><stop offset=".596" stop-color="#5277F7"/><stop offset=".662" stop-color="#5B76F7"/><stop offset=".768" stop-color="#7374F6"/><stop offset=".902" stop-color="#9A70F4"/><stop offset="1" stop-color="#BB6DF3"/></linearGradient><linearGradient id="paint16_linear_45_1199" x1="119.86" y1="76.473" x2="32.904" y2="132.228" gradientUnits="userSpaceOnUse"><stop offset=".005" stop-color="#B4F759"/><stop offset=".049" stop-color="#90ED6F"/><stop offset=".147" stop-color="#35D5A5"/><stop offset=".202" stop-color="#00C7C5"/><stop offset=".408" stop-color="#2D9BE0"/><stop offset=".596" stop-color="#5277F7"/><stop offset=".662" stop-color="#5B76F7"/><stop offset=".768" stop-color="#7374F6"/><stop offset=".902" stop-color="#9A70F4"/><stop offset="1" stop-color="#BB6DF3"/></linearGradient><linearGradient id="paint17_linear_45_1199" x1="107.19" y1="66.091" x2="26.362" y2="117.916" gradientUnits="userSpaceOnUse"><stop offset=".005" stop-color="#B4F759"/><stop offset=".049" stop-color="#90ED6F"/><stop offset=".147" stop-color="#35D5A5"/><stop offset=".202" stop-color="#00C7C5"/><stop offset=".408" stop-color="#2D9BE0"/><stop offset=".596" stop-color="#5277F7"/><stop offset=".662" stop-color="#5B76F7"/><stop offset=".768" stop-color="#7374F6"/><stop offset=".902" stop-color="#9A70F4"/><stop offset="1" stop-color="#BB6DF3"/></linearGradient><linearGradient id="paint18_linear_45_1199" x1="114.485" y1="87.099" x2="44.584" y2="131.918" gradientUnits="userSpaceOnUse"><stop offset=".005" stop-color="#B4F759"/><stop offset=".049" stop-color="#90ED6F"/><stop offset=".147" stop-color="#35D5A5"/><stop offset=".202" stop-color="#00C7C5"/><stop offset=".408" stop-color="#2D9BE0"/><stop offset=".596" stop-color="#5277F7"/><stop offset=".662" stop-color="#5B76F7"/><stop offset=".768" stop-color="#7374F6"/><stop offset=".902" stop-color="#9A70F4"/><stop offset="1" stop-color="#BB6DF3"/></linearGradient><linearGradient id="paint19_linear_45_1199" x1="116.936" y1="83.263" x2="41.204" y2="131.821" gradientUnits="userSpaceOnUse"><stop offset=".005" stop-color="#B4F759"/><stop offset=".049" stop-color="#90ED6F"/><stop offset=".147" stop-color="#35D5A5"/><stop offset=".202" stop-color="#00C7C5"/><stop offset=".408" stop-color="#2D9BE0"/><stop offset=".596" stop-color="#5277F7"/><stop offset=".662" stop-color="#5B76F7"/><stop offset=".768" stop-color="#7374F6"/><stop offset=".902" stop-color="#9A70F4"/><stop offset="1" stop-color="#BB6DF3"/></linearGradient><linearGradient id="paint20_linear_45_1199" x1="68.47" y1="16.139" x2="-9.647" y2="66.226" gradientUnits="userSpaceOnUse"><stop offset=".005" stop-color="#B4F759"/><stop offset=".049" stop-color="#90ED6F"/><stop offset=".147" stop-color="#35D5A5"/><stop offset=".202" stop-color="#00C7C5"/><stop offset=".408" stop-color="#2D9BE0"/><stop offset=".596" stop-color="#5277F7"/><stop offset=".662" stop-color="#5B76F7"/><stop offset=".768" stop-color="#7374F6"/><stop offset=".902" stop-color="#9A70F4"/><stop offset="1" stop-color="#BB6DF3"/></linearGradient><linearGradient id="paint21_linear_45_1199" x1="65.129" y1="-1.776" x2="-21.395" y2="53.702" gradientUnits="userSpaceOnUse"><stop offset=".005" stop-color="#B4F759"/><stop offset=".049" stop-color="#90ED6F"/><stop offset=".147" stop-color="#35D5A5"/><stop offset=".202" stop-color="#00C7C5"/><stop offset=".408" stop-color="#2D9BE0"/><stop offset=".596" stop-color="#5277F7"/><stop offset=".662" stop-color="#5B76F7"/><stop offset=".768" stop-color="#7374F6"/><stop offset=".902" stop-color="#9A70F4"/><stop offset="1" stop-color="#BB6DF3"/></linearGradient><linearGradient id="paint22_linear_45_1199" x1="89.493" y1="47.61" x2="12.3" y2="97.106" gradientUnits="userSpaceOnUse"><stop offset=".005" stop-color="#B4F759"/><stop offset=".049" stop-color="#90ED6F"/><stop offset=".147" stop-color="#35D5A5"/><stop offset=".202" stop-color="#00C7C5"/><stop offset=".408" stop-color="#2D9BE0"/><stop offset=".596" stop-color="#5277F7"/><stop offset=".662" stop-color="#5B76F7"/><stop offset=".768" stop-color="#7374F6"/><stop offset=".902" stop-color="#9A70F4"/><stop offset="1" stop-color="#BB6DF3"/></linearGradient><linearGradient id="paint23_linear_45_1199" x1="49.943" y1="-14.987" x2="-29.826" y2="36.159" gradientUnits="userSpaceOnUse"><stop offset=".005" stop-color="#B4F759"/><stop offset=".049" stop-color="#90ED6F"/><stop offset=".147" stop-color="#35D5A5"/><stop offset=".202" stop-color="#00C7C5"/><stop offset=".408" stop-color="#2D9BE0"/><stop offset=".596" stop-color="#5277F7"/><stop offset=".662" stop-color="#5B76F7"/><stop offset=".768" stop-color="#7374F6"/><stop offset=".902" stop-color="#9A70F4"/><stop offset="1" stop-color="#BB6DF3"/></linearGradient><linearGradient id="paint24_linear_45_1199" x1="81.227" y1="26.665" x2="-1.263" y2="79.557" gradientUnits="userSpaceOnUse"><stop offset=".005" stop-color="#B4F759"/><stop offset=".049" stop-color="#90ED6F"/><stop offset=".147" stop-color="#35D5A5"/><stop offset=".202" stop-color="#00C7C5"/><stop offset=".408" stop-color="#2D9BE0"/><stop offset=".596" stop-color="#5277F7"/><stop offset=".662" stop-color="#5B76F7"/><stop offset=".768" stop-color="#7374F6"/><stop offset=".902" stop-color="#9A70F4"/><stop offset="1" stop-color="#BB6DF3"/></linearGradient><linearGradient id="paint25_linear_45_1199" x1="12.484" y1="16.025" x2="65.542" y2="138.923" gradientUnits="userSpaceOnUse"><stop stop-color="#7D88DB"/><stop offset=".106" stop-color="#ADBAFF"/><stop offset=".172" stop-color="#CED3F4"/><stop offset=".404" stop-color="#6573D6"/><stop offset=".702" stop-color="#6573D6"/><stop offset=".796" stop-color="#707DDB"/><stop offset=".96" stop-color="#8D98E8"/><stop offset="1" stop-color="#959FEC"/></linearGradient><linearGradient id="paint28_linear_45_1199" x1="40.54" y1="-.892" x2="104.935" y2="122.415" gradientUnits="userSpaceOnUse"><stop stop-color="#7D88DB"/><stop offset=".106" stop-color="#ADBAFF"/><stop offset=".172" stop-color="#CED3F4"/><stop offset=".404" stop-color="#6573D6"/><stop offset=".702" stop-color="#6573D6"/><stop offset=".796" stop-color="#707DDB"/><stop offset=".96" stop-color="#8D98E8"/><stop offset="1" stop-color="#959FEC"/></linearGradient><linearGradient id="paint29_linear_45_1199" x1="7.373" y1="86.569" x2="74.713" y2="64.827" gradientUnits="userSpaceOnUse"><stop stop-color="#8C97E5"/><stop offset=".286" stop-color="#A1ABEB"/><stop offset=".877" stop-color="#D9DEFB"/><stop offset="1" stop-color="#E5E9FF"/></linearGradient><radialGradient id="paint0_radial_45_1199" cx="0" cy="0" r="1" gradientUnits="userSpaceOnUse" gradientTransform="matrix(19.1732 0 0 11.3924 135.519 211.574)"><stop offset=".182" stop-color="#4D5A96"/><stop offset=".248" stop-color="#6A75A7"/><stop offset=".364" stop-color="#979FC2"/><stop offset=".481" stop-color="#BDC2D8"/><stop offset=".597" stop-color="#DADCE9"/><stop offset=".712" stop-color="#EEF0F5"/><stop offset=".825" stop-color="#FBFBFD"/><stop offset=".934" stop-color="#fff"/></radialGradient><radialGradient id="paint26_radial_45_1199" cx="0" cy="0" r="1" gradientUnits="userSpaceOnUse" gradientTransform="matrix(69.1496 0 0 69.1231 44.68 53.79)"><stop offset=".005" stop-color="#6CF"/><stop offset="1" stop-color="#5277F7"/></radialGradient><radialGradient id="paint27_radial_45_1199" cx="0" cy="0" r="1" gradientUnits="userSpaceOnUse" gradientTransform="matrix(69.1497 0 0 69.1232 44.416 54.316)"><stop offset=".672" stop-color="#fff"/><stop offset=".759" stop-color="#F9FAFE"/><stop offset=".876" stop-color="#E8EAFA"/><stop offset="1" stop-color="#CED3F4"/></radialGradient></defs></svg>