<svg width="291" height="450" fill="none" xmlns="http://www.w3.org/2000/svg"><g opacity=".2"><path opacity=".048" d="M47.13 324.301c2.565-1.423 5.984-2.42 9.26-2.42 2.85-.143 5.556.569 7.693 1.708.142 0 5.128 2.848 5.128 2.848l83.619 47.846 6.411 3.702 82.337 47.134c2.707 1.566 4.558 4.272 4.558 6.978.143 3.132-1.709 5.98-5.128 7.974l-7.55 3.844c-.142 0-6.268 3.133-6.41 3.133a20.236 20.236 0 01-9.26 2.279c-2.849 0-5.698-.712-7.692-1.994l-82.337-47.846-5.414-3.132-76.924-44.713c-2.706-1.567-4.558-4.13-4.558-6.978 0-2.99 1.567-5.98 4.7-7.832l.143-1.851c0-.284 1.282-10.68 1.425-10.68z" fill="#ABB2E2"/><path opacity=".095" d="M47.273 325.013c2.422-1.424 5.983-2.42 9.117-2.563 2.85-.142 5.556.427 7.693 1.567.142 0 5.128 2.705 5.128 2.848l83.192 47.56 6.268 3.56 82.052 46.849c2.564 1.424 4.559 4.13 4.701 6.835.143 2.991-1.567 5.981-4.986 7.975l-7.407 3.844c-.143.143-6.126 3.133-6.411 3.133-2.706 1.424-5.84 2.136-9.116 1.994-2.707 0-5.699-.855-7.55-1.994l-81.768-47.561-5.413-3.133-76.355-44.428c-2.564-1.424-4.7-4.129-4.7-6.835 0-2.848.997-5.98 4.13-7.689l.143-1.851c-.285.142.855-9.826 1.282-10.111z" fill="#A7ADDF"/><path opacity=".143" d="M47.273 325.868c2.28-1.282 5.983-2.421 8.975-2.706 2.849-.284 5.555.285 7.692 1.424.285 0 4.986 2.563 5.27 2.706l82.908 47.418 6.268 3.56 81.625 46.707c2.422 1.424 4.558 4.129 4.843 6.692.285 2.991-1.282 5.981-4.701 7.975l-7.265 3.844c-.285.143-5.983 2.991-6.268 2.991-2.706 1.281-5.84 1.993-8.974 1.851-2.564 0-5.698-.997-7.55-2.136l-81.198-47.134-5.413-3.132-76.212-44.001c-2.422-1.424-4.7-4.13-4.7-6.551 0-2.705.57-5.838 3.56-7.547v-1.709c-.57-.284.713-9.967 1.14-10.252z" fill="#A3A9DC"/><path opacity=".191" d="M47.416 326.722c2.136-1.281 5.983-2.421 8.832-2.705 2.706-.285 5.413.142 7.692 1.139.428 0 4.986 2.421 5.27 2.705l82.481 47.134 6.268 3.56 81.34 46.564c2.279 1.282 4.701 4.13 4.986 6.55.284 2.991-.998 5.839-4.559 7.832l-7.265 3.845c-.285.142-5.841 2.99-6.268 2.99-2.564 1.282-5.84 1.851-8.832 1.709-2.422 0-5.698-1.139-7.407-2.136l-80.771-46.849-5.413-3.133-75.357-43.716c-2.28-1.281-4.844-4.129-4.844-6.408 0-2.563.143-5.695 2.85-7.404l-.143-1.709c-.712-.285.427-9.541 1.14-9.968z" fill="#9FA4D8"/><path opacity=".238" d="M47.416 327.577c1.994-1.14 5.983-2.421 8.547-2.848 2.706-.428 5.413.142 7.55.996.427 0 4.843 2.421 5.27 2.564l82.053 46.991 6.268 3.56 80.913 46.279c2.136 1.282 4.701 4.13 4.985 6.408.428 2.848-.854 5.838-4.273 7.832l-7.123 3.987c-.427.285-5.84 2.848-6.268 2.848-2.564 1.281-5.698 1.709-8.689 1.566-2.279 0-5.698-1.281-7.265-2.278l-80.201-46.564-5.271-3.133-74.787-43.431c-2.137-1.282-4.986-4.13-4.986-6.266 0-2.42-.285-5.696 2.28-7.12l-.143-1.708c-.855-.285.285-9.114 1.14-9.683z" fill="#9BA0D5"/><path opacity=".286" d="M47.558 328.431c1.852-1.139 5.983-2.421 8.405-2.848 2.706-.427 5.413 0 7.55.854.57 0 4.843 2.279 5.27 2.421l81.768 46.849 6.268 3.56 80.628 46.137c1.994 1.139 4.843 4.129 5.128 6.265.427 2.848-.57 5.839-4.131 7.832l-7.123 3.987c-.427.285-5.698 2.848-6.267 2.848-2.565 1.139-5.699 1.709-8.548 1.424-2.136 0-5.698-1.424-7.265-2.278l-79.63-46.137-5.271-3.133-74.36-43.146c-1.994-1.139-4.986-4.13-4.986-6.123 0-2.279-.712-5.554 1.71-6.978l-.285-1.566c-.998-.855 0-9.398 1.14-9.968z" fill="#979BD2"/><path opacity=".333" d="M47.558 329.285c1.852-.996 5.983-2.42 8.262-2.99 2.565-.57 5.271-.142 7.55.712.713 0 4.701 2.136 5.271 2.421l81.34 46.564 6.126 3.56 80.2 45.994c1.852 1.139 5.271 4.13 5.271 5.981.997 2.705-.427 5.696-3.846 7.689l-6.98 3.988c-.57.284-5.556 2.705-6.268 2.705a15.379 15.379 0 01-8.405 1.139c-1.994 0-5.698-1.566-7.123-2.421l-79.061-45.709-5.27-2.99-73.79-42.72c-1.852-1.139-5.129-4.129-5.129-5.98 0-2.136-1.14-5.554.997-6.836l-.285-1.566c-1.14-.712-.142-8.829 1.14-9.541z" fill="#9397CF"/><path opacity=".381" d="M47.558 330.14c1.71-.997 6.126-2.563 8.12-2.991 2.564-.712 5.27-.284 7.55.428.712 0 4.7 1.993 5.27 2.278l81.056 46.422 6.125 3.56 79.916 45.709c1.709.997 5.413 4.13 5.413 5.838 1.14 2.706-.142 5.696-3.704 7.69l-6.98 3.987c-.57.427-5.413 2.563-6.125 2.706-2.564.996-5.556 1.424-8.262.996-1.852 0-5.699-1.708-7.123-2.42l-78.491-45.568-5.271-2.99-73.22-42.434c-1.71-.997-5.271-3.988-5.271-5.839 0-1.993-1.71-5.411.427-6.692l-.427-1.424c-1.282-.712-.285-8.544.997-9.256z" fill="#8F92CC"/><path opacity=".429" d="M47.7 330.852c1.567-.855 6.126-2.563 7.978-3.133 2.564-.712 5.128-.427 7.407.285.855 0 4.559 1.851 5.271 2.278l80.628 46.279 6.125 3.56 79.489 45.568c1.567.996 5.555 4.129 5.555 5.695 1.425 2.564 0 5.554-3.418 7.69l-6.838 3.987c-.712.427-5.271 2.563-6.126 2.563-2.564.997-5.555 1.282-8.119.855-1.71 0-5.841-1.852-6.98-2.564l-77.922-45.14-5.128-2.99-72.793-42.15c-1.567-.996-5.413-3.987-5.413-5.696 0-1.851-2.137-5.268-.143-6.407l-.427-1.424c-1.71-.855-.712-8.259.855-9.256z" fill="#8B8EC9"/><path opacity=".476" d="M47.7 331.706c1.425-.854 6.126-2.705 7.835-3.275 2.422-.854 5.129-.427 7.408.142.997 0 4.558 1.709 5.27 2.136l80.201 45.995 6.126 3.56 79.061 45.425c1.424.854 5.555 4.129 5.555 5.553 1.567 2.563.285 5.554-3.276 7.547l-6.838 3.987c-.855.428-5.128 2.421-6.125 2.563-2.564.855-5.413 1.14-7.978.712-1.567 0-5.84-1.993-6.837-2.563l-77.352-44.855-5.128-2.99-72.223-41.865c-1.425-.855-5.413-3.987-5.413-5.554 0-1.708-2.565-5.268-.713-6.265l-.57-1.424c-1.567-.712-.712-7.832.998-8.829z" fill="#8789C6"/><path opacity=".524" d="M47.843 332.561c1.282-.712 6.125-2.706 7.55-3.276 2.422-.854 5.128-.569 7.407 0 .998 0 4.559 1.567 5.271 1.994l79.916 45.852 6.125 3.418 78.776 45.14c1.282.712 5.698 4.129 5.698 5.411 1.71 2.42.57 5.553-2.991 7.547l-6.695 3.987c-.855.57-4.986 2.421-6.126 2.421-2.564.854-5.413.996-7.835.569-1.424 0-5.84-2.136-6.837-2.705l-76.782-44.428-5.128-2.991-71.654-41.437c-1.282-.712-5.555-3.988-5.555-5.412 0-1.566-2.992-5.126-1.425-6.123l-.57-1.281c-1.852-.855-1.14-7.547.855-8.686z" fill="#8385C2"/><path opacity=".571" d="M47.843 333.415c1.14-.712 6.125-2.848 7.407-3.418 2.28-.996 4.986-.712 7.408-.142 1.14 0 4.416 1.566 5.27 1.994l79.489 45.567 5.983 3.417 78.349 44.998c1.282.712 5.84 4.13 5.84 5.269 1.852 2.42.713 5.411-2.849 7.547l-6.695 3.987c-.997.57-4.843 2.278-6.125 2.421-2.565.712-5.271.854-7.693.284-1.282 0-5.84-2.278-6.695-2.705l-76.354-44.143-5.129-2.991-71.226-41.153c-1.282-.712-5.698-3.987-5.698-5.126 0-1.282-3.419-5.126-1.994-5.981l-.712-1.281c-1.425-.997-.57-7.263 1.424-8.544z" fill="#7F80BF"/><path opacity=".619" d="M47.986 334.269c.997-.569 6.125-2.848 7.265-3.417 2.279-.997 4.985-.855 7.265-.427 1.282 0 4.416 1.424 5.27 1.851l79.204 45.425 5.983 3.417 78.063 44.855c1.14.57 5.983 4.13 5.983 5.127 1.995 2.278.998 5.411-2.564 7.404l-6.552 3.987c-.998.57-4.844 2.136-5.983 2.279-2.565.712-5.271.854-7.55.142-1.14 0-5.841-2.421-6.696-2.848l-75.784-43.858-4.986-2.848-70.656-40.868c-1.14-.57-5.698-3.987-5.698-4.984 0-1.139-3.989-4.984-2.564-5.696l-.855-1.282c-2.137-.996-1.425-6.977.855-8.259z" fill="#7B7CBC"/><path opacity=".667" d="M47.986 335.124c.854-.57 6.125-2.991 7.122-3.56 2.137-1.139 4.986-.997 7.265-.57 1.282 0 4.274 1.282 5.27 1.851l78.777 45.283 5.983 3.417 77.636 44.571c.997.569 6.126 3.987 6.126 4.984 2.137 2.278 1.139 5.411-2.422 7.404l-6.553 3.988c-1.139.712-4.701 2.135-5.983 2.278-2.564.569-5.27.712-7.407 0-.997 0-5.841-2.563-6.553-2.848l-75.215-43.431-4.986-2.848-70.086-40.584c-.997-.569-5.84-3.987-5.84-4.841 0-.997-4.417-4.984-3.277-5.554l-.855-1.139c-2.136-1.281-1.424-6.977.998-8.401z" fill="#7777B9"/><path opacity=".714" d="M48.128 335.978c.712-.427 6.125-3.133 6.98-3.56 2.137-1.281 4.844-1.139 7.265-.712 1.425 0 4.274 1.139 5.27 1.709l78.492 44.998 5.983 3.417 77.352 44.428c.854.427 6.267 3.987 6.267 4.842 2.28 2.136 1.425 5.268-2.136 7.404l-6.411 3.988c-1.139.712-4.558 1.993-5.983 2.135-2.421.57-5.128.57-7.407-.142-.855 0-5.841-2.563-6.411-2.99l-74.644-43.147-4.986-2.848-69.66-40.156c-.854-.427-5.982-3.845-5.982-4.699 0-.854-4.844-4.841-3.847-5.411l-.997-1.139c-2.422-1.282-1.852-6.693.855-8.117z" fill="#7373B6"/><path opacity=".762" d="M48.128 336.832c.57-.427 5.983-3.702 6.838-3.702 2.279-.854 4.843-1.139 7.265-.854 1.567 0 4.13.997 5.27 1.709l78.064 44.855 5.983 3.417 76.924 44.144c.713.427 6.268 3.987 6.268 4.699 2.422 2.136 1.71 5.268-1.994 7.404l-6.268 3.988c-1.282.712-4.416 1.993-5.983 2.135-2.422.57-5.128.428-7.265-.284-.712 0-5.841-2.706-6.41-2.991l-74.076-42.719-4.985-2.848-69.09-39.871c-.712-.427-6.125-3.845-6.125-4.557 0-.712-5.27-4.699-4.416-5.269l-.997-1.139c-2.422-1.566-1.852-6.55.997-8.117z" fill="#6F6EB3"/><path opacity=".809" d="M48.128 337.544c.57-.284 5.983-3.844 6.553-3.844 2.137-.997 4.843-1.282 7.122-.997 1.567 0 4.131.854 5.271 1.566l77.636 44.713 5.983 3.418 76.64 44.001c.57.284 6.41 3.987 6.41 4.556 2.564 2.136 1.852 5.269-1.709 7.263l-6.268 4.129c-1.425.855-4.274 1.851-5.983 1.994-2.422.427-4.986.285-7.123-.57-.57 0-5.84-2.848-6.268-3.133l-73.505-42.434-4.843-2.848-68.52-39.587c-.57-.284-6.125-3.844-6.125-4.414 0-.57-5.698-4.699-5.129-4.984l-1.14-.997c-2.42-1.424-1.851-6.123.998-7.832z" fill="#6B6AB0"/><path opacity=".857" d="M48.27 338.399c.428-.285 5.983-3.845 6.41-3.845 2.138-.997 4.702-1.424 7.123-1.281 1.71 0 3.989.712 5.271 1.424l77.352 44.428 5.84 3.417 76.212 43.859c.427.284 6.553 3.987 6.553 4.414 2.706 1.994 2.137 5.126-1.567 7.262l-6.126 4.13c-1.424.854-4.131 1.851-5.84 1.993-2.422.428-4.986.143-6.98-.712-.428 0-5.841-2.99-6.268-3.132l-72.936-42.15-4.843-2.848-68.092-39.302c-.428-.285-6.268-3.845-6.268-4.272 0-.427-6.125-4.556-5.698-4.841l-1.14-.997c-2.706-1.424-2.137-5.696.997-7.547z" fill="#6765AC"/><path opacity=".905" d="M48.27 339.253c.285-.142 5.983-3.987 6.268-3.987 2.137-.997 4.701-1.566 7.123-1.424 1.852 0 3.989.712 5.27 1.424l76.925 44.286 5.84 3.417 75.785 43.574c.285.142 6.695 3.987 6.695 4.272 2.849 1.993 2.279 5.126-1.282 7.262l-6.125 4.13c-1.567.854-3.989 1.708-5.841 1.851-2.422.285-4.986 0-6.838-.855-.285 0-5.983-3.132-6.125-3.275l-72.366-41.722-4.843-2.848-67.523-38.875c-.284-.142-6.41-3.844-6.41-4.129 0-.285-6.695-4.557-6.268-4.699l-1.282-.855c-2.706-1.708-2.279-5.696.997-7.547z" fill="#6361A9"/><path opacity=".952" d="M48.413 340.108c.142-.143 5.983-3.988 6.125-3.988 1.995-1.139 4.701-1.708 7.123-1.566 1.852 0 3.989.57 5.27 1.282l76.64 44.143 5.84 3.417 75.5 43.432c.142.142 6.838 3.987 6.838 4.129 2.991 1.851 2.564 5.127-1.14 7.12l-5.983 4.13c-1.567.854-3.846 1.566-5.84 1.708-2.422.285-4.844-.142-6.696-.996-.142 0-5.983-3.275-5.983-3.418l-71.938-41.438-4.843-2.705-67.095-38.59c-.143-.142-6.41-3.845-6.41-3.987 0-.142-7.123-4.414-6.98-4.557l-1.283-.854c-3.134-1.709-2.706-5.269.855-7.262z" fill="#5F5CA6"/><path d="M211.663 442.492l-82.052-47.276-82.053-47.134c-3.134-1.851-2.706-4.984.855-7.12l5.983-4.13c3.704-2.136 9.117-2.278 12.393-.569l82.053 47.276 82.052 47.276c3.134 1.851 2.707 4.984-.855 7.12l-5.983 4.129c-3.703 1.994-9.259 2.279-12.393.428z" fill="#5B58A3"/></g><path d="M84.168 1.486c0 1.566-.142 217.868-.142 238.658v30.616c0 7.547-4.843 16.66-11.254 21.502 10.969 6.265 155.131 88.287 173.792 99.109h16.382v13.243c0 5.268 3.561 8.544 7.122 9.256.285 0 .57.142.855.142h.997c1.567-.142 3.419-.712 5.271-1.851 1.994-1.139 3.846-2.848 5.556-4.699 2.136-1.994 3.703-4.272 4.701-7.12 1.851-3.703 2.849-7.547 2.849-11.107V118.964L84.168 1.486z" fill="url(#paint0_linear_45_1038)"/><path d="M84.168 47.908l206.556 117.62V118.11L84.168.49c0-2.564-.142 132.999-.142 153.789v18.654c.142-33.179.142-149.803.142-125.025z" fill="url(#paint1_linear_45_1038)"/><path d="M234.313 313.479c0 .143 1.14.997 2.991 2.279v-.57c-1.851-1.139-2.991-1.709-2.991-1.709z" fill="#E6E7E8"/><g opacity=".5"><path opacity=".031" d="M51.547 14.444l.57.427C67.5 25.124 82.887 27.26 96.134 21.28c12.109 22.641 26.924 40.156 42.166 50.124l.57.427s-.285 4.842-.143 4.984l-1.709 29.619c-4.843 51.406-20.371 54.823-46.012 72.765l-.57-.427c-.57-1.282-1.14-2.421-1.71-3.56-1.281-2.563-2.42-5.126-3.56-7.689-20.229-42.577-32.764-66.358-33.762-117.194l.143-7.69V14.445z" fill="#FDFEFF"/><path opacity=".063" d="M51.832 15.583l.57.428c15.242 10.11 30.342 12.246 43.59 6.265 11.966 22.357 26.496 39.729 41.738 49.554l.57.428-.142 4.841-1.71 29.334c-4.701 50.836-20.085 54.396-45.584 72.053 0 0-.57-.427-.57-.285-.57-1.139-1.14-2.278-1.852-3.417-1.282-2.563-2.422-5.126-3.561-7.547-19.944-42.435-32.337-65.93-33.334-116.197 0-.142.142-7.547 0-7.69l.285-27.767z" fill="#FCFCFE"/><path opacity=".094" d="M52.259 16.865l.57.427c15.1 9.968 30.057 12.104 43.163 6.123 11.823 22.072 26.211 39.16 41.169 48.985l.569.427c.143 0-.142 4.7 0 4.7l-1.709 28.906c-4.701 50.409-19.801 53.826-45.015 71.341l-.57-.285c-.57-1.139-1.282-2.136-1.852-3.275-1.14-2.563-2.421-5.126-3.561-7.547-19.8-41.722-32.194-64.933-33.191-114.772v-7.547l.427-27.483z" fill="#FAFBFE"/><path opacity=".125" d="M52.686 18.146l.57.428c14.958 9.825 29.773 11.819 42.736 6.123 11.681 21.787 25.926 38.732 40.741 48.557l.57.428c.142.142 0 4.556 0 4.699l-1.709 28.622c-4.701 49.839-19.516 53.399-44.445 70.771l-.57-.285c-.57-.996-1.282-2.136-1.852-3.132-1.14-2.563-2.422-4.984-3.562-7.405-19.658-41.58-31.909-64.506-32.906-113.776V45.63l.427-27.482z" fill="#F9FAFE"/><path opacity=".156" d="M52.971 19.286l.57.427c14.815 9.54 29.488 11.677 42.166 5.98 11.539 21.504 25.641 38.307 40.171 47.99 0 0 .57.284.57.427.143.142 0 4.414.143 4.556l-1.71 28.338c-4.558 49.269-19.373 52.972-43.875 70.059l-.57-.285c-.57-.996-1.282-1.993-1.852-2.99-1.14-2.563-2.279-4.984-3.419-7.405C65.65 125.23 53.684 102.446 52.544 53.746V46.34l.427-27.055z" fill="#F7F8FD"/><path opacity=".188" d="M53.399 20.567s.57.285.57.427c14.672 9.399 29.06 11.392 41.738 5.981 11.396 21.217 25.356 37.735 39.744 47.419 0 0 .57.284.57.427.142.142 0 4.414.285 4.414l-1.71 27.91c-4.558 48.842-19.088 52.545-43.448 69.348l-.57-.285c-.57-.997-1.281-1.851-1.851-2.706l-3.42-7.262c-19.373-40.868-31.196-63.367-32.336-111.497v-7.405l.428-26.77z" fill="#F6F7FD"/><path opacity=".219" d="M53.826 21.849s.57.285.57.427c14.388 9.256 28.775 11.25 41.31 5.838 11.397 20.933 24.93 37.308 39.175 46.85 0 0 .57.284.57.426.143.143.143 4.272.285 4.415l-1.567 27.482c-4.558 48.273-18.804 52.118-42.878 68.778l-.57-.284c-.57-.855-1.282-1.709-1.852-2.563l-3.419-7.263c-19.23-40.441-30.912-62.797-32.051-110.5v-7.263l.427-26.343z" fill="#F4F5FD"/><path opacity=".25" d="M54.11 23.13s.57.285.57.428c14.246 9.113 28.491 11.107 40.884 5.695 11.254 20.648 24.645 36.74 38.747 46.422 0 0 .57.285.57.427.143.143.143 4.13.428 4.272l-1.71 27.056c-4.416 47.703-18.519 51.548-42.308 68.066l-.57-.285c-.57-.854-1.282-1.566-1.852-2.421-1.14-2.42-2.279-4.841-3.419-7.12-19.088-40.156-30.627-62.227-31.624-109.36v-7.263l.285-25.917z" fill="#F3F4FC"/><path opacity=".281" d="M54.538 24.27l.57.284c14.103 8.971 28.206 10.823 40.456 5.696 11.112 20.363 24.36 36.312 38.178 45.852 0 0 .427.285.569.427.285.143.285 3.988.428 4.13l-1.567 26.913c-4.416 47.134-18.234 51.121-41.739 67.354 0 0-.57-.284-.57-.142-.712-.712-1.281-1.566-1.994-2.278-1.14-2.421-2.279-4.7-3.276-7.12-18.946-39.729-30.343-61.659-31.34-108.222v-7.12l.285-25.774z" fill="#F1F3FC"/><path opacity=".313" d="M54.966 25.551l.57.285c13.96 8.829 27.778 10.68 40.028 5.554 10.969 20.078 24.075 35.741 37.75 45.282 0 0 .428.285.57.427.285.285.285 3.845.57 4.13l-1.709 26.486c-4.417 46.706-17.949 50.693-41.312 66.784 0 0-.57-.285-.57-.142-.712-.712-1.281-1.424-1.994-2.136-1.14-2.421-2.279-4.699-3.276-6.978-18.661-39.444-29.915-61.088-31.055-107.083v-6.977l.428-25.632z" fill="#F0F1FC"/><path opacity=".344" d="M55.25 26.833l.57.285c13.818 8.543 27.494 10.537 39.602 5.41 10.826 19.794 23.79 35.315 37.18 44.714 0 0 .427.284.57.284.285.285.427 3.845.712 3.987l-1.567 26.202c-4.273 46.136-17.664 50.266-40.741 66.072 0 0-.427-.142-.57-.142l-1.994-1.994c-1.14-2.421-2.137-4.699-3.277-6.835-18.519-38.874-29.63-60.234-30.77-105.659V52.18l.285-25.347z" fill="#EEF0FB"/><path opacity=".375" d="M55.678 27.972s.427.285.57.285c13.675 8.401 27.208 10.252 39.174 5.41 10.684 19.51 23.362 34.746 36.753 44.144 0 0 .427.285.57.285.284.285.427 3.702.712 3.987l-1.567 25.916c-4.274 45.568-17.379 49.84-40.172 65.503 0 0-.427-.142-.57-.142-.712-.57-1.282-1.139-1.994-1.709-1.14-2.278-2.137-4.557-3.276-6.835C67.5 126.084 56.533 104.867 55.393 60.011v-6.835l.285-25.204z" fill="#EDEFFB"/><path opacity=".406" d="M56.105 29.253s.428.285.57.285c13.533 8.26 26.924 10.11 38.747 5.269 10.542 19.224 23.077 34.318 36.325 43.716l.428.285c.285.285.427 3.56.854 3.845l-1.567 25.631c-4.273 44.998-17.094 49.412-39.601 64.791 0 0-.428-.142-.57-.142-.712-.57-1.282-1.139-1.994-1.567-1.14-2.278-2.137-4.556-3.134-6.692C67.786 126.226 56.96 105.151 55.82 60.866V54.03l.285-24.777z" fill="#EBEDFB"/><path opacity=".438" d="M56.39 30.535s.428.285.57.285c13.39 8.117 26.639 9.825 38.177 5.126 10.399 18.94 22.792 33.749 35.756 43.147l.427.284c.427.285.57 3.418.855 3.703l-1.567 25.204c-4.131 44.571-16.952 48.843-39.175 64.079 0 0-.427-.142-.57-.142-.712-.427-1.281-.997-1.994-1.424-1.14-2.279-2.136-4.557-3.134-6.693-18.091-38.02-28.775-58.81-29.915-102.526v-6.693l.57-24.35z" fill="#EAECFA"/><path opacity=".469" d="M56.818 31.817c.142 0 .427.284.57.284 13.247 7.975 26.21 9.684 37.75 5.127 10.256 18.654 22.507 33.32 35.327 42.577l.428.284c.427.285.569 3.276.997 3.703l-1.425 24.919c-4.131 44.001-16.667 48.416-38.604 63.51 0 0-.428-.143-.57-.143-.712-.427-1.425-.854-1.994-1.281-.998-2.279-2.137-4.415-3.134-6.551-17.95-37.735-28.348-58.24-29.63-101.387v-6.692l.285-24.35z" fill="#E8EAFA"/><path opacity=".5" d="M57.245 32.956c.142 0 .427.285.57.285 13.105 7.831 25.926 9.54 37.322 4.984 10.114 18.369 22.08 32.893 34.758 42.15l.428.284c.427.427.712 3.275 1.139 3.56l-1.567 24.635c-3.988 43.431-16.382 47.988-38.034 62.797 0 0-.428-.142-.57 0-.712-.427-1.425-.712-2.137-1.139-.997-2.278-2.137-4.414-3.134-6.55-17.806-37.309-28.063-57.671-29.202-100.248v-6.55l.427-24.208z" fill="#E7E9FA"/><path opacity=".531" d="M57.53 34.237c.142 0 .427.285.57.285 12.963 7.547 25.641 9.256 36.895 4.842 10.114 18.084 21.937 32.324 34.331 41.438l.427.284c.427.427.712 3.133 1.14 3.418l-1.425 24.207c-3.989 42.862-16.097 47.561-37.465 62.086-.142 0-.427-.143-.57 0-.712-.285-1.424-.57-2.136-.997-.998-2.136-1.995-4.414-2.992-6.408-17.522-37.023-27.778-57.101-28.918-99.109v-6.55l.143-23.496z" fill="#E5E8F9"/><path opacity=".563" d="M57.957 35.519c.143 0 .428.285.57.285 12.82 7.404 25.356 9.113 36.468 4.841 9.971 17.8 21.51 31.897 33.761 41.01l.427.286c.428.427.855 2.99 1.282 3.417l-1.424 23.923c-3.989 42.435-15.812 47.134-37.038 61.516h-.427c-.712-.285-1.425-.57-2.137-.712l-2.991-6.408c-17.38-36.596-27.494-56.532-28.633-97.97V59.3l.142-23.78z" fill="#E3E6F9"/><path opacity=".594" d="M58.385 36.658c.142 0 .427.285.57.285 12.535 7.262 24.928 8.829 36.04 4.7 9.829 17.372 21.225 31.327 33.333 40.44l.428.285c.427.427.855 2.848 1.282 3.275l-1.425 23.496c-3.846 41.864-15.527 46.564-36.467 60.803h-.428c-.712-.142-1.424-.427-2.136-.569-.998-2.136-1.995-4.272-2.992-6.266-17.237-36.311-27.066-55.962-28.348-96.972v-6.408l.143-23.069z" fill="#E2E5F8"/><path opacity=".625" d="M58.67 37.94c.142 0 .427.285.57.285 12.392 7.12 24.643 8.686 35.612 4.556 9.687 17.088 20.941 30.9 32.764 39.872.143 0 .428.284.428.284.569.428.854 2.706 1.424 3.133l-1.424 23.211c-3.847 41.295-15.243 46.137-35.898 60.092h-.428l-2.136-.427c-.998-2.136-1.995-4.272-2.992-6.266-17.094-35.884-26.781-55.393-28.063-95.834v-6.265l.142-22.641z" fill="#E0E3F8"/><path opacity=".656" d="M59.097 39.221c.142 0 .427.285.57.285 12.25 6.978 24.359 8.544 35.185 4.557 9.402 16.803 20.513 30.33 32.194 39.302.143 0 .285.284.428.284.57.428.997 2.706 1.567 3.133l-1.425 22.926c-3.846 40.726-14.957 45.71-35.328 59.522h-.427c-.713-.142-1.425-.142-2.137-.284-.997-2.136-1.994-4.13-2.992-6.123-16.951-35.6-26.496-54.681-27.778-94.695 0-1.14 0-4.984-.142-6.265l.285-22.642z" fill="#DFE2F8"/><path opacity=".688" d="M59.524 40.503c.142 0 .428.285.57.285 12.108 6.835 24.074 8.259 34.758 4.414 9.402 16.518 20.371 29.904 31.767 38.875.143 0 .285.284.427.284.57.428.998 2.564 1.567 2.99l-1.282 22.5c-3.703 40.298-14.815 45.282-34.9 58.81h-.428c-.712 0-1.424-.143-2.137-.143-.997-2.136-1.994-4.129-2.849-6.123-16.951-35.029-26.353-53.968-27.635-93.413 0-1.139 0-4.841-.143-6.123l.285-22.356z" fill="#DDE1F7"/><path opacity=".719" d="M59.952 41.642c.142 0 .427.285.57.285 11.965 6.693 23.646 8.117 34.188 4.414 9.259 16.233 19.943 29.334 31.339 38.305.143.143.285.285.428.285.569.57 1.139 2.42 1.709 2.848l-1.282 22.214c-3.704 39.729-14.53 44.855-34.331 58.098-.142 0-.427 0-.427.143h-2.137c-.997-1.994-1.852-3.988-2.85-5.981-16.524-34.888-25.926-53.542-27.208-92.416 0-1.282 0-4.7-.142-6.123l.143-22.072z" fill="#DCDFF7"/><path opacity=".75" d="M60.236 42.924c.143 0 .428.285.57.285 11.824 6.407 23.362 7.974 33.761 4.271 9.117 15.949 19.659 28.907 30.77 37.736.142.142.285.285.427.285.57.57 1.14 2.278 1.852 2.847l-1.282 21.93c-3.704 39.159-14.245 44.285-33.761 57.528-.142 0-.285 0-.427.143-.713 0-1.425.142-2.28.285-.997-1.994-1.852-3.988-2.849-5.981-16.524-34.603-25.641-53.114-26.923-91.42 0-1.281-.142-4.556-.142-5.98l.284-21.93z" fill="#DADEF7"/><path opacity=".781" d="M60.664 44.205c.142 0 .427.143.57.285 11.68 6.266 23.077 7.69 33.333 4.13 8.975 15.663 19.374 28.337 30.343 37.165.142.143.285.285.427.285.712.57 1.282 2.136 1.852 2.706l-1.282 21.502c-3.562 38.732-13.961 43.858-33.191 56.816-.143 0-.285 0-.428.143-.712.142-1.424.285-2.28.427-.996-1.994-1.851-3.987-2.848-5.838-16.24-34.176-25.214-52.403-26.496-90.138 0-1.424-.143-4.414-.143-5.98l.143-21.503z" fill="#D9DDF6"/><path opacity=".813" d="M61.091 45.344c.142 0 .427.143.57.285 11.538 6.123 22.792 7.547 32.906 4.13 8.832 15.379 19.089 27.91 29.773 36.596.142.142.285.285.427.285.712.57 1.282 2.136 1.995 2.705l-1.283 21.218c-3.561 38.162-13.675 43.431-32.763 56.104-.143.143-.285.143-.428.143-.712.142-1.567.427-2.28.569a106.437 106.437 0 01-2.706-5.838c-16.097-33.748-24.929-51.833-26.21-88.999 0-1.424-.143-4.272-.143-5.838l.142-21.36z" fill="#D7DBF6"/><path opacity=".844" d="M61.376 46.626c.142 0 .427.142.57.285 11.396 5.98 22.507 7.262 32.479 3.987 8.832 15.094 18.804 27.483 29.345 36.169.142.142.285.285.427.285.713.57 1.282 1.993 1.995 2.563l-1.282 20.79c-3.562 37.593-13.391 43.004-32.194 55.535-.143.142-.285.142-.428.142-.712.285-1.567.428-2.28.712-.854-1.993-1.851-3.844-2.706-5.695-15.954-33.464-24.644-51.264-25.926-87.86 0-1.424-.142-4.272-.142-5.696l.142-21.217z" fill="#D6DAF6"/><path opacity=".875" d="M61.803 47.908c.143 0 .285.142.428.284 11.253 5.839 22.08 7.12 32.051 3.845 8.69 14.81 18.519 26.913 28.776 35.6.142.142.285.284.427.284.712.57 1.425 1.851 2.137 2.421l-1.282 20.505c-3.419 37.024-13.106 42.577-31.624 54.823-.143.143-.285.143-.428.143-.712.285-1.567.569-2.28.854-.854-1.851-1.851-3.844-2.706-5.696-15.812-33.036-24.359-50.693-25.641-86.72 0-1.566-.143-4.13-.143-5.696l.285-20.647z" fill="#D4D9F5"/><path opacity=".906" d="M62.23 49.19c.143.142.286.142.428.284 11.111 5.696 21.795 6.978 31.624 3.845 8.548 14.524 18.092 26.486 28.348 35.03.143.142.285.284.428.284.712.712 1.424 1.71 2.279 2.421l-1.14 20.221c-3.418 36.596-12.82 42.149-31.054 54.253-.143.142-.285.142-.427.142-.713.285-1.567.712-2.28 1.14-.855-1.852-1.852-3.703-2.706-5.554-15.528-32.751-23.932-50.124-25.357-85.58 0-1.567-.142-3.988-.142-5.554V49.189z" fill="#D3D7F5"/><path opacity=".938" d="M62.516 50.328c.142.143.285.143.427.285 10.826 5.411 21.51 6.693 31.197 3.703 8.405 14.24 17.806 25.916 27.778 34.46.143.142.285.142.427.285.713.711 1.567 1.708 2.28 2.278l-1.14 19.793c-3.419 36.027-12.536 41.58-30.627 53.542-.143.142-.285.142-.428.284-.712.428-1.566.855-2.279 1.282l-2.564-5.553c-15.385-32.325-23.647-49.555-25.071-84.585 0-1.708-.143-3.844-.143-5.553l.143-20.22z" fill="#D1D6F5"/><path opacity=".969" d="M62.943 51.61c.142.142.285.142.427.285 10.684 5.268 21.226 6.55 30.628 3.56 8.262 13.955 17.521 25.489 27.35 33.89.143.143.285.143.285.285.855.712 1.567 1.567 2.422 2.136l-1.14 19.509c-3.276 35.457-12.393 41.152-30.057 52.829-.142.142-.285.142-.428.285-.712.427-1.566.854-2.421 1.424-.855-1.851-1.71-3.702-2.564-5.411-15.243-32.04-23.362-48.985-24.787-83.445 0-1.71-.142-3.703-.142-5.411l.427-19.936z" fill="#D0D4F4"/><path d="M63.085 72.542c.713 37.593 8.69 54.396 24.645 87.717.854 1.709 1.71 3.56 2.564 5.411.997-.569 1.852-1.281 2.849-1.851 17.379-11.534 26.211-17.23 29.487-52.26l1.14-19.223c-10.684-8.687-20.656-20.79-29.63-35.742-9.544 2.848-19.943 1.566-30.77-3.703l-.285 19.651z" fill="#CED3F4"/></g><path d="M130.465 82.368c-16.382-9.256-32.336-25.062-45.727-45.14l-.142-.143c-13.39 4.7-29.346 1.994-45.728-7.69l-.57-.284-6.98 6.408.428.285c16.382 9.683 32.337 12.246 45.727 7.69l.142.142c13.391 20.078 29.346 35.884 45.728 45.14l.569.285-.854 29.476c-1.995 28.479-9.545 39.302-21.795 47.133 15.242-8.971 26.781-21.359 29.06-53.541l.855-29.476-.713-.285z" fill="url(#paint2_linear_45_1038)"/><path d="M131.035 82.653l-.57-.285c-16.382-9.256-32.336-25.062-45.727-45.14l-.142-.143-7.123 6.266.142.142c13.391 20.078 29.346 35.884 45.728 45.14l.569.285 7.123-6.265z" fill="url(#paint3_linear_45_1038)"/><path d="M123.912 89.06l-.854 29.477c-1.995 28.479-9.545 39.302-21.795 47.133 15.242-8.971 26.781-21.359 29.06-53.541l.855-29.476-7.266 6.407z" fill="url(#paint4_linear_45_1038)"/><path d="M74.34 157.839c-20.23-33.464-30.343-50.267-32.765-87.005l-.57-19.224c12.963 5.838 25.357 7.69 36.61 5.553 11.112 15.095 23.648 27.626 36.611 36.739l-.57 18.654c-2.422 33.891-12.536 39.017-32.764 49.127-.997.57-2.137 1.139-3.276 1.567-1.14-1.851-2.28-3.703-3.277-5.411z" fill="url(#paint5_linear_45_1038)"/><path d="M31.034 35.377l.854 30.473c3.134 47.276 19.231 67.923 45.158 111.924l.57.427c25.926-13.955 42.165-15.948 45.157-59.664l.855-29.477-.57-.284c-16.382-9.256-32.337-25.062-45.727-45.14l-.143-.143c-13.39 4.7-29.345 1.994-45.727-7.69l-.427-.426zm9.971 16.233c12.963 5.838 25.357 7.69 36.61 5.553 11.112 15.095 23.648 27.626 36.611 36.74l-.57 18.653c-2.422 33.891-12.536 39.017-32.764 49.127-.997.57-2.137 1.14-3.276 1.567-1.14-1.851-2.137-3.56-3.277-5.411-20.228-33.464-30.342-50.267-32.764-87.005l-.57-19.224z" fill="url(#paint6_linear_45_1038)"/><path d="M93 105.436l-.427-.285V94.329c0-6.977-4.843-15.379-10.969-18.796l-7.55-4.415c-5.983-3.417-10.969-.712-10.969 6.266v10.822l-.427-.285c-2.849-1.566-5.128-.284-5.128 2.848v25.632c0 3.275 2.279 7.12 5.128 8.829l30.2 17.372c2.849 1.566 5.128.285 5.128-2.848v-25.631c.143-3.133-2.137-7.12-4.986-8.687zM79.895 118.11v8.401l-3.704-2.136v-8.401c-1.567-1.709-2.564-3.987-2.564-6.123 0-2.848 1.994-3.988 4.416-2.564 2.422 1.424 4.416 4.842 4.416 7.69 0 2.136-1.14 3.275-2.564 3.133zm6.41-16.661l-16.667-9.683v-8.544c0-3.987 2.85-5.553 6.268-3.56l4.274 2.421c3.418 1.994 6.268 6.835 6.268 10.68v8.686h-.143z" fill="#507BF5"/><path opacity=".5" d="M74.34 157.839c-20.23-33.464-30.343-50.267-32.765-87.005l-.57-19.224c12.963 5.838 25.357 7.69 36.61 5.553 11.112 15.095 23.648 27.626 36.611 36.739l-.57 18.654c-2.422 33.891-12.536 39.017-32.764 49.127-.997.57-2.137 1.139-3.276 1.567-1.14-1.851-2.28-3.703-3.277-5.411z" fill="url(#paint7_radial_45_1038)"/><g opacity=".3"><path opacity=".091" d="M74.197 154.563c-10.4-5.98-18.804-1.139-18.804 10.68v99.394c0 11.819 8.405 34.745 18.804 40.726l191.455 106.655c10.399 5.981 6.126-6.123 6.126-18.084V294.54c0-11.819-12.109-34.175-22.508-40.156L74.197 154.563z" fill="#A7ADDF"/><path opacity=".182" d="M74.909 156.13c-10.4-5.981-18.661-1.139-18.661 10.68v89.425c0 11.819 8.404 43.147 18.66 49.128l188.465 105.374c10.399 5.981 7.408-5.411 7.408-17.23v-89.568c0-11.819-11.824-42.577-22.08-48.558L74.909 156.13z" fill="#A0A5D9"/><path opacity=".273" d="M75.621 157.696c-10.256-5.98-18.661-1.139-18.661 10.68v79.458c0 11.819 8.405 51.548 18.661 57.529l185.615 103.95c10.257 5.981 8.69-4.699 8.69-16.518v-79.458c0-11.819-11.396-51.121-21.653-57.102L75.621 157.696z" fill="#989CD3"/><path opacity=".364" d="M76.334 159.263c-10.257-5.981-18.662-1.14-18.662 10.679v69.348c0 11.819 8.405 59.949 18.662 65.93l182.623 102.669c10.257 5.981 9.829-3.987 9.829-15.806v-69.348c0-11.819-10.968-59.522-21.368-65.503L76.334 159.263z" fill="#9094CD"/><path opacity=".455" d="M77.188 160.829c-10.256-5.981-18.661-1.139-18.661 10.68v59.38c0 11.819 8.405 68.35 18.661 74.331L256.82 406.465c10.257 5.981 11.112-3.275 11.112-15.094v-59.38c0-11.819-10.542-67.924-20.941-73.904L77.188 160.829z" fill="#898BC7"/><path opacity=".545" d="M77.9 162.395c-10.256-5.98-18.66-1.139-18.66 10.68v49.412c0 11.819 8.404 76.752 18.66 82.733l176.784 100.106c10.256 5.98 12.393-2.563 12.393-14.24v-49.412c0-11.819-10.257-76.468-20.513-82.306L77.9 162.395z" fill="#8183C1"/><path opacity=".636" d="M78.613 163.962c-10.257-5.981-18.661-1.139-18.661 10.537v39.444c0 11.819 8.262 85.154 18.66 90.992l173.792 98.682c10.257 5.981 13.533-1.709 13.533-13.528V350.93c0-11.819-9.829-84.869-20.085-90.85l-167.24-96.118z" fill="#7A7ABB"/><path opacity=".727" d="M79.467 165.528c-10.256-5.981-18.518-1.139-18.518 10.537v29.334c0 11.819 8.262 93.556 18.518 99.394l170.943 97.4c10.257 5.981 14.815-.997 14.815-12.816v-29.334c0-11.819-9.402-93.413-19.658-99.251l-166.1-95.264z" fill="#7272B5"/><path opacity=".818" d="M80.18 167.094c-10.257-5.98-18.52-1.139-18.52 10.538v19.508c0 11.819 8.263 101.957 18.52 107.795l167.951 96.119c10.256 5.981 16.097-.285 16.097-12.104v-19.366c0-11.819-9.117-101.814-19.374-107.653L80.18 167.094z" fill="#6A69AF"/><path opacity=".909" d="M80.892 168.661c-10.257-5.838-18.519-1.139-18.519 10.537v9.398c0 11.677 8.262 110.359 18.519 116.197l165.102 94.837c10.257 5.838 17.237.427 17.237-11.25v-9.398c0-11.676-8.69-110.216-18.946-116.196L80.892 168.661z" fill="#6361A9"/><path d="M81.747 170.227c-10.257-5.838-18.52-1.139-18.52 10.538v-.57c0 11.677 8.263 118.76 18.52 124.598l162.11 93.555c10.257 5.839 18.519 1.139 18.519-10.537v.569c0-11.676-8.262-118.759-18.519-124.598l-162.11-93.555z" fill="#5B58A3"/></g><path d="M264.228 404.756V278.877a318.888 318.888 0 01-.428-2.848c-.284-7.975-6.125-11.107-13.248-6.978-7.122 4.13-12.963 13.955-13.248 22.214v104.662c7.55 4.272 31.34 17.8 31.34 17.8v-.142c-2.707-1.282-4.416-4.272-4.416-8.829z" fill="#AFB6E5"/><g opacity=".3"><path opacity=".048" d="M208.672 241.141c-10.399-5.981-158.977-63.509-158.977-51.69v92.558c0 11.819-5.556 51.264 4.843 57.244l165.387 95.407c10.399 5.98 36.61-14.667 36.61-26.486V305.932c0-11.819 12.109-31.185 1.71-37.166l-49.573-27.625z" fill="#ABB2E2"/><path opacity=".095" d="M200.979 237.581c-10.399-5.98-151.854-60.376-151.854-48.557v92.131c0 11.819-4.843 49.982 5.556 55.962l165.244 95.264c10.399 5.981 35.756-13.812 35.756-25.774V305.363c0-11.819 11.111-30.901.712-36.881l-55.414-30.901z" fill="#A7ADDF"/><path opacity=".143" d="M193.287 234.164c-10.399-5.981-144.874-57.244-144.874-45.425v91.704c0 11.819-4.131 48.842 6.268 54.681l164.959 95.264c10.399 5.98 34.759-13.101 34.759-24.92V304.935c0-11.819 9.971-30.615-.285-36.596l-60.827-34.175z" fill="#A3A9DC"/><path opacity=".191" d="M185.594 230.746c-10.399-5.98-137.893-54.111-137.893-42.292v91.277c0 11.819-3.42 47.561 6.837 53.542l164.817 95.121c10.399 5.981 33.904-12.246 33.904-24.207v-99.536c0-11.819 8.975-30.474-1.282-36.312l-66.383-37.593z" fill="#9FA4D8"/><path opacity=".238" d="M178.044 227.329c-10.256-5.981-130.913-51.121-130.913-39.16v90.85c0 11.819-2.707 46.279 7.55 52.26l164.674 94.979c10.257 5.981 33.049-11.534 33.049-23.353v-98.682c0-11.819 7.978-30.188-2.279-36.169l-72.081-40.725z" fill="#9BA0D5"/><path opacity=".286" d="M170.352 223.911c-10.257-5.981-123.791-47.988-123.791-36.169v90.565c0 11.819-2.137 44.998 8.262 50.978l164.532 94.837c10.257 5.981 32.052-10.68 32.052-22.499v-97.827c0-11.819 6.98-29.903-3.276-35.884l-77.779-44.001z" fill="#979BD2"/><path opacity=".333" d="M162.659 220.494c-10.256-5.981-116.81-44.856-116.81-33.037v89.996c0 11.819-1.425 43.716 8.974 49.696l164.39 94.837c10.257 5.981 31.197-9.968 31.197-21.787v-96.83c0-11.819 5.983-29.619-4.274-35.599l-83.477-47.276z" fill="#9397CF"/><path opacity=".381" d="M154.967 216.934c-10.257-5.981-109.83-41.723-109.83-29.904v89.711c0 11.819-.713 42.434 9.686 48.415l164.248 94.694c10.256 5.981 30.342-9.113 30.342-20.932v-95.976c0-11.819 4.986-29.334-5.413-35.315l-89.033-50.693z" fill="#8F92CC"/><path opacity=".429" d="M147.417 213.516c-10.256-5.981-102.708-38.59-102.708-26.771v89.284c0 11.819 0 41.153 10.257 47.133l164.105 94.695c10.256 5.98 29.345-8.259 29.345-20.078v-95.264c0-11.819 3.988-29.05-6.411-35.03l-94.588-53.969z" fill="#8B8EC9"/><path opacity=".476" d="M139.725 210.099c-10.257-5.981-95.728-35.458-95.728-23.639v88.857c0 11.819.712 39.871 10.969 45.852l163.962 94.552c10.257 5.98 28.49-7.547 28.49-19.366V302.23c0-11.819 2.85-28.907-7.407-34.745l-100.286-57.386z" fill="#8789C6"/><path opacity=".524" d="M132.032 206.681c-10.256-5.981-88.748-32.324-88.748-20.505v88.429c0 11.819 1.425 38.589 11.682 44.57l163.82 94.41c10.256 5.98 27.493-6.693 27.493-18.512v-93.27c0-11.819 1.852-28.622-8.405-34.461l-105.842-60.661z" fill="#8385C2"/><path opacity=".571" d="M124.34 203.263c-10.257-5.98-81.768-29.191-81.768-17.515v88.002c0 11.819 2.137 37.451 12.394 43.289l163.535 94.41c10.256 5.98 26.638-5.981 26.638-17.8v-92.416c0-11.819.855-28.337-9.402-34.318L124.34 203.263z" fill="#7F80BF"/><path opacity=".619" d="M116.647 199.846c-10.256-5.981-74.645-26.059-74.645-14.382v87.574c0 11.819 2.707 36.169 12.964 42.008L218.5 409.313c10.256 5.981 25.784-5.126 25.784-16.945v-91.42c0-11.819-.143-28.052-10.399-34.033l-117.239-67.069z" fill="#7B7CBC"/><path opacity=".667" d="M109.097 196.286c-10.256-5.981-67.664-23.068-67.664-11.249v87.147c0 11.819 3.419 34.887 13.675 40.726l163.25 94.124c10.257 5.981 24.787-4.414 24.787-16.09v-90.565c0-11.819-1.14-27.768-11.396-33.749l-122.652-70.344z" fill="#7777B9"/><path opacity=".714" d="M101.405 192.868c-10.257-5.98-60.685-19.935-60.685-8.116v86.72c0 11.819 4.132 33.606 14.388 39.586l163.108 94.125c10.256 5.981 23.932-3.56 23.932-15.379v-89.71c0-11.819-2.137-27.625-12.394-33.464l-128.349-73.762z" fill="#7373B6"/><path opacity=".762" d="M93.713 189.451c-10.257-5.981-53.562-16.803-53.562-4.984v86.293c0 11.819 4.843 32.324 15.1 38.305l162.965 93.982c10.256 5.981 23.077-2.848 23.077-14.524v-88.856c0-11.819-3.134-27.341-13.39-33.179l-134.19-77.037z" fill="#6F6EB3"/><path opacity=".809" d="M86.02 186.033c-10.256-5.98-46.582-13.67-46.582-1.851v85.866c0 11.819 5.556 31.043 15.813 37.023l162.822 93.84c10.257 5.981 22.08-1.993 22.08-13.812v-87.86c0-11.819-4.273-27.055-14.387-32.893L86.02 186.033z" fill="#6B6AB0"/><path opacity=".857" d="M78.47 182.616c-10.256-5.839-39.602-10.538-39.602 1.281v85.439c0 11.677 6.268 29.761 16.383 35.742l162.68 93.84c10.256 5.838 21.225-1.139 21.225-12.958v-87.005c0-11.677-5.27-26.771-15.527-32.752L78.47 182.616z" fill="#6765AC"/><path opacity=".905" d="M70.778 179.198c-10.257-5.838-32.48-7.404-32.48 4.272v85.154c0 11.677 6.838 28.479 17.095 34.46l162.538 93.698c10.256 5.838 20.371-.427 20.371-12.104V298.67c0-11.677-6.268-26.486-16.525-32.467l-151-87.005z" fill="#6361A9"/><path opacity=".952" d="M63.085 175.638c-10.256-5.838-25.498-4.272-25.498 7.405v84.727c0 11.676 7.55 27.197 17.806 33.178l162.253 93.555c10.257 5.839 19.373.428 19.373-11.391v-85.154c0-11.677-7.265-26.201-17.521-32.182L63.085 175.638z" fill="#5F5CA6"/><path d="M55.393 172.221c-10.257-5.839-18.519-1.139-18.519 10.537v84.3c0 11.676 8.262 26.058 18.519 31.897l162.111 93.555c10.256 5.838 18.518 1.139 18.518-10.538v-84.299c0-11.677-8.262-26.059-18.518-31.897L55.393 172.221z" fill="#5B58A3"/></g><path d="M54.68 151.431c-2.421-2.421-6.267-2.563-10.683 0-7.123 4.129-12.963 13.955-13.248 22.214v4.841c0 1.567-.143 123.317-.143 123.459 0 7.547-4.843 16.661-11.253 21.502 10.968 6.266 155.13 88.287 173.791 99.109 0 0 2.992 2.848 4.416 3.133.143 0 8.405 4.129 13.248 6.407v3.703c0 5.269 2.28 8.544 5.841 9.256.285 0 .57.142.855.142h.997c1.567-.142 3.419-.712 5.27-1.851 1.995-1.139 3.847-2.848 5.556-4.699 2.137-1.994 3.704-4.272 4.701-7.12 1.852-3.702 2.849-7.547 2.849-11.107 0 0 .142-1.424.142-2.99V291.265c.285-8.259 6.126-18.084 13.249-22.214 2.849-1.709 5.555-2.136 7.834-1.566L54.681 151.431z" fill="url(#paint8_linear_45_1038)"/><path d="M118.927 260.65v-3.56l-27.351-15.522v3.56l27.351 15.522zm-73.506-80.882v3.56l82.765 47.276v-3.56l-82.765-47.276zm55.272 58.24l-55.272-31.754v3.56l55.272 31.754v-3.56zm-13.961-16.945l-41.31-23.638v3.56l41.31 23.78v-3.702zm3.419 2.136v3.56l80.201 45.567v-3.56l-80.2-45.567zm14.103 16.803v3.702l40.599 23.211v-3.56l-40.599-23.353zm44.018 28.907l51.567 29.049v-3.56l-51.567-29.049v3.56zm-60.258-29.334L45.421 214.94v3.56l42.593 24.635v-3.56zm34.331 23.068l28.064 15.949v-3.56l-28.064-15.949v3.56zm93.449-88.144v-3.56l-27.351-15.521v3.56l27.351 15.521zm-73.505-71.768v3.56l82.764 47.133v-3.56l-82.764-47.133zm55.271 49.127l-55.271-31.755v3.56l55.271 31.755v-3.56zm-13.96-16.945l-41.311-23.638v3.56l41.311 23.78v-3.702zm3.419 2.136v3.56l80.2 45.567v-3.56l-80.2-45.567zm14.103 16.803v3.702l40.598 23.211v-3.56l-40.598-23.353zm44.017 28.906l21.938 12.389v-3.56l-21.938-12.389v3.56zm-60.257-29.334l-42.593-24.635v3.56l42.593 24.635v-3.56zm34.331 23.069l28.063 15.948v-3.56l-28.063-15.948v3.56zm-3.419 44.285v-3.56l-27.351-15.521v3.56l27.351 15.521zm-18.234-22.641l-55.271-31.754v3.559l55.271 31.755v-3.56zm-13.96-16.945l-41.311-23.638v3.56l41.311 23.78v-3.702zm3.419 2.136v3.56l80.2 45.567v-3.56l-80.2-45.567zm14.103 16.803v3.702l40.598 23.211v-3.56l-40.598-23.353zm44.017 28.906l21.938 12.389v-3.56l-21.938-12.388v3.559zm-60.257-29.333l-42.593-24.635v3.56l42.593 24.634v-3.559zm34.331 23.068l28.063 15.949v-3.56l-28.063-15.949v3.56z" fill="#8D97D6"/><path d="M211.663 436.084c0-2.564.57-5.411 1.709-8.117L4.395 308.923l-1.852-1.14c-.997 2.706-1.567 5.411-1.567 7.975 0 4.414 2.422 7.404 4.701 8.686l209.547 119.614-.285-.143c-1.994-1.281-3.276-3.987-3.276-7.831z" fill="url(#paint9_linear_45_1038)"/><path d="M139.725 364.173l-19.944-11.392v3.56l19.944 11.392v-3.56zm21.367 4.984l-41.311-23.781v3.56l41.311 23.781v-3.56zm-60.542-26.771l-55.271-31.755v3.56l55.271 31.755v-3.56zm-13.96-15.521l-41.311-23.638v3.56l41.311 23.638v-3.56zm56.553 39.301v3.56l40.599 23.211v-3.56l-40.599-23.211zm-57.978-87.717c-.712-2.42-2.136-4.556-4.13-6.265l-.855 1.424c1.851 1.566 2.991 3.56 3.418 5.269.855 3.132.428 6.265-.284 9.54a11.111 11.111 0 01-1.282-5.98c.284-.712.57-1.424.284-2.136 0-.428-.427-.57-.712-.712-.427 0-.712.284-.855.569-.142.57-.284 1.139-.284 1.709-.57.997-1.852 1.851-2.992 2.706-.427.284-.855.569-1.14.854-1.709 1.282-2.991 2.848-3.988 4.699-.713-.854-1.282-1.566-1.995-2.278-1.282-1.567-2.706-2.991-3.988-4.557-2.85-3.133-5.698-6.408-8.262-9.683-.285-1.566-.57-3.418-1.14-5.126-.285-1.424-1.425-5.411-5.556-6.408-.285 0-.57 0-.712.285-.142.142-.285.569-.142.854 1.282 3.987 3.419 7.689 5.983 11.249.57 3.845.57 7.263-.143 10.253-.712 3.275-2.137 6.265-4.273 8.829l.854 1.424A23.55 23.55 0 0057.957 285c.57-2.563.712-5.269.428-8.259 2.136 2.563 4.416 5.126 6.695 7.689 1.282 1.567 2.706 2.991 3.988 4.557a293.45 293.45 0 002.422 2.848c-.855 2.278-1.282 4.841-.997 7.547.57 4.841 2.849 9.398 5.128 13.812 1.14 2.136 2.707 3.418 4.416 3.418h.57c.285 0 .57-.285.712-.57 2.137-8.971-2.849-17.657-7.977-24.35.855-1.851 2.137-3.417 3.846-4.841.427-.285.712-.57 1.14-.854a10.778 10.778 0 001.994-1.567c.143 2.279 1.14 4.557 2.564 6.55.143.285.428.428.855.285.285 0 .57-.285.57-.569.997-3.845 1.994-8.117.854-12.247zM52.686 264.21c1.282.854 2.137 2.42 2.85 4.699.142.427.284.997.427 1.424-1.425-1.994-2.422-3.987-3.277-6.123zm27.209 50.693c-1.425-.142-2.28-1.566-2.85-2.421-2.136-4.271-4.415-8.686-4.985-13.385-.285-2.136 0-3.987.57-5.838 4.7 6.123 8.974 13.955 7.265 21.644zm49.146 23.638c.712 2.421 2.137 4.557 4.131 6.266l.855-1.424c-1.852-1.567-2.992-3.56-3.419-5.269-.855-3.133-.428-6.265.285-9.541a11.122 11.122 0 011.282 5.981c-.285.712-.57 1.424-.285 2.136 0 .427.427.57.712.712.427 0 .712-.285.855-.57.142-.569.285-1.139.285-1.708.569-.997 1.852-1.851 2.991-2.706.428-.285.855-.569 1.14-.854 1.709-1.282 2.991-2.848 3.988-4.699.713.854 1.283 1.566 1.995 2.278 1.282 1.566 2.706 2.99 3.988 4.557 2.849 3.132 5.699 6.408 8.263 9.683.285 1.566.569 3.417 1.139 5.126.285 1.424 1.425 5.411 5.556 6.408.285 0 .57 0 .712-.285.143-.142.285-.569.143-.854-1.282-3.987-3.419-7.69-5.983-11.25-.57-3.844-.57-7.262.142-10.252.712-3.275 2.137-6.266 4.274-8.829l-.855-1.424a23.55 23.55 0 00-4.986 9.968c-.57 2.563-.712 5.269-.427 8.259-2.137-2.563-4.416-5.126-6.695-7.689-1.283-1.567-2.707-2.991-3.989-4.557-.712-.855-1.567-1.851-2.422-2.848.855-2.279 1.282-4.842.997-7.547-.569-4.842-2.849-9.398-5.128-13.813-1.14-2.136-2.707-3.417-4.416-3.417h-.57c-.285 0-.57.284-.712.569-2.137 8.971 2.849 17.658 7.977 24.35-.854 1.851-2.137 3.418-3.846 4.842-.427.285-.712.569-1.14.854-.712.427-1.424.997-1.994 1.567-.142-2.279-1.139-4.557-2.564-6.551-.142-.285-.427-.427-.855-.285-.285 0-.57.285-.57.57-.997 3.987-1.994 8.259-.854 12.246zm32.479 14.382c-1.282-.854-2.137-2.42-2.849-4.699-.143-.427-.285-.996-.428-1.424 1.283 1.994 2.422 3.987 3.277 6.123zm-27.351-50.836c1.425.143 2.279 1.567 2.849 2.421 2.137 4.272 4.416 8.686 4.986 13.386.285 2.136 0 3.987-.57 5.838-4.701-6.123-8.832-13.813-7.265-21.645z" fill="#8D97D6"/><defs><linearGradient id="paint0_linear_45_1038" x1="123.223" y1="309.87" x2="239.949" y2="107.617" gradientUnits="userSpaceOnUse"><stop stop-color="#CED3F4"/><stop offset=".013" stop-color="#D3D8F7"/><stop offset=".056" stop-color="#E1E5FD"/><stop offset=".096" stop-color="#E5E9FF"/><stop offset=".253" stop-color="#EAEDFF"/><stop offset="1" stop-color="#fff"/></linearGradient><linearGradient id="paint1_linear_45_1038" x1="84.026" y1=".453" x2="240.091" y2="201.26" gradientUnits="userSpaceOnUse"><stop stop-color="#C049F4"/><stop offset="1" stop-color="#507BF5"/></linearGradient><linearGradient id="paint2_linear_45_1038" x1="-9.262" y1="83.543" x2="89.169" y2="100.813" gradientUnits="userSpaceOnUse"><stop stop-color="#7481CF"/><stop offset="1" stop-color="#AFB6E5"/></linearGradient><linearGradient id="paint3_linear_45_1038" x1="60.06" y1="20.471" x2="152.429" y2="114.312" gradientUnits="userSpaceOnUse"><stop stop-color="#7481CF"/><stop offset="1" stop-color="#AFB6E5"/></linearGradient><linearGradient id="paint4_linear_45_1038" x1="110.383" y1="120.953" x2="192.271" y2="167.485" gradientUnits="userSpaceOnUse"><stop stop-color="#7481CF"/><stop offset="1" stop-color="#AFB6E5"/></linearGradient><linearGradient id="paint5_linear_45_1038" x1="16.992" y1="36.341" x2="122.241" y2="159.51" gradientUnits="userSpaceOnUse"><stop offset=".005" stop-color="#273B98"/><stop offset=".227" stop-color="#2F2BA2"/><stop offset=".399" stop-color="#361CAC"/><stop offset=".768" stop-color="#440B89"/><stop offset="1" stop-color="#4E0070"/></linearGradient><linearGradient id="paint6_linear_45_1038" x1="14.224" y1="181.561" x2="93.322" y2="63.247" gradientUnits="userSpaceOnUse"><stop stop-color="#8C97E5"/><stop offset=".286" stop-color="#A1ABEB"/><stop offset=".877" stop-color="#D9DEFB"/><stop offset="1" stop-color="#E5E9FF"/></linearGradient><linearGradient id="paint8_linear_45_1038" x1="97.912" y1="360.019" x2="177.418" y2="222.258" gradientUnits="userSpaceOnUse"><stop stop-color="#CED3F4"/><stop offset=".013" stop-color="#D3D8F7"/><stop offset=".056" stop-color="#E1E5FD"/><stop offset=".096" stop-color="#E5E9FF"/><stop offset=".448" stop-color="#E8ECFF"/><stop offset=".719" stop-color="#F2F4FF"/><stop offset=".924" stop-color="#fff"/><stop offset="1" stop-color="#F5F7FF"/></linearGradient><linearGradient id="paint9_linear_45_1038" x1="85.29" y1="416.16" x2="112.256" y2="370.202" gradientUnits="userSpaceOnUse"><stop stop-color="#CED3F4"/><stop offset=".022" stop-color="#D3D8F7"/><stop offset=".098" stop-color="#E1E5FD"/><stop offset=".167" stop-color="#E5E9FF"/><stop offset=".521" stop-color="#E8ECFF"/><stop offset=".794" stop-color="#F2F4FF"/><stop offset="1" stop-color="#fff"/></linearGradient><radialGradient id="paint7_radial_45_1038" cx="0" cy="0" r="1" gradientUnits="userSpaceOnUse" gradientTransform="matrix(53.3035 0 0 53.2831 94.61 55.18)"><stop stop-color="#fff"/><stop offset="1"/></radialGradient></defs></svg>