<svg width="40" height="40" viewBox="0 0 40 40" fill="none" xmlns="http://www.w3.org/2000/svg">
<g clip-path="url(#clip0_83_809)">
<path d="M19.4392 40.015L18.8633 39.7533C18.2222 39.465 3.25397 32.54 3.25397 20V9.12668C3.25454 8.0803 3.57738 7.06078 4.17653 6.2133C4.77568 5.36583 5.62058 4.73361 6.59091 4.40668L19.5238 0.0150146L32.4567 4.40668C33.427 4.73361 34.2719 5.36583 34.8711 6.2133C35.4702 7.06078 35.7931 8.0803 35.7937 9.12668V20C35.7937 34.295 20.6822 39.5917 20.0379 39.8117L19.4392 40.015ZM19.5238 3.51001L7.62079 7.55335C7.29693 7.66171 7.01486 7.87227 6.81495 8.15489C6.61505 8.43751 6.50758 8.77767 6.50794 9.12668V20C6.50794 29.1567 16.9857 35.0967 19.6003 36.435C22.21 35.36 32.5397 30.4383 32.5397 20V9.12668C32.54 8.77767 32.4326 8.43751 32.2327 8.15489C32.0328 7.87227 31.7507 7.66171 31.4268 7.55335L19.5238 3.51001Z" fill="#120B3E"/>
<path d="M18.0774 24.2367H18.0237C17.6119 24.2302 17.2057 24.1383 16.8296 23.9664C16.4534 23.7945 16.1152 23.5463 15.8354 23.2367L12.0836 19.2367L14.4281 16.9334L18.0791 20.8334L26.5085 12.1984L28.809 14.555L20.2495 23.3234C19.9644 23.6152 19.6256 23.8461 19.2528 24.0029C18.8799 24.1597 18.4804 24.2392 18.0774 24.2367Z" fill="#120B3E"/>
</g>
<defs>
<clipPath id="clip0_83_809">
<rect width="39.0476" height="40" fill="white"/>
</clipPath>
</defs>
</svg>
