<svg width="41" height="40" viewBox="0 0 41 40" fill="none" xmlns="http://www.w3.org/2000/svg">
<g clip-path="url(#clip0_78_813)">
<path d="M12.1667 20H20.5V23.3333H12.1667V20ZM28.8333 13.3333H12.1667V16.6667H28.8333V13.3333ZM28.8333 6.66667H12.1667V10H28.8333V6.66667ZM33.8333 32.4067V40L30.5 36.6667L27.1667 40V32.4067C25.8956 31.6764 24.9017 30.5462 24.3397 29.1923C23.7777 27.8383 23.6793 26.3365 24.0597 24.9208C24.44 23.505 25.2779 22.2548 26.4427 21.3648C27.6076 20.4748 29.0341 19.9949 30.5 20C31.0634 20.007 31.6236 20.0866 32.1667 20.2367V5C32.1667 4.55797 31.9911 4.13405 31.6785 3.82149C31.366 3.50893 30.942 3.33333 30.5 3.33333H10.5C10.058 3.33333 9.63405 3.50893 9.32149 3.82149C9.00893 4.13405 8.83333 4.55797 8.83333 5V33.3333H23.8333V36.6667H5.5V5C5.5 3.67392 6.02678 2.40215 6.96447 1.46447C7.90215 0.526784 9.17392 0 10.5 0L30.5 0C31.8261 0 33.0979 0.526784 34.0355 1.46447C34.9732 2.40215 35.5 3.67392 35.5 5V22.3033C36.1529 23.0365 36.6335 23.9064 36.9067 24.8493C37.1799 25.7922 37.2388 26.7843 37.079 27.7529C36.9192 28.7216 36.5448 29.6422 35.9832 30.4474C35.4216 31.2526 34.6871 31.922 33.8333 32.4067ZM33.8333 26.6667C33.8333 26.0074 33.6378 25.3629 33.2716 24.8148C32.9053 24.2666 32.3847 23.8394 31.7756 23.5871C31.1665 23.3348 30.4963 23.2688 29.8497 23.3974C29.2031 23.526 28.6092 23.8435 28.143 24.3096C27.6768 24.7758 27.3593 25.3698 27.2307 26.0164C27.1021 26.663 27.1681 27.3332 27.4204 27.9423C27.6727 28.5514 28.0999 29.072 28.6481 29.4382C29.1963 29.8045 29.8407 30 30.5 30C31.3841 30 32.2319 29.6488 32.857 29.0237C33.4821 28.3986 33.8333 27.5507 33.8333 26.6667Z" fill="#507BF5"/>
</g>
<defs>
<clipPath id="clip0_78_813">
<rect width="40" height="40" fill="white" transform="translate(0.5)"/>
</clipPath>
</defs>
</svg>
