<svg width="41" height="41" viewBox="0 0 41 41" fill="none" xmlns="http://www.w3.org/2000/svg">
<g clip-path="url(#clip0_62_945)">
<path d="M30.7015 14.4308C30.7015 15.5359 30.2625 16.5957 29.4811 17.3771C28.6997 18.1585 27.6399 18.5975 26.5349 18.5975C25.4298 18.5975 24.37 18.1585 23.5886 17.3771C22.8072 16.5957 22.3682 15.5359 22.3682 14.4308C22.3682 13.3257 22.8072 12.2659 23.5886 11.4845C24.37 10.7031 25.4298 10.2641 26.5349 10.2641C27.6399 10.2641 28.6997 10.7031 29.4811 11.4845C30.2625 12.2659 30.7015 13.3257 30.7015 14.4308ZM30.6915 25.8741C30.6 28.5222 29.9389 31.1195 28.7532 33.4891C27.6607 35.5551 26.0204 37.2802 24.0121 38.4754C22.0038 39.6705 19.7051 40.2894 17.3682 40.2641H15.7015V31.0975C15.6941 29.5527 15.0771 28.0732 13.9848 26.9809C12.8924 25.8885 11.413 25.2716 9.86819 25.2641H0.701527V23.5975C0.676296 21.2606 1.29518 18.9619 2.4903 16.9536C3.68541 14.9453 5.41057 13.3049 7.47653 12.2125C9.84614 11.0268 12.4434 10.3657 15.0915 10.2741C17.5196 7.13786 20.6378 4.60335 24.204 2.86734C27.7703 1.13134 31.6886 0.24055 35.6549 0.264128C36.3148 0.259958 36.9692 0.386099 37.5803 0.635321C38.1914 0.884543 38.7473 1.25194 39.2162 1.71645C39.685 2.18097 40.0576 2.73345 40.3125 3.34224C40.5674 3.95103 40.6996 4.60414 40.7015 5.26413C40.7298 9.23782 39.8413 13.1645 38.1052 16.739C36.3691 20.3135 33.8322 23.4395 30.6915 25.8741ZM4.17486 21.9308H7.94486C9.1826 19.1741 10.6366 16.5197 12.2932 13.9925C11.1425 14.2602 10.0276 14.663 8.97153 15.1925C7.70142 15.8631 6.60603 16.8219 5.77308 17.9921C4.94014 19.1622 4.39278 20.5111 4.17486 21.9308ZM26.9732 28.6725C24.4459 30.3291 21.7915 31.7831 19.0349 33.0208V36.7908C20.4545 36.5729 21.8035 36.0255 22.9736 35.1926C24.1437 34.3596 25.1025 33.2642 25.7732 31.9941C26.3027 30.9381 26.7055 29.8231 26.9732 28.6725ZM37.3682 5.21746C37.356 4.78357 37.1751 4.37154 36.8638 4.069C36.5526 3.76647 36.1356 3.59729 35.7015 3.59746C27.1015 3.84246 21.2849 7.13746 15.6715 14.9675C14.1051 17.2228 12.7276 19.6037 11.5532 22.0858C13.3731 22.4247 15.0477 23.3067 16.3566 24.6157C17.6656 25.9247 18.5476 27.5993 18.8865 29.4191C21.3686 28.2447 23.7495 26.8672 26.0049 25.3008C33.8282 19.6808 37.1232 13.8641 37.3682 5.21746ZM10.9049 30.0625C11.8361 31.0033 12.3585 32.2736 12.3585 33.5975C12.3585 34.9213 11.8361 36.1916 10.9049 37.1325C9.39319 38.6425 4.86819 39.5741 2.99153 39.9058L0.648193 40.3175L1.05986 37.9741C1.39319 36.0975 2.32319 31.5725 3.83319 30.0608C4.78611 29.1519 6.05249 28.645 7.36936 28.6453C8.68623 28.6456 9.95238 29.1531 10.9049 30.0625ZM9.03486 33.5975C9.03545 33.3785 8.9926 33.1616 8.90877 32.9594C8.82495 32.7571 8.70182 32.5735 8.54653 32.4191C8.23398 32.1067 7.81013 31.9311 7.36819 31.9311C6.92625 31.9311 6.50241 32.1067 6.18986 32.4191C5.55443 33.5662 5.10815 34.8083 4.86819 36.0975C6.15787 35.8565 7.4004 35.4097 8.54819 34.7741C8.70299 34.6198 8.82569 34.4364 8.90922 34.2345C8.99275 34.0325 9.03545 33.816 9.03486 33.5975Z" fill="#507BF5"/>
</g>
<defs>
<clipPath id="clip0_62_945">
<rect width="40" height="40" fill="white" transform="translate(0.701538 0.264099)"/>
</clipPath>
</defs>
</svg>
