<svg width="40" height="40" viewBox="0 0 40 40" fill="none" xmlns="http://www.w3.org/2000/svg">
<g clip-path="url(#clip0_77_809)">
<path d="M33.3333 6.66667H25C25 4.89856 24.2976 3.20286 23.0474 1.95262C21.7971 0.702379 20.1014 0 18.3333 0L6.66667 0C4.89856 0 3.20286 0.702379 1.95262 1.95262C0.702379 3.20286 0 4.89856 0 6.66667L0 38.3333C0 38.7754 0.175595 39.1993 0.488155 39.5118C0.800716 39.8244 1.22464 40 1.66667 40C2.10869 40 2.53262 39.8244 2.84518 39.5118C3.15774 39.1993 3.33333 38.7754 3.33333 38.3333V21.6667H16.6667C16.6667 23.4348 17.369 25.1305 18.6193 26.3807C19.8695 27.631 21.5652 28.3333 23.3333 28.3333H33.3333C35.1014 28.3333 36.7971 27.631 38.0474 26.3807C39.2976 25.1305 40 23.4348 40 21.6667V13.3333C40 11.5652 39.2976 9.86953 38.0474 8.61929C36.7971 7.36905 35.1014 6.66667 33.3333 6.66667ZM3.33333 18.3333V6.66667C3.33333 5.78261 3.68452 4.93476 4.30964 4.30964C4.93476 3.68452 5.78261 3.33333 6.66667 3.33333H18.3333C19.2174 3.33333 20.0652 3.68452 20.6904 4.30964C21.3155 4.93476 21.6667 5.78261 21.6667 6.66667V15C21.6667 15.8841 21.3155 16.7319 20.6904 17.357C20.0652 17.9821 19.2174 18.3333 18.3333 18.3333H3.33333ZM36.6667 21.6667C36.6667 22.5507 36.3155 23.3986 35.6904 24.0237C35.0652 24.6488 34.2174 25 33.3333 25H23.3333C22.4493 25 21.6014 24.6488 20.9763 24.0237C20.3512 23.3986 20 22.5507 20 21.6667V21.43C21.4269 21.0616 22.6915 20.2308 23.5962 19.0674C24.5008 17.904 24.9945 16.4737 25 15V10H33.3333C34.2174 10 35.0652 10.3512 35.6904 10.9763C36.3155 11.6014 36.6667 12.4493 36.6667 13.3333V21.6667Z" fill="#507BF5"/>
</g>
<defs>
<clipPath id="clip0_77_809">
<rect width="40" height="40" fill="white"/>
</clipPath>
</defs>
</svg>
