<svg width="24" height="24" viewBox="0 0 24 24" fill="none" xmlns="http://www.w3.org/2000/svg">
<g clip-path="url(#clip0_79_819)">
<path d="M1.97812 24C1.63242 23.8655 1.25472 23.7823 0.94744 23.5902C0.403295 23.238 0.0896115 22.7065 0.0383978 22.0534C-0.0320209 21.1441 -0.0192175 20.2412 0.300868 19.3703C0.755389 18.1345 1.57481 17.2188 2.73992 16.6169C4.1547 15.8933 5.62069 15.317 7.15069 14.8879C7.65003 14.7471 7.86769 14.8559 8.04693 15.349C8.73832 17.27 9.4233 19.1974 10.1147 21.1185C10.1403 21.1889 10.1659 21.2593 10.2171 21.3938C10.3195 20.8879 10.4092 20.4461 10.4988 20.0043C10.614 19.4151 10.7421 18.826 10.8445 18.2369C10.8701 18.1089 10.8637 17.9552 10.8189 17.8271C10.5116 16.8858 10.1915 15.9509 9.89062 15.0032C9.83941 14.8431 9.83301 14.6382 9.88422 14.4845C9.97385 14.222 10.2171 14.1643 10.4796 14.1708C11.3758 14.1708 12.2785 14.1708 13.1747 14.1708C13.3027 14.1708 13.4244 14.1708 13.5524 14.1708C14.0581 14.1836 14.2822 14.4973 14.1222 14.9904C13.9429 15.5411 13.7573 16.0854 13.578 16.6361C13.4628 16.9819 13.3539 17.334 13.2259 17.6798C13.1363 17.9167 13.1299 18.1409 13.1811 18.3842C13.3796 19.3255 13.5588 20.2668 13.7509 21.2081C13.7573 21.2465 13.7765 21.2785 13.8021 21.3618C13.8405 21.2593 13.8725 21.1953 13.8981 21.1313C14.5831 19.223 15.2681 17.3148 15.953 15.4066C15.9786 15.3362 16.0043 15.2593 16.0363 15.1889C16.1707 14.8879 16.3948 14.7599 16.7148 14.8495C17.1374 14.9584 17.5535 15.0864 17.9696 15.2273C19.1795 15.6371 20.3766 16.1046 21.4905 16.7321C22.9053 17.5325 23.7183 18.762 23.968 20.3693C23.9808 20.4397 24 20.5037 24.0128 20.5678C24.0128 21.0544 24.0128 21.5347 24.0128 22.0213C24 22.0662 23.9808 22.1046 23.9744 22.1494C23.8848 22.7001 23.6159 23.1483 23.187 23.5069C22.8541 23.7823 22.4572 23.9039 22.0475 23.9936C15.3449 24 8.6615 24 1.97812 24Z" fill="#120B3E"/>
<path d="M12.0032 0C15.6073 0 18.5521 2.95197 18.5457 6.54429C18.5393 10.1558 15.6073 13.0822 12.0032 13.0822C8.39902 13.0822 5.46063 10.1494 5.46063 6.53789C5.46063 2.94557 8.40542 0 12.0032 0Z" fill="#120B3E"/>
</g>
<defs>
<clipPath id="clip0_79_819">
<rect width="24" height="24" fill="white"/>
</clipPath>
</defs>
</svg>
