<svg width="24" height="25" viewBox="0 0 24 25" fill="none" xmlns="http://www.w3.org/2000/svg">
<g id="Iconly/Bold/Work">
<g id="Work">
<path id="Work_2" fill-rule="evenodd" clip-rule="evenodd" d="M10.4452 2.63105C9.64082 2.63105 8.95648 3.19004 8.76438 3.94345H15.2236C15.0315 3.19004 14.3472 2.63105 13.5428 2.63105H10.4452ZM17.0485 3.94352H19.4257C21.947 3.94352 24 6.02149 24 8.57337C24 8.57337 23.928 9.65367 23.904 11.1581C23.9016 11.2772 23.8439 11.3938 23.7491 11.4643C23.1716 11.8908 22.6433 12.2432 22.5953 12.2675C20.6023 13.6042 18.2863 14.5448 15.8191 15.0126C15.6582 15.0442 15.4998 14.9604 15.4181 14.817C14.7266 13.6188 13.4347 12.8387 11.994 12.8387C10.5629 12.8387 9.25903 13.6103 8.54707 14.8097C8.46423 14.9507 8.30816 15.0321 8.14847 15.0017C5.70165 14.5326 3.38569 13.5933 1.4047 12.2797L0.252126 11.4777C0.156078 11.4169 0.0960481 11.3075 0.0960481 11.186C0.06003 10.5663 0 8.57337 0 8.57337C0 6.02149 2.05303 3.94352 4.57429 3.94352H6.93947C7.16758 2.18151 8.64432 0.80835 10.4452 0.80835H13.5428C15.3437 0.80835 16.8204 2.18151 17.0485 3.94352ZM23.5918 13.7866L23.5437 13.8109C21.1185 15.4393 18.2011 16.5208 15.1395 16.9704C14.7073 17.0312 14.2751 16.7517 14.155 16.3142C13.8909 15.3177 13.0385 14.6615 12.018 14.6615H12.006H11.982C10.9614 14.6615 10.109 15.3177 9.84488 16.3142C9.72482 16.7517 9.29261 17.0312 8.86039 16.9704C5.79886 16.5208 2.8814 15.4393 0.456189 13.8109C0.444183 13.7988 0.324123 13.7259 0.228075 13.7866C0.120021 13.8474 0.120021 13.9932 0.120021 13.9932L0.204063 20.1906C0.204063 22.7425 2.24508 24.8083 4.76634 24.8083H19.2216C21.7428 24.8083 23.7839 22.7425 23.7839 20.1906L23.8799 13.9932C23.8799 13.9932 23.8799 13.8474 23.7718 13.7866C23.7118 13.7502 23.6398 13.7623 23.5918 13.7866ZM12.7454 17.8666C12.7454 18.2919 12.4152 18.6261 11.995 18.6261C11.5848 18.6261 11.2446 18.2919 11.2446 17.8666V16.5603C11.2446 16.1451 11.5848 15.8008 11.995 15.8008C12.4152 15.8008 12.7454 16.1451 12.7454 16.5603V17.8666Z" fill="#120B3E"/>
</g>
</g>
</svg>
