<svg width="24" height="24" viewBox="0 0 24 24" fill="none" xmlns="http://www.w3.org/2000/svg">
<g clip-path="url(#clip0_56_864)">
<path d="M12 7.94606C12.8411 7.94606 13.523 7.26417 13.523 6.42304C13.523 5.58192 12.8411 4.90002 12 4.90002C11.1589 4.90002 10.477 5.58192 10.477 6.42304C10.477 7.26417 11.1589 7.94606 12 7.94606Z" fill="#120B3E"/>
<path d="M20 0.000732422H4C1.77629 0.0183105 -0.0132997 1.83298 1.27634e-05 4.05673V16.2267C-0.0132997 18.4506 1.77615 20.2655 4 20.2837H6.92298L10.671 23.4837C11.4134 24.1622 12.5478 24.1721 13.302 23.5067L17.147 20.2827H20C22.2238 20.2646 24.0133 18.4496 24 16.2257V4.05673C24.0133 1.83298 22.2237 0.0183105 20 0.000732422ZM12 3.04273C16.615 3.16475 16.614 10.0197 12 10.1427C7.38503 10.0197 7.38601 3.1677 12 3.04273ZM16.249 17.2087C15.7139 17.3453 15.1694 17.0221 15.0328 16.487C15.0322 16.4846 15.0316 16.4822 15.031 16.4797C14.5192 14.8055 12.747 13.8632 11.0727 14.375C10.0649 14.6831 9.27611 15.4719 8.968 16.4797C8.82826 17.0143 8.28161 17.3345 7.747 17.1947C7.21239 17.055 6.89228 16.5083 7.03201 15.9737C7.80526 13.2297 10.6566 11.6321 13.4006 12.4053C15.13 12.8927 16.4816 14.2443 16.969 15.9737C17.1082 16.5132 16.787 17.0641 16.249 17.2087Z" fill="#120B3E"/>
</g>
<defs>
<clipPath id="clip0_56_864">
<rect width="24" height="24" fill="white"/>
</clipPath>
</defs>
</svg>
