<svg width="25" height="25" viewBox="0 0 25 25" fill="none" xmlns="http://www.w3.org/2000/svg">
<g clip-path="url(#clip0_56_858)">
<path d="M12.4976 21.6094C8.63342 21.605 5.50203 18.4736 5.49762 14.6094V5.60944C5.49762 5.40942 5.5106 5.20946 5.52762 5.01746C3.69162 5.80617 2.50062 7.61119 2.49762 9.60942V19.6094C2.5009 22.3695 4.73754 24.6061 7.49759 24.6094H13.4976C15.4958 24.6064 17.3008 23.4154 18.0896 21.5794C17.8896 21.5964 17.6976 21.6094 17.4976 21.6094H12.4976Z" fill="#507BF5"/>
<path d="M21.6526 3.88144L19.3687 1.52246C19.1172 1.26778 18.8222 1.06017 18.4976 0.909424V4.60941H22.1576C22.0264 4.34302 21.8562 4.09763 21.6526 3.88144Z" fill="#507BF5"/>
<path d="M17.4976 4.60932C17.4976 5.1616 17.9453 5.60931 18.4976 5.60931H22.4636C22.39 4.95999 22.105 4.35282 21.6526 3.88131L19.3686 1.52232C18.869 1.01588 18.2061 0.702712 17.4976 0.638306V4.60932Z" fill="#507BF5"/>
<path d="M15.4976 4.60936V0.609375H12.4976C9.73753 0.612703 7.50089 2.84934 7.49756 5.60939V14.6094C7.50089 17.3694 9.73753 19.6061 12.4976 19.6094H17.4976C20.2576 19.6061 22.4943 17.3694 22.4976 14.6094V7.60936H18.4976C16.8407 7.60936 15.4976 6.26625 15.4976 4.60936Z" fill="#507BF5"/>
</g>
<defs>
<clipPath id="clip0_56_858">
<rect width="24" height="24" fill="white" transform="translate(0.49762 0.609375)"/>
</clipPath>
</defs>
</svg>
