<svg width="254" height="219" viewBox="0 0 254 219" fill="none" xmlns="http://www.w3.org/2000/svg">
<path opacity="0.0272727" d="M6.97425 171.941C36.9197 154.905 57.0029 133.027 64.3548 109.177L64.7134 108.998C105.956 104.694 256.579 164.768 248.869 214.979L247.793 215.696C161.005 220 93.045 214.62 25.085 181.983L5.71906 172.479L6.97425 171.941Z" fill="black"/>
<path opacity="0.0545455" d="M11.4571 171.582C40.506 155.084 60.0512 133.745 67.2238 110.791L67.5824 110.612C107.569 106.487 253.89 164.768 246.538 213.365L245.462 214.082C161.184 218.386 95.1968 213.006 29.2092 181.266L10.3812 172.299L11.4571 171.582Z" fill="black"/>
<path opacity="0.0818182" d="M15.94 171.223C44.0923 155.264 63.0996 134.641 70.0928 112.225L70.4514 112.046C109.183 107.922 251.2 164.588 244.027 211.751L242.952 212.289C161.184 216.413 97.1692 211.213 33.1541 180.548L15.0434 171.761L15.94 171.223Z" fill="black"/>
<path opacity="0.1091" d="M20.4228 170.865C47.6786 155.443 66.1479 135.358 72.7825 113.66L73.1412 113.481C110.797 109.535 248.331 164.409 241.338 210.137L240.262 210.675C161.005 214.62 98.9624 209.599 36.9197 179.831L19.3469 171.403L20.4228 170.865Z" fill="black"/>
<path d="M1.23621 100.39C32.0782 82.9954 53.7752 70.2633 61.4857 45.8751L61.8444 45.6957C104.162 41.2126 143.253 29.3771 173.557 11.6239L174.633 10.9066L191.13 22.3834C249.407 62.7317 259.09 103.08 251.2 154.726L249.945 156.877C160.646 161.361 90.7139 155.802 20.7814 122.088L0.877563 112.584V100.39H1.23621Z" fill="url(#paint0_linear_131_817)"/>
<path d="M1.23621 100.39C32.0782 82.9954 53.7752 70.2633 61.4857 45.8751L61.8444 45.6957C104.162 41.2126 143.253 29.3771 173.557 11.6239L174.633 10.9066L191.13 22.3834C249.407 62.7317 259.09 103.08 251.2 154.726L249.945 156.877C160.646 161.361 90.7139 155.802 20.7814 122.088L0.877563 112.584V100.39H1.23621Z" fill="url(#paint1_linear_131_817)"/>
<path d="M2.49141 99.852C33.3334 82.4575 53.9545 59.8624 61.4857 35.2949L61.8444 35.1155C104.162 30.6324 143.253 18.7969 173.557 1.04372L174.633 0.326416L191.13 11.8032C249.407 52.1515 259.09 92.4997 251.2 144.145L249.945 144.863C160.646 149.346 90.7139 143.787 20.7814 110.074L0.877563 100.569L2.49141 99.852Z" fill="#120B3E"/>
<path d="M2.4914 189.694C2.13277 189.873 1.59483 190.232 1.23621 190.411L2.4914 189.694Z" fill="url(#paint2_linear_131_817)"/>
<path opacity="0.2" d="M2.4914 135.179C2.13277 135.358 1.59483 135.717 1.23621 135.896L2.4914 135.179Z" fill="url(#paint3_linear_131_817)"/>
<path d="M201.171 143.069C127.832 143.069 74.3963 132.31 22.3952 107.384L7.6915 100.39C36.5611 83.1748 55.7477 61.8351 63.8168 38.1641C105.956 33.5017 144.15 21.8455 174.633 4.09229L189.516 14.4932C247.614 54.662 255.504 94.6516 248.69 141.994C231.296 142.711 215.875 143.069 201.171 143.069Z" fill="#120B3E"/>
<path d="M201.171 135.538C129.087 135.538 76.5481 125.137 25.6229 100.569L23.1125 99.314C45.5268 83.7127 61.1271 65.2422 69.1962 44.9784C108.645 40.1366 144.687 29.1978 174.095 12.8792L185.212 20.5901C237.751 56.9932 246.896 91.603 242.055 134.641C227.351 135.179 213.903 135.538 201.171 135.538Z" fill="white"/>
<path d="M151.018 123.882C148.866 123.882 146.714 122.268 145.28 119.578C142.232 113.839 139.183 107.742 138.466 101.287C138.107 97.7001 138.466 94.2929 139.721 91.2444C138.645 89.8097 137.569 88.5545 136.494 87.2992C134.7 85.3266 132.907 83.354 131.114 81.3815C128.066 77.9743 124.838 74.3878 121.969 70.8013C122.328 74.9257 122.148 78.6916 121.431 82.0988C119.638 89.9891 114.976 96.8034 107.983 101.287L107.086 99.852C113.721 95.7275 118.204 89.2718 119.817 81.9194C120.714 77.7949 120.714 73.3118 119.997 68.1114C116.59 63.4489 113.721 58.6071 111.928 53.2274C111.748 52.8687 111.928 52.5101 112.107 52.3307C112.286 52.1514 112.645 51.9721 113.003 52.1514C118.204 53.4067 119.638 58.7865 120.176 60.5797C120.893 62.9109 121.252 65.2422 121.61 67.3941C124.838 71.8772 128.783 76.0017 132.549 80.3055C134.342 82.2781 136.135 84.2507 137.928 86.2232C138.825 87.2992 139.721 88.3751 140.618 89.4511C141.873 86.9405 143.666 84.7886 145.997 83.1747C146.535 82.8161 147.073 82.4574 147.611 82.0988C149.225 80.8435 150.839 79.7675 151.735 78.5122C151.915 77.7949 151.915 76.8983 152.273 76.181C152.453 75.8224 152.632 75.4637 153.17 75.4637C153.528 75.4637 153.887 75.8224 154.066 76.181C154.246 77.257 154.066 78.1536 153.528 79.0502C153.17 81.9194 153.887 84.7886 155.501 87.4785C156.397 83.1747 157.115 78.6916 156.039 74.3878C154.963 70.2633 151.018 65.0628 144.025 63.6282C143.487 63.6282 143.307 63.0903 143.307 62.5523C143.307 62.0143 143.845 61.6557 144.383 61.835L165.542 65.0628C165.901 65.0628 166.08 65.2422 166.26 65.6008C166.439 65.7801 166.439 66.1388 166.26 66.3181C162.494 74.9257 162.853 83.5334 166.798 91.2444C169.487 92.4996 173.432 92.679 177.019 91.603C177.198 89.0924 177.556 86.5819 178.094 84.0713C178.453 82.4574 179.17 80.6642 180.963 79.5882C182.219 78.8709 183.832 78.6916 185.446 78.3329C186.522 78.1536 187.419 78.1536 188.315 77.7949C188.495 77.7949 188.674 77.6156 188.853 77.6156C188.674 73.6705 188.495 69.546 188.315 65.6008C188.315 65.4215 188.315 65.0628 188.674 64.8835C188.853 64.7042 189.212 64.7042 189.391 64.7042L193.515 65.2422C193.874 65.2422 194.053 65.4215 194.233 65.7801C194.771 66.8561 194.95 68.1114 195.129 69.1873C196.205 65.9595 196.384 63.8076 196.384 61.4763C196.564 58.4278 196.743 55.3793 199.074 50.1788L200.688 50.8961C198.357 55.5586 198.357 58.4278 198.178 61.4763C197.998 64.5249 197.819 67.5734 195.488 72.7738C195.309 73.1325 195.129 73.6705 194.95 74.0291C194.412 76.8983 192.978 79.7675 190.826 82.8161C191.005 89.0924 191.005 95.3688 191.005 101.645C191.005 103.797 191.005 106.308 189.75 108.818C188.315 111.508 185.626 113.301 182.577 113.481C182.219 113.481 181.86 113.301 181.681 112.943C178.453 106.846 176.839 100.031 177.019 93.3963C173.074 94.4722 168.949 94.2929 165.722 92.679C165.542 92.679 165.363 92.4996 165.363 92.3203C161.06 84.2507 160.522 75.4637 164.108 66.4974L151.197 64.5249C154.425 66.6768 156.756 69.9046 157.832 73.6705C159.266 79.0502 158.011 84.6093 156.935 89.6304C156.935 89.9891 156.577 90.1684 156.218 90.3477C155.859 90.3477 155.501 90.3477 155.322 89.9891C153.349 87.2992 152.094 84.0713 151.915 81.0228C151.018 81.9194 149.942 82.6367 149.046 83.354C148.508 83.7127 147.97 84.0713 147.611 84.43C145.28 86.2232 143.666 88.3751 142.411 90.8857C149.225 99.6726 155.859 111.329 152.99 123.164C152.99 123.523 152.632 123.702 152.273 123.882C151.377 123.882 151.197 123.882 151.018 123.882ZM140.976 93.0376C140.08 95.5482 139.901 98.238 140.259 101.107C140.976 107.204 144.025 113.122 146.894 118.86C147.611 120.116 148.866 122.088 150.839 122.268C152.99 111.687 147.252 101.107 140.976 93.0376ZM178.274 92.8583C178.094 99.314 179.529 105.59 182.577 111.508C185.267 111.149 187.06 109.356 187.777 107.922C188.853 105.949 188.853 103.618 188.853 101.645C188.853 96.0861 188.853 90.5271 188.674 84.968C188.315 85.5059 187.777 86.0439 187.239 86.4026C184.37 89.6304 181.501 91.603 178.274 92.8583ZM188.495 79.5882C187.419 79.9469 186.343 80.1262 185.267 80.1262C183.832 80.3055 182.398 80.4848 181.501 81.0228C180.425 81.7401 179.888 82.8161 179.529 84.43C178.991 86.5819 178.632 88.7338 178.453 90.8857C181.143 89.8097 183.474 88.0165 185.984 85.3266C186.701 84.6093 187.598 83.5334 188.674 82.2781C188.495 81.3815 188.495 80.4848 188.495 79.5882ZM190.288 78.8709C190.288 79.2295 190.288 79.4089 190.288 79.7675C190.467 79.4089 190.826 78.8709 191.005 78.5122C190.826 78.5122 190.467 78.6916 190.288 78.8709ZM189.75 66.6768C189.929 70.084 190.108 73.3118 190.288 76.719C191.364 75.8224 192.081 74.7464 192.798 73.4911C193.157 71.3392 193.157 69.1873 192.26 67.0354L189.75 66.6768ZM114.259 54.4826C115.514 57.7105 117.128 60.759 119.1 63.8076C118.921 62.9109 118.741 62.0143 118.383 60.9384C117.486 57.7105 116.231 55.5586 114.259 54.4826Z" fill="#4916A1"/>
<defs>
<linearGradient id="paint0_linear_131_817" x1="236.892" y1="84.6176" x2="1.63589" y2="84.6176" gradientUnits="userSpaceOnUse">
<stop stop-color="#CF7E72"/>
<stop offset="0.1364" stop-color="#F7AA90"/>
<stop offset="0.2038" stop-color="#F9B996"/>
<stop offset="0.3341" stop-color="#FCD09F"/>
<stop offset="0.4574" stop-color="#FDDDA4"/>
<stop offset="0.5657" stop-color="#FEE2A6"/>
<stop offset="0.6669" stop-color="#FAC199"/>
<stop offset="0.7644" stop-color="#F7A98F"/>
<stop offset="0.8544" stop-color="#F59A89"/>
<stop offset="0.9293" stop-color="#F49587"/>
<stop offset="1" stop-color="#CC7D71"/>
</linearGradient>
<linearGradient id="paint1_linear_131_817" x1="128.477" y1="119.142" x2="113.387" y2="178.475" gradientUnits="userSpaceOnUse">
<stop stop-color="white"/>
<stop offset="1" stop-color="#A3653D"/>
</linearGradient>
<linearGradient id="paint2_linear_131_817" x1="1.79997" y1="190.336" x2="1.70187" y2="190.722" gradientUnits="userSpaceOnUse">
<stop stop-color="white"/>
<stop offset="1" stop-color="#A3653D"/>
</linearGradient>
<linearGradient id="paint3_linear_131_817" x1="1.80158" y1="135.832" x2="1.70312" y2="136.219" gradientUnits="userSpaceOnUse">
<stop stop-color="#FEE2A6"/>
<stop offset="0.466" stop-color="#F9BA96"/>
<stop offset="0.6313" stop-color="#F7AA90"/>
<stop offset="0.6334" stop-color="#F7A990"/>
<stop offset="0.6915" stop-color="#F59E8B"/>
<stop offset="0.7731" stop-color="#F49788"/>
<stop offset="1" stop-color="#F49587"/>
</linearGradient>
</defs>
</svg>
