<svg width="120" height="264" viewBox="0 0 120 264" fill="none" xmlns="http://www.w3.org/2000/svg">
<path d="M98.8444 164.959C98.4171 164.959 98.1322 164.675 98.1322 164.247V159.691C98.1322 159.263 98.4171 158.979 98.8444 158.979C99.2718 158.979 99.5567 159.263 99.5567 159.691V164.247C99.5567 164.675 99.2718 164.959 98.8444 164.959ZM98.8444 155.846C98.4171 155.846 98.1322 155.561 98.1322 155.134V150.577C98.1322 150.15 98.4171 149.865 98.8444 149.865C99.2718 149.865 99.5567 150.15 99.5567 150.577V155.134C99.5567 155.561 99.2718 155.846 98.8444 155.846ZM98.8444 146.732C98.4171 146.732 98.1322 146.448 98.1322 146.02V141.464C98.1322 141.037 98.4171 140.752 98.8444 140.752C99.2718 140.752 99.5567 141.037 99.5567 141.464V146.02C99.5567 146.448 99.2718 146.732 98.8444 146.732ZM98.8444 137.619C98.4171 137.619 98.1322 137.334 98.1322 136.907V132.35C98.1322 131.923 98.4171 131.638 98.8444 131.638C99.2718 131.638 99.5567 131.923 99.5567 132.35V136.907C99.5567 137.334 99.2718 137.619 98.8444 137.619ZM98.8444 128.506C98.4171 128.506 98.1322 128.221 98.1322 127.794V123.237C98.1322 122.81 98.4171 122.525 98.8444 122.525C99.2718 122.525 99.5567 122.81 99.5567 123.237V127.794C99.5567 128.221 99.2718 128.506 98.8444 128.506ZM98.8444 119.392C98.4171 119.392 98.1322 119.107 98.1322 118.68V114.123C98.1322 113.696 98.4171 113.411 98.8444 113.411C99.2718 113.411 99.5567 113.696 99.5567 114.123V118.68C99.5567 119.107 99.2718 119.392 98.8444 119.392ZM98.8444 110.421C98.4171 110.421 98.1322 110.136 98.1322 109.709V105.152C98.1322 104.725 98.4171 104.44 98.8444 104.44C99.2718 104.44 99.5567 104.725 99.5567 105.152V109.709C99.5567 109.994 99.2718 110.421 98.8444 110.421ZM98.8444 101.308C98.4171 101.308 98.1322 101.023 98.1322 100.596V96.0389C98.1322 95.6117 98.4171 95.3269 98.8444 95.3269C99.2718 95.3269 99.5567 95.6117 99.5567 96.0389V100.596C99.5567 100.88 99.2718 101.308 98.8444 101.308ZM98.8444 92.1941C98.4171 92.1941 98.1322 91.9093 98.1322 91.4821V86.9254C98.1322 86.4982 98.4171 86.2134 98.8444 86.2134C99.2718 86.2134 99.5567 86.4982 99.5567 86.9254V91.4821C99.5567 91.7669 99.2718 92.1941 98.8444 92.1941ZM98.8444 83.0807C98.4171 83.0807 98.1322 82.7959 98.1322 82.3687V77.6696C98.1322 77.2424 98.4171 76.9576 98.8444 76.9576C99.2718 76.9576 99.5567 77.2424 99.5567 77.6696V82.2263C99.5567 82.6535 99.2718 83.0807 98.8444 83.0807ZM98.8444 255.382C98.4171 255.382 98.1322 255.097 98.1322 254.67V250.113C98.1322 249.686 98.4171 249.401 98.8444 249.401C99.2718 249.401 99.5567 249.686 99.5567 250.113V254.67C99.5567 255.097 99.2718 255.382 98.8444 255.382ZM98.8444 263.641C98.4171 263.641 98.1322 263.356 98.1322 262.929V258.372C98.1322 257.945 98.4171 257.66 98.8444 257.66C99.2718 257.66 99.5567 257.945 99.5567 258.372V262.929C99.5567 263.214 99.2718 263.641 98.8444 263.641ZM98.8444 246.268C98.4171 246.268 98.1322 245.984 98.1322 245.556V241C98.1322 240.572 98.4171 240.288 98.8444 240.288C99.2718 240.288 99.5567 240.572 99.5567 241V245.556C99.5567 245.984 99.2718 246.268 98.8444 246.268ZM98.8444 237.155C98.4171 237.155 98.1322 236.87 98.1322 236.443V231.886C98.1322 231.459 98.4171 231.174 98.8444 231.174C99.2718 231.174 99.5567 231.459 99.5567 231.886V236.443C99.5567 236.87 99.2718 237.155 98.8444 237.155ZM98.8444 228.042C98.4171 228.042 98.1322 227.757 98.1322 227.33V222.773C98.1322 222.346 98.4171 222.061 98.8444 222.061C99.2718 222.061 99.5567 222.346 99.5567 222.773V227.33C99.5567 227.757 99.2718 228.042 98.8444 228.042ZM98.8444 218.928C98.4171 218.928 98.1322 218.643 98.1322 218.216V213.659C98.1322 213.232 98.4171 212.947 98.8444 212.947C99.2718 212.947 99.5567 213.232 99.5567 213.659V218.216C99.5567 218.643 99.2718 218.928 98.8444 218.928ZM98.8444 209.815C98.4171 209.815 98.1322 209.53 98.1322 209.103V204.546C98.1322 204.119 98.4171 203.834 98.8444 203.834C99.2718 203.834 99.5567 204.119 99.5567 204.546V209.103C99.5567 209.53 99.2718 209.815 98.8444 209.815ZM98.8444 200.844C98.4171 200.844 98.1322 200.559 98.1322 200.132V195.575C98.1322 195.148 98.4171 194.863 98.8444 194.863C99.2718 194.863 99.5567 195.148 99.5567 195.575V200.132C99.5567 200.416 99.2718 200.844 98.8444 200.844ZM98.8444 191.73C98.4171 191.73 98.1322 191.445 98.1322 191.018V186.461C98.1322 186.034 98.4171 185.749 98.8444 185.749C99.2718 185.749 99.5567 186.034 99.5567 186.461V191.018C99.5567 191.303 99.2718 191.73 98.8444 191.73ZM98.8444 182.617C98.4171 182.617 98.1322 182.332 98.1322 181.905V177.348C98.1322 176.921 98.4171 176.636 98.8444 176.636C99.2718 176.636 99.5567 176.921 99.5567 177.348V181.905C99.5567 182.189 99.2718 182.617 98.8444 182.617ZM98.8444 173.503C98.4171 173.503 98.1322 173.218 98.1322 172.791V168.234C98.1322 167.807 98.4171 167.523 98.8444 167.523C99.2718 167.523 99.5567 167.807 99.5567 168.234V172.791C99.5567 173.076 99.2718 173.503 98.8444 173.503ZM1.40715 100.453C0.97979 100.453 0.694885 100.168 0.694885 99.7412V95.1845C0.694885 94.7573 0.97979 94.4725 1.40715 94.4725C1.8345 94.4725 2.11941 94.7573 2.11941 95.1845V99.7412C2.26186 100.168 1.8345 100.453 1.40715 100.453ZM1.40715 91.3398C0.97979 91.3398 0.694885 91.055 0.694885 90.6278V86.071C0.694885 85.6439 0.97979 85.3591 1.40715 85.3591C1.8345 85.3591 2.11941 85.6439 2.11941 86.071V90.6278C2.26186 91.055 1.8345 91.3398 1.40715 91.3398ZM98.8444 73.9672C98.4171 73.9672 98.1322 73.6824 98.1322 73.2553V71.2617C98.1322 70.4073 98.1322 69.5529 97.9897 68.6985C97.9897 68.2713 98.2746 67.8441 98.702 67.8441C99.1293 67.8441 99.5567 68.1289 99.5567 68.5561C99.6992 69.4105 99.6991 70.2649 99.6991 71.2617V73.2553C99.5567 73.5401 99.2718 73.9672 98.8444 73.9672ZM1.40715 82.2263C0.97979 82.2263 0.694885 81.9415 0.694885 81.5143V76.9576C0.694885 76.5304 0.97979 76.2456 1.40715 76.2456C1.8345 76.2456 2.11941 76.5304 2.11941 76.9576V81.5143C2.26186 81.9415 1.8345 82.2263 1.40715 82.2263ZM97.9897 64.8538C97.7048 64.8538 97.2775 64.569 97.2775 64.2842C96.9925 62.8602 96.5652 61.4362 95.9954 60.0123C95.8529 59.5851 95.9954 59.1579 96.4227 59.0155C96.8501 58.8731 97.2775 59.0155 97.4199 59.4427C97.9897 60.8667 98.4171 62.433 98.702 63.857C98.8444 64.2842 98.5595 64.7114 98.1322 64.7114C98.1322 64.8538 97.9897 64.8538 97.9897 64.8538ZM1.40715 73.2553C0.97979 73.2553 0.694885 72.9705 0.694885 72.5433V67.9865C0.694885 67.5593 0.97979 67.2746 1.40715 67.2746C1.8345 67.2746 2.11941 67.5593 2.11941 67.9865V72.5433C2.26186 72.8281 1.8345 73.2553 1.40715 73.2553ZM94.9982 56.3099C94.7133 56.3099 94.4284 56.1675 94.2859 55.8827C93.7161 54.6012 93.0039 53.1772 92.1492 51.8956C91.8643 51.4684 92.0067 51.0412 92.4341 50.8988C92.8614 50.7564 93.2888 50.7564 93.4312 51.1836C94.2859 52.4652 94.9982 53.8892 95.568 55.3132C95.7105 55.7403 95.568 56.1675 95.1407 56.3099C95.1407 56.3099 95.1407 56.3099 94.9982 56.3099ZM1.40715 64.1418C0.97979 64.1418 0.694885 63.857 0.694885 63.4298V58.8731C0.694885 58.4459 0.97979 58.1611 1.40715 58.1611C1.8345 58.1611 2.11941 58.4459 2.11941 58.8731V63.4298C2.26186 63.7146 1.8345 64.1418 1.40715 64.1418ZM90.2973 48.4781C90.0124 48.4781 89.8699 48.3357 89.7275 48.1933C88.8727 46.9117 87.8756 45.7725 86.8784 44.7757C86.5935 44.4909 86.5935 43.9213 86.8784 43.6365C87.1633 43.3517 87.7332 43.3517 88.0181 43.6365C89.0152 44.7757 90.0124 45.9149 90.8671 47.1965C91.152 47.4813 91.0095 48.0509 90.7246 48.1933C90.5822 48.4781 90.4398 48.4781 90.2973 48.4781ZM1.40715 55.0284C0.97979 55.0284 0.694885 54.7436 0.694885 54.3164V49.7596C0.694885 49.3325 0.97979 49.0477 1.40715 49.0477C1.8345 49.0477 2.11941 49.3325 2.11941 49.7596V54.3164C2.26186 54.6012 1.8345 55.0284 1.40715 55.0284ZM84.1718 41.7854C84.0294 41.7854 83.7445 41.7854 83.602 41.643C82.4624 40.6462 81.3228 39.6494 80.0407 38.9374C79.7558 38.6526 79.6134 38.2254 79.7558 37.9406C80.0407 37.6558 80.4681 37.5134 80.753 37.6558C82.0351 38.5102 83.1747 39.3646 84.4568 40.5038C84.7417 40.7886 84.7417 41.2158 84.4568 41.643C84.5992 41.643 84.4567 41.7854 84.1718 41.7854ZM1.40715 45.9149C0.97979 45.9149 0.694885 45.6301 0.694885 45.2029V40.6462C0.694885 40.219 0.97979 39.9342 1.40715 39.9342C1.8345 39.9342 2.11941 40.219 2.11941 40.6462V45.2029C2.26186 45.4877 1.8345 45.9149 1.40715 45.9149ZM76.7643 36.6591C76.6219 36.6591 76.4794 36.6591 76.337 36.5167L72.3483 34.2383C71.921 34.0959 71.921 33.5263 72.0634 33.2415C72.2059 32.8143 72.7757 32.8143 73.0606 32.9567L77.0492 35.2351C77.4766 35.3775 77.4766 35.9471 77.3342 36.2319C77.1917 36.5167 76.9068 36.6591 76.7643 36.6591ZM68.787 32.1023C68.6446 32.1023 68.5021 32.1023 68.3597 31.9599L64.371 29.6816C63.9436 29.5392 63.9436 28.9696 64.0861 28.6848C64.2285 28.2576 64.7984 28.2576 65.0833 28.4L69.0719 30.6784C69.4993 30.8208 69.4993 31.3903 69.3568 31.6751C69.3568 31.9599 69.0719 32.1023 68.787 32.1023ZM1.40715 36.8015C0.97979 36.8015 0.694885 36.5167 0.694885 36.0895V31.5327C0.694885 31.1055 0.97979 30.8208 1.40715 30.8208C1.8345 30.8208 2.11941 31.1055 2.11941 31.5327V36.0895C2.26186 36.3743 1.8345 36.8015 1.40715 36.8015ZM60.9522 27.5456C60.8097 27.5456 60.6672 27.5456 60.5248 27.4032L56.5361 25.1248C56.1088 24.9824 56.1088 24.4129 56.2512 24.1281C56.3937 23.7009 56.9635 23.7009 57.2484 23.8433L61.2371 26.1216C61.6644 26.264 61.6644 26.8336 61.522 27.1184C61.3795 27.4032 61.2371 27.5456 60.9522 27.5456ZM52.9748 22.9889C52.8324 22.9889 52.6899 22.9889 52.5475 22.8465L48.5588 20.5681C48.1314 20.4257 48.1314 19.8561 48.2739 19.5713C48.4163 19.1441 48.9862 19.1441 49.2711 19.2865L53.2597 21.5649C53.6871 21.7073 53.6871 22.2769 53.5446 22.5617C53.5446 22.8465 53.2597 22.9889 52.9748 22.9889ZM1.40715 27.688C0.97979 27.688 0.694885 27.4032 0.694885 26.976V22.4193C0.694885 21.9921 0.97979 21.7073 1.40715 21.7073C1.8345 21.7073 2.11941 21.9921 2.11941 22.4193V26.976C2.26186 27.2608 1.8345 27.688 1.40715 27.688ZM1.40715 18.5746C0.97979 18.5746 0.694885 18.2898 0.694885 17.8626V15.0146C0.694885 14.3026 0.694885 13.733 0.694885 13.1634C0.694885 12.7363 1.12223 12.4515 1.54959 12.4515C1.97694 12.4515 2.26185 12.8786 2.26185 13.3058C2.26185 13.8754 2.26185 14.445 2.26185 15.0146V17.8626C2.26185 18.2898 1.8345 18.5746 1.40715 18.5746ZM44.8551 18.2898C44.7126 18.2898 44.5701 18.2898 44.4277 18.1474L40.439 15.869C40.0117 15.7266 40.0117 15.157 40.1541 14.8722C40.2966 14.445 40.8664 14.445 41.1513 14.5874L45.14 16.8658C45.5673 17.0082 45.5673 17.5778 45.4249 17.8626C45.4249 18.1474 45.14 18.2898 44.8551 18.2898ZM37.0202 13.733C36.8777 13.733 36.7353 13.733 36.5928 13.5906L32.6042 11.3123C32.1768 11.1699 32.1768 10.6003 32.3193 10.3155C32.4617 9.8883 33.0315 9.8883 33.3164 10.0307L37.3051 12.3091C37.7324 12.4515 37.7324 13.021 37.59 13.3058C37.4475 13.5906 37.1626 13.733 37.0202 13.733ZM2.40431 9.6035C2.26185 9.6035 2.26186 9.6035 2.11941 9.6035C1.69205 9.46111 1.54959 9.03391 1.69205 8.60672C2.26185 7.04034 2.97412 5.61637 3.97129 4.33479C4.25619 4.04999 4.68353 3.9076 5.11089 4.19239C5.39579 4.47719 5.53825 4.90438 5.25335 5.33157C4.39864 6.32836 3.68638 7.60993 3.25903 9.03391C2.97412 9.31871 2.68921 9.6035 2.40431 9.6035ZM29.0429 9.17631C28.9004 9.17631 28.7579 9.17631 28.6155 9.03391L24.6269 6.75555C24.1995 6.61315 24.1995 6.04356 24.3419 5.75877C24.4844 5.33157 25.0542 5.33157 25.3391 5.47397L29.3278 7.75234C29.7551 7.89473 29.7551 8.46432 29.6127 8.74911C29.6127 9.03391 29.3278 9.17631 29.0429 9.17631ZM21.208 4.61959C21.0655 4.61959 20.9231 4.61958 20.9231 4.47718H20.7806C19.4986 3.7652 18.0741 3.05321 16.792 2.62602C16.3646 2.48362 16.2222 2.05642 16.3646 1.62923C16.5071 1.20204 16.9344 1.05964 17.3618 1.20204C18.7863 1.62923 20.2108 2.34122 21.6353 3.19561C22.0627 3.33801 22.2052 3.9076 21.9202 4.19239C21.6353 4.47719 21.3504 4.61959 21.208 4.61959ZM8.10239 2.76842C7.81749 2.76842 7.53258 2.62601 7.39013 2.34122C7.24768 1.91403 7.39014 1.48684 7.81749 1.34444C9.24201 0.77485 10.6665 0.490051 12.376 0.490051H12.6609C13.0882 0.490051 13.3731 0.917244 13.3731 1.20204C13.3731 1.62923 13.0882 1.91403 12.6609 1.91403H12.5184C11.0939 1.91403 9.81182 2.19883 8.52975 2.76842C8.24485 2.76842 8.10239 2.76842 8.10239 2.76842Z" fill="url(#paint0_linear_137_832)"/>
<path d="M112.555 177.816C120.773 173.014 120.676 157.562 112.337 143.305C103.999 129.047 90.5769 121.382 82.3587 126.185C74.1404 130.988 74.2379 146.439 82.5763 160.697C90.9147 174.954 104.337 182.619 112.555 177.816Z" fill="white"/>
<path d="M106.964 180.054C103.83 180.054 100.554 179.057 96.9925 177.063C85.0266 170.228 75.3398 153.425 75.3398 139.755C75.3398 130.214 80.1832 123.949 87.8756 123.949C91.0096 123.949 94.286 124.946 97.8473 126.939C109.813 133.774 119.5 150.577 119.5 164.247C119.5 173.788 114.514 180.054 106.964 180.054ZM87.8756 125.373C81.1804 125.373 76.9068 130.784 76.9068 139.613C76.9068 152.856 86.3086 168.947 97.8473 175.639C101.124 177.49 104.115 178.487 106.964 178.487C113.659 178.487 117.933 173.076 117.933 164.247C117.933 151.004 108.531 134.913 96.9925 128.221C93.8586 126.37 90.7247 125.373 87.8756 125.373Z" fill="url(#paint1_linear_137_832)"/>
<path d="M113.232 152.428L98.1322 131.923L83.0322 135.056V152.856L98.1322 173.361L113.232 170.228V152.428ZM84.8841 138.331L85.7388 138.901L97.135 154.422V169.658L84.8841 152.998V138.331ZM111.38 153.568V168.092L99.1293 170.655V155.419L110.525 152.998L111.38 153.568Z" fill="url(#paint2_linear_137_832)"/>
<defs>
<linearGradient id="paint0_linear_137_832" x1="132.589" y1="-97.2913" x2="18.3486" y2="227.758" gradientUnits="userSpaceOnUse">
<stop offset="0.00505051" stop-color="#B4F759"/>
<stop offset="0.0493414" stop-color="#90ED6F"/>
<stop offset="0.1471" stop-color="#35D5A5"/>
<stop offset="0.202" stop-color="#00C7C5"/>
<stop offset="0.408" stop-color="#2D9BE0"/>
<stop offset="0.596" stop-color="#5277F7"/>
<stop offset="0.6617" stop-color="#5B76F7"/>
<stop offset="0.7684" stop-color="#7374F6"/>
<stop offset="0.902" stop-color="#9A70F4"/>
<stop offset="1" stop-color="#BB6DF3"/>
</linearGradient>
<linearGradient id="paint1_linear_137_832" x1="174.38" y1="-41.1323" x2="55.155" y2="258.291" gradientUnits="userSpaceOnUse">
<stop offset="0.00505051" stop-color="#B4F759"/>
<stop offset="0.0493414" stop-color="#90ED6F"/>
<stop offset="0.1471" stop-color="#35D5A5"/>
<stop offset="0.202" stop-color="#00C7C5"/>
<stop offset="0.408" stop-color="#2D9BE0"/>
<stop offset="0.596" stop-color="#5277F7"/>
<stop offset="0.6617" stop-color="#5B76F7"/>
<stop offset="0.7684" stop-color="#7374F6"/>
<stop offset="0.902" stop-color="#9A70F4"/>
<stop offset="1" stop-color="#BB6DF3"/>
</linearGradient>
<linearGradient id="paint2_linear_137_832" x1="151.169" y1="8.49455" x2="74.2965" y2="217.482" gradientUnits="userSpaceOnUse">
<stop offset="0.00505051" stop-color="#B4F759"/>
<stop offset="0.0493414" stop-color="#90ED6F"/>
<stop offset="0.1471" stop-color="#35D5A5"/>
<stop offset="0.202" stop-color="#00C7C5"/>
<stop offset="0.408" stop-color="#2D9BE0"/>
<stop offset="0.596" stop-color="#5277F7"/>
<stop offset="0.6617" stop-color="#5B76F7"/>
<stop offset="0.7684" stop-color="#7374F6"/>
<stop offset="0.902" stop-color="#9A70F4"/>
<stop offset="1" stop-color="#BB6DF3"/>
</linearGradient>
</defs>
</svg>
