<svg width="153" height="246" viewBox="0 0 153 246" fill="none" xmlns="http://www.w3.org/2000/svg">
<path opacity="0.95" d="M140.673 245.631C139.106 245.631 137.539 245.347 135.972 244.777C135.545 244.635 135.402 244.207 135.545 243.78C135.687 243.353 136.114 243.211 136.542 243.353C137.966 243.78 139.391 244.065 140.815 244.065C141.243 244.065 141.528 244.492 141.528 244.777C141.385 245.347 141.1 245.631 140.673 245.631ZM145.089 244.919C144.804 244.919 144.519 244.777 144.377 244.492C144.234 244.065 144.377 243.638 144.804 243.495C146.086 242.926 147.226 242.071 148.08 240.932C148.365 240.647 148.793 240.505 149.22 240.79C149.505 241.075 149.647 241.502 149.363 241.929C148.223 243.211 146.941 244.207 145.516 244.919C145.231 244.777 145.231 244.919 145.089 244.919ZM131.983 242.926C131.841 242.926 131.698 242.926 131.556 242.783L127.567 240.505C127.14 240.363 127.14 239.793 127.282 239.508C127.425 239.081 127.995 239.081 128.28 239.223L132.268 241.502C132.696 241.644 132.696 242.214 132.553 242.499C132.553 242.783 132.268 242.926 131.983 242.926ZM124.148 238.369C124.006 238.369 123.864 238.369 123.721 238.227L119.732 235.948C119.305 235.806 119.305 235.236 119.448 234.951C119.59 234.524 120.16 234.524 120.445 234.667L124.433 236.945C124.861 237.087 124.861 237.657 124.718 237.942C124.718 238.369 124.433 238.369 124.148 238.369ZM150.787 238.084C150.645 238.084 150.645 238.084 150.502 238.084C150.075 237.942 149.932 237.515 150.075 237.087C150.502 235.806 150.787 234.382 150.929 232.815C150.929 232.388 151.357 232.104 151.784 232.104C152.212 232.104 152.496 232.531 152.496 232.958C152.354 234.667 152.069 236.233 151.642 237.657C151.357 237.942 151.072 238.084 150.787 238.084ZM116.171 233.955C116.029 233.955 115.886 233.955 115.744 233.812L111.755 231.534C111.328 231.392 111.328 230.822 111.47 230.537C111.613 230.11 112.182 230.11 112.467 230.252L116.456 232.531C116.883 232.673 116.883 233.243 116.741 233.527C116.741 233.812 116.456 233.955 116.171 233.955ZM108.336 229.398C108.194 229.398 108.051 229.398 107.909 229.256L103.92 226.977C103.493 226.835 103.493 226.265 103.635 225.98C103.778 225.553 104.348 225.553 104.633 225.696L108.621 227.974C109.049 228.116 109.049 228.686 108.906 228.971C108.906 229.256 108.621 229.398 108.336 229.398ZM100.501 224.841C100.359 224.841 100.217 224.841 100.074 224.699L96.0854 222.42C95.658 222.278 95.658 221.708 95.8005 221.424C95.9429 220.996 96.5128 220.997 96.7977 221.139L100.786 223.417C101.214 223.56 101.214 224.129 101.071 224.414C100.929 224.699 100.644 224.841 100.501 224.841ZM92.5241 220.285C92.3816 220.285 92.2392 220.285 92.0967 220.142L88.1081 217.864C87.6807 217.721 87.6807 217.152 87.8232 216.867C87.9656 216.44 88.5354 216.44 88.8203 216.582L92.809 218.861C93.2364 219.003 93.2364 219.573 93.0939 219.857C93.0939 220.142 92.809 220.285 92.5241 220.285ZM84.6892 215.728C84.5468 215.728 84.4043 215.728 84.2619 215.585L80.2732 213.307C79.8459 213.165 79.8459 212.595 79.9883 212.31C80.1308 211.883 80.7006 211.883 80.9855 212.025L84.9741 214.304C85.4015 214.446 85.4015 215.016 85.259 215.301C85.1166 215.585 84.9741 215.728 84.6892 215.728ZM76.7119 211.171C76.5695 211.171 76.427 211.171 76.2845 211.029L72.2959 208.75C71.8685 208.608 71.8685 208.038 72.011 207.754C72.1534 207.326 72.7232 207.326 73.0082 207.469L76.9968 209.747C77.4242 209.889 77.4242 210.459 77.2817 210.744C77.2817 211.029 76.9968 211.171 76.7119 211.171ZM151.642 229.113C151.214 229.113 150.929 228.828 150.929 228.401V223.844C150.929 223.417 151.214 223.132 151.642 223.132C152.069 223.132 152.354 223.417 152.354 223.844V228.401C152.496 228.828 152.069 229.113 151.642 229.113ZM68.877 206.614C68.7346 206.614 68.5921 206.614 68.4497 206.472L64.461 204.194C64.0337 204.051 64.0337 203.482 64.1761 203.197C64.3186 202.77 64.8884 202.77 65.1733 202.912L69.1619 205.19C69.5893 205.333 69.5893 205.902 69.4468 206.187C69.3044 206.472 69.1619 206.614 68.877 206.614ZM60.8997 202.058C60.7573 202.058 60.6148 202.058 60.4724 201.915L56.4837 199.637C56.0563 199.494 56.0563 198.925 56.1988 198.64C56.3412 198.213 56.9111 198.213 57.196 198.355L61.1846 200.634C61.612 200.776 61.612 201.346 61.4695 201.63C61.4695 201.915 61.1846 202.058 60.8997 202.058ZM151.642 220C151.214 220 150.929 219.715 150.929 219.288V214.731C150.929 214.304 151.214 214.019 151.642 214.019C152.069 214.019 152.354 214.304 152.354 214.731V219.288C152.496 219.715 152.069 220 151.642 220ZM53.0648 197.501C52.9224 197.501 52.7799 197.501 52.6375 197.358L48.6488 195.08C48.2215 194.938 48.2215 194.368 48.3639 194.083C48.5064 193.656 49.0762 193.656 49.3611 193.799L53.3498 196.077C53.7771 196.219 53.7771 196.789 53.6347 197.074C53.6347 197.359 53.3498 197.501 53.0648 197.501ZM45.23 192.944C45.0875 192.944 44.9451 192.944 44.8026 192.802L42.2385 191.378C41.8111 191.093 41.2413 190.808 40.814 190.523C40.5291 190.239 40.3866 189.811 40.5291 189.527C40.814 189.242 41.2413 189.099 41.5262 189.242C41.9536 189.527 42.3809 189.811 42.8083 190.096L45.3724 191.52C45.7998 191.663 45.7998 192.232 45.6573 192.517C45.6573 192.802 45.3724 192.944 45.23 192.944ZM151.642 210.886C151.214 210.886 150.929 210.601 150.929 210.174V205.618C150.929 205.19 151.214 204.906 151.642 204.906C152.069 204.906 152.354 205.19 152.354 205.618V210.174C152.496 210.601 152.069 210.886 151.642 210.886ZM37.68 187.96C37.5376 187.96 37.2527 187.96 37.1102 187.818C35.9706 186.821 34.831 185.682 33.8338 184.543C33.5489 184.258 33.5489 183.688 33.8338 183.404C34.1187 183.119 34.6885 183.119 34.9734 183.404C35.9706 184.543 37.1102 185.539 38.1074 186.536C38.3923 186.821 38.3923 187.248 38.1074 187.675C38.1074 187.818 37.8225 187.96 37.68 187.96ZM151.642 201.773C151.214 201.773 150.929 201.488 150.929 201.061V196.504C150.929 196.077 151.214 195.792 151.642 195.792C152.069 195.792 152.354 196.077 152.354 196.504V201.061C152.496 201.488 152.069 201.773 151.642 201.773ZM31.5546 181.125C31.2697 181.125 31.1272 180.983 30.9848 180.84C30.13 179.559 29.2753 178.277 28.4206 176.996C28.1357 176.568 28.2782 176.141 28.7055 175.999C29.1329 175.714 29.5602 175.856 29.7027 176.284C30.415 177.565 31.2697 178.847 32.1244 179.986C32.4093 180.271 32.2668 180.84 31.9819 180.983C31.8395 181.125 31.697 181.125 31.5546 181.125ZM151.642 192.659C151.214 192.659 150.929 192.375 150.929 191.947V187.391C150.929 186.963 151.214 186.679 151.642 186.679C152.069 186.679 152.354 186.963 152.354 187.391V191.947C152.496 192.375 152.069 192.659 151.642 192.659ZM26.8537 173.293C26.5687 173.293 26.2838 173.151 26.1414 172.866C25.4291 171.442 24.8593 170.018 24.432 168.594C24.2895 168.167 24.432 167.74 24.8593 167.597C25.2867 167.455 25.714 167.597 25.8565 168.025C26.2838 169.449 26.8537 170.73 27.5659 172.154C27.7084 172.581 27.5659 173.008 27.1386 173.151C27.1386 173.293 26.9961 173.293 26.8537 173.293ZM151.642 183.688C151.214 183.688 150.929 183.404 150.929 182.976V178.42C150.929 177.992 151.214 177.708 151.642 177.708C152.069 177.708 152.354 177.992 152.354 178.42V182.976C152.496 183.261 152.069 183.688 151.642 183.688ZM23.8622 164.749C23.5772 164.749 23.1499 164.465 23.1499 164.18C22.7225 162.613 22.5801 161.047 22.4376 159.623C22.4376 159.196 22.7225 158.769 23.1499 158.769C23.5772 158.769 24.0046 159.054 24.0046 159.481C24.1471 160.905 24.432 162.329 24.7169 163.895C24.8593 164.322 24.5744 164.749 24.1471 164.749C24.0046 164.749 23.8622 164.749 23.8622 164.749ZM151.642 174.575C151.214 174.575 150.929 174.29 150.929 173.863V169.164C150.929 168.737 151.214 168.452 151.642 168.452C152.069 168.452 152.354 168.737 152.354 169.164V173.72C152.496 174.148 152.069 174.575 151.642 174.575ZM151.642 165.461C151.214 165.461 150.929 165.177 150.929 164.749V160.193C150.929 159.766 151.214 159.481 151.642 159.481C152.069 159.481 152.354 159.766 152.354 160.193V164.749C152.496 165.034 152.069 165.461 151.642 165.461ZM151.642 156.348C151.214 156.348 150.929 156.063 150.929 155.636V151.079C150.929 150.652 151.214 150.367 151.642 150.367C152.069 150.367 152.354 150.652 152.354 151.079V155.636C152.496 155.921 152.069 156.348 151.642 156.348ZM23.0074 155.778C22.5801 155.778 22.2952 155.494 22.2952 155.066V150.51C22.2952 150.082 22.5801 149.798 23.0074 149.798C23.4348 149.798 23.7197 150.082 23.7197 150.51V155.066C23.7197 155.494 23.4348 155.778 23.0074 155.778ZM151.642 147.235C151.214 147.235 150.929 146.95 150.929 146.523V141.966C150.929 141.539 151.214 141.254 151.642 141.254C152.069 141.254 152.354 141.539 152.354 141.966V146.523C152.496 146.807 152.069 147.235 151.642 147.235ZM23.0074 146.665C22.5801 146.665 22.2952 146.38 22.2952 145.953V141.396C22.2952 140.969 22.5801 140.684 23.0074 140.684C23.4348 140.684 23.7197 140.969 23.7197 141.396V145.953C23.7197 146.38 23.4348 146.665 23.0074 146.665ZM151.642 138.548C151.214 138.548 150.929 138.263 150.929 137.836V133.28C150.929 132.852 151.214 132.568 151.642 132.568C152.069 132.568 152.354 132.852 152.354 133.28V137.836C152.496 138.121 152.069 138.548 151.642 138.548ZM23.0074 137.979C22.5801 137.979 22.2952 137.694 22.2952 137.267V132.71C22.2952 132.283 22.5801 131.998 23.0074 131.998C23.4348 131.998 23.7197 132.283 23.7197 132.71V137.267C23.7197 137.694 23.4348 137.979 23.0074 137.979ZM151.642 129.435C151.214 129.435 150.929 129.15 150.929 128.723V124.166C150.929 123.739 151.214 123.454 151.642 123.454C152.069 123.454 152.354 123.739 152.354 124.166V128.723C152.496 129.008 152.069 129.435 151.642 129.435ZM23.0074 128.865C22.5801 128.865 22.2952 128.58 22.2952 128.153V123.597C22.2952 123.169 22.5801 122.885 23.0074 122.885C23.4348 122.885 23.7197 123.169 23.7197 123.597V128.153C23.7197 128.58 23.4348 128.865 23.0074 128.865ZM151.642 120.179C151.214 120.179 150.929 119.894 150.929 119.467V114.91C150.929 114.483 151.214 114.198 151.642 114.198C152.069 114.198 152.354 114.483 152.354 114.91V119.467C152.496 119.752 152.069 120.179 151.642 120.179ZM23.0074 119.609C22.5801 119.609 22.2952 119.325 22.2952 118.897V114.341C22.2952 113.913 22.5801 113.629 23.0074 113.629C23.4348 113.629 23.7197 113.913 23.7197 114.341V118.897C23.7197 119.325 23.4348 119.609 23.0074 119.609ZM151.642 110.496C151.214 110.496 150.929 110.211 150.929 109.784V105.227C150.929 104.8 151.214 104.515 151.642 104.515C152.069 104.515 152.354 104.8 152.354 105.227V109.784C152.496 110.211 152.069 110.496 151.642 110.496ZM23.0074 110.069C22.5801 110.069 22.2952 109.784 22.2952 109.357V104.8C22.2952 104.373 22.5801 104.088 23.0074 104.088C23.4348 104.088 23.7197 104.373 23.7197 104.8V109.357C23.7197 109.642 23.4348 110.069 23.0074 110.069ZM151.642 101.382C151.214 101.382 150.929 101.098 150.929 100.67V96.1138C150.929 95.6866 151.214 95.4018 151.642 95.4018C152.069 95.4018 152.354 95.6866 152.354 96.1138V100.67C152.496 101.098 152.069 101.382 151.642 101.382ZM23.0074 100.955C22.5801 100.955 22.2952 100.67 22.2952 100.243V95.6866C22.2952 95.2594 22.5801 94.9746 23.0074 94.9746C23.4348 94.9746 23.7197 95.2594 23.7197 95.6866V100.243C23.7197 100.528 23.4348 100.955 23.0074 100.955ZM151.642 92.269C151.214 92.269 150.929 91.9842 150.929 91.557V89.5635C150.929 88.7091 150.929 87.8547 150.787 87.0003C150.787 86.5731 151.072 86.1459 151.499 86.1459C151.927 86.1459 152.354 86.4307 152.354 86.8579C152.496 87.7123 152.496 88.5667 152.496 89.5635V91.557C152.496 91.9842 152.069 92.269 151.642 92.269ZM23.0074 91.8418C22.5801 91.8418 22.2952 91.557 22.2952 91.1298V86.5731C22.2952 86.1459 22.5801 85.8611 23.0074 85.8611C23.4348 85.8611 23.7197 86.1459 23.7197 86.5731V91.1298C23.7197 91.557 23.4348 91.8418 23.0074 91.8418ZM150.787 83.298C150.502 83.298 150.075 83.0132 150.075 82.7284C149.79 81.3044 149.362 79.8804 148.793 78.4565C148.65 78.0293 148.793 77.6021 149.22 77.4597C149.647 77.3173 150.075 77.4597 150.217 77.8869C150.787 79.3108 151.214 80.8772 151.499 82.3012C151.642 82.7284 151.357 83.1556 150.929 83.1556C150.929 83.298 150.929 83.298 150.787 83.298ZM23.0074 82.7284C22.5801 82.7284 22.2952 82.4436 22.2952 82.0164V77.4597C22.2952 77.0325 22.5801 76.7477 23.0074 76.7477C23.4348 76.7477 23.7197 77.0325 23.7197 77.4597V82.0164C23.7197 82.4436 23.4348 82.7284 23.0074 82.7284ZM147.796 74.7541C147.511 74.7541 147.226 74.6117 147.083 74.3269C146.513 73.0453 145.801 71.6214 144.946 70.3398C144.662 69.9126 144.804 69.4854 145.231 69.343C145.659 69.2006 146.086 69.2006 146.229 69.6278C147.083 70.9094 147.796 72.3334 148.365 73.7573C148.508 74.1845 148.365 74.6117 147.938 74.7541C148.08 74.7541 147.938 74.7541 147.796 74.7541ZM23.0074 73.6149C22.5801 73.6149 22.2952 73.3301 22.2952 72.9029V68.3462C22.2952 67.919 22.5801 67.6342 23.0074 67.6342C23.4348 67.6342 23.7197 67.919 23.7197 68.3462V72.9029C23.7197 73.3301 23.4348 73.6149 23.0074 73.6149ZM143.237 66.9222C142.952 66.9222 142.81 66.7798 142.667 66.6374C141.813 65.3559 140.815 64.2167 139.818 63.2199C139.533 62.9351 139.533 62.3655 139.818 62.0807C140.103 61.7959 140.673 61.7959 140.958 62.0807C141.955 63.2199 142.952 64.3591 143.807 65.6407C144.092 65.9255 143.949 66.495 143.664 66.6374C143.522 66.7798 143.38 66.9222 143.237 66.9222ZM23.0074 64.5015C22.5801 64.5015 22.2952 64.2167 22.2952 63.7895V59.2328C22.2952 58.8056 22.5801 58.5208 23.0074 58.5208C23.4348 58.5208 23.7197 58.8056 23.7197 59.2328V63.7895C23.7197 64.2167 23.4348 64.5015 23.0074 64.5015ZM137.112 60.0872C136.969 60.0872 136.684 60.0872 136.542 59.9448C135.402 58.948 134.263 57.9512 132.98 57.2392C132.696 56.9544 132.553 56.5272 132.696 56.2424C132.981 55.9576 133.408 55.8152 133.693 55.9576C134.975 56.812 136.114 57.6664 137.397 58.8056C137.681 59.0904 137.681 59.5176 137.397 59.9448C137.539 60.0872 137.254 60.0872 137.112 60.0872ZM23.0074 55.388C22.5801 55.388 22.2952 55.1032 22.2952 54.676V50.1193C22.2952 49.6921 22.5801 49.4073 23.0074 49.4073C23.4348 49.4073 23.7197 49.6921 23.7197 50.1193V54.676C23.7197 55.1032 23.4348 55.388 23.0074 55.388ZM129.562 55.1032C129.419 55.1032 129.277 55.1032 129.134 54.9608L125.146 52.6825C124.718 52.5401 124.718 51.9705 124.861 51.6857C125.003 51.2585 125.573 51.2585 125.858 51.4009L129.847 53.6793C130.274 53.8217 130.274 54.3912 130.131 54.676C130.131 54.9608 129.847 55.1032 129.562 55.1032ZM121.727 50.5465C121.584 50.5465 121.442 50.5465 121.299 50.4041L117.311 48.1257C116.883 47.9833 116.883 47.4138 117.026 47.129C117.168 46.7018 117.738 46.7018 118.023 46.8442L122.012 49.1225C122.439 49.2649 122.439 49.8345 122.297 50.1193C122.154 50.4041 121.869 50.5465 121.727 50.5465ZM23.0074 46.2746C22.5801 46.2746 22.2952 45.9898 22.2952 45.5626V41.0059C22.2952 40.5787 22.5801 40.2939 23.0074 40.2939C23.4348 40.2939 23.7197 40.5787 23.7197 41.0059V45.5626C23.7197 45.9898 23.4348 46.2746 23.0074 46.2746ZM113.749 45.9898C113.607 45.9898 113.465 45.9898 113.322 45.8474L109.333 43.569C108.906 43.4266 108.906 42.857 109.049 42.5722C109.191 42.145 109.761 42.1451 110.046 42.2874L114.034 44.5658C114.462 44.7082 114.462 45.2778 114.319 45.5626C114.319 45.8474 114.034 45.9898 113.749 45.9898ZM105.915 41.4331C105.772 41.4331 105.63 41.4331 105.487 41.2907L101.499 39.0123C101.071 38.8699 101.071 38.3003 101.214 38.0155C101.356 37.5883 101.926 37.5883 102.211 37.7307L106.2 40.0091C106.627 40.1515 106.627 40.7211 106.484 41.0059C106.342 41.2907 106.2 41.4331 105.915 41.4331ZM23.0074 37.1611C22.5801 37.1611 22.2952 36.8763 22.2952 36.4491V31.8924C22.2952 31.4652 22.5801 31.1804 23.0074 31.1804C23.4348 31.1804 23.7197 31.4652 23.7197 31.8924V36.4491C23.7197 36.8763 23.4348 37.1611 23.0074 37.1611ZM97.9373 36.8763C97.7948 36.8763 97.6524 36.8763 97.5099 36.7339L93.5213 34.4556C93.0939 34.3132 93.0939 33.7436 93.2364 33.4588C93.3788 33.0316 93.9486 33.0316 94.2335 33.174L98.2222 35.4524C98.6495 35.5948 98.6495 36.1643 98.5071 36.4491C98.5071 36.7339 98.2222 36.8763 97.9373 36.8763ZM90.1024 32.3196C89.96 32.3196 89.8175 32.3196 89.675 32.1772L85.6864 29.8988C85.259 29.7564 85.259 29.1869 85.4015 28.9021C85.5439 28.4749 86.1137 28.4749 86.3987 28.6173L90.3873 30.8956C90.8147 31.038 90.8147 31.6076 90.6722 31.8924C90.6722 32.1772 90.3873 32.3196 90.1024 32.3196ZM23.0074 28.0477C22.5801 28.0477 22.2952 27.7629 22.2952 27.3357V22.779C22.2952 22.3518 22.5801 22.067 23.0074 22.067C23.4348 22.067 23.7197 22.3518 23.7197 22.779V27.3357C23.7197 27.7629 23.4348 28.0477 23.0074 28.0477ZM82.1251 27.7629C81.9826 27.7629 81.8402 27.7629 81.6977 27.6205L77.7091 25.3421C77.2817 25.1997 77.2817 24.6301 77.4242 24.3453C77.5666 23.9182 78.1364 23.9181 78.4213 24.0605L82.41 26.3389C82.8373 26.4813 82.8373 27.0509 82.6949 27.3357C82.6949 27.6205 82.41 27.7629 82.1251 27.7629ZM74.2902 23.2062C74.1478 23.2062 74.0053 23.2062 73.8629 23.0638L69.8742 20.7854C69.4468 20.643 69.4468 20.0734 69.5893 19.7886C69.7318 19.3614 70.3016 19.3614 70.5865 19.5038L74.5751 21.7822C75.0025 21.9246 75.0025 22.4942 74.86 22.779C74.86 23.0638 74.5751 23.2062 74.2902 23.2062ZM23.0074 18.9342C22.5801 18.9342 22.2952 18.6494 22.2952 18.2222V15.5167C22.2952 14.8047 22.2952 14.2351 22.2952 13.6655C22.2952 13.2383 22.7225 12.9535 23.1499 12.9535C23.5772 12.9535 23.8622 13.3807 23.8622 13.8079C23.8622 14.3775 23.8622 14.9471 23.8622 15.5167V18.2222C23.7197 18.6494 23.4348 18.9342 23.0074 18.9342ZM66.4553 18.6494C66.3129 18.6494 66.1704 18.6494 66.028 18.507L62.0393 16.2287C61.7544 16.0863 61.612 15.6591 61.7544 15.3743C61.8969 14.9471 62.4667 14.9471 62.7516 15.0895L66.7403 17.3679C67.1676 17.5103 67.1676 18.0798 67.0252 18.3646C66.8827 18.6494 66.5978 18.6494 66.4553 18.6494ZM58.478 14.2351C58.3356 14.2351 58.1931 14.2351 58.0507 14.0927L54.062 11.8143C53.6347 11.6719 53.6347 11.1024 53.7771 10.8176C53.9196 10.3904 54.4894 10.3904 54.7743 10.5328L58.7629 12.8111C59.1903 12.9535 59.1903 13.5231 59.0478 13.8079C59.0478 14.0927 58.7629 14.2351 58.478 14.2351ZM23.8622 9.96317C23.7197 9.96317 23.7197 9.96317 23.5773 9.96317C23.1499 9.82077 23.0074 9.39359 23.1499 8.96639C23.7197 7.40002 24.432 5.97604 25.4291 4.69446C25.714 4.40967 26.1414 4.26727 26.5687 4.55207C26.8536 4.83686 26.9961 5.26405 26.7112 5.69124C25.8565 6.68803 25.1442 7.96961 24.7169 9.39359C24.5744 9.82078 24.2895 9.96317 23.8622 9.96317ZM50.6432 9.67838C50.5007 9.67838 50.3583 9.67838 50.2158 9.53599L46.2271 7.25763C45.7998 7.11523 45.7998 6.54563 45.9422 6.26084C46.0847 5.83364 46.6545 5.83365 46.9394 5.97604L50.9281 8.2544C51.3554 8.3968 51.3554 8.96639 51.213 9.25118C51.0705 9.53598 50.9281 9.67838 50.6432 9.67838ZM42.6658 5.12166C42.5234 5.12166 42.3809 5.12165 42.3809 4.97925H42.2385C40.9564 4.26727 39.5319 3.55528 38.2498 3.12809C37.8225 2.98569 37.68 2.55849 37.8225 2.1313C37.9649 1.70411 38.3923 1.56172 38.8196 1.70411C40.2442 2.13131 41.6687 2.8433 43.0932 3.69768C43.5206 3.84008 43.663 4.40967 43.3781 4.69446C43.2356 4.97926 42.9507 5.12166 42.6658 5.12166ZM29.5602 3.27049C29.2753 3.27049 28.9904 3.12808 28.848 2.84329C28.7055 2.4161 28.848 1.98891 29.2753 1.84651C30.6999 1.27692 32.1244 0.992126 33.8338 0.992126H34.1187C34.5461 0.992126 34.831 1.41932 34.831 1.70411C34.831 2.13131 34.5461 2.4161 34.1187 2.4161H33.9763C32.5517 2.4161 31.2697 2.7009 29.9876 3.27049C29.8451 3.12809 29.7027 3.27049 29.5602 3.27049Z" fill="url(#paint0_linear_137_831)"/>
<path d="M37.6666 113.214C45.8848 108.411 45.7874 92.9599 37.449 78.7023C29.1105 64.4447 15.6887 56.78 7.47043 61.5826C-0.747821 66.3853 -0.650387 81.8368 7.68805 96.0944C16.0265 110.352 29.4483 118.017 37.6666 113.214Z" fill="white"/>
<path d="M32.1244 115.48C28.9904 115.48 25.714 114.483 22.1527 112.489C10.1867 105.654 0.5 88.8514 0.5 75.1813C0.5 65.6406 5.34337 59.3751 13.0358 59.3751C16.1697 59.3751 19.4461 60.3719 23.0074 62.3655C34.9734 69.2006 44.6602 86.0035 44.6602 99.6737C44.5177 109.357 39.6743 115.48 32.1244 115.48ZM13.0358 60.9415C6.34054 60.9415 2.06697 66.3526 2.06697 75.1813C2.06697 88.4242 11.4688 104.515 23.0074 111.208C26.2838 113.059 29.2753 114.056 32.1244 114.056C38.8196 114.056 43.0932 108.645 43.0932 99.8161C43.0932 86.5731 33.6914 70.4821 22.1527 63.7894C18.8763 61.7959 15.8848 60.9415 13.0358 60.9415Z" fill="url(#paint1_linear_137_831)"/>
<path d="M8.47732 83.7251L18.7339 106.082L37.8225 86.0035C38.5347 85.2915 37.9649 83.5827 36.9678 82.4436L31.1272 77.1749C30.415 76.4629 29.5602 76.4629 29.1329 77.0325L18.7339 94.5474L14.3179 83.7251C13.8905 82.7284 13.0358 81.874 12.3235 81.7316L9.33204 81.162C8.33487 81.0196 7.90752 82.3012 8.47732 83.7251Z" fill="url(#paint2_linear_137_831)"/>
<defs>
<linearGradient id="paint0_linear_137_831" x1="22.2952" y1="0.992126" x2="219.095" y2="113.449" gradientUnits="userSpaceOnUse">
<stop stop-color="#C049F4"/>
<stop offset="1" stop-color="#507BF5"/>
</linearGradient>
<linearGradient id="paint1_linear_137_831" x1="0.5" y1="59.3751" x2="52.1535" y2="103.027" gradientUnits="userSpaceOnUse">
<stop stop-color="#C049F4"/>
<stop offset="1" stop-color="#507BF5"/>
</linearGradient>
<linearGradient id="paint2_linear_137_831" x1="8.22211" y1="76.6216" x2="35.6272" y2="106.504" gradientUnits="userSpaceOnUse">
<stop stop-color="#C049F4"/>
<stop offset="1" stop-color="#507BF5"/>
</linearGradient>
</defs>
</svg>
