<svg width="291" height="450" viewBox="0 0 291 450" fill="none" xmlns="http://www.w3.org/2000/svg">
<g opacity="0.2">
<path opacity="0.047619" d="M47.1308 324.301C49.6949 322.878 53.1137 321.881 56.3901 321.881C59.2392 321.738 61.9458 322.45 64.0826 323.589C64.225 323.589 69.2108 326.437 69.2108 326.437L152.83 374.283L159.241 377.985L241.578 425.119C244.285 426.685 246.136 429.391 246.136 432.097C246.279 435.229 244.427 438.077 241.008 440.071L233.458 443.915C233.316 443.915 227.19 447.048 227.048 447.048C224.341 448.472 221.065 449.327 217.788 449.327C214.939 449.327 212.09 448.615 210.096 447.333L127.759 399.487L122.345 396.355L45.4213 351.642C42.7147 350.075 40.8629 347.512 40.8629 344.664C40.8629 341.674 42.4298 338.684 45.5638 336.832L45.7062 334.981C45.7062 334.697 46.9883 324.301 47.1308 324.301Z" fill="#ABB2E2"/>
<path opacity="0.095238" d="M47.2732 325.013C49.6949 323.589 53.2562 322.593 56.3901 322.45C59.2392 322.308 61.9458 322.877 64.0826 324.017C64.225 324.017 69.2108 326.722 69.2108 326.865L152.403 374.425L158.671 377.985L240.723 424.834C243.287 426.258 245.282 428.964 245.424 431.669C245.567 434.66 243.857 437.65 240.438 439.644L233.031 443.488C232.888 443.631 226.905 446.621 226.62 446.621C223.914 448.045 220.78 448.757 217.504 448.615C214.797 448.615 211.805 447.76 209.954 446.621L128.186 399.06L122.773 395.927L46.4185 351.499C43.8543 350.075 41.7176 347.37 41.7176 344.664C41.7176 341.816 42.7147 338.684 45.8487 336.975L45.9911 335.124C45.7062 335.266 46.8458 325.298 47.2732 325.013Z" fill="#A7ADDF"/>
<path opacity="0.1429" d="M47.2732 325.868C49.5524 324.586 53.2562 323.447 56.2477 323.162C59.0967 322.878 61.8033 323.447 63.9401 324.586C64.225 324.586 68.9259 327.149 69.2108 327.292L152.118 374.71L158.386 378.27L240.011 424.977C242.433 426.401 244.569 429.106 244.854 431.669C245.139 434.66 243.572 437.65 240.153 439.644L232.888 443.488C232.603 443.631 226.905 446.479 226.62 446.479C223.914 447.76 220.78 448.472 217.646 448.33C215.082 448.33 211.948 447.333 210.096 446.194L128.898 399.06L123.485 395.928L47.2732 351.927C44.8515 350.503 42.5723 347.797 42.5723 345.376C42.5723 342.671 43.1421 339.538 46.1336 337.829V336.12C45.5638 335.836 46.8458 326.153 47.2732 325.868Z" fill="#A3A9DC"/>
<path opacity="0.1905" d="M47.4156 326.722C49.5524 325.441 53.3986 324.301 56.2477 324.017C58.9543 323.732 61.6609 324.159 63.9401 325.156C64.3675 325.156 68.9259 327.577 69.2108 327.861L151.691 374.995L157.959 378.555L239.299 425.119C241.578 426.401 244 429.249 244.285 431.669C244.569 434.66 243.287 437.508 239.726 439.501L232.461 443.346C232.176 443.488 226.62 446.336 226.193 446.336C223.629 447.618 220.353 448.187 217.361 448.045C214.939 448.045 211.663 446.906 209.954 445.909L129.183 399.06L123.77 395.927L48.4128 352.211C46.1336 350.93 43.5694 348.082 43.5694 345.803C43.5694 343.24 43.7119 340.108 46.4185 338.399L46.276 336.69C45.5638 336.405 46.7034 327.149 47.4156 326.722Z" fill="#9FA4D8"/>
<path opacity="0.2381" d="M47.4157 327.577C49.41 326.437 53.3986 325.156 55.9628 324.729C58.6694 324.301 61.376 324.871 63.5128 325.725C63.9401 325.725 68.3561 328.146 68.7835 328.289L150.836 375.28L157.104 378.84L238.017 425.119C240.153 426.401 242.718 429.249 243.002 431.527C243.43 434.375 242.148 437.365 238.729 439.359L231.606 443.346C231.179 443.631 225.766 446.194 225.338 446.194C222.774 447.475 219.64 447.903 216.649 447.76C214.37 447.76 210.951 446.479 209.384 445.482L129.183 398.918L123.912 395.785L49.1251 352.354C46.9883 351.072 44.1393 348.224 44.1393 346.088C44.1393 343.668 43.8544 340.392 46.4185 338.968L46.276 337.26C45.4213 336.975 46.5609 328.146 47.4157 327.577Z" fill="#9BA0D5"/>
<path opacity="0.2857" d="M47.5581 328.431C49.41 327.292 53.5411 326.01 55.9628 325.583C58.6694 325.156 61.376 325.583 63.5128 326.437C64.0826 326.437 68.3561 328.716 68.7835 328.858L150.551 375.707L156.819 379.267L237.447 425.404C239.441 426.543 242.29 429.533 242.575 431.669C243.002 434.517 242.005 437.508 238.444 439.501L231.321 443.488C230.894 443.773 225.623 446.336 225.054 446.336C222.489 447.475 219.355 448.045 216.506 447.76C214.37 447.76 210.808 446.336 209.241 445.482L129.611 399.345L124.34 396.212L49.9798 353.066C47.9855 351.927 44.994 348.936 44.994 346.943C44.994 344.664 44.2817 341.389 46.7034 339.965L46.4185 338.399C45.4213 337.544 46.4185 329.001 47.5581 328.431Z" fill="#979BD2"/>
<path opacity="0.3333" d="M47.5581 329.285C49.41 328.289 53.5411 326.865 55.8203 326.295C58.3845 325.725 61.0911 326.153 63.3703 327.007C64.0826 327.007 68.0712 329.143 68.641 329.428L149.981 375.992L156.107 379.552L236.307 425.546C238.159 426.685 241.578 429.676 241.578 431.527C242.575 434.232 241.151 437.223 237.732 439.216L230.752 443.204C230.182 443.488 225.196 445.909 224.484 445.909C221.92 447.048 218.928 447.475 216.079 447.048C214.085 447.048 210.381 445.482 208.956 444.627L129.895 398.918L124.625 395.928L50.8345 353.208C48.9826 352.069 45.7062 349.079 45.7062 347.228C45.7062 345.092 44.5666 341.674 46.7034 340.392L46.4185 338.826C45.2789 338.114 46.276 329.997 47.5581 329.285Z" fill="#9397CF"/>
<path opacity="0.381" d="M47.5581 330.14C49.2675 329.143 53.6836 327.577 55.6779 327.149C58.242 326.437 60.9486 326.865 63.2278 327.577C63.9401 327.577 67.9288 329.57 68.4986 329.855L149.554 376.277L155.679 379.837L235.595 425.546C237.304 426.543 241.008 429.676 241.008 431.384C242.148 434.09 240.866 437.08 237.304 439.074L230.324 443.061C229.754 443.488 224.911 445.624 224.199 445.767C221.635 446.763 218.643 447.191 215.937 446.763C214.085 446.763 210.238 445.055 208.814 444.343L130.323 398.775L125.052 395.785L51.8317 353.351C50.1223 352.354 46.5609 349.363 46.5609 347.512C46.5609 345.519 44.8515 342.101 46.9883 340.82L46.5609 339.396C45.2789 338.684 46.276 330.852 47.5581 330.14Z" fill="#8F92CC"/>
<path opacity="0.4286" d="M47.7006 330.852C49.2675 329.997 53.826 328.289 55.6779 327.719C58.242 327.007 60.8062 327.292 63.0854 328.004C63.9401 328.004 67.6439 329.855 68.3561 330.282L148.984 376.561L155.109 380.121L234.598 425.689C236.165 426.685 240.153 429.818 240.153 431.384C241.578 433.948 240.153 436.938 236.735 439.074L229.897 443.061C229.185 443.488 224.626 445.624 223.771 445.624C221.207 446.621 218.216 446.906 215.652 446.479C213.942 446.479 209.811 444.627 208.672 443.915L130.75 398.775L125.622 395.785L52.8288 353.635C51.2619 352.639 47.4157 349.648 47.4157 347.939C47.4157 346.088 45.2789 342.671 47.2732 341.532L46.8459 340.108C45.1364 339.253 46.1336 331.849 47.7006 330.852Z" fill="#8B8EC9"/>
<path opacity="0.4762" d="M47.7006 331.706C49.1251 330.852 53.826 329.001 55.5354 328.431C57.9571 327.577 60.6637 328.004 62.9429 328.573C63.9401 328.573 67.5014 330.282 68.2137 330.709L148.414 376.704L154.54 380.264L233.601 425.689C235.025 426.543 239.156 429.818 239.156 431.242C240.723 433.805 239.441 436.796 235.88 438.789L229.042 442.776C228.187 443.204 223.914 445.197 222.917 445.339C220.353 446.194 217.504 446.479 214.939 446.051C213.372 446.051 209.099 444.058 208.102 443.488L130.75 398.633L125.622 395.643L53.3987 353.778C51.9741 352.923 47.9855 349.791 47.9855 348.224C47.9855 346.516 45.4213 342.956 47.2732 341.959L46.7034 340.535C45.1364 339.823 45.9911 332.703 47.7006 331.706Z" fill="#8789C6"/>
<path opacity="0.5238" d="M47.843 332.561C49.1251 331.849 53.9685 329.855 55.393 329.285C57.8147 328.431 60.5213 328.716 62.8005 329.285C63.7977 329.285 67.359 330.852 68.0712 331.279L147.987 377.131L154.112 380.549L232.888 425.689C234.17 426.401 238.586 429.818 238.586 431.1C240.296 433.52 239.156 436.653 235.595 438.647L228.9 442.634C228.045 443.204 223.914 445.055 222.774 445.055C220.21 445.909 217.361 446.051 214.939 445.624C213.515 445.624 209.099 443.488 208.102 442.919L131.32 398.491L126.192 395.5L54.5383 354.063C53.2562 353.351 48.9826 350.075 48.9826 348.651C48.9826 347.085 45.9911 343.525 47.5581 342.528L46.9883 341.247C45.1364 340.392 45.8487 333.7 47.843 332.561Z" fill="#8385C2"/>
<path opacity="0.5714" d="M47.843 333.415C48.9826 332.703 53.9684 330.567 55.2505 329.997C57.5298 329.001 60.2363 329.285 62.658 329.855C63.7977 329.855 67.074 331.421 67.9288 331.849L147.417 377.416L153.4 380.833L231.749 425.831C233.031 426.543 237.589 429.961 237.589 431.1C239.441 433.52 238.302 436.511 234.74 438.647L228.045 442.634C227.048 443.204 223.202 444.912 221.92 445.055C219.355 445.767 216.649 445.909 214.227 445.339C212.945 445.339 208.387 443.061 207.532 442.634L131.178 398.491L126.049 395.5L54.8232 354.347C53.5411 353.635 49.1251 350.36 49.1251 349.221C49.1251 347.939 45.7062 344.095 47.1307 343.24L46.4185 341.959C44.994 340.962 45.8487 334.696 47.843 333.415Z" fill="#7F80BF"/>
<path opacity="0.619" d="M47.9855 334.269C48.9826 333.7 54.1109 331.421 55.2505 330.852C57.5298 329.855 60.2364 329.997 62.5156 330.425C63.7977 330.425 66.9316 331.849 67.7863 332.276L146.99 377.701L152.973 381.118L231.036 425.973C232.176 426.543 237.019 430.103 237.019 431.1C239.014 433.378 238.017 436.511 234.455 438.504L227.903 442.491C226.905 443.061 223.059 444.627 221.92 444.77C219.355 445.482 216.649 445.624 214.37 444.912C213.23 444.912 208.529 442.491 207.674 442.064L131.89 398.206L126.904 395.358L56.2477 354.49C55.1081 353.92 50.5496 350.503 50.5496 349.506C50.5496 348.367 46.561 344.522 47.9855 343.81L47.1308 342.528C44.994 341.532 45.7062 335.551 47.9855 334.269Z" fill="#7B7CBC"/>
<path opacity="0.6667" d="M47.9855 335.124C48.8402 334.554 54.1109 332.133 55.1081 331.564C57.2449 330.425 60.0939 330.567 62.3731 330.994C63.6552 330.994 66.6467 332.276 67.6439 332.845L146.42 378.128L152.403 381.545L230.039 426.116C231.036 426.685 236.165 430.103 236.165 431.1C238.302 433.378 237.304 436.511 233.743 438.504L227.19 442.492C226.051 443.204 222.489 444.627 221.207 444.77C218.643 445.339 215.937 445.482 213.8 444.77C212.803 444.77 207.959 442.207 207.247 441.922L132.032 398.491L127.046 395.643L56.9599 355.059C55.9628 354.49 51.1194 351.072 51.1194 350.218C51.1194 349.221 46.7034 345.234 47.843 344.664L46.9883 343.525C44.8515 342.244 45.5638 336.548 47.9855 335.124Z" fill="#7777B9"/>
<path opacity="0.7143" d="M48.1279 335.978C48.8402 335.551 54.2534 332.845 55.1081 332.418C57.2449 331.137 59.9515 331.279 62.3731 331.706C63.7977 331.706 66.6467 332.845 67.6439 333.415L146.135 378.413L152.118 381.83L229.47 426.258C230.324 426.685 235.737 430.245 235.737 431.1C238.017 433.236 237.162 436.368 233.601 438.504L227.19 442.492C226.051 443.204 222.632 444.485 221.207 444.627C218.786 445.197 216.079 445.197 213.8 444.485C212.945 444.485 207.959 441.922 207.389 441.495L132.745 398.348L127.759 395.5L58.0996 355.344C57.2449 354.917 52.1166 351.499 52.1166 350.645C52.1166 349.791 47.2732 345.804 48.2704 345.234L47.2732 344.095C44.8515 342.813 45.4213 337.402 48.1279 335.978Z" fill="#7373B6"/>
<path opacity="0.7619" d="M48.1279 336.832C48.6977 336.405 54.1109 333.13 54.9656 333.13C57.2449 332.276 59.809 331.991 62.2307 332.276C63.7976 332.276 66.3618 333.273 67.5014 333.985L145.565 378.84L151.548 382.257L228.472 426.401C229.185 426.828 234.74 430.388 234.74 431.1C237.162 433.236 236.45 436.368 232.746 438.504L226.478 442.492C225.196 443.204 222.062 444.485 220.495 444.627C218.073 445.197 215.367 445.055 213.23 444.343C212.518 444.343 207.389 441.637 206.82 441.352L132.744 398.633L127.759 395.785L58.6694 355.914C57.9571 355.487 52.5439 352.069 52.5439 351.357C52.5439 350.645 47.2732 346.658 48.1279 346.088L47.1307 344.949C44.7091 343.383 45.2789 338.399 48.1279 336.832Z" fill="#6F6EB3"/>
<path opacity="0.8095" d="M48.1279 337.544C48.6977 337.26 54.1109 333.7 54.6807 333.7C56.8175 332.703 59.5241 332.418 61.8033 332.703C63.3703 332.703 65.9344 333.557 67.0741 334.269L144.71 378.982L150.693 382.4L227.333 426.401C227.903 426.685 233.743 430.388 233.743 430.957C236.307 433.093 235.595 436.226 232.034 438.22L225.766 442.349C224.341 443.204 221.492 444.2 219.783 444.343C217.361 444.77 214.797 444.628 212.66 443.773C212.09 443.773 206.82 440.925 206.392 440.64L132.887 398.206L128.044 395.358L59.5241 355.771C58.9543 355.487 53.3986 351.927 53.3986 351.357C53.3986 350.787 47.7006 346.658 48.2704 346.373L47.1307 345.376C44.7091 343.952 45.2789 339.253 48.1279 337.544Z" fill="#6B6AB0"/>
<path opacity="0.8571" d="M48.2704 338.399C48.6977 338.114 54.2534 334.554 54.6807 334.554C56.8175 333.557 59.3816 333.13 61.8033 333.273C63.5128 333.273 65.792 333.985 67.0741 334.697L144.426 379.125L150.266 382.542L226.478 426.401C226.905 426.685 233.031 430.388 233.031 430.815C235.737 432.809 235.168 435.941 231.464 438.077L225.338 442.207C223.914 443.061 221.207 444.058 219.498 444.2C217.076 444.628 214.512 444.343 212.518 443.488C212.09 443.488 206.677 440.498 206.25 440.356L133.314 398.206L128.471 395.358L60.3788 356.056C59.9514 355.771 54.1109 352.211 54.1109 351.784C54.1109 351.357 47.9855 347.228 48.4128 346.943L47.2732 345.946C44.5666 344.522 45.1364 340.25 48.2704 338.399Z" fill="#6765AC"/>
<path opacity="0.9048" d="M48.2704 339.253C48.5553 339.111 54.2534 335.266 54.5383 335.266C56.675 334.269 59.2392 333.7 61.6609 333.842C63.5127 333.842 65.6495 334.554 66.9316 335.266L143.856 379.552L149.696 382.969L225.481 426.543C225.766 426.685 232.176 430.53 232.176 430.815C235.025 432.808 234.455 435.941 230.894 438.077L224.769 442.207C223.202 443.061 220.78 443.915 218.928 444.058C216.506 444.343 213.942 444.058 212.09 443.203C211.805 443.203 206.107 440.071 205.965 439.928L133.599 398.206L128.756 395.358L61.2335 356.483C60.9486 356.341 54.8232 352.639 54.8232 352.354C54.8232 352.069 48.1279 347.797 48.5553 347.655L47.2732 346.8C44.5666 345.092 44.994 341.104 48.2704 339.253Z" fill="#6361A9"/>
<path opacity="0.9524" d="M48.4128 340.108C48.5553 339.965 54.3958 336.12 54.5383 336.12C56.5326 334.981 59.2392 334.412 61.6609 334.554C63.5127 334.554 65.6495 335.124 66.9316 335.836L143.571 379.979L149.411 383.396L224.911 426.828C225.053 426.97 231.749 430.815 231.749 430.957C234.74 432.808 234.313 436.084 230.609 438.077L224.626 442.207C223.059 443.061 220.78 443.773 218.786 443.915C216.364 444.2 213.942 443.773 212.09 442.919C211.948 442.919 206.107 439.644 206.107 439.501L134.169 398.063L129.326 395.358L62.2307 356.768C62.0882 356.626 55.8203 352.923 55.8203 352.781C55.8203 352.639 48.6977 348.367 48.8402 348.224L47.5581 347.37C44.4242 345.661 44.8515 342.101 48.4128 340.108Z" fill="#5F5CA6"/>
<path d="M211.663 442.492L129.611 395.216L47.5581 348.082C44.4242 346.231 44.8515 343.098 48.4128 340.962L54.3958 336.832C58.0996 334.696 63.5127 334.554 66.7891 336.263L148.842 383.539L230.894 430.815C234.028 432.666 233.601 435.799 230.039 437.935L224.056 442.064C220.353 444.058 214.797 444.343 211.663 442.492Z" fill="#5B58A3"/>
</g>
<path d="M84.1683 1.48596C84.1683 3.05234 84.0259 219.354 84.0259 240.144C84.0259 251.536 84.0259 270.618 84.0259 270.76C84.0259 278.307 79.1825 287.42 72.7722 292.262C83.741 298.527 227.903 380.549 246.564 391.371H262.946C262.946 398.633 262.946 404.614 262.946 404.614C262.946 409.882 266.507 413.158 270.068 413.87C270.353 413.87 270.638 414.012 270.923 414.012C271.066 414.012 271.35 414.012 271.493 414.012C271.635 414.012 271.778 414.012 271.92 414.012C273.487 413.87 275.339 413.3 277.191 412.161C279.185 411.022 281.037 409.313 282.747 407.462C284.883 405.468 286.45 403.19 287.448 400.342C289.299 396.639 290.297 392.795 290.297 389.235C290.297 389.235 290.297 387.811 290.297 384.251C290.297 383.396 290.297 119.818 290.297 118.964L84.1683 1.48596Z" fill="url(#paint0_linear_45_1038)"/>
<path d="M84.1683 47.9076L290.724 165.528C290.724 124.09 290.724 114.123 290.724 118.11L84.1683 0.489186C84.1683 -2.07397 84.0259 133.489 84.0259 154.279C84.0259 159.69 84.0259 166.952 84.0259 172.933C84.1683 139.754 84.1683 23.1304 84.1683 47.9076Z" fill="url(#paint1_linear_45_1038)"/>
<path d="M234.313 313.479C234.313 313.622 235.453 314.476 237.304 315.758C237.304 315.615 237.304 315.33 237.304 315.188C235.453 314.049 234.313 313.479 234.313 313.479Z" fill="#E6E7E8"/>
<g opacity="0.5">
<path opacity="0.03125" d="M51.5468 14.4442L52.1166 14.8713C67.5014 25.124 82.8863 27.2599 96.1343 21.2792C108.243 43.9205 123.058 61.4354 138.3 71.4032L138.87 71.8304C138.87 71.8304 138.585 76.6719 138.727 76.8143L137.018 106.433C132.175 157.839 116.647 161.256 91.006 179.198L90.4362 178.771C89.8664 177.489 89.2966 176.35 88.7268 175.211C87.4447 172.648 86.3051 170.085 85.1655 167.522C64.9373 124.945 52.4015 101.164 51.4043 50.3284L51.5468 42.6389V14.4442Z" fill="#FDFEFF"/>
<path opacity="0.0625" d="M51.8317 15.5833L52.4015 16.0105C67.6439 26.1208 82.7438 28.2567 95.9919 22.276C107.958 44.6325 122.488 62.005 137.73 71.8304L138.3 72.2576L138.158 77.0991L136.448 106.433C131.747 157.269 116.363 160.829 90.8636 178.486C90.8636 178.486 90.2938 178.059 90.2938 178.201C89.724 177.062 89.1542 175.923 88.4419 174.784C87.1598 172.221 86.0202 169.658 84.8806 167.237C64.9373 124.802 52.5439 101.307 51.5468 51.0404C51.5468 50.898 51.6892 43.4933 51.5468 43.3509L51.8317 15.5833Z" fill="#FCFCFE"/>
<path opacity="0.09375" d="M52.259 16.8649L52.8288 17.2921C67.9288 27.2599 82.8862 29.3959 95.9918 23.4152C107.815 45.4868 122.203 62.5745 137.161 72.4L137.73 72.8272C137.873 72.8272 137.588 77.5263 137.73 77.5263L136.021 106.433C131.32 156.842 116.22 160.259 91.006 177.774L90.4362 177.489C89.8664 176.35 89.1541 175.353 88.5843 174.214C87.4447 171.651 86.1626 169.088 85.023 166.667C65.2222 124.945 52.8288 101.734 51.8317 51.8947C51.8317 51.7523 51.8317 44.49 51.8317 44.3476L52.259 16.8649Z" fill="#FAFBFE"/>
<path opacity="0.125" d="M52.6864 18.1465L53.2562 18.5737C68.2137 28.3991 83.0287 30.3927 95.9918 24.6968C107.673 46.4836 121.918 63.4289 136.733 73.2544L137.303 73.6816C137.445 73.824 137.303 78.2383 137.303 78.3807L135.594 107.003C130.893 156.842 116.078 160.402 91.1485 177.774L90.5787 177.489C90.0089 176.493 89.2966 175.353 88.7268 174.357C87.5872 171.794 86.3051 169.373 85.1655 166.952C65.5071 125.372 53.2562 102.446 52.259 53.1763C52.259 52.8915 52.259 45.914 52.259 45.6292L52.6864 18.1465Z" fill="#F9FAFE"/>
<path opacity="0.1563" d="M52.9713 19.2857L53.5411 19.7129C68.3561 29.2535 83.0287 31.3895 95.7069 25.6936C107.246 47.1956 121.348 63.9985 135.878 73.6816C135.878 73.6816 136.448 73.9664 136.448 74.1088C136.591 74.2512 136.448 78.5231 136.591 78.6655L134.881 107.003C130.323 156.272 115.508 159.975 91.006 177.062L90.4362 176.777C89.8664 175.781 89.1541 174.784 88.5843 173.787C87.4447 171.224 86.3051 168.803 85.1655 166.382C65.6495 125.23 53.6836 102.446 52.5439 53.7459C52.5439 53.4611 52.5439 46.626 52.5439 46.3412L52.9713 19.2857Z" fill="#F7F8FD"/>
<path opacity="0.1875" d="M53.3987 20.5673C53.3987 20.5673 53.9685 20.8521 53.9685 20.9945C68.641 30.3927 83.0287 32.3863 95.7069 26.9752C107.103 48.1924 121.063 64.7105 135.451 74.3936C135.451 74.3936 136.021 74.6784 136.021 74.8208C136.163 74.9632 136.021 79.2351 136.306 79.2351L134.596 107.145C130.038 155.987 115.508 159.69 91.1485 176.493L90.5787 176.208C90.0089 175.211 89.2966 174.357 88.7268 173.502C87.5872 171.082 86.4476 168.661 85.3079 166.24C65.9344 125.372 54.1109 102.873 52.9713 54.7427C52.9713 54.4579 52.9713 47.7652 52.9713 47.338L53.3987 20.5673Z" fill="#F6F7FD"/>
<path opacity="0.2188" d="M53.826 21.8488C53.826 21.8488 54.3958 22.1336 54.3958 22.276C68.7835 31.5319 83.1712 33.5254 95.7069 28.1143C107.103 49.0468 120.636 65.4225 134.881 74.9631C134.881 74.9631 135.451 75.2479 135.451 75.3903C135.594 75.5327 135.594 79.6623 135.736 79.8047L134.169 107.287C129.611 155.56 115.365 159.405 91.2909 176.065L90.7211 175.781C90.1513 174.926 89.439 174.072 88.8692 173.218C87.7296 170.797 86.59 168.376 85.4504 165.955C66.2193 125.514 54.5383 103.158 53.3987 55.4547C53.3987 55.0275 53.3987 48.6196 53.3987 48.1924L53.826 21.8488Z" fill="#F4F5FD"/>
<path opacity="0.25" d="M54.1109 23.1304C54.1109 23.1304 54.6807 23.4152 54.6807 23.5576C68.926 32.671 83.1712 34.6646 95.5645 29.2535C106.818 49.9012 120.209 65.9921 134.311 75.6751C134.311 75.6751 134.881 75.9599 134.881 76.1023C135.024 76.2447 135.024 80.2319 135.309 80.3743L133.599 107.43C129.183 155.133 115.08 158.978 91.2909 175.496L90.7211 175.211C90.1513 174.357 89.4391 173.645 88.8692 172.79C87.7296 170.37 86.59 167.949 85.4504 165.67C66.3618 125.514 54.8232 103.443 53.826 56.3091C53.826 55.8819 53.826 49.6164 53.826 49.0468L54.1109 23.1304Z" fill="#F3F4FC"/>
<path opacity="0.2813" d="M54.5383 24.2696L55.1081 24.5544C69.2108 33.5254 83.3136 35.3766 95.5645 30.2503C106.676 50.6132 119.924 66.5617 133.742 76.1023C133.742 76.1023 134.169 76.3871 134.311 76.5295C134.596 76.6719 134.596 80.5167 134.739 80.6591L133.172 107.572C128.756 154.706 114.938 158.693 91.4334 174.926C91.4334 174.926 90.8636 174.642 90.8636 174.784C90.1513 174.072 89.5815 173.218 88.8692 172.506C87.7296 170.085 86.59 167.806 85.5928 165.386C66.6467 125.657 55.2505 103.727 54.2534 57.1635C54.2534 56.7363 54.2534 50.6132 54.2534 50.0436L54.5383 24.2696Z" fill="#F1F3FC"/>
<path opacity="0.3125" d="M54.9656 25.5512L55.5354 25.836C69.4957 34.6646 83.3136 36.5158 95.5645 31.3895C106.533 51.4676 119.639 67.1313 133.314 76.6719C133.314 76.6719 133.742 76.9567 133.884 77.0991C134.169 77.3839 134.169 80.9439 134.454 81.2287L132.745 107.715C128.328 154.421 114.796 158.408 91.4334 174.499C91.4334 174.499 90.8636 174.214 90.8636 174.357C90.1513 173.645 89.5815 172.933 88.8692 172.221C87.7296 169.8 86.59 167.522 85.5928 165.243C66.9316 125.799 55.6779 104.155 54.5383 58.1602C54.5383 57.5907 54.5383 51.7523 54.5383 51.1828L54.9656 25.5512Z" fill="#F0F1FC"/>
<path opacity="0.3438" d="M55.2505 26.8327L55.8203 27.1175C69.6382 35.6614 83.3136 37.655 95.4221 32.5286C106.248 52.3219 119.212 67.8433 132.602 77.2415C132.602 77.2415 133.029 77.5263 133.172 77.5263C133.457 77.8111 133.599 81.371 133.884 81.5134L132.317 107.715C128.044 153.851 114.653 157.981 91.5758 173.787C91.5758 173.787 91.1485 173.645 91.006 173.645C90.2938 172.933 89.724 172.363 89.0117 171.651C87.8721 169.23 86.8749 166.952 85.7353 164.816C67.2165 125.942 56.1053 104.582 54.9656 59.157C54.9656 58.5874 54.9656 52.8915 54.9656 52.1795L55.2505 26.8327Z" fill="#EEF0FB"/>
<path opacity="0.375" d="M55.6779 27.9719C55.6779 27.9719 56.1052 28.2567 56.2477 28.2567C69.9231 36.6582 83.4561 38.5094 95.422 33.6678C106.106 53.1763 118.784 68.4129 132.175 77.8111C132.175 77.8111 132.602 78.0959 132.745 78.0959C133.029 78.3807 133.172 81.7982 133.457 82.083L131.89 107.999C127.616 153.567 114.511 157.839 91.7183 173.502C91.7183 173.502 91.2909 173.36 91.1485 173.36C90.4362 172.79 89.8664 172.221 89.1542 171.651C88.0145 169.373 87.0174 167.094 85.8777 164.816C67.5014 126.084 56.5326 104.867 55.393 60.0114C55.393 59.2994 55.393 53.7459 55.393 53.1763L55.6779 27.9719Z" fill="#EDEFFB"/>
<path opacity="0.4063" d="M56.1052 29.2535C56.1052 29.2535 56.5326 29.5383 56.6751 29.5383C70.208 37.7974 83.5985 39.6485 95.422 34.807C105.964 54.0307 118.499 69.1249 131.747 78.5231L132.175 78.8079C132.46 79.0927 132.602 82.3678 133.029 82.6526L131.462 108.284C127.189 153.282 114.368 157.696 91.8607 173.075C91.8607 173.075 91.4334 172.933 91.2909 172.933C90.5787 172.363 90.0089 171.794 89.2966 171.366C88.157 169.088 87.1598 166.81 86.1627 164.674C67.7863 126.226 56.96 105.151 55.8203 60.8658C55.8203 60.1538 55.8203 54.7427 55.8203 54.0307L56.1052 29.2535Z" fill="#EBEDFB"/>
<path opacity="0.4375" d="M56.3902 30.5351C56.3902 30.5351 56.8175 30.8199 56.96 30.8199C70.3505 38.9366 83.5985 40.6453 95.1371 35.9462C105.536 54.8851 117.929 69.6945 130.893 79.0927L131.32 79.3775C131.747 79.6623 131.89 82.795 132.175 83.0798L130.608 108.284C126.477 152.855 113.656 157.127 91.4334 172.363C91.4334 172.363 91.006 172.221 90.8636 172.221C90.1513 171.794 89.5815 171.224 88.8692 170.797C87.7296 168.518 86.7325 166.24 85.7353 164.104C67.6439 126.084 56.96 105.294 55.8203 61.5778C55.8203 60.8658 55.8203 55.5971 55.8203 54.8851L56.3902 30.5351Z" fill="#EAECFA"/>
<path opacity="0.4688" d="M56.8175 31.8167C56.96 31.8167 57.2449 32.1014 57.3873 32.1014C70.6354 40.0757 83.5985 41.7845 95.1371 37.2278C105.394 55.8819 117.645 70.5488 130.465 79.8047L130.893 80.0895C131.32 80.3743 131.462 83.3646 131.89 83.7918L130.465 108.711C126.334 152.712 113.798 157.127 91.8607 172.221C91.8607 172.221 91.4334 172.078 91.2909 172.078C90.5787 171.651 89.8664 171.224 89.2966 170.797C88.2994 168.518 87.1598 166.382 86.1627 164.246C68.2137 126.511 57.8147 106.006 56.5326 62.8593C56.5326 62.005 56.5326 57.021 56.5326 56.1666L56.8175 31.8167Z" fill="#E8EAFA"/>
<path opacity="0.5" d="M57.2449 32.9558C57.3873 32.9558 57.6722 33.2406 57.8147 33.2406C70.9203 41.0725 83.741 42.7813 95.1371 38.2246C105.251 56.5939 117.217 71.1184 129.895 80.3743L130.323 80.659C130.75 81.0862 131.035 83.9342 131.462 84.219L129.895 108.854C125.907 152.285 113.513 156.842 91.8607 171.651C91.8607 171.651 91.4334 171.509 91.2909 171.651C90.5787 171.224 89.8664 170.939 89.1541 170.512C88.157 168.234 87.0174 166.098 86.0202 163.962C68.2137 126.653 57.9571 106.291 56.8175 63.7137C56.8175 62.8593 56.8175 58.0178 56.8175 57.1634L57.2449 32.9558Z" fill="#E7E9FA"/>
<path opacity="0.5313" d="M57.5298 34.2374C57.6722 34.2374 57.9571 34.5222 58.0996 34.5222C71.0627 42.0693 83.741 43.7781 94.9947 39.3637C105.109 57.4482 116.932 71.688 129.326 80.8015L129.753 81.0863C130.18 81.5135 130.465 84.219 130.893 84.5038L129.468 108.711C125.479 151.573 113.371 156.272 92.0032 170.797C91.8607 170.797 91.5758 170.654 91.4334 170.797C90.7211 170.512 90.0089 170.227 89.2966 169.8C88.2994 167.664 87.3023 165.386 86.3051 163.392C68.7835 126.369 58.5269 106.291 57.3873 64.2833C57.3873 63.2866 57.3873 58.7298 57.3873 57.733L57.5298 34.2374Z" fill="#E5E8F9"/>
<path opacity="0.5625" d="M57.9571 35.519C58.0996 35.519 58.3845 35.8038 58.5269 35.8038C71.3476 43.2085 83.8834 44.9173 94.9947 40.6453C104.966 58.445 116.505 72.5424 128.756 81.6559L129.183 81.9406C129.611 82.3678 130.038 84.931 130.465 85.3582L129.041 109.281C125.052 151.716 113.229 156.415 92.0032 170.797C91.8607 170.797 91.5758 170.797 91.5758 170.797C90.8636 170.512 90.1513 170.227 89.4391 170.085C88.4419 167.949 87.4447 165.813 86.4476 163.677C69.0684 127.081 58.9543 107.145 57.8147 65.7073C57.8147 64.7105 57.8147 60.2962 57.8147 59.2994L57.9571 35.519Z" fill="#E3E6F9"/>
<path opacity="0.5938" d="M58.3845 36.6582C58.5269 36.6582 58.8118 36.943 58.9543 36.943C71.4901 44.2052 83.8834 45.7716 94.9947 41.6421C104.824 59.0146 116.22 72.9696 128.328 82.083L128.756 82.3678C129.183 82.795 129.611 85.2158 130.038 85.643L128.613 109.139C124.767 151.003 113.086 155.703 92.1456 169.942C92.0032 169.942 91.7183 169.942 91.7183 169.942C91.006 169.8 90.2938 169.515 89.5815 169.373C88.5843 167.237 87.5872 165.101 86.59 163.107C69.3533 126.796 59.5241 107.145 58.242 66.1345C58.242 65.1377 58.242 60.8658 58.242 59.7266L58.3845 36.6582Z" fill="#E2E5F8"/>
<path opacity="0.625" d="M58.6694 37.9398C58.8118 37.9398 59.0967 38.2246 59.2392 38.2246C71.6325 45.3444 83.8834 46.9108 94.8522 42.7813C104.539 59.869 115.793 73.6816 127.616 82.6526C127.759 82.6526 128.044 82.9374 128.044 82.9374C128.613 83.3646 128.898 85.643 129.468 86.0702L128.044 109.281C124.197 150.576 112.801 155.418 92.1456 169.373C92.0032 169.373 91.7183 169.373 91.7183 169.373C91.006 169.23 90.2938 169.088 89.5815 168.946C88.5843 166.81 87.5872 164.674 86.59 162.68C69.4957 126.796 59.809 107.287 58.5269 66.8465C58.5269 65.7073 58.5269 61.7202 58.5269 60.581L58.6694 37.9398Z" fill="#E0E3F8"/>
<path opacity="0.6563" d="M59.0968 39.2213C59.2392 39.2213 59.5241 39.5061 59.6666 39.5061C71.9174 46.4836 84.0259 48.05 94.8522 44.0629C104.254 60.8658 115.365 74.3936 127.046 83.3646C127.189 83.3646 127.331 83.6494 127.474 83.6494C128.044 84.0766 128.471 86.355 129.041 86.7822L127.616 109.708C123.77 150.434 112.659 155.418 92.2881 169.23C92.1456 169.23 91.8608 169.23 91.8608 169.23C91.1485 169.088 90.4362 169.088 89.724 168.946C88.7268 166.81 87.7296 164.816 86.7325 162.823C69.7807 127.223 60.2364 108.142 58.9543 68.1281C58.9543 66.9889 58.9543 63.1442 58.8118 61.8626L59.0968 39.2213Z" fill="#DFE2F8"/>
<path opacity="0.6875" d="M59.5241 40.5029C59.6665 40.5029 59.9515 40.7877 60.0939 40.7877C72.2023 47.6228 84.1683 49.0468 94.8522 45.2021C104.254 61.7202 115.223 75.1056 126.619 84.0766C126.762 84.0766 126.904 84.3614 127.046 84.3614C127.616 84.7886 128.044 86.9246 128.613 87.3518L127.331 109.851C123.628 150.149 112.516 155.133 92.4305 168.661C92.2881 168.661 92.0032 168.661 92.0032 168.661C91.2909 168.661 90.5787 168.518 89.8664 168.518C88.8692 166.382 87.8721 164.389 87.0174 162.395C70.0656 127.366 60.6637 108.427 59.3816 68.9825C59.3816 67.8433 59.3816 64.1409 59.2392 62.8594L59.5241 40.5029Z" fill="#DDE1F7"/>
<path opacity="0.7188" d="M59.9515 41.6421C60.0939 41.6421 60.3788 41.9269 60.5213 41.9269C72.4872 48.6196 84.1683 50.0436 94.7098 46.3412C103.969 62.5745 114.653 75.6751 126.049 84.6462C126.192 84.7886 126.334 84.931 126.477 84.931C127.046 85.5006 127.616 87.3517 128.186 87.7789L126.904 109.993C123.2 149.722 112.374 154.848 92.573 168.091C92.4305 168.091 92.1456 168.091 92.1456 168.234C91.4334 168.234 90.7211 168.234 90.0089 168.234C89.0117 166.24 88.157 164.246 87.1598 162.253C70.6354 127.365 61.2335 108.711 59.9515 69.8368C59.9515 68.5552 59.9515 65.1377 59.809 63.7137L59.9515 41.6421Z" fill="#DCDFF7"/>
<path opacity="0.75" d="M60.2364 42.9237C60.3788 42.9237 60.6637 43.2085 60.8062 43.2085C72.6297 49.6164 84.1683 51.1827 94.5673 47.4804C103.684 63.4289 114.226 76.3871 125.337 85.2158C125.479 85.3582 125.622 85.5006 125.764 85.5006C126.334 86.0702 126.904 87.7789 127.616 88.3485L126.334 110.278C122.63 149.437 112.089 154.563 92.573 167.806C92.4306 167.806 92.2881 167.806 92.1456 167.949C91.4334 167.949 90.7211 168.091 89.8664 168.234C88.8692 166.24 88.0145 164.246 87.0174 162.253C70.4929 127.65 61.376 109.139 60.0939 70.8336C60.0939 69.552 59.9515 66.2769 59.9515 64.8529L60.2364 42.9237Z" fill="#DADEF7"/>
<path opacity="0.7813" d="M60.6637 44.2053C60.8062 44.2053 61.0911 44.3477 61.2335 44.4901C72.9146 50.7556 84.3108 52.1795 94.5673 48.6196C103.542 64.2833 113.941 76.9567 124.91 85.7854C125.052 85.9278 125.195 86.0702 125.337 86.0702C126.049 86.6398 126.619 88.2061 127.189 88.7757L125.907 110.278C122.345 149.01 111.946 154.136 92.7155 167.094C92.573 167.094 92.4305 167.094 92.2881 167.237C91.5758 167.379 90.8636 167.522 90.0089 167.664C89.0117 165.67 88.157 163.677 87.1598 161.826C70.9203 127.65 61.9458 109.423 60.6637 71.688C60.6637 70.264 60.5213 67.2737 60.5213 65.7073L60.6637 44.2053Z" fill="#D9DDF6"/>
<path opacity="0.8125" d="M61.0911 45.3445C61.2335 45.3445 61.5184 45.4868 61.6609 45.6292C73.1995 51.7523 84.4532 53.1763 94.5673 49.7588C103.399 65.1377 113.656 77.6687 124.34 86.355C124.482 86.4974 124.625 86.6398 124.767 86.6398C125.479 87.2094 126.049 88.7757 126.762 89.3453L125.479 110.563C121.918 148.725 111.804 153.994 92.7155 166.667C92.573 166.81 92.4306 166.81 92.2881 166.81C91.5758 166.952 90.7211 167.237 90.0089 167.379C89.0117 165.386 88.157 163.535 87.3023 161.541C71.2052 127.793 62.3731 109.708 61.0911 72.5424C61.0911 71.1184 60.9486 68.2705 60.9486 66.7041L61.0911 45.3445Z" fill="#D7DBF6"/>
<path opacity="0.8438" d="M61.376 46.626C61.5184 46.626 61.8033 46.7684 61.9458 46.9108C73.342 52.8915 84.4532 54.1731 94.4249 50.8979C103.257 65.9921 113.229 78.3807 123.77 87.0669C123.912 87.2093 124.055 87.3517 124.197 87.3517C124.91 87.9213 125.479 89.3453 126.192 89.9149L124.91 110.705C121.348 148.298 111.519 153.709 92.7155 166.24C92.573 166.382 92.4306 166.382 92.2881 166.382C91.5758 166.667 90.7211 166.81 90.0089 167.094C89.1542 165.101 88.157 163.25 87.3023 161.399C71.3476 127.935 62.6581 110.135 61.376 73.5392C61.376 72.1152 61.2335 69.2672 61.2335 67.8433L61.376 46.626Z" fill="#D6DAF6"/>
<path opacity="0.875" d="M61.8033 47.9076C61.9458 47.9076 62.0882 48.05 62.2307 48.1924C73.4844 54.0307 84.3108 55.3123 94.2824 52.0371C102.972 66.8465 112.801 78.9503 123.058 87.6365C123.2 87.7789 123.343 87.9213 123.485 87.9213C124.197 88.4909 124.91 89.7725 125.622 90.3421L124.34 110.847C120.921 147.871 111.234 153.424 92.7155 165.67C92.573 165.813 92.4305 165.813 92.2881 165.813C91.5758 166.098 90.7211 166.382 90.0089 166.667C89.1542 164.816 88.157 162.823 87.3023 160.971C71.4901 127.935 62.943 110.278 61.6609 74.2512C61.6609 72.6848 61.5184 70.1216 61.5184 68.5552L61.8033 47.9076Z" fill="#D4D9F5"/>
<path opacity="0.9063" d="M62.2307 49.1892C62.3731 49.3316 62.5156 49.3316 62.6581 49.474C73.7693 55.1699 84.4532 56.4515 94.2824 53.3187C102.83 67.8433 112.374 79.8047 122.63 88.3485C122.773 88.4909 122.915 88.6333 123.058 88.6333C123.77 89.3453 124.482 90.3421 125.337 91.0541L124.197 111.275C120.779 147.871 111.377 153.424 93.1428 165.528C93.0004 165.67 92.8579 165.67 92.7155 165.67C92.0032 165.955 91.1485 166.382 90.4362 166.81C89.5815 164.958 88.5843 163.107 87.7296 161.256C72.2024 128.505 63.7977 111.132 62.3731 75.6751C62.3731 74.1088 62.2307 71.688 62.2307 70.1216V49.1892Z" fill="#D3D7F5"/>
<path opacity="0.9375" d="M62.5156 50.3284C62.658 50.4708 62.8005 50.4708 62.9429 50.6132C73.7693 56.0243 84.4532 57.3059 94.14 54.3155C102.545 68.5553 111.946 80.2319 121.918 88.7757C122.061 88.9181 122.203 88.9181 122.345 89.0605C123.058 89.7725 123.912 90.7693 124.625 91.3389L123.485 111.132C120.066 147.159 110.949 152.712 92.8579 164.674C92.7154 164.816 92.573 164.816 92.4305 164.958C91.7183 165.386 90.8636 165.813 90.1513 166.24C89.2966 164.389 88.4419 162.538 87.5872 160.687C72.2023 128.362 63.9401 111.132 62.5156 76.1023C62.5156 74.3936 62.3731 72.2576 62.3731 70.5488L62.5156 50.3284Z" fill="#D1D6F5"/>
<path opacity="0.9688" d="M62.943 51.6099C63.0854 51.7523 63.2279 51.7523 63.3703 51.8947C74.0542 57.1634 84.5957 58.445 93.9975 55.4547C102.26 69.4096 111.519 80.9438 121.348 89.3453C121.491 89.4877 121.633 89.4877 121.633 89.6301C122.488 90.3421 123.2 91.1965 124.055 91.7661L122.915 111.275C119.639 146.732 110.522 152.427 92.8579 164.104C92.7155 164.246 92.573 164.246 92.4305 164.389C91.7183 164.816 90.8636 165.243 90.0089 165.813C89.1542 163.962 88.2994 162.111 87.4447 160.402C72.2023 128.362 64.0826 111.417 62.6581 76.9567C62.6581 75.2479 62.5156 73.2544 62.5156 71.5456L62.943 51.6099Z" fill="#D0D4F4"/>
<path d="M63.0854 72.5424C63.7977 110.135 71.775 126.938 87.7296 160.259C88.5843 161.968 89.4391 163.819 90.2938 165.67C91.2909 165.101 92.1456 164.389 93.1428 163.819C110.522 152.285 119.354 146.589 122.63 111.559L123.77 92.3357C113.086 83.6494 103.114 71.5456 94.14 56.5938C84.5957 59.4418 74.1967 58.1602 63.3703 52.8915L63.0854 72.5424Z" fill="#CED3F4"/>
</g>
<path d="M130.465 82.3678C114.083 73.112 98.1286 57.3059 84.7381 37.2278L84.5957 37.0854C71.2052 41.7845 55.2505 39.079 38.8685 29.3959L38.2987 29.1111L31.3186 35.519L31.7459 35.8038C48.1279 45.4868 64.0826 48.05 77.4731 43.4933L77.6155 43.6357C91.006 63.7137 106.961 79.5199 123.343 88.7757L123.912 89.0605L123.058 118.537C121.063 147.016 113.513 157.839 101.263 165.67C116.505 156.699 128.044 144.311 130.323 112.129L131.178 82.6526L130.465 82.3678Z" fill="url(#paint2_linear_45_1038)"/>
<path d="M131.035 82.6526L130.465 82.3679C114.083 73.112 98.1286 57.3059 84.7381 37.2278L84.5957 37.0854L77.4731 43.3509L77.6155 43.4933C91.006 63.5714 106.961 79.3775 123.343 88.6333L123.912 88.9181L131.035 82.6526Z" fill="url(#paint3_linear_45_1038)"/>
<path d="M123.912 89.0605L123.058 118.537C121.063 147.016 113.513 157.839 101.263 165.67C116.505 156.699 128.044 144.311 130.323 112.129L131.178 82.6526L123.912 89.0605Z" fill="url(#paint4_linear_45_1038)"/>
<path d="M74.3391 157.839C54.1109 124.375 43.9968 107.572 41.5751 70.8336L41.0053 51.6099C53.9685 57.4482 66.3618 59.2994 77.6155 57.1634C88.7268 72.2576 101.263 84.7886 114.226 93.902L113.656 112.556C111.234 146.447 101.12 151.573 80.8919 161.683C79.8947 162.253 78.7551 162.822 77.6155 163.25C76.4759 161.399 75.3363 159.547 74.3391 157.839Z" fill="url(#paint5_linear_45_1038)"/>
<path d="M31.0337 35.3766L31.8884 65.8497C35.0223 113.126 51.1194 133.773 77.0457 177.774L77.6155 178.201C103.542 164.246 119.781 162.253 122.773 118.537L123.628 89.0605L123.058 88.7757C106.676 79.5199 90.7211 63.7138 77.3306 43.6357L77.1882 43.4933C63.7977 48.1924 47.843 45.4869 31.461 35.8038L31.0337 35.3766ZM41.0053 51.6099C53.9685 57.4483 66.3618 59.2994 77.6155 57.1635C88.7268 72.2576 101.263 84.7886 114.226 93.9021L113.656 112.556C111.234 146.447 101.12 151.573 80.8919 161.683C79.8948 162.253 78.7551 162.823 77.6155 163.25C76.4759 161.399 75.4787 159.69 74.3391 157.839C54.1109 124.375 43.9968 107.572 41.5751 70.8336L41.0053 51.6099Z" fill="url(#paint6_linear_45_1038)"/>
<path d="M93.0004 105.436L92.573 105.151V94.3292C92.573 87.3518 87.7296 78.9503 81.6042 75.5327L74.0542 71.1184C68.0712 67.7009 63.0854 70.4064 63.0854 77.3839V88.2061L62.6581 87.9214C59.809 86.355 57.5298 87.6366 57.5298 90.7693V116.401C57.5298 119.676 59.809 123.521 62.6581 125.23L92.8579 142.602C95.7069 144.168 97.9862 142.887 97.9862 139.754V114.123C98.1286 110.99 95.8494 107.003 93.0004 105.436ZM79.8948 118.11V126.511L76.191 124.375V115.974C74.624 114.265 73.6269 111.987 73.6269 109.851C73.6269 107.003 75.6212 105.863 78.0429 107.287C80.4646 108.711 82.4589 112.129 82.4589 114.977C82.4589 117.113 81.3193 118.252 79.8948 118.11ZM86.3051 101.449L69.6382 91.7661V83.2222C69.6382 79.2351 72.4872 77.6687 75.9061 79.6623L80.1797 82.083C83.5985 84.0766 86.4476 88.9181 86.4476 92.7629V101.449H86.3051Z" fill="#507BF5"/>
<path opacity="0.5" d="M74.3391 157.839C54.1109 124.375 43.9968 107.572 41.5751 70.8336L41.0053 51.6099C53.9685 57.4482 66.3618 59.2994 77.6155 57.1634C88.7268 72.2576 101.263 84.7886 114.226 93.902L113.656 112.556C111.234 146.447 101.12 151.573 80.8919 161.683C79.8947 162.253 78.7551 162.822 77.6155 163.25C76.4759 161.399 75.3363 159.547 74.3391 157.839Z" fill="url(#paint7_radial_45_1038)"/>
<g opacity="0.3">
<path opacity="0.090909" d="M74.1967 154.563C63.7977 148.583 55.393 153.424 55.393 165.243V264.637C55.393 276.456 63.7977 299.382 74.1967 305.363L265.652 412.018C276.051 417.999 271.778 405.895 271.778 393.934V294.54C271.778 282.721 259.669 260.365 249.27 254.384L74.1967 154.563Z" fill="#A7ADDF"/>
<path opacity="0.1818" d="M74.9089 156.13C64.5099 150.149 56.2477 154.991 56.2477 166.81V256.235C56.2477 268.054 64.6524 299.382 74.9089 305.363L263.373 410.737C273.772 416.718 270.781 405.326 270.781 393.507V303.939C270.781 292.12 258.957 261.362 248.701 255.381L74.9089 156.13Z" fill="#A0A5D9"/>
<path opacity="0.2727" d="M75.6212 157.696C65.3646 151.716 56.96 156.557 56.96 168.376V247.834C56.96 259.653 65.3646 299.382 75.6212 305.363L261.236 409.313C271.493 415.294 269.926 404.614 269.926 392.795V313.337C269.926 301.518 258.53 262.216 248.273 256.235L75.6212 157.696Z" fill="#989CD3"/>
<path opacity="0.3636" d="M76.3335 159.263C66.0769 153.282 57.6722 158.123 57.6722 169.942V239.29C57.6722 251.109 66.0769 299.239 76.3335 305.22L258.957 407.889C269.214 413.87 268.786 403.902 268.786 392.083V322.735C268.786 310.916 257.818 263.213 247.418 257.232L76.3335 159.263Z" fill="#9094CD"/>
<path opacity="0.4545" d="M77.1882 160.829C66.9316 154.848 58.5269 159.69 58.5269 171.509V230.889C58.5269 242.708 66.9316 299.239 77.1882 305.22L256.82 406.465C267.077 412.446 267.932 403.19 267.932 391.371V331.991C267.932 320.172 257.39 264.067 246.991 258.087L77.1882 160.829Z" fill="#898BC7"/>
<path opacity="0.5455" d="M77.9004 162.395C67.6439 156.415 59.2392 161.256 59.2392 173.075V222.487C59.2392 234.306 67.6439 299.239 77.9004 305.22L254.684 405.326C264.94 411.306 267.077 402.763 267.077 391.086V341.674C267.077 329.855 256.82 265.206 246.564 259.368L77.9004 162.395Z" fill="#8183C1"/>
<path opacity="0.6364" d="M78.6127 163.962C68.3561 157.981 59.9515 162.823 59.9515 174.499V213.943C59.9515 225.762 68.2137 299.097 78.6127 304.935L252.404 403.617C262.661 409.598 265.937 401.908 265.937 390.089V350.93C265.937 339.111 256.108 266.061 245.852 260.08L78.6127 163.962Z" fill="#7A7ABB"/>
<path opacity="0.7273" d="M79.4674 165.528C69.2108 159.547 60.9486 164.389 60.9486 176.065V205.399C60.9486 217.218 69.2108 298.955 79.4674 304.793L250.41 402.193C260.667 408.174 265.225 401.196 265.225 389.377V360.043C265.225 348.224 255.823 266.63 245.567 260.792L79.4674 165.528Z" fill="#7272B5"/>
<path opacity="0.8182" d="M80.1797 167.094C69.9231 161.114 61.6609 165.955 61.6609 177.632V197.14C61.6609 208.959 69.9231 299.097 80.1797 304.935L248.131 401.054C258.387 407.035 264.228 400.769 264.228 388.95V369.584C264.228 357.765 255.111 267.77 244.854 261.931L80.1797 167.094Z" fill="#6A69AF"/>
<path opacity="0.9091" d="M80.8919 168.661C70.6354 162.823 62.3731 167.522 62.3731 179.198V188.596C62.3731 200.273 70.6354 298.955 80.8919 304.793L245.994 399.63C256.251 405.468 263.231 400.057 263.231 388.38V378.982C263.231 367.306 254.541 268.766 244.285 262.786L80.8919 168.661Z" fill="#6361A9"/>
<path d="M81.7466 170.227C71.4901 164.389 63.2278 169.088 63.2278 180.765V180.195C63.2278 191.872 71.4901 298.955 81.7466 304.793L243.857 398.348C254.114 404.187 262.376 399.487 262.376 387.811V388.38C262.376 376.704 254.114 269.621 243.857 263.782L81.7466 170.227Z" fill="#5B58A3"/>
</g>
<path d="M264.228 404.756C264.228 404.614 264.228 289.556 264.228 278.877C263.943 277.025 263.8 276.029 263.8 276.029C263.516 268.054 257.675 264.922 250.552 269.051C243.43 273.181 237.589 283.006 237.304 291.265C237.304 291.408 237.304 389.092 237.304 395.927C244.854 400.199 268.644 413.727 268.644 413.727V413.585C265.937 412.303 264.228 409.313 264.228 404.756Z" fill="#AFB6E5"/>
<g opacity="0.3">
<path opacity="0.047619" d="M208.672 241.141C198.273 235.16 49.6949 177.632 49.6949 189.451V282.009C49.6949 293.828 44.1393 333.273 54.5383 339.253L219.925 434.66C230.324 440.64 256.535 419.993 256.535 408.174V305.932C256.535 294.113 268.644 274.747 258.245 268.766L208.672 241.141Z" fill="#ABB2E2"/>
<path opacity="0.095238" d="M200.979 237.581C190.58 231.601 49.1251 177.205 49.1251 189.024V281.155C49.1251 292.974 44.2817 331.137 54.6807 337.117L219.925 432.381C230.324 438.362 255.681 418.569 255.681 406.607V305.363C255.681 293.544 266.792 274.462 256.393 268.482L200.979 237.581Z" fill="#A7ADDF"/>
<path opacity="0.1429" d="M193.287 234.164C182.888 228.183 48.4128 176.92 48.4128 188.739V280.443C48.4128 292.262 44.2817 329.285 54.6807 335.124L219.64 430.388C230.039 436.368 254.399 417.287 254.399 405.468V304.935C254.399 293.116 264.37 274.32 254.114 268.339L193.287 234.164Z" fill="#A3A9DC"/>
<path opacity="0.1905" d="M185.594 230.746C175.195 224.766 47.7006 176.635 47.7006 188.454V279.731C47.7006 291.55 44.2817 327.292 54.5383 333.273L219.355 428.394C229.754 434.375 253.259 416.148 253.259 404.187V304.651C253.259 292.832 262.234 274.177 251.977 268.339L185.594 230.746Z" fill="#9FA4D8"/>
<path opacity="0.2381" d="M178.044 227.329C167.788 221.348 47.1308 176.208 47.1308 188.169V279.019C47.1308 290.838 44.4242 325.298 54.6807 331.279L219.355 426.258C229.612 432.239 252.404 414.724 252.404 402.905V304.223C252.404 292.404 260.382 274.035 250.125 268.054L178.044 227.329Z" fill="#9BA0D5"/>
<path opacity="0.2857" d="M170.352 223.911C160.095 217.93 46.561 175.923 46.561 187.742V278.307C46.561 290.126 44.4242 323.305 54.8232 329.285L219.355 424.122C229.612 430.103 251.407 413.442 251.407 401.623V303.796C251.407 291.977 258.387 273.893 248.131 267.912L170.352 223.911Z" fill="#979BD2"/>
<path opacity="0.3333" d="M162.659 220.494C152.403 214.513 45.8487 175.638 45.8487 187.457V277.453C45.8487 289.272 44.4242 321.169 54.8232 327.149L219.213 421.986C229.47 427.967 250.41 412.018 250.41 400.199V303.369C250.41 291.55 256.393 273.75 246.136 267.77L162.659 220.494Z" fill="#9397CF"/>
<path opacity="0.381" d="M154.967 216.934C144.71 210.953 45.1364 175.211 45.1364 187.03V276.741C45.1364 288.56 44.4242 319.175 54.8232 325.156L219.071 419.85C229.327 425.831 249.413 410.737 249.413 398.918V302.942C249.413 291.123 254.399 273.608 244 267.627L154.967 216.934Z" fill="#8F92CC"/>
<path opacity="0.4286" d="M147.417 213.516C137.161 207.535 44.7091 174.926 44.7091 186.745V276.029C44.7091 287.848 44.7091 317.182 54.9656 323.162L219.071 417.857C229.327 423.837 248.416 409.598 248.416 397.779V302.515C248.416 290.696 252.404 273.465 242.005 267.485L147.417 213.516Z" fill="#8B8EC9"/>
<path opacity="0.4762" d="M139.725 210.099C129.468 204.118 43.9968 174.641 43.9968 186.46V275.317C43.9968 287.136 44.7091 315.188 54.9656 321.169L218.928 415.721C229.185 421.701 247.418 408.174 247.418 396.355V302.23C247.418 290.411 250.268 273.323 240.011 267.485L139.725 210.099Z" fill="#8789C6"/>
<path opacity="0.5238" d="M132.032 206.681C121.776 200.7 43.2845 174.357 43.2845 186.176V274.605C43.2845 286.424 44.7091 313.194 54.9656 319.175L218.786 413.585C229.042 419.565 246.279 406.892 246.279 395.073V301.803C246.279 289.984 248.131 273.181 237.874 267.342L132.032 206.681Z" fill="#8385C2"/>
<path opacity="0.5714" d="M124.34 203.263C114.083 197.283 42.5723 174.072 42.5723 185.748V273.75C42.5723 285.569 44.7091 311.201 54.9656 317.039L218.501 411.449C228.757 417.429 245.139 405.468 245.139 393.649V301.233C245.139 289.414 245.994 272.896 235.737 266.915L124.34 203.263Z" fill="#7F80BF"/>
<path opacity="0.619" d="M116.647 199.846C106.391 193.865 42.0025 173.787 42.0025 185.464V273.038C42.0025 284.857 44.7091 309.207 54.9656 315.046L218.501 409.313C228.757 415.294 244.285 404.187 244.285 392.368V300.948C244.285 289.129 244.142 272.896 233.886 266.915L116.647 199.846Z" fill="#7B7CBC"/>
<path opacity="0.6667" d="M109.097 196.286C98.8409 190.305 41.4327 173.218 41.4327 185.037V272.184C41.4327 284.003 44.8515 307.071 55.1081 312.91L218.358 407.034C228.615 413.015 243.145 402.62 243.145 390.944V300.379C243.145 288.56 242.005 272.611 231.749 266.63L109.097 196.286Z" fill="#7777B9"/>
<path opacity="0.7143" d="M101.405 192.868C91.1485 186.888 40.7204 172.933 40.7204 184.752V271.472C40.7204 283.291 44.8515 305.078 55.1081 311.058L218.216 405.183C228.472 411.164 242.148 401.623 242.148 389.804V300.094C242.148 288.275 240.011 272.469 229.754 266.63L101.405 192.868Z" fill="#7373B6"/>
<path opacity="0.7619" d="M93.7126 189.451C83.4561 183.47 40.1506 172.648 40.1506 184.467V270.76C40.1506 282.579 44.994 303.084 55.2505 309.065L218.216 403.047C228.472 409.028 241.293 400.199 241.293 388.523V299.667C241.293 287.848 238.159 272.326 227.903 266.488L93.7126 189.451Z" fill="#6F6EB3"/>
<path opacity="0.8095" d="M86.0202 186.033C75.7636 180.053 39.4383 172.363 39.4383 184.182V270.048C39.4383 281.867 44.994 301.091 55.2505 307.071L218.073 400.911C228.33 406.892 240.153 398.918 240.153 387.099V299.239C240.153 287.42 235.88 272.184 225.766 266.346L86.0202 186.033Z" fill="#6B6AB0"/>
<path opacity="0.8571" d="M78.4702 182.616C68.2137 176.777 38.8685 172.078 38.8685 183.897V269.336C38.8685 281.013 45.1364 299.097 55.2505 305.078L217.931 398.918C228.187 404.756 239.156 397.779 239.156 385.96V298.955C239.156 287.278 233.886 272.184 223.629 266.203L78.4702 182.616Z" fill="#6765AC"/>
<path opacity="0.9048" d="M70.7778 179.198C60.5213 173.36 38.2987 171.794 38.2987 183.47V268.624C38.2987 280.301 45.1364 297.103 55.393 303.084L217.931 396.782C228.187 402.62 238.302 396.355 238.302 384.678V298.67C238.302 286.993 232.034 272.184 221.777 266.203L70.7778 179.198Z" fill="#6361A9"/>
<path opacity="0.9524" d="M63.0854 175.638C52.8288 169.8 37.5865 171.366 37.5865 183.043V267.77C37.5865 279.446 45.1364 294.967 55.393 300.948L217.646 394.503C227.903 400.342 237.019 394.931 237.019 383.112V297.958C237.019 286.281 229.754 271.757 219.498 265.776L63.0854 175.638Z" fill="#5F5CA6"/>
<path d="M55.393 172.221C45.1364 166.382 36.8742 171.082 36.8742 182.758V267.058C36.8742 278.734 45.1364 293.116 55.393 298.955L217.504 392.51C227.76 398.348 236.022 393.649 236.022 381.972V297.673C236.022 285.996 227.76 271.614 217.504 265.776L55.393 172.221Z" fill="#5B58A3"/>
</g>
<path d="M54.6807 151.431C52.259 149.01 48.4128 148.868 43.9968 151.431C36.8742 155.56 31.0337 165.386 30.7488 173.645C30.7488 173.645 30.7488 177.489 30.7488 178.486C30.7488 180.053 30.6063 301.803 30.6063 301.945C30.6063 309.492 25.7629 318.606 19.3526 323.447C30.3214 329.713 174.483 411.734 193.144 422.556C193.144 422.556 196.136 425.404 197.56 425.689C197.703 425.689 205.965 429.818 210.808 432.096C210.808 434.375 210.808 435.799 210.808 435.799C210.808 441.068 213.088 444.343 216.649 445.055C216.934 445.055 217.219 445.197 217.504 445.197C217.646 445.197 217.931 445.197 218.073 445.197C218.216 445.197 218.358 445.197 218.501 445.197C220.068 445.055 221.92 444.485 223.771 443.346C225.766 442.207 227.618 440.498 229.327 438.647C231.464 436.653 233.031 434.375 234.028 431.527C235.88 427.825 236.877 423.98 236.877 420.42C236.877 420.42 237.019 418.996 237.019 417.43C237.019 416.718 237.019 327.292 237.019 293.544V293.401C237.019 292.12 237.019 291.265 237.019 291.265C237.304 283.006 243.145 273.181 250.268 269.051C253.117 267.342 255.823 266.915 258.102 267.485L54.6807 151.431Z" fill="url(#paint8_linear_45_1038)"/>
<path d="M118.927 260.65V257.09L91.5758 241.568V245.128L118.927 260.65Z" fill="#8D97D6"/>
<path d="M45.4213 179.768V183.328L128.186 230.604V227.044L45.4213 179.768Z" fill="#8D97D6"/>
<path d="M100.693 238.008L45.4213 206.254V209.814L100.693 241.568V238.008Z" fill="#8D97D6"/>
<path d="M86.7324 221.063L45.4213 197.425V200.985L86.7324 224.765V221.063Z" fill="#8D97D6"/>
<path d="M90.1513 223.199V226.759L170.352 272.326V268.766L90.1513 223.199Z" fill="#8D97D6"/>
<path d="M104.254 240.002V243.704L144.853 266.915V263.355L104.254 240.002Z" fill="#8D97D6"/>
<path d="M148.272 268.909L199.839 297.958V294.398L148.272 265.349V268.909Z" fill="#8D97D6"/>
<path d="M88.0145 239.575L45.4213 214.94V218.5L88.0145 243.135V239.575Z" fill="#8D97D6"/>
<path d="M122.345 262.643L150.409 278.592V275.032L122.345 259.083V262.643Z" fill="#8D97D6"/>
<path d="M215.794 174.499V170.939L188.443 155.418V158.978L215.794 174.499Z" fill="#8D97D6"/>
<path d="M142.289 102.731V106.291L225.053 153.424V149.864L142.289 102.731Z" fill="#8D97D6"/>
<path d="M197.56 151.858L142.289 120.103V123.663L197.56 155.418V151.858Z" fill="#8D97D6"/>
<path d="M183.6 134.913L142.289 111.275V114.835L183.6 138.615V134.913Z" fill="#8D97D6"/>
<path d="M187.019 137.049V140.609L267.219 186.176V182.616L187.019 137.049Z" fill="#8D97D6"/>
<path d="M201.122 153.852V157.554L241.72 180.765V177.205L201.122 153.852Z" fill="#8D97D6"/>
<path d="M245.139 182.758L267.077 195.147V191.587L245.139 179.198V182.758Z" fill="#8D97D6"/>
<path d="M184.882 153.424L142.289 128.789V132.349L184.882 156.984V153.424Z" fill="#8D97D6"/>
<path d="M219.213 176.493L247.276 192.441V188.881L219.213 172.933V176.493Z" fill="#8D97D6"/>
<path d="M215.794 220.778V217.218L188.443 201.697V205.257L215.794 220.778Z" fill="#8D97D6"/>
<path d="M197.56 198.137L142.289 166.383V169.942L197.56 201.697V198.137Z" fill="#8D97D6"/>
<path d="M183.6 181.192L142.289 157.554V161.114L183.6 184.894V181.192Z" fill="#8D97D6"/>
<path d="M187.019 183.328V186.888L267.219 232.455V228.895L187.019 183.328Z" fill="#8D97D6"/>
<path d="M201.122 200.131V203.833L241.72 227.044V223.484L201.122 200.131Z" fill="#8D97D6"/>
<path d="M245.139 229.037L267.077 241.426V237.866L245.139 225.478V229.037Z" fill="#8D97D6"/>
<path d="M184.882 199.704L142.289 175.069V178.629L184.882 203.263V199.704Z" fill="#8D97D6"/>
<path d="M219.213 222.772L247.276 238.721V235.161L219.213 219.212V222.772Z" fill="#8D97D6"/>
<path d="M211.663 436.084C211.663 433.52 212.233 430.673 213.372 427.967L4.39511 308.923L2.54323 307.783C1.54607 310.489 0.976257 313.194 0.976257 315.758C0.976257 320.172 3.39794 323.162 5.67718 324.444L215.224 444.058L214.939 443.915C212.945 442.634 211.663 439.928 211.663 436.084Z" fill="url(#paint9_linear_45_1038)"/>
<path d="M139.725 364.173L119.781 352.781V356.341L139.725 367.733V364.173Z" fill="#8D97D6"/>
<path d="M161.092 369.157L119.781 345.376V348.936L161.092 372.717V369.157Z" fill="#8D97D6"/>
<path d="M100.55 342.386L45.2789 310.631V314.191L100.55 345.946V342.386Z" fill="#8D97D6"/>
<path d="M86.59 326.865L45.2789 303.227V306.787L86.59 330.425V326.865Z" fill="#8D97D6"/>
<path d="M143.143 366.166V369.726L183.742 392.937V389.377L143.143 366.166Z" fill="#8D97D6"/>
<path d="M85.1655 278.449C84.4532 276.029 83.0287 273.893 81.0344 272.184L80.1797 273.608C82.0315 275.174 83.1711 277.168 83.5985 278.877C84.4532 282.009 84.0259 285.142 83.3136 288.417C82.3164 286.566 81.8891 284.43 82.0315 282.437C82.3164 281.725 82.6013 281.013 82.3164 280.301C82.3164 279.873 81.8891 279.731 81.6042 279.589C81.1768 279.589 80.8919 279.873 80.7495 280.158C80.607 280.728 80.4646 281.297 80.4646 281.867C79.8948 282.864 78.6127 283.718 77.4731 284.573C77.0457 284.857 76.6184 285.142 76.3334 285.427C74.624 286.709 73.3419 288.275 72.3448 290.126C71.6325 289.272 71.0627 288.56 70.3505 287.848C69.0684 286.281 67.6439 284.857 66.3618 283.291C63.5128 280.158 60.6637 276.883 58.0996 273.608C57.8147 272.042 57.5298 270.19 56.96 268.482C56.675 267.058 55.5354 263.071 51.4043 262.074C51.1194 262.074 50.8345 262.074 50.6921 262.359C50.5496 262.501 50.4072 262.928 50.5496 263.213C51.8317 267.2 53.9685 270.902 56.5326 274.462C57.1024 278.307 57.1024 281.725 56.3901 284.715C55.6779 287.99 54.2534 290.98 52.1166 293.544L52.9713 294.968C55.393 292.12 57.1024 288.702 57.9571 285C58.5269 282.437 58.6694 279.731 58.3845 276.741C60.5213 279.304 62.8005 281.867 65.0797 284.43C66.3618 285.997 67.7863 287.421 69.0684 288.987C69.7807 289.841 70.6354 290.838 71.4901 291.835C70.6354 294.113 70.208 296.676 70.4929 299.382C71.0627 304.223 73.342 308.78 75.6212 313.194C76.7608 315.33 78.3278 316.612 80.0372 316.612C80.1797 316.612 80.3221 316.612 80.607 316.612C80.8919 316.612 81.1768 316.327 81.3193 316.042C83.4561 307.071 78.4702 298.385 73.342 291.692C74.1967 289.841 75.4787 288.275 77.1882 286.851C77.6155 286.566 77.9004 286.281 78.3278 285.997C79.04 285.569 79.7523 285 80.3221 284.43C80.4646 286.709 81.4617 288.987 82.8862 290.98C83.0287 291.265 83.3136 291.408 83.741 291.265C84.0259 291.265 84.3108 290.98 84.3108 290.696C85.3079 286.851 86.3051 282.579 85.1655 278.449ZM52.6864 264.21C53.9685 265.064 54.8232 266.63 55.5354 268.909C55.6779 269.336 55.8203 269.906 55.9628 270.333C54.5383 268.339 53.5411 266.346 52.6864 264.21ZM79.8948 314.903C78.4702 314.761 77.6155 313.337 77.0457 312.482C74.9089 308.211 72.6297 303.796 72.0599 299.097C71.775 296.961 72.0599 295.11 72.6297 293.259C77.3306 299.382 81.6042 307.214 79.8948 314.903Z" fill="#8D97D6"/>
<path d="M129.041 338.541C129.753 340.962 131.178 343.098 133.172 344.807L134.027 343.383C132.175 341.816 131.035 339.823 130.608 338.114C129.753 334.981 130.18 331.849 130.893 328.573C131.89 330.425 132.317 332.561 132.175 334.554C131.89 335.266 131.605 335.978 131.89 336.69C131.89 337.117 132.317 337.26 132.602 337.402C133.029 337.402 133.314 337.117 133.457 336.832C133.599 336.263 133.742 335.693 133.742 335.124C134.311 334.127 135.594 333.273 136.733 332.418C137.161 332.133 137.588 331.849 137.873 331.564C139.582 330.282 140.864 328.716 141.861 326.865C142.574 327.719 143.144 328.431 143.856 329.143C145.138 330.709 146.562 332.133 147.844 333.7C150.693 336.832 153.543 340.108 156.107 343.383C156.392 344.949 156.676 346.8 157.246 348.509C157.531 349.933 158.671 353.92 162.802 354.917C163.087 354.917 163.372 354.917 163.514 354.632C163.657 354.49 163.799 354.063 163.657 353.778C162.375 349.791 160.238 346.088 157.674 342.528C157.104 338.684 157.104 335.266 157.816 332.276C158.528 329.001 159.953 326.01 162.09 323.447L161.235 322.023C158.813 324.871 157.104 328.289 156.249 331.991C155.679 334.554 155.537 337.26 155.822 340.25C153.685 337.687 151.406 335.124 149.127 332.561C147.844 330.994 146.42 329.57 145.138 328.004C144.426 327.149 143.571 326.153 142.716 325.156C143.571 322.877 143.998 320.314 143.713 317.609C143.144 312.767 140.864 308.211 138.585 303.796C137.445 301.66 135.878 300.379 134.169 300.379C134.027 300.379 133.884 300.379 133.599 300.379C133.314 300.379 133.029 300.663 132.887 300.948C130.75 309.919 135.736 318.606 140.864 325.298C140.01 327.149 138.727 328.716 137.018 330.14C136.591 330.425 136.306 330.709 135.878 330.994C135.166 331.421 134.454 331.991 133.884 332.561C133.742 330.282 132.745 328.004 131.32 326.01C131.178 325.725 130.893 325.583 130.465 325.725C130.18 325.725 129.895 326.01 129.895 326.295C128.898 330.282 127.901 334.554 129.041 338.541ZM161.52 352.923C160.238 352.069 159.383 350.503 158.671 348.224C158.528 347.797 158.386 347.228 158.243 346.8C159.526 348.794 160.665 350.787 161.52 352.923ZM134.169 302.087C135.594 302.23 136.448 303.654 137.018 304.508C139.155 308.78 141.434 313.194 142.004 317.894C142.289 320.03 142.004 321.881 141.434 323.732C136.733 317.609 132.602 309.919 134.169 302.087Z" fill="#8D97D6"/>
<defs>
<linearGradient id="paint0_linear_45_1038" x1="123.223" y1="309.87" x2="239.949" y2="107.617" gradientUnits="userSpaceOnUse">
<stop stop-color="#CED3F4"/>
<stop offset="0.0127482" stop-color="#D3D8F7"/>
<stop offset="0.0562747" stop-color="#E1E5FD"/>
<stop offset="0.0959596" stop-color="#E5E9FF"/>
<stop offset="0.253" stop-color="#EAEDFF"/>
<stop offset="1" stop-color="white"/>
</linearGradient>
<linearGradient id="paint1_linear_45_1038" x1="84.0259" y1="0.453308" x2="240.091" y2="201.26" gradientUnits="userSpaceOnUse">
<stop stop-color="#C049F4"/>
<stop offset="1" stop-color="#507BF5"/>
</linearGradient>
<linearGradient id="paint2_linear_45_1038" x1="-9.26192" y1="83.5425" x2="89.1694" y2="100.813" gradientUnits="userSpaceOnUse">
<stop stop-color="#7481CF"/>
<stop offset="1" stop-color="#AFB6E5"/>
</linearGradient>
<linearGradient id="paint3_linear_45_1038" x1="60.0604" y1="20.4709" x2="152.429" y2="114.312" gradientUnits="userSpaceOnUse">
<stop stop-color="#7481CF"/>
<stop offset="1" stop-color="#AFB6E5"/>
</linearGradient>
<linearGradient id="paint4_linear_45_1038" x1="110.383" y1="120.953" x2="192.271" y2="167.485" gradientUnits="userSpaceOnUse">
<stop stop-color="#7481CF"/>
<stop offset="1" stop-color="#AFB6E5"/>
</linearGradient>
<linearGradient id="paint5_linear_45_1038" x1="16.9916" y1="36.3408" x2="122.241" y2="159.51" gradientUnits="userSpaceOnUse">
<stop offset="0.00505051" stop-color="#273B98"/>
<stop offset="0.2274" stop-color="#2F2BA2"/>
<stop offset="0.399" stop-color="#361CAC"/>
<stop offset="0.768" stop-color="#440B89"/>
<stop offset="1" stop-color="#4E0070"/>
</linearGradient>
<linearGradient id="paint6_linear_45_1038" x1="14.224" y1="181.561" x2="93.3218" y2="63.247" gradientUnits="userSpaceOnUse">
<stop stop-color="#8C97E5"/>
<stop offset="0.286" stop-color="#A1ABEB"/>
<stop offset="0.8767" stop-color="#D9DEFB"/>
<stop offset="1" stop-color="#E5E9FF"/>
</linearGradient>
<radialGradient id="paint7_radial_45_1038" cx="0" cy="0" r="1" gradientUnits="userSpaceOnUse" gradientTransform="translate(94.6099 55.1798) scale(53.3035 53.2831)">
<stop stop-color="white"/>
<stop offset="1"/>
</radialGradient>
<linearGradient id="paint8_linear_45_1038" x1="97.9119" y1="360.019" x2="177.418" y2="222.258" gradientUnits="userSpaceOnUse">
<stop stop-color="#CED3F4"/>
<stop offset="0.0127482" stop-color="#D3D8F7"/>
<stop offset="0.0562747" stop-color="#E1E5FD"/>
<stop offset="0.0959596" stop-color="#E5E9FF"/>
<stop offset="0.4484" stop-color="#E8ECFF"/>
<stop offset="0.7192" stop-color="#F2F4FF"/>
<stop offset="0.9242" stop-color="white"/>
<stop offset="1" stop-color="#F5F7FF"/>
</linearGradient>
<linearGradient id="paint9_linear_45_1038" x1="85.2905" y1="416.16" x2="112.256" y2="370.202" gradientUnits="userSpaceOnUse">
<stop stop-color="#CED3F4"/>
<stop offset="0.0221417" stop-color="#D3D8F7"/>
<stop offset="0.0977404" stop-color="#E1E5FD"/>
<stop offset="0.1667" stop-color="#E5E9FF"/>
<stop offset="0.5212" stop-color="#E8ECFF"/>
<stop offset="0.7937" stop-color="#F2F4FF"/>
<stop offset="1" stop-color="white"/>
</linearGradient>
</defs>
</svg>
