<svg width="335" height="190" viewBox="0 0 335 190" fill="none" xmlns="http://www.w3.org/2000/svg">
<g opacity="0.4">
<path opacity="0.043084" d="M255.593 185.054L7.86852 45.5041C-1.24842 40.2354 -0.108794 30.9795 10.4327 24.8564L44.3363 5.77515C54.8777 -0.347953 70.8324 -0.917544 79.9493 4.35117L327.674 144.043C336.791 149.312 335.651 158.568 325.109 164.691L291.206 183.63C280.664 189.753 264.71 190.465 255.593 185.054Z" fill="#A6ADE2"/>
<path opacity="0.086168" d="M255.593 184.769L8.43833 45.5041C-0.678605 40.2354 0.461011 31.1219 11.0025 25.1412L44.1938 6.48714C54.5928 0.50644 70.5475 -0.205549 79.522 5.06316L326.534 144.328C335.651 149.597 334.511 158.71 323.97 164.691L290.779 183.345C280.379 189.326 264.567 189.895 255.593 184.769Z" fill="#A2A9DF"/>
<path opacity="0.1293" d="M255.593 184.342L9.1506 45.5041C0.176112 40.3778 1.31573 31.2643 11.7147 25.2836L44.3363 6.91433C54.7353 0.933625 70.405 0.221636 79.3795 5.49035L325.822 144.328C334.796 149.454 333.657 158.568 323.258 164.549L290.636 182.918C280.237 188.899 264.567 189.468 255.593 184.342Z" fill="#9FA6DC"/>
<path opacity="0.1723" d="M255.45 183.915L9.86286 45.5041C1.03083 40.3778 2.02799 31.4068 12.427 25.4261L44.3363 7.48394C54.5928 1.50324 70.1201 0.93365 79.0946 6.05997L324.825 144.471C333.657 149.597 332.659 158.568 322.26 164.549L290.351 182.491C279.952 188.471 264.425 189.041 255.45 183.915Z" fill="#9CA2DA"/>
<path opacity="0.2154" d="M255.45 183.487L10.4327 45.3617C1.60064 40.2354 2.74025 31.4067 12.8544 25.5684L44.1938 7.91111C54.3079 2.07281 69.8352 1.36082 78.6673 6.48713L323.685 144.613C332.517 149.739 331.377 158.568 321.263 164.406L289.924 182.063C279.667 188.044 264.282 188.614 255.45 183.487Z" fill="#989ED7"/>
<path opacity="0.2585" d="M255.45 183.203L11.1449 45.5041C2.45535 40.5202 3.45251 31.6915 13.5666 25.8532L44.3363 8.62308C54.4504 2.78478 69.6928 2.21519 78.3823 7.19911L322.688 144.898C331.377 149.882 330.38 158.71 320.266 164.549L289.496 181.779C279.525 187.617 264.282 188.187 255.45 183.203Z" fill="#959AD4"/>
<path opacity="0.3016" d="M255.45 182.775L11.8572 45.5041C3.1676 40.5201 4.30721 31.8339 14.2789 25.9956L44.3363 9.19266C54.3079 3.35436 69.4079 2.78477 78.0974 7.76869L321.833 145.04C330.523 150.024 329.383 158.71 319.411 164.549L289.354 181.351C279.24 187.047 264.14 187.759 255.45 182.775Z" fill="#9296D1"/>
<path opacity="0.3447" d="M255.45 182.348L12.427 45.5041C3.87987 40.5201 4.87704 31.9763 14.8487 26.138L44.3363 9.61986C54.3079 3.92395 69.2654 3.21196 77.8125 8.19588L320.836 145.04C329.383 150.024 328.386 158.568 318.414 164.406L288.927 180.924C278.955 186.62 263.997 187.332 255.45 182.348Z" fill="#8E93CE"/>
<path opacity="0.3878" d="M255.45 181.921L13.1393 45.5041C4.59213 40.6626 5.73175 31.9764 15.561 26.4228L44.3363 10.3319C54.1655 4.636 68.9805 4.06641 77.5276 8.90793L319.839 145.467C328.386 150.309 327.246 158.995 317.417 164.549L288.642 180.64C278.813 186.193 263.855 186.905 255.45 181.921Z" fill="#8B8FCB"/>
<path opacity="0.4308" d="M255.45 181.494L13.7091 45.5041C5.30439 40.6626 6.30156 32.1187 16.1308 26.5652L44.3363 10.7591C54.023 5.20558 68.6956 4.49359 77.2427 9.33511L318.842 145.467C327.246 150.309 326.249 158.853 316.42 164.406L288.214 180.212C278.528 185.766 263.855 186.335 255.45 181.494Z" fill="#888BC8"/>
<path opacity="0.4739" d="M255.45 181.209L14.4213 45.5041C6.01665 40.6626 7.15626 32.2611 16.7006 26.7076L44.1938 11.3286C53.8806 5.77513 68.4107 5.20555 76.6729 10.0471L317.56 145.752C325.964 150.594 324.825 158.995 315.28 164.549L287.787 179.927C278.243 185.339 263.713 185.908 255.45 181.209Z" fill="#8487C6"/>
<path opacity="0.517" d="M255.308 180.782L14.9911 45.5041C6.72892 40.805 7.72608 32.4036 17.2704 26.85L44.1938 11.7559C53.7381 6.20238 68.1258 5.63279 76.388 10.4743L316.705 145.752C324.967 150.451 323.97 158.853 314.426 164.406L287.502 179.5C278.1 184.911 263.57 185.481 255.308 180.782Z" fill="#8183C3"/>
<path opacity="0.5601" d="M255.308 180.355L15.7034 45.5041C7.58362 40.805 8.58079 32.5459 17.9826 27.1348L44.3363 12.4678C53.7381 7.05671 67.9833 6.48713 76.2456 11.1863L315.85 146.179C323.97 150.878 322.973 159.137 313.571 164.549L287.217 179.073C277.815 184.484 263.57 185.054 255.308 180.355Z" fill="#7E7FC0"/>
<path opacity="0.6032" d="M255.308 179.927L16.4157 45.3617C8.29589 40.6626 9.29305 32.5459 18.6949 27.1348L44.3363 12.7526C53.7381 7.3415 67.8409 6.77192 75.9607 11.471L314.853 146.037C322.973 150.736 321.976 158.853 312.574 164.264L286.932 178.646C277.53 184.057 263.428 184.627 255.308 179.927Z" fill="#7A7CBD"/>
<path opacity="0.6463" d="M255.308 179.5L17.1279 45.3617C9.15061 40.805 10.1478 32.6883 19.4072 27.2772L44.4787 13.3222C53.7381 7.9111 67.6984 7.34149 75.6758 12.0406L313.856 146.322C321.833 150.878 320.836 158.995 311.577 164.406L286.505 178.361C277.388 183.63 263.285 184.199 255.308 179.5Z" fill="#7778BA"/>
<path opacity="0.6893" d="M255.308 179.215L17.6977 45.3617C9.7204 40.805 10.7176 32.8307 19.977 27.562L44.3363 14.0342C53.4532 8.76548 67.4135 8.19588 75.2484 12.7526L312.716 146.464C320.693 151.021 319.696 158.995 310.437 164.264L286.078 177.791C277.103 183.203 263.285 183.772 255.308 179.215Z" fill="#7474B7"/>
<path opacity="0.7324" d="M255.308 178.788L18.41 45.3617C10.5751 40.805 11.5723 32.9731 20.5468 27.7044L44.3363 14.4614C53.4532 9.19266 67.1286 8.62307 74.9635 13.1798L311.861 146.464C319.696 151.021 318.699 158.853 309.725 164.121L285.935 177.364C276.818 182.775 263.143 183.345 255.308 178.788Z" fill="#7070B4"/>
<path opacity="0.7755" d="M255.308 178.361L19.1223 45.3617C11.2874 40.9474 12.2845 32.9731 21.259 27.8468L44.3363 15.031C53.3108 9.90472 66.8437 9.33511 74.6786 13.7494L310.864 146.749C318.699 151.163 317.702 159.137 308.727 164.264L285.65 177.08C276.676 182.348 263 182.918 255.308 178.361Z" fill="#6D6CB2"/>
<path opacity="0.8186" d="M255.308 177.934L19.6921 45.3617C11.9996 40.9474 12.9968 33.2579 21.9713 28.1316L44.4787 15.6006C53.3108 10.4743 66.8437 9.9047 74.5361 14.319L310.01 146.891C317.702 151.306 316.705 159.137 307.873 164.264L285.365 176.795C276.391 181.921 263 182.348 255.308 177.934Z" fill="#6A69AF"/>
<path opacity="0.8617" d="M255.165 177.507L20.4043 45.3617C12.8544 40.9474 13.7091 33.2579 22.5411 28.274L44.4787 16.1702C53.3108 11.0438 66.5588 10.6166 74.1088 14.8886L308.87 147.034C316.42 151.448 315.565 159.137 306.733 164.121L284.796 176.225C276.106 181.351 262.858 181.921 255.165 177.507Z" fill="#6665AC"/>
<path opacity="0.9048" d="M255.165 177.222L21.1166 45.3617C13.5666 40.9474 14.5638 33.4003 23.2534 28.4164L44.4787 16.5974C53.1683 11.6135 66.2739 11.0439 73.8239 15.3158L308.015 147.034C315.565 151.448 314.568 158.995 305.878 163.979L284.653 175.798C275.821 180.924 262.715 181.494 255.165 177.222Z" fill="#6361A9"/>
</g>
<path d="M241.917 81.1036V107.59L267.986 92.353V65.867L241.917 81.1036Z" fill="url(#paint0_linear_45_920)"/>
<path d="M241.917 81.1035V107.59L215.849 92.4954V66.0094L241.917 81.1035Z" fill="url(#paint1_linear_45_920)"/>
<path d="M215.849 66.0094L241.917 81.1035L267.986 65.867L241.917 50.6304L215.849 66.0094Z" fill="#A9B1E5"/>
<path d="M269.268 97.1945V123.68L295.337 108.444V81.9579L269.268 97.1945Z" fill="url(#paint2_linear_45_920)"/>
<path d="M269.411 97.1944V123.68L243.342 108.586V82.1003L269.411 97.1944Z" fill="url(#paint3_linear_45_920)"/>
<path d="M243.342 82.1003L269.411 97.1945L295.337 81.9579L269.268 66.7214L243.342 82.1003Z" fill="#A9B1E5"/>
<path d="M296.761 141.338V167.824L322.83 152.587V126.101L296.761 141.338Z" fill="url(#paint4_linear_45_920)"/>
<path d="M296.761 141.338V167.824L270.693 152.73V126.244L296.761 141.338Z" fill="url(#paint5_linear_45_920)"/>
<path d="M270.693 126.244L296.761 141.338L322.83 126.101L296.761 110.865L270.693 126.244Z" fill="#A9B1E5"/>
<path d="M213.854 125.532V152.018L239.923 136.781V110.295L213.854 125.532Z" fill="url(#paint6_linear_45_920)"/>
<path d="M213.854 125.532V152.018L187.786 136.781V110.437L213.854 125.532Z" fill="url(#paint7_linear_45_920)"/>
<path d="M187.786 110.437L213.854 125.532L239.923 110.295L213.854 95.0585L187.786 110.437Z" fill="#A9B1E5"/>
<path d="M241.205 141.623V168.108L267.274 152.73V126.244L241.205 141.623Z" fill="url(#paint8_linear_45_920)"/>
<path d="M241.205 141.623V168.108L215.136 152.872V126.386L241.205 141.623Z" fill="url(#paint9_linear_45_920)"/>
<path d="M215.136 126.386L241.205 141.623L267.274 126.244L241.205 111.149L215.136 126.386Z" fill="#A9B1E5"/>
<path d="M268.698 157.713V184.199L294.767 168.82V142.335L268.698 157.713Z" fill="url(#paint10_linear_45_920)"/>
<path d="M268.698 157.713V184.199L242.63 168.963V142.477L268.698 157.713Z" fill="url(#paint11_linear_45_920)"/>
<path d="M242.63 142.477L268.698 157.713L294.767 142.335L268.556 127.24L242.63 142.477Z" fill="#A9B1E5"/>
<path d="M296.761 113.285V139.771L322.83 124.535V98.0489L296.761 113.285Z" fill="url(#paint12_linear_45_920)"/>
<path d="M296.761 113.285V139.771L270.693 124.535V98.0489L296.761 113.285Z" fill="url(#paint13_linear_45_920)"/>
<path d="M270.693 98.0489L296.761 113.285L322.83 98.0489L296.761 82.8123L270.693 98.0489Z" fill="#A9B1E5"/>
<path d="M213.854 97.4793V123.965L239.923 108.729V82.2427L213.854 97.4793Z" fill="url(#paint14_linear_45_920)"/>
<path d="M213.854 97.4793V123.965L187.786 108.729V82.2427L213.854 97.4793Z" fill="url(#paint15_linear_45_920)"/>
<path d="M187.786 82.2427L213.854 97.4793L239.923 82.2427L213.854 67.0062L187.786 82.2427Z" fill="#A9B1E5"/>
<path d="M241.205 113.57V140.056L267.274 124.677V98.1912L241.205 113.57Z" fill="url(#paint16_linear_45_920)"/>
<path d="M241.205 113.57V140.056L215.136 124.82V98.3337L241.205 113.57Z" fill="url(#paint17_linear_45_920)"/>
<path d="M215.136 98.3337L241.205 113.57L267.274 98.1912L241.205 83.0971L215.136 98.3337Z" fill="#A9B1E5"/>
<path d="M268.698 129.661V156.147L294.767 140.768V114.282L268.698 129.661Z" fill="url(#paint18_linear_45_920)"/>
<path d="M268.698 129.661V156.147L242.63 140.911V114.425L268.698 129.661Z" fill="url(#paint19_linear_45_920)"/>
<path d="M242.63 114.425L268.698 129.661L294.767 114.282L268.556 99.188L242.63 114.425Z" fill="#A9B1E5"/>
<defs>
<linearGradient id="paint0_linear_45_920" x1="259.527" y1="97.0084" x2="278.589" y2="139.8" gradientUnits="userSpaceOnUse">
<stop stop-color="#7481CF"/>
<stop offset="1" stop-color="#7986D1"/>
</linearGradient>
<linearGradient id="paint1_linear_45_920" x1="215.891" y1="86.8195" x2="241.941" y2="86.8195" gradientUnits="userSpaceOnUse">
<stop stop-color="#7784D0"/>
<stop offset="1" stop-color="#8490D9"/>
</linearGradient>
<linearGradient id="paint2_linear_45_920" x1="286.929" y1="113.07" x2="305.992" y2="155.861" gradientUnits="userSpaceOnUse">
<stop stop-color="#7481CF"/>
<stop offset="1" stop-color="#7986D1"/>
</linearGradient>
<linearGradient id="paint3_linear_45_920" x1="243.293" y1="102.881" x2="269.343" y2="102.881" gradientUnits="userSpaceOnUse">
<stop stop-color="#7784D0"/>
<stop offset="1" stop-color="#8490D9"/>
</linearGradient>
<linearGradient id="paint4_linear_45_920" x1="314.331" y1="157.209" x2="333.394" y2="200" gradientUnits="userSpaceOnUse">
<stop stop-color="#7481CF"/>
<stop offset="1" stop-color="#7986D1"/>
</linearGradient>
<linearGradient id="paint5_linear_45_920" x1="270.695" y1="147.02" x2="296.745" y2="147.02" gradientUnits="userSpaceOnUse">
<stop stop-color="#7784D0"/>
<stop offset="1" stop-color="#8490D9"/>
</linearGradient>
<linearGradient id="paint6_linear_45_920" x1="231.439" y1="141.396" x2="250.502" y2="184.188" gradientUnits="userSpaceOnUse">
<stop stop-color="#7481CF"/>
<stop offset="1" stop-color="#7986D1"/>
</linearGradient>
<linearGradient id="paint7_linear_45_920" x1="187.803" y1="131.208" x2="213.853" y2="131.208" gradientUnits="userSpaceOnUse">
<stop stop-color="#7784D0"/>
<stop offset="1" stop-color="#8490D9"/>
</linearGradient>
<linearGradient id="paint8_linear_45_920" x1="258.842" y1="157.458" x2="277.904" y2="200.249" gradientUnits="userSpaceOnUse">
<stop stop-color="#7481CF"/>
<stop offset="1" stop-color="#7986D1"/>
</linearGradient>
<linearGradient id="paint9_linear_45_920" x1="215.206" y1="147.269" x2="241.256" y2="147.269" gradientUnits="userSpaceOnUse">
<stop stop-color="#7784D0"/>
<stop offset="1" stop-color="#8490D9"/>
</linearGradient>
<linearGradient id="paint10_linear_45_920" x1="286.244" y1="173.519" x2="305.307" y2="216.311" gradientUnits="userSpaceOnUse">
<stop stop-color="#7481CF"/>
<stop offset="1" stop-color="#7986D1"/>
</linearGradient>
<linearGradient id="paint11_linear_45_920" x1="242.608" y1="163.33" x2="268.658" y2="163.33" gradientUnits="userSpaceOnUse">
<stop stop-color="#7784D0"/>
<stop offset="1" stop-color="#8490D9"/>
</linearGradient>
<linearGradient id="paint12_linear_45_920" x1="314.331" y1="129.131" x2="333.394" y2="171.923" gradientUnits="userSpaceOnUse">
<stop stop-color="#7481CF"/>
<stop offset="1" stop-color="#7986D1"/>
</linearGradient>
<linearGradient id="paint13_linear_45_920" x1="270.695" y1="118.943" x2="296.745" y2="118.943" gradientUnits="userSpaceOnUse">
<stop stop-color="#7784D0"/>
<stop offset="1" stop-color="#8490D9"/>
</linearGradient>
<linearGradient id="paint14_linear_45_920" x1="231.439" y1="113.319" x2="250.502" y2="156.11" gradientUnits="userSpaceOnUse">
<stop stop-color="#7481CF"/>
<stop offset="1" stop-color="#7986D1"/>
</linearGradient>
<linearGradient id="paint15_linear_45_920" x1="187.803" y1="103.13" x2="213.853" y2="103.13" gradientUnits="userSpaceOnUse">
<stop stop-color="#7784D0"/>
<stop offset="1" stop-color="#8490D9"/>
</linearGradient>
<linearGradient id="paint16_linear_45_920" x1="258.842" y1="129.38" x2="277.904" y2="172.172" gradientUnits="userSpaceOnUse">
<stop stop-color="#7481CF"/>
<stop offset="1" stop-color="#7986D1"/>
</linearGradient>
<linearGradient id="paint17_linear_45_920" x1="215.206" y1="119.192" x2="241.256" y2="119.192" gradientUnits="userSpaceOnUse">
<stop stop-color="#7784D0"/>
<stop offset="1" stop-color="#8490D9"/>
</linearGradient>
<linearGradient id="paint18_linear_45_920" x1="286.244" y1="145.442" x2="305.307" y2="188.233" gradientUnits="userSpaceOnUse">
<stop stop-color="#7481CF"/>
<stop offset="1" stop-color="#7986D1"/>
</linearGradient>
<linearGradient id="paint19_linear_45_920" x1="242.608" y1="135.253" x2="268.658" y2="135.253" gradientUnits="userSpaceOnUse">
<stop stop-color="#7784D0"/>
<stop offset="1" stop-color="#8490D9"/>
</linearGradient>
</defs>
</svg>
