<svg width="263" height="356" viewBox="0 0 263 356" fill="none" xmlns="http://www.w3.org/2000/svg">
<g opacity="0.2">
<path opacity="0.047619" d="M14.741 199.926C17.8749 198.075 22.1485 196.936 26.2796 196.794C29.8409 196.651 33.2597 197.506 35.8239 198.93C35.9663 198.93 42.2342 202.489 42.2342 202.489L145.939 261.727L153.774 266.284L255.912 324.667C259.189 326.66 261.468 329.935 261.611 333.211C261.753 337.055 259.474 340.758 255.2 343.178L245.941 348.02C245.798 348.02 238.106 352.007 237.963 352.007C234.687 353.858 230.556 354.855 226.425 354.713C222.864 354.713 219.445 353.716 216.881 352.292L114.742 292.912L108.047 288.925L12.6042 233.532C9.32777 231.539 6.90608 228.263 6.90608 224.988C6.90608 221.286 8.75796 217.584 12.7466 215.163L12.8891 212.884C12.8891 212.884 14.456 200.069 14.741 199.926Z" fill="#ABB2E2"/>
<path opacity="0.095238" d="M14.741 200.923C17.7325 199.214 22.1485 197.933 25.9947 197.79C29.556 197.648 32.8324 198.36 35.539 199.642C35.8239 199.642 41.8069 203.059 41.9493 203.059L145.085 262.012L152.92 266.568L254.63 324.809C257.764 326.66 260.328 330.078 260.471 333.211C260.613 336.913 258.619 340.615 254.345 343.036L245.229 347.878C245.086 348.02 237.536 351.722 237.394 351.722C234.117 353.431 230.129 354.428 225.997 354.285C222.721 354.285 219.017 353.146 216.596 351.722L115.17 292.77L108.474 288.925L13.7438 233.817C10.6098 231.966 7.90326 228.691 7.90326 225.416C7.90326 221.856 9.18533 218.011 13.0315 215.875L13.174 213.597C12.8891 213.597 14.3136 201.208 14.741 200.923Z" fill="#A7ADDF"/>
<path opacity="0.1429" d="M14.8834 202.062C17.7324 200.354 22.2909 199.072 25.9947 198.787C29.556 198.502 32.8324 199.214 35.539 200.496C35.8239 200.496 41.8069 203.771 41.9493 203.913L144.657 262.724L152.492 267.138L253.776 325.094C256.767 326.803 259.474 330.22 259.759 333.353C260.044 337.055 258.192 340.758 253.918 343.178L244.801 348.02C244.516 348.162 237.251 351.722 236.966 351.865C233.69 353.573 229.701 354.428 225.855 354.143C222.721 354.143 218.732 352.861 216.596 351.58L115.882 293.054L109.187 289.21L15.0259 234.529C12.0344 232.82 9.18532 229.403 9.18532 226.27C9.18532 222.852 9.89759 219.008 13.6013 217.014V214.878C12.7466 214.309 14.1711 202.347 14.8834 202.062Z" fill="#A3A9DC"/>
<path opacity="0.1905" d="M14.8834 203.059C17.59 201.493 22.2909 200.069 25.7098 199.642C29.1286 199.214 32.405 199.926 35.1116 201.066C35.539 201.066 41.237 204.198 41.522 204.341L143.803 262.866L151.637 267.28L252.494 324.951C255.343 326.66 258.334 330.078 258.619 333.068C259.046 336.77 257.337 340.33 253.063 342.894L244.089 347.735C243.662 348.02 236.824 351.437 236.254 351.437C232.978 353.004 229.131 353.858 225.285 353.573C222.294 353.573 218.163 352.149 216.026 350.868L115.882 292.77L109.329 288.925L15.8806 234.671C13.0315 232.963 9.89757 229.545 9.89757 226.697C9.89757 223.564 10.04 219.577 13.4589 217.584L13.3164 215.448C12.6042 215.021 14.0287 203.486 14.8834 203.059Z" fill="#9FA4D8"/>
<path opacity="0.2381" d="M15.0259 204.056C17.59 202.632 22.5758 201.066 25.7098 200.638C29.1286 200.069 32.405 200.781 35.1116 201.92C35.6814 201.92 41.0946 204.91 41.522 205.053L143.375 263.293L151.068 267.708L251.496 325.236C254.203 326.803 257.337 330.363 257.764 333.068C258.192 336.628 256.767 340.33 252.494 342.751L243.662 347.593C243.234 347.878 236.539 351.153 235.827 351.153C232.55 352.719 228.704 353.289 225 353.004C222.151 353.004 217.878 351.437 215.883 350.156L116.452 292.627L109.899 288.782L17.0202 234.956C14.3136 233.39 10.8947 229.83 10.8947 227.124C10.8947 224.134 10.4674 220.147 13.7438 218.296L13.6013 216.302C12.6042 215.732 13.8862 204.768 15.0259 204.056Z" fill="#9BA0D5"/>
<path opacity="0.2857" d="M15.0259 205.195C17.4476 203.771 22.5758 202.205 25.4249 201.635C28.7013 201.065 32.1201 201.635 34.8267 202.632C35.539 202.632 40.8097 205.337 41.2371 205.765L142.663 263.863L150.355 268.277L250.357 325.521C252.921 326.945 256.34 330.647 256.767 333.211C257.337 336.77 256.055 340.33 251.639 342.894L242.807 347.735C242.237 348.02 235.827 351.153 235.114 351.295C231.838 352.719 228.134 353.289 224.431 353.004C221.866 353.004 217.308 351.153 215.456 350.156L116.737 292.912L110.184 289.067L18.1598 235.383C15.5957 233.959 11.8919 230.257 11.8919 227.694C11.8919 224.846 10.8947 220.716 14.0287 219.008L13.7438 217.014C12.4617 216.444 13.7438 205.907 15.0259 205.195Z" fill="#979BD2"/>
<path opacity="0.3333" d="M15.1683 206.192C17.4475 204.91 22.7183 203.059 25.4249 202.49C28.7013 201.778 31.9777 202.347 34.8267 203.344C35.6814 203.344 40.6672 205.907 41.237 206.334L142.093 264.148L149.786 268.562L249.217 325.521C251.496 326.803 255.77 330.647 255.77 333.068C257.052 336.486 255.343 340.188 250.927 342.609L242.237 347.45C241.525 347.878 235.399 350.725 234.545 350.868C231.268 352.149 227.564 352.719 224.003 352.292C221.581 352.292 216.881 350.298 215.171 349.302L117.164 292.485L110.611 288.783L19.0145 235.668C16.7353 234.387 12.6042 230.684 12.6042 228.263C12.6042 225.7 11.0372 221.428 13.8862 219.862L13.4589 218.011C12.4617 217.156 13.6013 207.046 15.1683 206.192Z" fill="#9397CF"/>
<path opacity="0.381" d="M15.3108 207.189C17.3051 206.049 22.8607 204.056 25.4249 203.344C28.5588 202.49 31.9777 203.059 34.6843 203.913C35.6814 203.913 40.5248 206.334 41.0946 206.761L141.523 264.29L149.216 268.704L248.22 325.379C250.357 326.66 254.915 330.505 254.915 332.641C256.34 335.916 254.773 339.618 250.357 342.182L241.81 347.023C240.955 347.45 235.114 350.298 234.117 350.298C230.983 351.58 227.28 352.007 223.861 351.58C221.581 351.58 216.738 349.444 215.029 348.447L117.734 292.058L111.324 288.355L20.439 235.668C18.3023 234.387 13.8862 230.684 13.8862 228.406C13.8862 225.985 11.8919 221.713 14.4561 220.147L14.0287 218.296C12.3193 217.868 13.4589 208.185 15.3108 207.189Z" fill="#8F92CC"/>
<path opacity="0.4286" d="M15.3108 208.185C17.1626 207.046 22.8607 205.053 25.14 204.341C28.2739 203.486 31.5503 203.913 34.3994 204.768C35.3965 204.768 40.0974 207.046 40.9522 207.473L140.954 264.86L148.504 269.274L247.08 325.806C249.075 326.945 253.918 330.932 253.918 332.926C255.628 336.058 254.061 339.903 249.645 342.466L241.097 347.45C240.243 348.02 234.545 350.583 233.405 350.725C230.271 351.865 226.567 352.292 223.291 351.722C221.154 351.722 216.168 349.444 214.601 348.589L117.876 292.627L111.466 288.925L21.4362 236.38C19.4419 235.241 14.741 231.396 14.741 229.403C14.741 227.124 12.1768 222.852 14.5985 221.428L14.0287 219.72C12.3193 218.58 13.4589 209.325 15.3108 208.185Z" fill="#8B8EC9"/>
<path opacity="0.4762" d="M15.4532 209.325C17.1626 208.328 23.0032 206.049 25.14 205.337C28.1315 204.341 31.5503 204.768 34.3994 205.48C35.539 205.48 40.0974 207.616 40.9521 208.185L140.526 265.287L148.076 269.701L246.226 325.948C248.078 326.945 253.206 331.075 253.206 332.926C255.058 336.059 253.633 339.903 249.217 342.324L240.813 347.308C239.815 347.878 234.402 350.298 233.263 350.441C230.129 351.58 226.567 351.865 223.291 351.295C221.439 351.295 216.026 348.874 214.744 348.02L118.731 292.485L112.321 288.782L22.4334 236.807C20.5815 235.811 15.7381 231.823 15.7381 229.972C15.7381 227.979 12.6042 223.422 14.741 222.14L14.0287 220.432C12.1768 219.292 13.3164 210.464 15.4532 209.325Z" fill="#8789C6"/>
<path opacity="0.5238" d="M15.4532 210.321C17.0202 209.467 23.0032 206.904 24.8551 206.192C27.8465 205.053 31.1229 205.48 33.972 206.192C35.2541 206.192 39.5276 208.185 40.5248 208.755L139.671 265.572L147.221 269.844L244.944 325.806C246.653 326.803 252.066 330.932 252.066 332.641C254.061 335.631 252.779 339.476 248.362 342.039L240.1 347.023C238.961 347.593 233.832 350.013 232.55 350.013C229.416 351.01 225.855 351.295 222.721 350.725C221.012 350.725 215.456 348.162 214.316 347.45L119.016 292.342L112.748 288.64L23.8579 237.092C22.1485 236.095 17.0202 232.108 17.0202 230.399C17.0202 228.548 13.3164 223.992 15.3108 222.852L14.4561 221.144C12.0344 220.004 13.174 211.745 15.4532 210.321Z" fill="#8385C2"/>
<path opacity="0.5714" d="M15.5957 211.318C17.0202 210.464 23.1456 207.901 24.855 207.189C27.7041 205.907 31.1229 206.334 33.972 206.904C35.3965 206.904 39.5276 208.755 40.5248 209.325L139.102 265.856L146.652 270.128L243.946 325.948C245.513 326.803 251.212 331.075 251.212 332.499C253.491 335.489 252.066 339.334 247.793 341.754L239.53 346.738C238.391 347.45 233.405 349.586 231.98 349.729C228.847 350.725 225.428 350.868 222.294 350.156C220.727 350.156 215.029 347.308 213.889 346.738L119.301 292.058L113.033 288.498L24.7126 237.377C23.1456 236.523 17.7324 232.393 17.7324 230.969C17.7324 229.26 13.4589 224.704 15.3108 223.564L14.456 221.998C12.0344 220.716 13.0315 212.885 15.5957 211.318Z" fill="#7F80BF"/>
<path opacity="0.619" d="M15.5957 212.315C16.8777 211.603 23.1456 208.755 24.5701 208.043C27.4192 206.761 30.838 207.046 33.6871 207.616C35.2541 207.616 39.1003 209.325 40.2399 209.894L138.389 266.284L145.797 270.556L242.522 326.091C243.804 326.803 249.929 331.075 249.929 332.499C252.351 335.347 251.069 339.191 246.653 341.754L238.533 346.738C237.251 347.45 232.55 349.444 230.983 349.586C227.849 350.441 224.431 350.583 221.581 349.871C220.157 349.871 214.316 346.881 213.319 346.311L119.443 292.058L113.175 288.498L25.7098 237.804C24.4277 237.092 18.5872 232.963 18.5872 231.539C18.5872 230.115 13.7438 225.273 15.3108 224.419L14.3136 222.852C11.8919 221.428 12.8891 214.024 15.5957 212.315Z" fill="#7B7CBC"/>
<path opacity="0.6667" d="M15.7381 213.454C16.8777 212.885 23.2881 209.752 24.5701 209.04C27.2767 207.616 30.6956 207.901 33.5446 208.328C35.1116 208.328 38.8154 209.894 40.0974 210.606L137.82 266.711L145.227 270.983L241.525 326.233C242.664 326.945 249.075 331.217 249.075 332.499C251.639 335.347 250.499 339.191 246.083 341.754L238.106 346.738C236.681 347.593 232.408 349.301 230.698 349.444C227.564 350.298 224.288 350.298 221.439 349.444C220.157 349.444 214.174 346.311 213.319 345.884L120.013 291.915L113.888 288.355L26.8494 238.089C25.7098 237.377 19.5843 233.247 19.5843 232.108C19.5843 230.827 14.1711 225.985 15.5957 225.131L14.456 223.707C11.8919 222.14 12.7466 215.163 15.7381 213.454Z" fill="#7777B9"/>
<path opacity="0.7143" d="M15.7381 214.451C16.7353 213.881 23.2881 210.606 24.2853 209.894C26.8494 208.328 30.4107 208.613 33.2597 209.04C34.9692 209.04 38.5305 210.464 39.8125 211.176L137.107 266.996L144.515 271.268L240.385 326.375C241.382 326.945 248.078 331.359 248.078 332.356C250.927 335.062 249.787 338.906 245.371 341.47L237.394 346.454C235.969 347.308 231.838 349.017 229.986 349.159C226.852 349.871 223.576 349.871 220.869 349.017C219.872 349.017 213.604 345.742 212.749 345.314L120.156 291.915L114.03 288.355L27.7041 238.516C26.7069 237.946 20.2966 233.675 20.2966 232.678C20.2966 231.539 14.3136 226.697 15.5957 225.985L14.4561 224.561C11.7495 222.852 12.6042 216.302 15.7381 214.451Z" fill="#7373B6"/>
<path opacity="0.7619" d="M15.8806 215.448C16.7353 215.02 23.2881 210.891 24.2852 210.891C27.1343 209.752 30.2682 209.467 33.2597 209.752C35.1116 209.752 38.388 211.033 39.8125 211.745L136.68 267.423L144.087 271.695L239.53 326.518C240.385 326.945 247.365 331.502 247.365 332.356C250.357 335.062 249.36 338.906 244.944 341.47L237.109 346.454C235.542 347.308 231.696 348.874 229.701 349.017C226.567 349.586 223.433 349.586 220.727 348.589C219.872 348.589 213.462 345.172 212.749 344.745L120.725 291.773L114.6 288.213L28.8437 238.658C27.989 238.231 21.2937 233.817 21.2937 232.963C21.2937 231.966 14.741 227.124 15.7381 226.555L14.456 225.273C11.607 223.564 12.4617 217.441 15.8806 215.448Z" fill="#6F6EB3"/>
<path opacity="0.8095" d="M16.023 216.587C16.5928 216.16 23.4305 211.888 24.2853 211.888C26.9918 210.749 30.2682 210.321 33.2597 210.606C35.2541 210.606 38.388 211.745 39.8125 212.6L136.11 267.992L143.518 272.264L238.533 326.803C239.246 327.23 246.511 331.787 246.511 332.499C249.645 335.062 248.79 338.906 244.374 341.612L236.681 346.596C234.972 347.593 231.411 348.874 229.274 349.017C226.282 349.586 223.006 349.444 220.584 348.447C219.872 348.447 213.177 344.887 212.749 344.602L121.58 292.058L115.597 288.64L30.1258 239.228C29.4135 238.801 22.4334 234.387 22.4334 233.817C22.4334 233.105 15.3108 227.979 16.1655 227.551L14.741 226.27C11.607 224.419 12.3193 218.58 16.023 216.587Z" fill="#6B6AB0"/>
<path opacity="0.8571" d="M16.023 217.584C16.4504 217.299 23.4305 212.742 24.0003 212.742C26.7069 211.461 29.8409 211.033 32.8324 211.176C34.9692 211.176 37.8182 212.173 39.3852 213.027L135.255 268.135L142.521 272.264L237.109 326.66C237.679 326.945 245.229 331.644 245.229 332.071C248.647 334.635 247.793 338.479 243.377 341.042L235.684 346.169C233.832 347.166 230.556 348.447 228.419 348.59C225.428 349.017 222.294 348.732 219.872 347.735C219.302 347.735 212.465 343.89 212.18 343.748L121.723 291.63L115.74 288.213L31.2654 239.513C30.6956 239.228 23.573 234.814 23.573 234.244C23.573 233.675 15.8806 228.548 16.4504 228.263L15.0259 227.124C11.4646 225.131 12.1768 219.862 16.023 217.584Z" fill="#6765AC"/>
<path opacity="0.9048" d="M16.1655 218.58C16.4504 218.438 23.573 213.739 24.0003 213.739C26.5645 212.457 29.8409 211.888 32.8324 212.03C35.1116 212.03 37.8182 212.885 39.3852 213.739L134.828 268.704L142.093 272.834L236.112 326.945C236.397 327.087 244.374 331.929 244.374 332.214C247.935 334.635 247.223 338.622 242.807 341.185L235.257 346.311C233.405 347.45 230.271 348.447 227.992 348.59C225 349.017 221.866 348.59 219.587 347.593C219.302 347.593 212.18 343.606 211.895 343.463L122.15 291.63L116.167 288.213L32.405 239.94C32.1201 239.798 24.5702 235.241 24.5702 234.814C24.5702 234.387 16.3079 229.26 16.7353 228.975L15.1683 227.836C11.4646 225.843 12.0344 221.001 16.1655 218.58Z" fill="#6361A9"/>
<path opacity="0.9524" d="M16.1655 219.577C16.3079 219.435 23.573 214.593 23.7154 214.593C26.2796 213.169 29.556 212.6 32.5475 212.6C34.8267 212.6 37.3908 213.312 39.1003 214.166L134.116 268.847L141.381 272.976L234.972 326.803C235.114 326.945 243.377 331.787 243.377 331.929C247.08 334.207 246.511 338.194 241.952 340.758L234.545 345.884C232.55 347.023 229.701 347.878 227.28 348.02C224.288 348.305 221.297 347.878 219.017 346.738C218.875 346.738 211.61 342.609 211.467 342.609L122.292 291.203L116.452 287.786L33.2597 239.94C33.1173 239.798 25.2824 235.241 25.2824 235.099C25.2824 234.956 16.4504 229.687 16.7353 229.545L15.0259 228.406C11.3221 226.555 11.8919 222.14 16.1655 219.577Z" fill="#5F5CA6"/>
<path d="M218.59 346.596L116.879 288.07L15.1683 229.545C11.1796 227.267 11.7495 223.28 16.3079 220.716L23.7154 215.59C28.2739 213.027 35.1116 212.742 38.9578 215.02L140.669 273.546L242.379 332.071C246.368 334.35 245.798 338.337 241.24 340.9L233.832 346.026C229.416 348.589 222.579 348.874 218.59 346.596Z" fill="#5B58A3"/>
</g>
<path d="M219.302 345.172L21.0088 231.111C9.75513 224.561 0.638184 207.189 0.638184 192.094V23.3532C0.638184 8.25908 9.75513 1.42399 21.0088 7.97428L219.302 122.035C230.556 128.585 239.673 145.958 239.673 161.052V329.793C239.673 344.745 230.556 351.58 219.302 345.172Z" fill="url(#paint0_linear_45_985)"/>
<path d="M225.285 338.479L23.4305 222.425C14.0287 216.444 8.3306 204.625 8.3306 192.379V17.3725C8.3306 14.5246 11.4645 12.6734 13.8862 14.0974C14.1711 14.2398 14.456 14.3822 14.5985 14.5246L216.596 130.721C227.707 137.129 231.696 148.521 231.696 160.767V335.204C231.696 338.337 228.419 340.188 225.713 338.764C225.57 338.622 225.285 338.479 225.285 338.479Z" fill="url(#paint1_linear_45_985)"/>
<path d="M216.596 130.721L14.5985 14.5246C14.456 14.3822 14.1711 14.2398 13.8862 14.0974C11.4645 12.6734 8.3306 14.3822 8.3306 17.3725V192.379C8.3306 204.483 14.1711 216.444 23.4305 222.425L225.285 338.479C225.428 338.479 225.57 338.622 225.713 338.764C228.419 340.33 231.696 338.337 231.696 335.204V160.767C231.696 148.663 227.707 137.271 216.596 130.721ZM229.416 335.204C229.416 336.201 228.562 336.913 227.707 336.913C227.422 336.913 227.137 336.77 226.852 336.628L24.5701 220.289C16.1655 214.878 10.6098 203.913 10.6098 192.379V17.3725C10.6098 16.5181 11.3221 15.9485 12.0344 15.9485C12.3193 15.9485 12.4617 15.9485 12.7466 16.0909L215.456 132.715C226.995 139.407 229.416 151.511 229.416 160.625V335.204V335.204Z" fill="#AFB6E5"/>
<path d="M228.704 116.481L30.4107 2.42076C25.9947 -0.142399 21.8636 -0.569592 18.4447 0.711987C18.0174 0.854384 8.75797 6.2655 8.33061 6.55029C11.8919 4.84152 16.3079 5.12631 21.0089 7.97427L219.302 122.035C230.556 128.585 239.673 145.958 239.673 161.052V329.793C239.673 339.191 236.112 345.457 230.698 347.165C231.126 347.165 231.696 347.023 232.55 346.596C232.835 346.453 242.664 340.615 242.807 340.473C246.653 337.767 249.075 332.214 249.075 324.382V155.498C249.075 140.404 239.958 123.032 228.704 116.481Z" fill="url(#paint2_linear_45_985)"/>
<path d="M228.562 116.624L30.2682 2.56315C25.8522 -4.10817e-06 21.7211 -0.427197 18.3023 0.854382C17.8749 0.99678 8.75797 6.26549 8.33061 6.55029C11.8919 4.84152 16.3079 5.12631 21.0089 7.97426L219.302 122.035C230.556 128.585 239.673 145.958 239.673 161.052V329.793C239.673 339.191 236.112 345.457 230.698 347.165C231.126 347.165 231.696 347.023 232.55 346.596C232.835 346.453 242.38 340.758 242.664 340.473C246.511 337.767 248.932 332.214 248.932 324.382V155.641C248.932 140.546 239.815 123.174 228.562 116.624Z" fill="url(#paint3_linear_45_985)"/>
<path d="M228.277 116.766L30.1258 2.70555C25.7098 0.142391 21.5787 -0.284802 18.1598 0.996777C17.7325 1.13917 8.75797 6.40789 8.33061 6.55029C11.8919 4.84151 16.3079 5.12631 21.0089 7.97426L219.302 122.035C230.556 128.585 239.673 145.958 239.673 161.052V329.793C239.673 339.191 236.112 345.457 230.698 347.166C231.126 347.166 231.696 347.023 232.55 346.596C232.835 346.453 242.237 340.758 242.522 340.615C246.368 337.91 248.79 332.356 248.79 324.524V155.783C248.79 140.689 239.673 123.174 228.277 116.766Z" fill="url(#paint4_linear_45_985)"/>
<path d="M228.134 116.766L29.8409 2.84794C25.4249 0.284786 21.2938 -0.142407 17.8749 1.13917C17.4476 1.28157 8.61551 6.40789 8.18816 6.55028C11.7495 4.84151 16.1655 5.12631 20.8664 7.97426L219.16 122.035C230.414 128.585 239.53 145.958 239.53 161.052V329.793C239.53 339.191 235.969 345.457 230.556 347.166C230.983 347.166 231.553 347.023 232.408 346.596C232.693 346.454 241.952 340.9 242.237 340.758C246.083 338.052 248.505 332.499 248.505 324.667V155.783C248.647 140.831 239.388 123.316 228.134 116.766Z" fill="url(#paint5_linear_45_985)"/>
<path d="M227.992 116.908L29.6984 2.84794C25.2824 0.284786 21.1513 -0.142407 17.7325 1.13917C17.3051 1.28157 8.61552 6.26549 8.33061 6.55028C11.8919 4.84151 16.3079 5.12631 21.0089 7.97426L219.302 122.035C230.556 128.585 239.673 145.958 239.673 161.052V329.793C239.673 339.191 236.112 345.457 230.698 347.166C231.126 347.166 231.696 347.023 232.55 346.596C232.835 346.454 241.952 341.042 242.095 340.9C245.941 338.194 248.362 332.641 248.362 324.809V155.925C248.362 140.974 239.246 123.459 227.992 116.908Z" fill="url(#paint6_linear_45_985)"/>
<path d="M227.849 117.051L29.556 2.99034C25.14 0.427181 21.0089 -1.19501e-05 17.59 1.28157C17.1626 1.42396 8.75797 6.26549 8.33061 6.55028C11.8919 4.84151 16.3079 5.1263 21.0089 7.97426L219.302 122.035C230.556 128.585 239.673 145.958 239.673 161.052V329.793C239.673 339.191 236.112 345.457 230.698 347.165C231.126 347.165 231.696 347.023 232.55 346.596C232.835 346.453 241.81 341.185 241.952 341.042C245.798 338.337 248.22 332.783 248.22 324.951V156.068C248.22 140.974 239.103 123.601 227.849 117.051Z" fill="url(#paint7_linear_45_985)"/>
<path d="M227.707 117.193L29.4135 3.13273C24.9975 0.569576 20.8664 0.142383 17.4476 1.42396C17.0202 1.56636 8.75797 6.26548 8.33061 6.55028C11.8919 4.84151 16.3079 5.1263 21.0089 7.97425L219.302 122.035C230.556 128.585 239.673 145.958 239.673 161.052V329.793C239.673 339.191 236.112 345.457 230.698 347.166C231.126 347.166 231.696 347.023 232.55 346.596C232.835 346.454 241.525 341.327 241.81 341.042C245.656 338.337 248.078 332.783 248.078 324.951V156.21C248.078 141.116 238.961 123.744 227.707 117.193Z" fill="url(#paint8_linear_45_985)"/>
<path d="M227.422 117.336L29.2711 3.27516C24.8551 0.712001 20.724 0.284809 17.3051 1.56639C16.8777 1.70879 8.75797 6.40791 8.33061 6.55031C11.8919 4.84153 16.3079 5.12633 21.0089 7.97428L219.302 122.035C230.556 128.585 239.673 145.958 239.673 161.052V329.793C239.673 339.191 236.112 345.457 230.698 347.166C231.126 347.166 231.696 347.023 232.55 346.596C232.835 346.454 241.382 341.327 241.667 341.185C245.513 338.479 247.935 332.926 247.935 325.094V156.353C247.935 141.259 238.818 123.744 227.422 117.336Z" fill="url(#paint9_linear_45_985)"/>
<path d="M227.28 117.336L28.9862 3.41755C24.5702 0.854397 20.439 0.427204 17.0202 1.70878C16.5928 1.85118 8.61551 6.4079 8.18816 6.5503C11.7495 4.84153 16.1655 5.12633 20.8664 7.97428L219.16 122.035C230.414 128.585 239.53 145.958 239.53 161.052V329.793C239.53 339.191 235.969 345.457 230.556 347.165C230.983 347.165 231.553 347.023 232.408 346.596C232.693 346.453 241.097 341.47 241.382 341.327C245.229 338.622 247.65 333.068 247.65 325.236V156.353C247.793 141.401 238.533 123.886 227.28 117.336Z" fill="url(#paint10_linear_45_985)"/>
<path d="M227.137 117.478L28.8437 3.41755C24.4277 0.854397 20.2966 0.427204 16.8777 1.70878C16.4504 1.85118 8.75797 6.26551 8.33061 6.5503C11.8919 4.84153 16.3079 5.12633 21.0089 7.97428L219.302 122.035C230.556 128.585 239.673 145.958 239.673 161.052V329.793C239.673 339.191 236.112 345.457 230.698 347.165C231.126 347.165 231.696 347.023 232.55 346.596C232.835 346.453 241.097 341.612 241.24 341.47C245.086 338.764 247.508 333.211 247.508 325.379V156.495C247.508 141.543 238.391 124.028 227.137 117.478Z" fill="url(#paint11_linear_45_985)"/>
<path d="M226.995 117.62L28.7013 3.55995C24.2853 0.996792 20.1541 0.569599 16.7353 1.85118C16.3079 1.99358 8.75797 6.26551 8.33061 6.5503C11.8919 4.84153 16.3079 5.12632 21.0089 7.97428L219.302 122.035C230.556 128.585 239.673 145.958 239.673 161.052V329.793C239.673 339.191 236.112 345.457 230.698 347.166C231.126 347.166 231.696 347.023 232.55 346.596C232.835 346.454 240.813 341.754 241.097 341.47C244.944 338.764 247.365 333.211 247.365 325.379V156.637C247.365 141.543 238.248 124.171 226.995 117.62Z" fill="url(#paint12_linear_45_985)"/>
<path d="M226.71 117.763L28.5588 3.70234C24.1428 1.13919 20.0117 0.711994 16.5928 1.99357C16.1655 2.13597 8.75797 6.2655 8.33061 6.5503C11.8919 4.84153 16.3079 5.12632 21.0089 7.97427L219.302 122.035C230.556 128.585 239.673 145.958 239.673 161.052V329.793C239.673 339.191 236.112 345.457 230.698 347.165C231.126 347.165 231.696 347.023 232.55 346.596C232.835 346.453 240.67 341.897 240.955 341.612C244.801 338.906 247.223 333.353 247.223 325.521V156.78C247.223 141.686 238.106 124.313 226.71 117.763Z" fill="url(#paint13_linear_45_985)"/>
<path d="M226.567 117.905L28.4164 3.84474C24.0003 1.28158 19.8692 0.854389 16.4504 2.13597C16.023 2.27837 8.75797 6.4079 8.33061 6.5503C11.8919 4.84152 16.3079 5.12632 21.0089 7.97427L219.302 122.035C230.556 128.585 239.673 145.958 239.673 161.052V329.793C239.673 339.191 236.112 345.457 230.698 347.166C231.126 347.166 231.696 347.023 232.55 346.596C232.835 346.454 240.528 341.897 240.813 341.754C244.659 339.049 247.08 333.495 247.08 325.663V156.922C247.08 141.828 237.821 124.313 226.567 117.905Z" fill="url(#paint14_linear_45_985)"/>
<path d="M226.425 117.905L28.1315 3.98713C23.7154 1.42398 19.5843 0.996784 16.1655 2.27836C15.7381 2.42076 8.61552 6.40789 8.33061 6.55029C11.8919 4.84152 16.3079 5.12632 21.0089 7.97427L219.302 122.035C230.556 128.585 239.673 145.958 239.673 161.052V329.793C239.673 339.191 236.112 345.457 230.698 347.165C231.126 347.165 231.696 347.023 232.55 346.596C232.835 346.453 240.385 342.039 240.67 341.897C244.516 339.191 246.938 333.638 246.938 325.806V156.922C246.796 141.97 237.679 124.456 226.425 117.905Z" fill="url(#paint15_linear_45_985)"/>
<path d="M226.282 118.048L27.989 3.98713C23.573 1.42398 19.4419 0.996784 16.023 2.27836C15.5957 2.42076 8.75797 6.2655 8.33061 6.55029C11.8919 4.84152 16.3079 5.12632 21.0089 7.97427L219.302 122.035C230.556 128.585 239.673 145.958 239.673 161.052V329.793C239.673 339.191 236.112 345.457 230.698 347.165C231.126 347.165 231.696 347.023 232.55 346.596C232.835 346.453 240.243 342.182 240.385 342.039C244.231 339.334 246.653 333.78 246.653 325.948V157.065C246.653 142.113 237.536 124.598 226.282 118.048Z" fill="url(#paint16_linear_45_985)"/>
<path d="M226.14 118.19L27.8466 4.12953C23.4305 1.56637 19.2994 1.13918 15.8806 2.42076C15.4532 2.56316 8.75797 6.26549 8.33061 6.55029C11.8919 4.84152 16.3079 5.12631 21.0089 7.97427L219.302 122.035C230.556 128.585 239.673 145.958 239.673 161.052V329.793C239.673 339.191 236.112 345.457 230.698 347.166C231.126 347.166 231.696 347.023 232.55 346.596C232.835 346.454 239.958 342.324 240.243 342.039C244.089 339.334 246.511 333.78 246.511 325.948V157.207C246.511 142.113 237.394 124.74 226.14 118.19Z" fill="url(#paint17_linear_45_985)"/>
<path d="M225.855 118.332L27.7041 4.27192C23.2881 1.70877 19.157 1.28157 15.7381 2.56315C15.3108 2.70555 8.75797 6.26549 8.33061 6.55029C11.8919 4.84151 16.3079 5.12631 21.0089 7.97426L219.302 122.035C230.556 128.585 239.673 145.958 239.673 161.052V329.793C239.673 339.191 236.112 345.457 230.698 347.165C231.126 347.165 231.696 347.023 232.55 346.596C232.835 346.453 239.815 342.324 240.1 342.182C243.946 339.476 246.368 333.922 246.368 326.091V157.349C246.368 142.255 237.251 124.883 225.855 118.332Z" fill="url(#paint18_linear_45_985)"/>
<path d="M225.713 118.475L27.5617 4.41432C23.1456 1.85116 19.0145 1.42397 15.5957 2.70555C15.1683 2.84795 8.75797 6.40789 8.33061 6.55028C11.8919 4.84151 16.3079 5.12631 21.0089 7.97426L219.302 122.035C230.556 128.585 239.673 145.958 239.673 161.052V329.793C239.673 339.191 236.112 345.457 230.698 347.166C231.126 347.166 231.696 347.023 232.55 346.596C232.835 346.454 239.673 342.466 239.958 342.324C243.804 339.618 246.226 334.065 246.226 326.233V157.492C246.226 142.398 236.966 124.883 225.713 118.475Z" fill="url(#paint19_linear_45_985)"/>
<path d="M225.57 118.475L27.2768 4.55671C22.8607 1.99356 18.7296 1.56636 15.3108 2.84794C14.8834 2.99034 8.61552 6.40788 8.33061 6.55028C11.8919 4.84151 16.3079 5.1263 21.0089 7.97426L219.302 122.035C230.556 128.585 239.673 145.958 239.673 161.052V329.793C239.673 339.191 236.112 345.457 230.698 347.165C231.126 347.165 231.696 347.023 232.55 346.596C232.835 346.453 239.53 342.609 239.815 342.466C243.662 339.761 246.083 334.207 246.083 326.375V157.492C245.941 142.54 236.824 125.025 225.57 118.475Z" fill="url(#paint20_linear_45_985)"/>
<path d="M225.428 118.617L27.1343 4.55671C22.7183 1.99356 18.5872 1.56636 15.1683 2.84794C14.741 2.99034 8.75797 6.26549 8.33061 6.55028C11.8919 4.84151 16.3079 5.1263 21.0089 7.97426L219.302 122.035C230.556 128.585 239.673 145.958 239.673 161.052V329.793C239.673 339.191 236.112 345.457 230.698 347.165C231.126 347.165 231.696 347.023 232.55 346.596C232.835 346.453 239.388 342.751 239.53 342.609C243.377 339.903 245.798 334.35 245.798 326.518V157.634C245.798 142.682 236.681 125.168 225.428 118.617Z" fill="url(#paint21_linear_45_985)"/>
<path d="M225.285 118.76L26.9918 4.69911C22.5758 2.13595 18.4447 1.70876 15.0259 2.99034C14.5985 3.13274 8.75797 6.26548 8.33061 6.55028C11.8919 4.84151 16.3079 5.1263 21.0089 7.97426L219.302 122.035C230.556 128.585 239.673 145.958 239.673 161.052V329.793C239.673 339.191 236.112 345.457 230.698 347.166C231.126 347.166 231.696 347.023 232.55 346.596C232.835 346.454 239.103 342.894 239.388 342.609C243.234 339.903 245.656 334.35 245.656 326.518V157.777C245.656 142.682 236.539 125.31 225.285 118.76Z" fill="url(#paint22_linear_45_985)"/>
<path d="M225 118.902L26.8494 4.8415C22.4334 2.27835 18.3023 1.85115 14.8834 3.13273C14.4561 3.27513 8.75797 6.26548 8.33061 6.55028C11.8919 4.8415 16.3079 5.1263 21.0089 7.97425L219.302 122.035C230.556 128.585 239.673 145.958 239.673 161.052V329.793C239.673 339.191 236.112 345.457 230.698 347.165C231.126 347.165 231.696 347.023 232.55 346.596C232.835 346.453 238.961 342.894 239.246 342.751C243.092 340.046 245.513 334.492 245.513 326.66V157.919C245.513 142.825 236.397 125.31 225 118.902Z" fill="url(#paint23_linear_45_985)"/>
<path d="M220.299 121.465L22.006 7.40467C17.4475 4.69912 13.174 4.41432 9.75513 5.8383C12.7466 5.4111 16.023 6.12309 19.5843 8.11666L217.878 122.177C229.131 128.727 238.248 146.1 238.248 161.194V329.935C238.248 338.764 235.114 344.887 230.129 346.881C236.397 345.884 240.67 339.476 240.67 329.081V160.482C240.67 145.388 231.553 128.015 220.299 121.465Z" fill="white"/>
<defs>
<linearGradient id="paint0_linear_45_985" x1="-166.772" y1="113.57" x2="357.803" y2="228.734" gradientUnits="userSpaceOnUse">
<stop stop-color="#AFB6E5"/>
<stop offset="0.1449" stop-color="#B6BCE8"/>
<stop offset="0.3485" stop-color="#C8CDF1"/>
<stop offset="0.5808" stop-color="#E5E9FF"/>
<stop offset="0.8551" stop-color="#F5F6FF"/>
<stop offset="1" stop-color="white"/>
</linearGradient>
<linearGradient id="paint1_linear_45_985" x1="14.6991" y1="17.8233" x2="240.437" y2="357.396" gradientUnits="userSpaceOnUse">
<stop offset="0.00505051" stop-color="#273B98"/>
<stop offset="0.2274" stop-color="#2F2BA2"/>
<stop offset="0.399" stop-color="#361CAC"/>
<stop offset="0.768" stop-color="#440B89"/>
<stop offset="1" stop-color="#4E0070"/>
</linearGradient>
<linearGradient id="paint2_linear_45_985" x1="76.3259" y1="-29.2637" x2="260.421" y2="339.707" gradientUnits="userSpaceOnUse">
<stop stop-color="#B3BAE7"/>
<stop offset="0.1919" stop-color="#B7BDE9"/>
<stop offset="0.2828" stop-color="#BAC0E9"/>
<stop offset="0.4091" stop-color="#AFB6E5"/>
<stop offset="0.9091" stop-color="#AFB6E5"/>
<stop offset="1" stop-color="#B3BAE7"/>
</linearGradient>
<linearGradient id="paint3_linear_45_985" x1="76.2454" y1="-29.1958" x2="260.329" y2="339.752" gradientUnits="userSpaceOnUse">
<stop stop-color="#B4BBE8"/>
<stop offset="0.1919" stop-color="#B9BEEA"/>
<stop offset="0.2828" stop-color="#BCC2EA"/>
<stop offset="0.4091" stop-color="#B2B8E6"/>
<stop offset="0.4343" stop-color="#B2B8E6"/>
<stop offset="0.5354" stop-color="#B3B9E6"/>
<stop offset="0.7222" stop-color="#AFB6E5"/>
<stop offset="0.9091" stop-color="#AFB6E5"/>
<stop offset="1" stop-color="#B4BBE8"/>
</linearGradient>
<linearGradient id="paint4_linear_45_985" x1="76.1648" y1="-29.1282" x2="260.237" y2="339.798" gradientUnits="userSpaceOnUse">
<stop stop-color="#B5BCE8"/>
<stop offset="0.1919" stop-color="#BAC0EA"/>
<stop offset="0.2828" stop-color="#BDC3EB"/>
<stop offset="0.4091" stop-color="#B4BBE7"/>
<stop offset="0.4343" stop-color="#B4BBE7"/>
<stop offset="0.5354" stop-color="#B7BDE7"/>
<stop offset="0.7222" stop-color="#AFB6E5"/>
<stop offset="0.9091" stop-color="#AFB6E5"/>
<stop offset="1" stop-color="#B5BCE8"/>
</linearGradient>
<linearGradient id="paint5_linear_45_985" x1="76.0844" y1="-29.0604" x2="260.146" y2="339.843" gradientUnits="userSpaceOnUse">
<stop stop-color="#B7BDE9"/>
<stop offset="0.1919" stop-color="#BCC1EB"/>
<stop offset="0.2828" stop-color="#BFC5EC"/>
<stop offset="0.4091" stop-color="#B7BDE9"/>
<stop offset="0.4343" stop-color="#B7BDE9"/>
<stop offset="0.5354" stop-color="#BAC0E9"/>
<stop offset="0.7222" stop-color="#AFB6E5"/>
<stop offset="0.9091" stop-color="#AFB6E5"/>
<stop offset="1" stop-color="#B7BDE9"/>
</linearGradient>
<linearGradient id="paint6_linear_45_985" x1="76.0038" y1="-28.9926" x2="260.054" y2="339.888" gradientUnits="userSpaceOnUse">
<stop stop-color="#B8BFE9"/>
<stop offset="0.1919" stop-color="#BDC3EC"/>
<stop offset="0.2828" stop-color="#C1C6EC"/>
<stop offset="0.4091" stop-color="#B9C0EA"/>
<stop offset="0.4343" stop-color="#B9C0EA"/>
<stop offset="0.5354" stop-color="#BEC4EA"/>
<stop offset="0.7222" stop-color="#AFB6E5"/>
<stop offset="0.9091" stop-color="#AFB6E5"/>
<stop offset="1" stop-color="#B8BFE9"/>
</linearGradient>
<linearGradient id="paint7_linear_45_985" x1="75.9233" y1="-28.9248" x2="259.962" y2="339.934" gradientUnits="userSpaceOnUse">
<stop stop-color="#B9C0EA"/>
<stop offset="0.1919" stop-color="#BFC4ED"/>
<stop offset="0.2828" stop-color="#C2C8ED"/>
<stop offset="0.4091" stop-color="#BCC2EB"/>
<stop offset="0.4343" stop-color="#BCC2EB"/>
<stop offset="0.5354" stop-color="#C2C7EB"/>
<stop offset="0.7222" stop-color="#AFB6E5"/>
<stop offset="0.9091" stop-color="#AFB6E5"/>
<stop offset="1" stop-color="#B9C0EA"/>
</linearGradient>
<linearGradient id="paint8_linear_45_985" x1="75.8427" y1="-28.8572" x2="259.871" y2="339.979" gradientUnits="userSpaceOnUse">
<stop stop-color="#BAC1EA"/>
<stop offset="0.1919" stop-color="#C0C6ED"/>
<stop offset="0.2828" stop-color="#C4C9EE"/>
<stop offset="0.4091" stop-color="#BEC4EC"/>
<stop offset="0.4343" stop-color="#BEC5EC"/>
<stop offset="0.5354" stop-color="#C6CBEC"/>
<stop offset="0.698" stop-color="#B2B9E6"/>
<stop offset="0.7222" stop-color="#AFB6E5"/>
<stop offset="0.9091" stop-color="#AFB6E5"/>
<stop offset="0.999" stop-color="#BAC1EA"/>
<stop offset="1" stop-color="#BAC1EA"/>
</linearGradient>
<linearGradient id="paint9_linear_45_985" x1="75.7622" y1="-28.7894" x2="259.779" y2="340.024" gradientUnits="userSpaceOnUse">
<stop stop-color="#BCC2EB"/>
<stop offset="0.1919" stop-color="#C2C7EE"/>
<stop offset="0.2828" stop-color="#C6CBEF"/>
<stop offset="0.4091" stop-color="#C1C7ED"/>
<stop offset="0.4343" stop-color="#C1C7EE"/>
<stop offset="0.5354" stop-color="#CACEEE"/>
<stop offset="0.6768" stop-color="#B6BDE7"/>
<stop offset="0.7222" stop-color="#AFB6E5"/>
<stop offset="0.9091" stop-color="#AFB6E5"/>
<stop offset="0.9881" stop-color="#BAC0EA"/>
<stop offset="1" stop-color="#BCC2EB"/>
</linearGradient>
<linearGradient id="paint10_linear_45_985" x1="75.6817" y1="-28.7216" x2="259.687" y2="340.07" gradientUnits="userSpaceOnUse">
<stop stop-color="#BDC3EC"/>
<stop offset="0.1919" stop-color="#C4C9EF"/>
<stop offset="0.2828" stop-color="#C7CDF0"/>
<stop offset="0.4091" stop-color="#C3C9EF"/>
<stop offset="0.4343" stop-color="#C4C9EF"/>
<stop offset="0.5354" stop-color="#CDD2EF"/>
<stop offset="0.6644" stop-color="#B9C0E8"/>
<stop offset="0.7222" stop-color="#AFB6E5"/>
<stop offset="0.9091" stop-color="#AFB6E5"/>
<stop offset="0.9836" stop-color="#BAC0EA"/>
<stop offset="1" stop-color="#BDC3EC"/>
</linearGradient>
<linearGradient id="paint11_linear_45_985" x1="75.6011" y1="-28.654" x2="259.595" y2="340.115" gradientUnits="userSpaceOnUse">
<stop stop-color="#BEC4EC"/>
<stop offset="0.1919" stop-color="#C5CAEF"/>
<stop offset="0.2828" stop-color="#C9CEF1"/>
<stop offset="0.4091" stop-color="#C6CBF0"/>
<stop offset="0.4343" stop-color="#C6CCF0"/>
<stop offset="0.5289" stop-color="#D0D4F0"/>
<stop offset="0.5354" stop-color="#D1D5F0"/>
<stop offset="0.651" stop-color="#BDC3EA"/>
<stop offset="0.7222" stop-color="#AFB6E5"/>
<stop offset="0.9091" stop-color="#AFB6E5"/>
<stop offset="0.9797" stop-color="#BAC0EA"/>
<stop offset="1" stop-color="#BEC4EC"/>
</linearGradient>
<linearGradient id="paint12_linear_45_985" x1="75.5206" y1="-28.5863" x2="259.504" y2="340.16" gradientUnits="userSpaceOnUse">
<stop stop-color="#BFC5ED"/>
<stop offset="0.1919" stop-color="#C7CCF0"/>
<stop offset="0.2828" stop-color="#CBD0F2"/>
<stop offset="0.4091" stop-color="#C8CEF1"/>
<stop offset="0.4343" stop-color="#C9CEF1"/>
<stop offset="0.5228" stop-color="#D3D7F1"/>
<stop offset="0.5354" stop-color="#D5D9F1"/>
<stop offset="0.6403" stop-color="#C1C7EB"/>
<stop offset="0.7222" stop-color="#AFB6E5"/>
<stop offset="0.9091" stop-color="#AFB6E5"/>
<stop offset="0.9763" stop-color="#BAC0EA"/>
<stop offset="1" stop-color="#BFC5ED"/>
</linearGradient>
<linearGradient id="paint13_linear_45_985" x1="75.4401" y1="-28.5185" x2="259.412" y2="340.206" gradientUnits="userSpaceOnUse">
<stop stop-color="#C1C7ED"/>
<stop offset="0.1919" stop-color="#C8CDF1"/>
<stop offset="0.2828" stop-color="#CCD1F2"/>
<stop offset="0.4091" stop-color="#CBD0F2"/>
<stop offset="0.4343" stop-color="#CBD1F3"/>
<stop offset="0.513" stop-color="#D5D9F3"/>
<stop offset="0.5354" stop-color="#D9DCF3"/>
<stop offset="0.6316" stop-color="#C5CAEC"/>
<stop offset="0.7222" stop-color="#AFB6E5"/>
<stop offset="0.9091" stop-color="#AFB6E5"/>
<stop offset="0.9704" stop-color="#BAC0EA"/>
<stop offset="1" stop-color="#C1C7ED"/>
</linearGradient>
<linearGradient id="paint14_linear_45_985" x1="75.3595" y1="-28.4509" x2="259.32" y2="340.251" gradientUnits="userSpaceOnUse">
<stop stop-color="#C2C8EE"/>
<stop offset="0.1919" stop-color="#CACFF2"/>
<stop offset="0.2828" stop-color="#CED3F3"/>
<stop offset="0.4091" stop-color="#CDD3F3"/>
<stop offset="0.4343" stop-color="#CED3F4"/>
<stop offset="0.509" stop-color="#D8DCF4"/>
<stop offset="0.5354" stop-color="#DDE0F4"/>
<stop offset="0.6245" stop-color="#C9CEEE"/>
<stop offset="0.7222" stop-color="#AFB6E5"/>
<stop offset="0.9091" stop-color="#AFB6E5"/>
<stop offset="0.9679" stop-color="#BAC0EA"/>
<stop offset="1" stop-color="#C2C8EE"/>
</linearGradient>
<linearGradient id="paint15_linear_45_985" x1="75.279" y1="-28.3833" x2="259.229" y2="340.296" gradientUnits="userSpaceOnUse">
<stop stop-color="#C3C9EE"/>
<stop offset="0.1919" stop-color="#CBD0F2"/>
<stop offset="0.2828" stop-color="#D0D4F4"/>
<stop offset="0.4091" stop-color="#D0D5F4"/>
<stop offset="0.4343" stop-color="#D0D6F5"/>
<stop offset="0.5022" stop-color="#DADEF5"/>
<stop offset="0.5354" stop-color="#E1E3F5"/>
<stop offset="0.6182" stop-color="#CDD1EF"/>
<stop offset="0.7222" stop-color="#AFB6E5"/>
<stop offset="0.9091" stop-color="#AFB6E5"/>
<stop offset="0.9656" stop-color="#BAC0EA"/>
<stop offset="1" stop-color="#C3C9EE"/>
</linearGradient>
<linearGradient id="paint16_linear_45_985" x1="75.1984" y1="-28.3156" x2="259.137" y2="340.341" gradientUnits="userSpaceOnUse">
<stop stop-color="#C4CAEF"/>
<stop offset="0.1919" stop-color="#CDD2F3"/>
<stop offset="0.2828" stop-color="#D1D6F5"/>
<stop offset="0.4091" stop-color="#D2D7F6"/>
<stop offset="0.4343" stop-color="#D3D8F6"/>
<stop offset="0.5022" stop-color="#DDE1F6"/>
<stop offset="0.5354" stop-color="#E4E7F6"/>
<stop offset="0.6142" stop-color="#D0D5F0"/>
<stop offset="0.7222" stop-color="#AFB6E5"/>
<stop offset="0.9091" stop-color="#AFB6E5"/>
<stop offset="0.9635" stop-color="#BAC0EA"/>
<stop offset="1" stop-color="#C4CAEF"/>
</linearGradient>
<linearGradient id="paint17_linear_45_985" x1="75.1176" y1="-28.2481" x2="259.045" y2="340.387" gradientUnits="userSpaceOnUse">
<stop stop-color="#C6CBF0"/>
<stop offset="0.1919" stop-color="#CFD3F4"/>
<stop offset="0.2828" stop-color="#D3D8F6"/>
<stop offset="0.4091" stop-color="#D5DAF7"/>
<stop offset="0.4343" stop-color="#D6DAF8"/>
<stop offset="0.4993" stop-color="#E0E3F8"/>
<stop offset="0.5354" stop-color="#E8EAF8"/>
<stop offset="0.6093" stop-color="#D4D8F1"/>
<stop offset="0.7222" stop-color="#AFB6E5"/>
<stop offset="0.9091" stop-color="#AFB6E5"/>
<stop offset="0.9597" stop-color="#BAC0EA"/>
<stop offset="1" stop-color="#C6CBF0"/>
</linearGradient>
<linearGradient id="paint18_linear_45_985" x1="75.0371" y1="-28.1806" x2="258.954" y2="340.432" gradientUnits="userSpaceOnUse">
<stop stop-color="#C7CCF0"/>
<stop offset="0.1919" stop-color="#D0D5F4"/>
<stop offset="0.2828" stop-color="#D5D9F7"/>
<stop offset="0.4091" stop-color="#D7DCF8"/>
<stop offset="0.4343" stop-color="#D8DDF9"/>
<stop offset="0.4942" stop-color="#E2E6F9"/>
<stop offset="0.5354" stop-color="#ECEEF9"/>
<stop offset="0.6051" stop-color="#D8DCF3"/>
<stop offset="0.7222" stop-color="#AFB6E5"/>
<stop offset="0.9091" stop-color="#AFB6E5"/>
<stop offset="0.9581" stop-color="#BAC0EA"/>
<stop offset="1" stop-color="#C7CCF0"/>
</linearGradient>
<linearGradient id="paint19_linear_45_985" x1="74.9565" y1="-28.113" x2="258.862" y2="340.477" gradientUnits="userSpaceOnUse">
<stop stop-color="#C8CDF1"/>
<stop offset="0.1919" stop-color="#D2D6F5"/>
<stop offset="0.2828" stop-color="#D6DBF8"/>
<stop offset="0.4091" stop-color="#DADEF9"/>
<stop offset="0.4343" stop-color="#DBDFFA"/>
<stop offset="0.4921" stop-color="#E5E8FA"/>
<stop offset="0.5354" stop-color="#F0F1FA"/>
<stop offset="0.6013" stop-color="#DCDFF4"/>
<stop offset="0.7222" stop-color="#AFB6E5"/>
<stop offset="0.9091" stop-color="#AFB6E5"/>
<stop offset="0.9566" stop-color="#BAC0EA"/>
<stop offset="1" stop-color="#C8CDF1"/>
</linearGradient>
<linearGradient id="paint20_linear_45_985" x1="74.8757" y1="-28.0458" x2="258.77" y2="340.523" gradientUnits="userSpaceOnUse">
<stop stop-color="#C9CFF1"/>
<stop offset="0.1919" stop-color="#D3D8F6"/>
<stop offset="0.2828" stop-color="#D8DCF8"/>
<stop offset="0.4091" stop-color="#DCE1FA"/>
<stop offset="0.4343" stop-color="#DDE2FB"/>
<stop offset="0.4882" stop-color="#E7EAFB"/>
<stop offset="0.5354" stop-color="#F4F5FB"/>
<stop offset="0.598" stop-color="#E0E3F5"/>
<stop offset="0.7222" stop-color="#AFB6E5"/>
<stop offset="0.9091" stop-color="#AFB6E5"/>
<stop offset="0.9551" stop-color="#BAC0EA"/>
<stop offset="1" stop-color="#C9CFF1"/>
</linearGradient>
<linearGradient id="paint21_linear_45_985" x1="74.7951" y1="-27.9783" x2="258.678" y2="340.568" gradientUnits="userSpaceOnUse">
<stop stop-color="#CBD0F2"/>
<stop offset="0.1919" stop-color="#D5D9F7"/>
<stop offset="0.2828" stop-color="#DADEF9"/>
<stop offset="0.4091" stop-color="#DFE3FC"/>
<stop offset="0.4343" stop-color="#E0E4FD"/>
<stop offset="0.4882" stop-color="#EAEDFD"/>
<stop offset="0.5354" stop-color="#F7F8FD"/>
<stop offset="0.5957" stop-color="#E3E6F6"/>
<stop offset="0.7185" stop-color="#B1B8E6"/>
<stop offset="0.7222" stop-color="#AFB6E5"/>
<stop offset="0.9091" stop-color="#AFB6E5"/>
<stop offset="0.9526" stop-color="#BAC0EA"/>
<stop offset="1" stop-color="#CBD0F2"/>
</linearGradient>
<linearGradient id="paint22_linear_45_985" x1="74.7143" y1="-27.9111" x2="258.587" y2="340.613" gradientUnits="userSpaceOnUse">
<stop stop-color="#CCD1F2"/>
<stop offset="0.1919" stop-color="#D6DBF7"/>
<stop offset="0.2828" stop-color="#DBDFFA"/>
<stop offset="0.4091" stop-color="#E1E6FD"/>
<stop offset="0.4343" stop-color="#E2E7FE"/>
<stop offset="0.4849" stop-color="#ECEFFE"/>
<stop offset="0.5354" stop-color="#FBFCFE"/>
<stop offset="0.593" stop-color="#E7EAF8"/>
<stop offset="0.7101" stop-color="#B5BBE7"/>
<stop offset="0.7222" stop-color="#AFB6E5"/>
<stop offset="0.9091" stop-color="#AFB6E5"/>
<stop offset="0.9514" stop-color="#BAC0EA"/>
<stop offset="1" stop-color="#CCD1F2"/>
</linearGradient>
<linearGradient id="paint23_linear_45_985" x1="74.6334" y1="-27.8439" x2="258.495" y2="340.659" gradientUnits="userSpaceOnUse">
<stop stop-color="#CDD2F3"/>
<stop offset="0.4343" stop-color="#E5E9FF"/>
<stop offset="0.4834" stop-color="#EFF2FF"/>
<stop offset="0.5354" stop-color="white"/>
<stop offset="0.5905" stop-color="#EBEDF9"/>
<stop offset="0.7024" stop-color="#B9BFE8"/>
<stop offset="0.7222" stop-color="#AFB6E5"/>
<stop offset="0.9091" stop-color="#AFB6E5"/>
<stop offset="0.9503" stop-color="#BAC0EA"/>
<stop offset="1" stop-color="#CDD2F3"/>
</linearGradient>
</defs>
</svg>
